<svg width="688" height="688" viewBox="0 0 688 688" fill="none" xmlns="http://www.w3.org/2000/svg">
<path d="M644.378 460.733C626.483 450.734 613.64 439.193 616.977 418.916C619.482 403.711 628.947 391.302 635.964 379.037C670.417 318.814 664.928 277.785 638.358 251.288C594.433 207.487 515.838 203.401 441.934 217.975C382.21 229.751 348.696 254.955 325.162 277.813C309.467 293.063 298.218 307.269 286.587 315.743C280.24 320.366 273.785 323.288 266.435 323.738C225.418 326.26 150.328 276.073 56.3379 366.644C25.2089 396.646 9.15223 433.309 8.51403 475.126C7.72024 527.547 29.7017 565.855 36.3378 579.896L666.639 579.823C707.243 496.939 644.378 460.733 644.378 460.733Z" fill="#EBF3FA"/>
<path d="M379.775 579.854H582.348C582.348 579.854 614.522 567.576 612.83 551.701C611.137 535.825 559.065 556.146 559.065 556.146C559.065 556.146 562.875 540.057 549.117 535.825C535.359 531.592 488.367 578.372 470.374 557.838C452.38 537.304 470.688 505.344 431.053 505.131C391.415 504.921 379.775 579.854 379.775 579.854Z" fill="#A8D29F"/>
<path d="M270.061 578.625H434.231C439.378 578.625 443.588 574.415 443.588 569.268V240.962C443.588 235.815 439.378 231.605 434.231 231.605H270.061C264.914 231.605 260.703 235.815 260.703 240.962V569.265C260.703 574.412 264.914 578.625 270.061 578.625Z" fill="#4A75CB"/>
<path d="M252.333 578.626H416.504C421.651 578.626 425.861 574.416 425.861 569.269V240.963C425.861 235.816 421.651 231.605 416.504 231.605H252.333C247.187 231.605 242.976 235.816 242.976 240.963V569.265C242.976 574.412 247.187 578.626 252.333 578.626Z" fill="#AFCDFB"/>
<path d="M307.616 244.741H355.157C356.173 244.741 357.009 245.573 357.009 246.592C357.009 247.608 356.177 248.443 355.157 248.443H307.616C306.6 248.443 305.765 247.612 305.765 246.592C305.765 245.573 306.6 244.741 307.616 244.741Z" fill="#4A75CB"/>
<path d="M363.601 244.741C364.62 244.741 365.452 245.573 365.452 246.592C365.452 247.608 364.62 248.443 363.601 248.443C362.585 248.443 361.753 247.611 361.753 246.592C361.753 245.573 362.585 244.741 363.601 244.741Z" fill="#4A75CB"/>
<path d="M344.083 559.45C344.083 552.862 338.742 547.521 332.154 547.521C325.565 547.521 320.225 552.862 320.225 559.45C320.225 566.039 325.565 571.379 332.154 571.379C338.742 571.379 344.083 566.039 344.083 559.45Z" fill="#4A75CB"/>
<path d="M258.583 539.806H410.637L410.637 259.124H258.583V539.806Z" fill="#D5E7F7"/>
<path d="M258.583 539.827H410.637V507.244H258.583V539.827Z" fill="#D5E7F7"/>
<path d="M548.587 350.539C548.587 350.539 549.927 344.113 553.273 342.64C556.62 341.166 558.63 335.273 559.97 336.88C561.31 338.487 559.567 349.2 557.023 350.539C554.48 351.879 553.273 353.261 553.273 353.261L548.587 350.539Z" fill="#F4AC75"/>
<path d="M491.12 324.958C491.12 324.958 512.46 362.176 520.201 369.025L548.587 347.863C548.587 347.863 552.705 349.127 554.508 353.261C554.508 353.261 537.27 388.381 520.299 389.87C503.328 391.359 479.508 347.777 479.508 347.777L491.12 324.958Z" fill="#E58638"/>
<path d="M425.084 555.251C425.084 555.251 420.15 559.823 421.112 563.071C422.074 566.319 426.525 568.485 427.129 572.457C427.732 576.429 430.135 578.595 432.304 578.595C434.469 578.595 442.629 578.595 442.629 578.595C442.629 578.595 444.223 575.8 440.372 574.959C436.521 574.118 435.07 569.45 435.311 565.119C435.552 560.788 434.949 555.01 434.949 555.01L426.767 553.085L425.084 555.251Z" fill="#233862"/>
<path d="M486.574 578.426C486.72 578.499 486.968 578.566 487.307 578.623H514.541C514.328 577.674 513.493 575.715 510.159 575.175C505.847 574.473 498.37 571.971 496.706 566.453C496.652 566.275 496.604 566.094 496.563 565.91C495.239 560.014 485.612 567.713 485.612 567.713C485.612 567.713 485.583 567.948 485.542 568.348C485.317 570.517 484.745 577.512 486.574 578.426Z" fill="#233862"/>
<path d="M509.012 420.717C509.012 420.717 507.552 438.958 505.831 460.885C503.494 490.671 500.687 527.258 500.407 534.19C499.928 546.227 498.001 565.477 498.001 565.477C498.001 565.477 493.432 570.05 484.284 568.122C484.284 568.122 476.134 540.638 473.803 511.56C473.768 511.084 473.73 510.605 473.695 510.122C471.53 480.52 468.161 418.186 468.161 418.186L509.012 420.717Z" fill="#2B478B"/>
<path d="M509.012 420.717C509.012 420.717 507.552 438.958 505.831 460.886L473.803 511.564C473.768 511.088 473.73 510.609 473.695 510.126C471.53 480.524 468.161 418.19 468.161 418.19L509.012 420.717Z" fill="#233862"/>
<path d="M502.338 422.882C502.338 422.882 475.984 488.944 458.658 519.99C441.331 551.037 435.914 559.702 435.914 559.702C435.914 559.702 425.985 555.73 425.084 553.025C425.084 553.025 431.71 493.088 443.315 478.479C449.872 470.223 457.575 445.448 457.937 436.783C458.299 428.118 460.283 410.972 460.283 410.972L502.338 422.882Z" fill="#2B478B"/>
<path d="M488.821 320.909C489.993 313.991 490.028 309.892 490.028 309.892L476.657 299.115C477.153 313.934 467.659 321.055 467.659 321.055C467.659 321.055 485.478 329.825 495.775 326.577C495.775 326.577 493.241 323.335 488.821 320.909Z" fill="#F4AC75"/>
<path d="M493.075 314.048C493.075 314.048 475.831 313.987 476.035 303.249C476.238 292.511 474.148 285.271 485.166 284.859C496.184 284.443 498.245 288.58 499.048 292.18C499.854 295.781 497.565 313.787 493.075 314.048Z" fill="#F4AC75"/>
<path d="M510.149 422.237C509.838 422.495 509.479 422.65 509.066 422.65C505.199 422.596 493.921 424.746 484.379 423.765C476.334 422.993 469.215 420.609 461.569 417.183C460.553 416.729 458.216 415.481 458.27 414.344C458.305 413.103 458.429 411.299 458.581 409.029C459.121 401.135 460.064 387.562 459.147 371.902C458.981 368.984 458.896 366.095 458.883 363.247C458.804 342.021 463.014 323.354 471.469 317.036C472.193 316.518 476.626 318.687 480.703 320.696C484.468 322.554 488.231 322.757 491.79 322.04L495.346 325.183C499.677 329.206 504.424 334.673 506.485 342.973C508.24 350.038 509.269 362.777 509.838 375.979C510.095 381.961 510.301 387.997 510.355 393.721V393.928C510.406 394.496 510.406 395.115 510.406 395.684C510.615 410.375 510.406 422.028 510.149 422.237Z" fill="#EE9849"/>
<path d="M458.584 409.029C459.124 401.135 460.067 387.562 459.15 371.902C458.984 368.984 458.899 366.095 458.886 363.247C462.41 354.702 465.287 348.504 465.287 348.504H474.168C474.168 348.504 480.677 392.969 458.584 409.029Z" fill="#E58638"/>
<path d="M400.397 448.654L402.762 432.051C403.467 427.105 408.093 423.634 413.04 424.339L426.055 426.193L426.56 422.653C426.795 421.015 428.316 419.875 429.951 420.107L441.261 421.72C442.052 421.831 442.753 422.247 443.236 422.891C443.718 423.533 443.922 424.323 443.807 425.114L443.303 428.654L450.843 429.727C451.142 429.769 451.437 429.829 451.726 429.899L455.863 430.489C460.791 431.191 464.249 435.798 463.547 440.729L461.207 457.141C460.505 462.069 455.898 465.527 450.967 464.825L447.875 464.384C447.233 464.435 446.576 464.416 445.913 464.32L408.109 458.932C403.162 458.224 399.692 453.601 400.397 448.654ZM440.997 423.58L429.688 421.967C429.573 421.951 429.462 421.955 429.351 421.97C428.881 422.047 428.491 422.421 428.421 422.917L427.916 426.457L441.442 428.384L441.947 424.844C442.032 424.234 441.607 423.666 440.997 423.58Z" fill="#233862"/>
<path d="M441.309 411.795L439.623 414.7C439.623 414.7 442.925 421.695 435.092 424.305C435.092 424.305 431.72 425.156 431.434 422.819C431.145 420.482 431.643 421.399 431.155 418.101C430.666 414.802 431.955 411.865 434.387 411.077L436.308 409.239L441.309 411.795Z" fill="#F4AC75"/>
<path d="M436.838 412.588C440.035 413.21 443.502 412.96 443.502 412.96C443.502 412.96 452.996 383.634 454.219 380.954C455.441 378.274 482.417 346.568 482.417 346.568L471.18 318.445C471.18 318.445 442.004 367.18 439.041 374.029C434.145 385.345 432.447 410.718 432.447 410.718C432.447 410.718 434.329 412.099 436.838 412.588Z" fill="#EE9849"/>
<path d="M476.194 302.239C476.194 302.239 477.962 302.242 478.089 299.826C478.213 297.41 478.744 294.311 480.572 295.216C482.401 296.121 482.236 297.68 483.179 296.915C484.125 296.149 484.783 292.355 490.561 293.063C496.34 293.771 498.331 296.165 501.198 295.445C504.065 294.724 504.891 290.714 504.891 290.714C504.891 290.714 503.887 292.025 502.665 292.288C502.665 292.288 508.145 286.957 503.703 281.912C499.261 276.864 493.546 278.705 490.533 278.378C483.897 277.661 479.588 277.334 476.711 281.287C473.835 285.236 472.685 297.369 476.194 302.239Z" fill="#2B478B"/>
<path d="M549.722 344.894L556.641 330.857C556.774 330.584 557.108 330.473 557.378 330.606L561.229 332.505C561.502 332.638 561.613 332.972 561.48 333.245L554.561 347.282C554.428 347.555 554.095 347.666 553.822 347.533L549.97 345.634C549.703 345.498 549.589 345.167 549.722 344.894Z" fill="#2B478B"/>
<path d="M553.311 346.809L560.347 332.534C560.449 332.327 560.703 332.241 560.909 332.343L563.167 333.458C563.373 333.559 563.459 333.813 563.357 334.02L556.321 348.295C556.219 348.501 555.965 348.587 555.759 348.485L553.502 347.374C553.292 347.269 553.206 347.015 553.311 346.809Z" fill="#233862"/>
<path d="M489.774 313.8C489.774 313.8 489.615 315.661 489.32 317.67C489.32 317.67 482.23 314.641 479.734 310.393C479.734 310.393 482.852 312.959 489.774 313.8Z" fill="#C97C47"/>
<path d="M147.964 513.98L153.746 512.058L148.358 495.854L142.577 497.777L147.964 513.98Z" fill="#2B478B"/>
<path d="M147.945 513.994L149.569 513.454L144.182 497.251L142.558 497.791L147.945 513.994Z" fill="#233862"/>
<path d="M91.4372 578.241C91.4372 578.241 78.7811 579.327 78.2413 576.927C78.1683 576.609 76.3902 564.626 76.3902 564.626L74.4851 551.269C74.3264 550.16 75.4535 549.275 76.4727 549.738C77.5205 550.214 78.6795 551.202 79.3494 553.228C80.7941 557.584 85.0456 564.601 91.3578 566.43C98.0002 568.354 91.4372 578.241 91.4372 578.241Z" fill="#163560"/>
<path d="M220.021 554.926C220.021 554.926 171.012 517.479 157.07 517.069C143.128 516.659 97.9048 578.559 97.9048 578.559H114.841C114.841 578.559 144.681 562.677 155.178 547.585C156.235 546.067 158.493 546.137 159.474 547.703C164.9 556.374 179.087 577.641 188.26 578.559C198.106 579.543 220.021 554.926 220.021 554.926Z" fill="#233862"/>
<path d="M215.328 453.03C215.328 453.03 215.636 455.484 216.036 458.513C216.566 462.447 217.274 467.334 217.738 468.861L232.483 472.598L233.566 461.876C233.566 461.876 229.873 454.468 229.895 443.99L215.328 453.03Z" fill="#FFB27D"/>
<path d="M242.936 557.552L198.973 563.502C198.973 563.502 198.855 562.642 198.655 561.2C198.595 560.756 204.12 561.321 204.107 560.835C204.008 556.555 201.859 556.085 202.583 550.411C203.062 546.668 201.392 536.631 200.249 533.431C198.931 529.738 198.322 522.724 198.055 516.059C197.718 507.712 197.912 499.911 197.909 499.853C197.48 494.535 198.744 488.633 200.862 483.019C205.044 471.95 212.835 465.683 216.499 461.965C216.499 461.965 220.973 463.07 232.597 459.58C232.943 459.475 233.94 460.939 234.382 461.793C234.382 461.793 239.897 468.251 241.964 483.775C243.815 497.672 242.936 557.552 242.936 557.552Z" fill="#C65447"/>
<path d="M231.102 490.055C231.02 492.005 213.775 546.89 215.887 550.938C226.111 570.526 204.079 562.461 202.678 557.409C203.158 553.666 201.392 536.634 200.249 533.431C198.932 529.738 198.322 522.724 198.055 516.059C198.487 513.627 199.497 511.116 200.862 508.69C207.27 507.687 231.744 474.945 231.102 490.055Z" fill="#B23F36"/>
<path d="M243.012 551.301C243.012 551.301 242.986 554.736 242.964 559.835C242.929 567.98 241.354 578.559 233.385 578.559C220.427 578.559 90.7702 578.559 90.7702 578.559C90.7702 578.559 86.833 575.898 86.5568 570.834C86.2647 565.462 87.9602 563.557 87.9602 563.557C87.9602 563.557 139.013 561.779 149.377 558.305C201.335 540.899 243.012 551.301 243.012 551.301Z" fill="#2B478B"/>
<path d="M215.328 453.03C215.328 453.03 215.636 455.484 216.036 458.514C229.66 454.541 229.898 443.987 229.898 443.987L215.328 453.03Z" fill="#E8945B"/>
<path d="M213.184 453.817C213.184 453.817 229.743 454.306 229.892 443.99C230.038 433.674 232.276 426.787 221.71 426.038C211.143 425.288 209.031 429.197 208.145 432.626C207.256 436.058 208.879 453.423 213.184 453.817Z" fill="#FFB27D"/>
<path d="M230.188 448.029C230.188 448.029 228.438 447.737 228.721 445.327C229.004 442.917 229 439.767 227.041 440.355C225.082 440.942 224.984 442.511 224.181 441.596C223.374 440.679 223.361 436.821 217.532 436.551C211.702 436.281 209.33 438.31 206.622 437.119C203.911 435.929 203.768 431.823 203.768 431.823C203.768 431.823 204.539 433.29 205.704 433.754C205.704 433.754 201.18 427.568 206.419 423.323C211.655 419.081 216.995 421.856 220.028 422.04C226.705 422.444 231.02 422.844 233.201 427.232C235.373 431.623 234.471 443.806 230.188 448.029Z" fill="#233862"/>
<path d="M210.692 448.683C210.692 448.683 210.584 449.963 213.181 450.401C213.181 450.401 215.474 450.572 215.67 449.426C215.667 449.426 213.441 449.404 210.692 448.683Z" fill="white"/>
<path d="M160.17 513.697L157.474 513.608C157.474 513.608 151.975 508.512 150.733 512.021C150.733 512.021 143.621 509.188 143.313 511.144C143.113 512.433 144.9 513.903 147.882 516.078C150.136 517.726 154.969 519.165 156.861 518.33L158.96 517.387L160.17 513.697Z" fill="#E49963"/>
<path d="M227.117 462.06C227.117 462.06 216.598 466.502 211.133 475.996C207.491 482.321 201.224 493.084 197.445 499.562C195.432 503.01 192.073 505.461 188.171 506.318L175.403 509.128L157.47 513.612C157.47 513.612 157.045 514.37 157.15 515.615C157.296 517.377 158.451 517.733 158.451 517.733C158.451 517.733 175.194 521.762 181.154 522.21C195.839 523.315 202.799 521.391 204.955 520.597C205.437 520.419 205.866 520.162 206.266 519.841C208.514 518.012 217.144 510.786 221.684 503.88C226.104 497.161 238.287 479.701 238.287 479.701L227.117 462.06Z" fill="#C65447"/>
<path d="M197.827 498.91L206.723 483.622L197.973 494.77C197.973 494.77 197.75 496.618 197.827 498.91Z" fill="#B23F36"/>
<path d="M374.253 156.946C374.253 156.946 370.507 154.383 370.402 157.219C370.297 160.054 372.11 164.477 373.145 162.21C374.183 159.943 374.656 159.089 374.253 156.946Z" fill="#E49963"/>
<path d="M677.44 581.347H10.5604C9.79724 581.347 9.17334 580.702 9.17334 579.913C9.17334 579.125 9.79724 578.48 10.5604 578.48H677.44C678.203 578.48 678.827 579.125 678.827 579.913C678.827 580.702 678.203 581.347 677.44 581.347Z" fill="#2E3552"/>
<path d="M387.906 312.594H279.288C274.744 312.594 271.026 316.312 271.026 320.855V333.937C271.026 336.014 271.804 337.915 273.08 339.37L271.026 348.762L282.872 342.199H387.903C392.446 342.199 396.164 338.481 396.164 333.937V320.855C396.164 316.309 392.446 312.594 387.906 312.594Z" fill="#A8D29F"/>
<path d="M278.668 322.561H388.538C389.274 322.561 389.877 321.957 389.877 321.218C389.877 320.481 389.274 319.875 388.538 319.875H278.668C277.932 319.875 277.325 320.478 277.325 321.218C277.328 321.957 277.932 322.561 278.668 322.561Z" fill="white"/>
<path d="M388.537 325.749H278.668C277.931 325.749 277.325 326.352 277.325 327.092C277.325 327.828 277.928 328.435 278.668 328.435H388.537C389.274 328.435 389.877 327.831 389.877 327.092C389.877 326.352 389.274 325.749 388.537 325.749Z" fill="white"/>
<path d="M388.537 331.4H278.668C277.931 331.4 277.325 332.004 277.325 332.743C277.325 333.48 277.928 334.087 278.668 334.087H388.537C389.274 334.087 389.877 333.483 389.877 332.743C389.877 332.004 389.274 331.4 388.537 331.4Z" fill="white"/>
<path d="M279.288 371.086H387.906C392.45 371.086 396.168 374.804 396.168 379.348V392.429C396.168 394.506 395.39 396.408 394.113 397.862L396.168 407.254L384.321 400.691H279.288C274.744 400.691 271.026 396.973 271.026 392.429V379.348C271.026 374.804 274.744 371.086 279.288 371.086Z" fill="#F1A34F"/>
<path d="M388.525 381.053H278.655C277.919 381.053 277.312 380.45 277.312 379.71C277.312 378.973 277.915 378.367 278.655 378.367H388.525C389.261 378.367 389.864 378.97 389.864 379.71C389.864 380.45 389.261 381.053 388.525 381.053Z" fill="white"/>
<path d="M278.656 384.241H388.525C389.261 384.241 389.865 384.844 389.865 385.584C389.865 386.32 389.261 386.927 388.525 386.927H278.656C277.919 386.927 277.312 386.324 277.312 385.584C277.312 384.844 277.916 384.241 278.656 384.241Z" fill="white"/>
<path d="M278.656 389.893H388.525C389.261 389.893 389.865 390.496 389.865 391.236C389.865 391.972 389.261 392.579 388.525 392.579H278.656C277.919 392.579 277.312 391.975 277.312 391.236C277.312 390.496 277.916 389.893 278.656 389.893Z" fill="white"/>
<path d="M387.906 429.579H279.288C274.744 429.579 271.026 433.297 271.026 437.84V450.922C271.026 452.998 271.804 454.9 273.08 456.355L271.026 465.747L282.872 459.184H387.903C392.446 459.184 396.164 455.465 396.164 450.922V437.84C396.164 433.297 392.446 429.579 387.906 429.579Z" fill="#699DEE"/>
<path d="M278.668 439.545H388.538C389.274 439.545 389.877 438.942 389.877 438.202C389.877 437.465 389.274 436.859 388.538 436.859H278.668C277.932 436.859 277.325 437.462 277.325 438.202C277.328 438.942 277.932 439.545 278.668 439.545Z" fill="white"/>
<path d="M388.537 442.732H278.668C277.931 442.732 277.325 443.336 277.325 444.075C277.325 444.812 277.928 445.419 278.668 445.419H388.537C389.274 445.419 389.877 444.815 389.877 444.075C389.877 443.339 389.274 442.732 388.537 442.732Z" fill="white"/>
<path d="M388.537 448.385H278.668C277.931 448.385 277.325 448.988 277.325 449.728C277.325 450.468 277.928 451.071 278.668 451.071H388.537C389.274 451.071 389.877 450.468 389.877 449.728C389.877 448.991 389.274 448.385 388.537 448.385Z" fill="white"/>
<path d="M279.288 488.071H387.906C392.45 488.071 396.168 491.789 396.168 496.333V509.415C396.168 511.491 395.39 513.393 394.113 514.847L396.168 524.239L384.321 517.676H279.288C274.744 517.676 271.026 513.958 271.026 509.415V496.333C271.026 491.789 274.744 488.071 279.288 488.071Z" fill="#A8D29F"/>
<path d="M388.525 498.037H278.655C277.919 498.037 277.312 497.434 277.312 496.694C277.312 495.958 277.915 495.351 278.655 495.351H388.525C389.261 495.351 389.864 495.954 389.864 496.694C389.864 497.434 389.261 498.037 388.525 498.037Z" fill="white"/>
<path d="M278.656 501.229H388.525C389.261 501.229 389.865 501.832 389.865 502.572C389.865 503.308 389.261 503.915 388.525 503.915H278.656C277.919 503.915 277.312 503.311 277.312 502.572C277.312 501.832 277.916 501.229 278.656 501.229Z" fill="white"/>
<path d="M278.656 506.88H388.525C389.261 506.88 389.865 507.483 389.865 508.223C389.865 508.963 389.261 509.566 388.525 509.566H278.656C277.919 509.566 277.312 508.963 277.312 508.223C277.312 507.483 277.916 506.88 278.656 506.88Z" fill="white"/>
<path d="M298.146 297.748C304.35 291.543 304.35 281.483 298.146 275.279C291.941 269.074 281.881 269.074 275.676 275.279C269.472 281.483 269.472 291.543 275.676 297.748C281.881 303.953 291.941 303.953 298.146 297.748Z" fill="#699DEE"/>
<path d="M391.087 301.767H312.474C309.671 301.767 307.394 299.493 307.394 296.69C307.394 293.886 309.667 291.613 312.474 291.613H391.087C393.891 291.613 396.168 293.886 396.168 296.69C396.164 299.493 393.891 301.767 391.087 301.767Z" fill="#699DEE"/>
<path d="M354.98 280.824H312.474C309.671 280.824 307.394 278.55 307.394 275.746C307.394 272.943 309.667 270.669 312.474 270.669H354.98C357.783 270.669 360.057 272.943 360.057 275.746C360.06 278.55 357.783 280.824 354.98 280.824Z" fill="#699DEE"/>
<path d="M320.596 284.326C320.532 285.24 320.938 285.9 321.675 286.377C321.678 286.38 321.681 286.383 321.688 286.383C323.05 287.263 325.53 287.517 328.241 287.59C328.587 287.599 328.902 287.612 329.178 287.631C329.251 287.637 329.324 287.64 329.394 287.65C329.451 287.653 329.508 287.659 329.562 287.663C332.236 287.917 331.896 288.698 336.951 289.495C342.714 290.4 344.977 288.777 345.378 287.993C345.714 287.329 343.282 286.373 340.564 285.288C340.434 285.237 340.3 285.183 340.167 285.129C339.805 284.986 339.443 284.837 339.081 284.691C335.849 283.357 332.683 281.82 332.105 278.41C331.496 274.797 334.788 265.062 334.788 265.062L325.669 263.42C325.669 263.42 324.05 273.727 323.244 276.915C322.812 278.617 321.932 279.934 321.37 281.379C321.329 281.481 321.291 281.582 321.256 281.684C320.954 282.538 320.656 283.408 320.596 284.326Z" fill="#E49963"/>
<path d="M320.596 284.326C320.532 285.24 320.938 285.901 321.675 286.377C321.678 286.38 321.681 286.383 321.688 286.383C323.145 287.186 325.584 287.463 328.238 287.574C328.584 287.59 328.895 287.609 329.178 287.634C329.251 287.641 329.324 287.644 329.394 287.653C329.451 287.656 329.508 287.663 329.562 287.666C332.236 287.92 331.896 288.701 336.951 289.498C342.714 290.403 344.977 288.78 345.378 287.996C345.714 287.333 343.282 286.377 340.564 285.291C339.764 285.539 335.954 286.564 331.613 285.421C327.797 284.418 324.088 282.224 321.37 281.382C321.329 281.484 321.291 281.586 321.256 281.687C320.954 282.538 320.656 283.408 320.596 284.326Z" fill="#233862"/>
<path d="M380.946 278.867C381.457 281.426 385.105 280.998 389.179 280.004C393.253 279.007 392.284 280.191 398.085 279.55C403.883 278.908 405.642 276.746 405.817 275.883C405.976 275.117 403.108 274.847 400.035 274.495C399.647 274.451 399.26 274.403 398.873 274.355C395.402 273.92 392.862 271.682 389.709 269.843C386.725 268.1 382.27 261.004 382.27 261.004L374.316 261.633C374.316 261.633 378.488 267.97 380.105 270.726C381.054 272.349 381.003 274.492 380.886 276.146C380.825 277.048 380.765 277.965 380.946 278.867Z" fill="#E49963"/>
<path d="M389.179 280.004C393.253 279.007 392.284 280.192 398.085 279.55C403.883 278.909 405.642 276.747 405.817 275.883C405.975 275.118 403.108 274.848 400.035 274.496L400.006 274.556C400.006 274.556 396.529 277.023 391.7 277.137C387.766 277.233 383.6 276.105 380.882 276.15C380.822 277.048 380.762 277.969 380.943 278.871C381.46 281.427 385.105 281.001 389.179 280.004Z" fill="#233862"/>
<path d="M363.251 162.06C363.251 162.06 365.146 157.418 367.229 157.228C369.312 157.037 375.945 155.996 376.418 156.942C376.891 157.888 376.418 161.301 374.996 162.53C373.573 163.762 364.762 165.753 364.762 165.753L363.251 162.06Z" fill="#E49963"/>
<path d="M350.471 228.018L333.331 274.143C333.331 274.143 330.699 274.397 328.175 273.67C325.854 273 323.19 271.241 323.19 271.241C323.19 271.241 327.441 226.951 335.236 217.74C343.031 208.529 350.471 228.018 350.471 228.018Z" fill="#233862"/>
<path d="M282.678 209.357C282.678 209.357 331.928 192.704 342.911 196.247C353.894 199.791 386.874 265.405 386.874 265.405C386.874 265.405 386.131 266.395 384.099 267.157C382.209 267.866 377.634 267.821 377.634 267.821C377.634 267.821 347.87 242.309 344.33 234.87C340.787 227.43 339.37 220.343 335.827 221.051C332.284 221.759 290.121 238.413 280.554 228.491C270.988 218.568 273.49 205.68 273.49 205.68L282.678 209.357Z" fill="#2B478B"/>
<path d="M312.775 131.887C313.563 130.265 314.442 127.378 314.871 122.238C314.804 122.749 313.918 129.233 311.426 132.903C301.183 139.628 281.551 162.083 281.941 166.337C281.941 166.337 275.026 154.608 274.908 154.538C274.908 154.538 262.154 138.317 277.271 129.026C284.955 124.305 284.917 118.243 284.596 112.979C284.272 107.715 286.691 85.0506 302.084 90.9817C302.084 90.9817 304.555 89.8831 305.66 90.0482C305.66 90.0482 304.755 90.2197 304.298 90.696C306.082 90.5912 308.632 90.7214 310.762 91.9311C316.398 95.1348 321.446 123.905 312.775 131.887Z" fill="#163560"/>
<path d="M310.82 133.236C310.871 133.259 305.876 135.853 302.117 134.827C298.583 133.862 296.271 129.28 296.319 129.271C297.818 128.972 298.249 126.915 298.218 118.075L298.894 118.209L310.274 120.463C310.274 120.463 310.013 124.044 310.007 127.42C309.997 130.249 310.172 132.935 310.82 133.236Z" fill="#E49963"/>
<path d="M310.273 120.46C310.273 120.46 310.013 124.041 310.007 127.416C303.637 127.239 300.272 121.428 298.894 118.208L310.273 120.46Z" fill="#D68D5D"/>
<path d="M297.716 116.967C297.716 116.967 294.379 111.693 293.578 107.185C293.007 103.965 294.645 92.0329 306.638 93.7507C306.638 93.7507 310.121 94.0936 313.394 96.3035C315.998 98.0625 319.754 101.857 315.554 112.271L314.461 115.789L297.716 116.967Z" fill="#163560"/>
<path d="M312.401 123.654C312.401 123.654 297.335 123.902 297.322 114.516C297.313 105.13 295.36 98.8402 304.98 98.2845C314.601 97.7289 316.474 101.307 317.24 104.441C318.002 107.575 316.319 123.346 312.401 123.654Z" fill="#E49963"/>
<path d="M311.842 98.0563C311.842 98.0563 307.718 109.068 301.387 110.697C295.055 112.325 292.309 110.63 292.309 110.63C292.309 110.63 292.918 106.772 293.928 100.038C293.928 100.038 308.731 92.8173 311.842 98.0563Z" fill="#163560"/>
<path d="M310.82 98.951C310.82 98.951 313.899 101.409 314.652 103.799C315.404 106.19 315.741 111.109 317.176 110.944C317.176 110.944 320.285 103.46 316.792 99.2273C313.087 94.7345 310.82 98.951 310.82 98.951Z" fill="#163560"/>
<path d="M277.268 173.77C275.782 167.538 280.837 155.447 286.114 145.436C290.902 136.361 295.871 129.001 296.319 129.268C308.947 136.764 310.09 130.531 310.09 130.531C310.09 130.531 321.561 132.056 324.81 137.647C329.302 145.378 334.195 168.579 339.002 168.236C341.209 168.077 363.413 159.733 363.413 159.733C363.413 159.733 367.112 163.197 366.404 167.452C366.404 167.452 355.44 174.793 346.169 179.479C341.266 181.956 336.834 183.69 334.751 183.201C330.528 182.207 323.93 172.415 320.364 166.652C320.358 166.639 320.349 166.626 320.342 166.614C315.792 192.367 321.977 198.235 318.847 200.95C315.538 203.817 310.814 199.584 300.421 204.09C293.604 207.046 284.142 211.323 277.776 212.066C274.436 212.46 271.944 211.875 271.131 209.621C268.765 203.061 280.104 185.652 277.268 173.77Z" fill="#699DEE"/>
<path d="M309.051 117.964C309.051 117.964 309.33 119.158 312.299 118.974C312.299 118.974 314.788 118.821 314.712 117.51C314.712 117.507 312.296 116.576 309.051 117.964Z" fill="white"/>
<path d="M271.127 209.614C271.94 211.869 274.432 212.45 277.773 212.059C282.18 210.138 301.221 202.762 301.008 197.762C300.691 190.36 297.347 190.125 299.71 180.991C301.605 173.656 284.012 160.019 281.205 157.053C275.928 167.064 275.782 167.538 277.268 173.77C280.103 185.652 268.765 203.061 271.127 209.614Z" fill="#3B76CA"/>
<path d="M320.361 166.648C323.927 172.411 330.525 182.203 334.748 183.197C336.831 183.689 341.263 181.955 346.165 179.476C342.587 180.4 339.11 180.374 335.732 180.047C332.071 179.692 331.007 175.205 325.219 168.474C321.466 164.108 320.545 165.207 320.361 166.648Z" fill="#3B76CA"/>
<path d="M302.719 180.816C302.719 180.816 305.907 178.336 308.92 178.927C311.933 179.517 313.41 181.584 313.289 182.531C313.172 183.477 311.578 186.134 309.273 186.369C306.971 186.604 300.414 184.953 300.414 184.953L302.719 180.816Z" fill="#E49963"/>
<path d="M296.319 129.268C296.319 129.268 284.037 130.023 279.789 135.954C273.804 144.302 259.443 181.426 266.247 186.172C273.909 191.516 303.609 186.014 303.609 186.014C303.609 186.014 304.514 181.781 303.253 179.733C301.993 177.685 281.523 174.38 280.576 173.434C279.63 172.488 292.388 155.008 292.388 152.173C292.388 149.338 296.319 129.268 296.319 129.268Z" fill="#699DEE"/>
<path d="M364.473 146.794L372.89 144.54C373.179 144.464 373.433 144.53 373.611 144.686L373.62 144.683L374.798 145.394L373.858 167.134L365.771 169.3L365.174 169.252L363.812 168.417V168.411C363.622 168.284 363.501 168.071 363.501 167.791V148.023C363.504 147.49 363.939 146.937 364.473 146.794Z" fill="#233862"/>
<path d="M365.775 169.299L374.192 167.045C374.725 166.902 375.16 166.35 375.16 165.816V146.048C375.16 145.515 374.725 145.197 374.192 145.34L365.775 147.594C365.241 147.737 364.806 148.29 364.806 148.823V168.591C364.806 169.122 365.241 169.442 365.775 169.299Z" fill="#2B478B"/>
<path d="M371.982 147.921L373.944 147.334C374.236 147.245 374.471 146.934 374.462 146.635C374.452 146.34 374.208 146.168 373.913 146.257L371.95 146.845C371.658 146.934 371.423 147.245 371.433 147.543C371.442 147.839 371.69 148.007 371.982 147.921Z" fill="#233862"/>
<path d="M374.291 161.991C374.342 162.435 374.869 162.661 375.218 162.381C375.936 161.81 376.863 160.559 376.863 157.93C376.863 153.761 373.145 152.164 374.291 161.991Z" fill="#E49963"/>
</svg>
