<svg width="665" height="521" viewBox="0 0 665 521" fill="none" xmlns="http://www.w3.org/2000/svg">
<path fill-rule="evenodd" clip-rule="evenodd" d="M16.7441 518.64H625.818C672.873 444.517 679.933 278.905 628.718 203.976C581.525 134.935 494.6 63.9141 385.065 43.2116C275.528 22.5092 179.566 22.5332 138.065 49.8826C106.316 70.8059 118.044 99.4105 128.409 124.692C129.132 126.454 129.848 128.2 130.542 129.926C144.76 165.286 146.855 193.362 88.3647 244.731C21.5941 303.371 3.5213 388.449 0.17602 445.152C-0.97942 464.718 5.28699 498.617 16.7441 518.64Z" fill="#A2ADDA"/>
<path d="M432.906 144.453H199.133V276.06H432.906V144.453Z" fill="#AED3FF"/>
<path d="M440.51 144.453H206.737V276.06H440.51V144.453Z" fill="#D2E4FF"/>
<path d="M300.55 237.175C317.057 220.668 317.057 193.905 300.55 177.398C284.043 160.891 257.28 160.891 240.773 177.398C224.266 193.905 224.266 220.668 240.773 237.175C257.28 253.682 284.043 253.682 300.55 237.175Z" fill="#F3F9FF"/>
<path d="M414.23 183.672H344.207C341.67 183.672 339.594 185.747 339.594 188.284C339.594 190.822 341.67 192.897 344.207 192.897H414.23C416.767 192.897 418.842 190.822 418.842 188.284C418.842 185.747 416.767 183.672 414.23 183.672Z" fill="#F3F9FF"/>
<path d="M414.23 202.672H344.207C341.67 202.672 339.594 204.748 339.594 207.285C339.594 209.822 341.67 211.898 344.207 211.898H414.23C416.767 211.898 418.842 209.822 418.842 207.285C418.842 204.748 416.767 202.672 414.23 202.672Z" fill="#F3F9FF"/>
<path d="M414.23 221.669H344.207C341.67 221.669 339.594 223.744 339.594 226.281C339.594 228.819 341.67 230.894 344.207 230.894H414.23C416.767 230.894 418.842 228.819 418.842 226.281C418.842 223.748 416.767 221.669 414.23 221.669Z" fill="#F3F9FF"/>
<path d="M231.97 206.672H270.671V167.971C249.298 167.971 231.97 185.298 231.97 206.672Z" fill="#A8D29F"/>
<path d="M309.372 207.916H270.671H231.97C231.97 229.29 249.298 246.617 270.671 246.617C292.045 246.617 309.372 229.29 309.372 207.916Z" fill="#F1A34F"/>
<path d="M263.988 186.774H242.984C241.789 186.774 240.811 187.753 240.811 188.948C240.811 190.143 241.789 191.122 242.984 191.122H263.988C265.183 191.122 266.162 190.143 266.162 188.948C266.162 187.75 265.183 186.774 263.988 186.774Z" fill="#82B378"/>
<path d="M247.766 194.681H242.983C241.788 194.681 240.81 195.659 240.81 196.854C240.81 198.049 241.788 199.028 242.983 199.028H247.766C248.961 199.028 249.94 198.049 249.94 196.854C249.94 195.659 248.961 194.681 247.766 194.681Z" fill="#82B378"/>
<path d="M295.168 217.377H274.164C272.969 217.377 271.99 218.356 271.99 219.551C271.99 220.746 272.969 221.724 274.164 221.724H295.168C296.363 221.724 297.342 220.746 297.342 219.551C297.342 218.356 296.363 217.377 295.168 217.377Z" fill="#DD8936"/>
<path d="M278.95 225.282H274.167C272.973 225.282 271.994 226.261 271.994 227.456C271.994 228.651 272.973 229.63 274.167 229.63H278.95C280.145 229.63 281.124 228.651 281.124 227.456C281.121 226.261 280.145 225.282 278.95 225.282Z" fill="#DD8936"/>
<path d="M182.669 299.629V434.225H416.443V299.629H182.669Z" fill="#AED3FF"/>
<path d="M190.271 299.629V434.224H424.045V299.629H190.271Z" fill="#D2E4FF"/>
<path d="M296.46 363.973C297.139 340.638 278.773 321.17 255.437 320.491C232.102 319.812 212.634 338.178 211.955 361.513C211.276 384.849 229.642 404.316 252.977 404.996C276.313 405.675 295.78 387.309 296.46 363.973Z" fill="#F3F9FF"/>
<path d="M327.741 348.387H397.764C400.301 348.387 402.376 346.312 402.376 343.775C402.376 341.238 400.301 339.162 397.764 339.162H327.741C325.204 339.162 323.128 341.238 323.128 343.775C323.125 346.309 325.204 348.387 327.741 348.387Z" fill="#F3F9FF"/>
<path d="M397.764 358.156H327.741C325.204 358.156 323.128 360.232 323.128 362.769C323.128 365.306 325.204 367.381 327.741 367.381H397.764C400.301 367.381 402.376 365.306 402.376 362.769C402.376 360.235 400.301 358.156 397.764 358.156Z" fill="#F3F9FF"/>
<path d="M397.764 377.156H327.741C325.204 377.156 323.128 379.231 323.128 381.768C323.128 384.305 325.204 386.381 327.741 386.381H397.764C400.301 386.381 402.376 384.305 402.376 381.768C402.376 379.231 400.301 377.156 397.764 377.156Z" fill="#F3F9FF"/>
<path d="M254.206 363.455L215.508 362.964C215.505 363.128 215.505 363.295 215.505 363.455C215.505 384.829 232.832 402.156 254.206 402.156C261.846 402.156 268.97 399.94 274.97 396.116L254.206 363.455Z" fill="#F1A34F"/>
<path d="M255.63 375.643H234.626C233.431 375.643 232.452 376.622 232.452 377.817C232.452 379.012 233.431 379.99 234.626 379.99H255.63C256.825 379.99 257.803 379.012 257.803 377.817C257.803 376.622 256.825 375.643 255.63 375.643Z" fill="#DD8936"/>
<path d="M239.409 383.549H234.626C233.431 383.549 232.452 384.528 232.452 385.723C232.452 386.918 233.431 387.897 234.626 387.897H239.409C240.604 387.897 241.583 386.918 241.583 385.723C241.583 384.528 240.604 383.549 239.409 383.549Z" fill="#DD8936"/>
<path d="M416.446 0.919922H182.669V122.886H416.446V0.919922Z" fill="#AED3FF"/>
<path d="M424.045 0.919922H190.271V122.886H424.045V0.919922Z" fill="#D2E4FF"/>
<path d="M284.086 93.5853C300.592 77.0783 300.592 50.3152 284.085 33.8082C267.579 17.3013 240.815 17.3012 224.308 33.8082C207.801 50.3152 207.801 77.0783 224.308 93.5853C240.815 110.092 267.579 110.092 284.086 93.5853Z" fill="#F3F9FF"/>
<path d="M254.206 24.998C232.832 24.998 215.505 42.3221 215.505 63.6957C215.505 78.3354 223.64 91.0796 235.631 97.6531C241.831 86.1692 254.206 63.6957 254.206 63.6957L272.528 97.7873C284.66 91.2531 292.9 78.4401 292.9 63.6957C292.903 42.3221 275.579 24.998 254.206 24.998Z" fill="#A8D29F"/>
<path d="M397.764 40.083H327.741C325.204 40.083 323.128 42.1585 323.128 44.6955C323.128 47.2326 325.204 49.3081 327.741 49.3081H397.764C400.301 49.3081 402.376 47.2326 402.376 44.6955C402.376 42.1585 400.301 40.083 397.764 40.083Z" fill="#F3F9FF"/>
<path d="M397.764 59.0825H327.741C325.204 59.0825 323.128 61.158 323.128 63.6951C323.128 66.2321 325.204 68.3076 327.741 68.3076H397.764C400.301 68.3076 402.376 66.2321 402.376 63.6951C402.376 61.158 400.301 59.0825 397.764 59.0825Z" fill="#F3F9FF"/>
<path d="M397.764 78.0791H327.741C325.204 78.0791 323.128 80.1546 323.128 82.6916C323.128 85.2287 325.204 87.3042 327.741 87.3042H397.764C400.301 87.3042 402.376 85.2287 402.376 82.6916C402.376 80.1546 400.301 78.0791 397.764 78.0791Z" fill="#F3F9FF"/>
<path d="M255.63 45.2124H234.626C233.431 45.2124 232.452 46.1912 232.452 47.3861C232.452 48.581 233.431 49.5598 234.626 49.5598H255.63C256.825 49.5598 257.803 48.581 257.803 47.3861C257.803 46.1912 256.825 45.2124 255.63 45.2124Z" fill="#82B378"/>
<path d="M239.409 53.1182H234.626C233.431 53.1182 232.452 54.097 232.452 55.2919C232.452 56.4867 233.431 57.4655 234.626 57.4655H239.409C240.604 57.4655 241.583 56.4867 241.583 55.2919C241.583 54.097 240.607 53.1182 239.409 53.1182Z" fill="#82B378"/>
<path d="M484.002 211.552C484.002 211.552 511.271 239.702 512.581 250.319C513.89 260.935 499.607 277.539 499.607 277.539L484.002 211.552Z" fill="#E58638"/>
<path d="M472.342 503.583C472.342 503.583 471.416 518.547 468.519 518.763C468.132 518.793 453.833 518.793 453.833 518.793L435.579 518.688C435.579 518.688 435.7 514.288 441.036 513.358C446.373 512.429 455.303 508.677 458.537 501.626C461.935 494.208 472.342 503.583 472.342 503.583Z" fill="#163560"/>
<path d="M513.001 503.583C513.001 503.583 512.074 518.547 509.177 518.763C508.791 518.793 494.492 518.793 494.492 518.793L476.182 518.727C476.182 518.727 476.356 514.288 481.692 513.358C487.028 512.429 495.958 508.677 499.192 501.626C502.594 494.208 513.001 503.583 513.001 503.583Z" fill="#163560"/>
<path d="M452.127 343.1C452.127 343.1 456.9 373.633 474.712 427.838C492.523 482.042 494.949 505.514 494.949 505.514C494.949 505.514 499.768 506.212 504.855 506.212C508.073 506.212 514.054 504.977 514.054 504.977C514.054 504.977 514.218 445.738 506.008 418.481C497.797 391.225 504.237 320.217 504.237 320.217L452.127 343.1Z" fill="#163560"/>
<path d="M442.83 321.894C442.83 321.894 442.152 367.908 450.114 424.404C458.075 480.901 455.378 504.883 455.378 504.883C455.378 504.883 461.931 506.058 464.233 506.134C466.698 506.216 474.443 505.518 474.443 505.518C474.443 505.518 485.839 448.999 482.572 420.721C479.305 392.444 498.177 323.688 498.177 323.688L442.83 321.894Z" fill="#1C468A"/>
<path d="M479.74 214.214L470.748 220.876L457.751 218.139C457.932 216.954 458.789 212.041 459.572 207.592C459.617 207.33 459.667 207.068 459.709 206.809C460.377 203.025 460.956 199.771 460.956 199.771L473.095 193.721L477.622 191.466C477.609 191.544 477.272 195.669 477.223 196.268C476.375 206.953 479.74 214.214 479.74 214.214Z" fill="#FFB27D"/>
<path d="M458.661 210.852C458.946 210.731 476.342 205.597 478.231 206.223C480.12 206.848 481.24 210.505 481.24 210.505L452.785 216.937C452.785 216.937 455.024 212.384 458.661 210.852Z" fill="#E58638"/>
<path d="M505.504 327.573C502.555 341.024 453.483 342.619 440.833 330.408C439.393 329.017 439.324 322.541 439.868 313.811C440.928 296.752 444.336 271.093 444.47 257.985C444.536 251.654 445.407 245.179 446.566 239.3C449.031 226.768 452.789 216.934 452.789 216.934C452.789 216.934 476.758 209.185 481.243 210.505C502.846 216.852 508.454 314.122 505.504 327.573Z" fill="#EE9849"/>
<path d="M439.864 313.811C440.924 296.752 444.332 271.093 444.467 257.985C444.532 251.654 445.403 245.179 446.562 239.299L460.979 236.756C460.979 236.756 475.075 294.336 439.864 313.811Z" fill="#E58638"/>
<path d="M447.672 290.034C447.672 290.034 448.654 292.385 446.591 293.959C444.529 295.537 443.19 298.091 443.662 299.96C444.133 301.829 448.66 304.874 450.232 304.383C451.8 303.892 454.995 301.433 454.651 300.448C454.307 299.462 456.799 291.802 452.975 288.856C449.148 285.906 447.672 290.034 447.672 290.034Z" fill="#FFB27D"/>
<path d="M463.794 213.484C463.794 213.484 449.731 216.116 438.529 232.628C427.323 249.14 419.951 261.416 422.016 267.368C424.082 273.319 442.896 293.96 446.14 293.96C449.384 293.96 454.618 291.599 454.913 286.293C454.913 286.293 441.668 266.441 444.277 263.466C445.393 262.196 461.473 249.14 463.771 255.036C467.566 264.795 463.794 213.484 463.794 213.484Z" fill="#EE9849"/>
<path d="M476.313 196.458C473.648 201.558 463.712 205.971 459.571 207.592C459.617 207.33 459.666 207.068 459.709 206.809C460.377 203.025 460.956 199.771 460.956 199.771L473.095 193.721C475.779 193.679 477.413 194.359 476.313 196.458Z" fill="#FCA56B"/>
<path d="M457.045 200.048C457.045 200.048 475.014 205.652 478.333 194.407C481.653 183.162 486.206 176.314 474.873 172.258C463.54 168.202 460.034 171.832 458.014 175.316C455.994 178.802 452.455 198.3 457.045 200.048Z" fill="#FFB27D"/>
<path d="M458.721 174.236C458.721 174.236 459.867 187.321 462.574 186.754C465.281 186.185 467.733 185.766 467.337 189.71C466.941 193.655 463.189 198.209 471.527 198.906C479.868 199.603 491.857 178.096 489.565 174.023C482.956 162.274 449.165 159.904 458.721 174.236Z" fill="#163560"/>
<path d="M106.513 478.304L111.984 501.347L120.178 501.301L120.479 478.304H106.513Z" fill="#FFB27D"/>
<path d="M175.444 479.286L191.01 501.347L197.076 493.556L187.707 476.254L175.444 479.286Z" fill="#FFB27D"/>
<path d="M134.971 175.516C132.143 173.909 128.751 173.732 126.381 173.873C126.993 173.241 128.192 173.012 128.192 173.012C126.722 172.792 123.438 174.252 123.438 174.252C102.985 166.369 99.77 196.487 100.199 203.486C100.624 210.482 93.3242 212.767 82.6849 218.279C62.3818 228.798 60.5977 242.884 60.5977 242.884C60.7548 242.976 60.9218 243.084 61.0953 243.205C62.1035 241.499 64.1757 238.294 65.9239 237.81C65.8584 237.964 63.8582 242.223 63.1118 244.662C69.1026 249.218 80.3082 259.314 88.1158 266.474C88.0798 265.076 88.1354 263.089 88.6461 262.041L89.6119 267.852C93.7924 271.695 96.6731 274.396 96.6731 274.396C96.1559 268.742 122.244 238.903 135.855 229.97C139.168 225.092 140.347 216.476 140.435 215.798C139.862 222.63 138.694 226.463 137.649 228.621C149.179 218.004 142.471 179.778 134.971 175.516Z" fill="#163560"/>
<path d="M135.057 230.408C135.126 230.437 128.487 233.884 123.491 232.519C118.794 231.239 115.723 225.147 115.788 225.134C117.779 224.738 118.352 222.004 118.309 210.255L119.209 210.432L134.333 213.428C134.333 213.428 133.99 218.187 133.98 222.669C133.967 226.437 134.193 230.005 135.057 230.408Z" fill="#FFB27D"/>
<path d="M117.955 180.449C117.955 180.449 125.416 172.507 134.782 180.043C134.782 180.043 129.328 179.1 117.955 180.449Z" fill="#E37970"/>
<path d="M134.33 213.427C134.33 213.427 133.986 218.187 133.976 222.668C125.514 222.43 121.042 214.71 119.209 210.432L134.33 213.427Z" fill="#D68D5D"/>
<path d="M117.644 208.788C117.644 208.788 113.208 201.78 112.144 195.789C111.384 191.51 113.561 175.656 129.497 177.938C129.497 177.938 134.126 178.393 138.474 181.332C141.934 183.67 146.926 188.715 141.345 202.549L139.894 207.224L117.644 208.788Z" fill="#163560"/>
<path d="M194.608 487.51L186.59 487.755L177.912 488.021C177.912 488.021 157.871 465.704 146.626 429.933C146.364 429.102 146.089 428.26 145.794 427.409C139.643 409.47 126.886 386.95 120.165 366.565C119.095 363.318 118.135 360.264 117.271 357.37C116.996 356.443 116.725 355.533 116.469 354.636C111.516 337.424 110.082 326.126 108.76 314.05L157.298 314.439C157.301 314.443 165.138 396.889 194.608 487.51Z" fill="#80BDCC"/>
<path d="M150.505 286.554C150.384 309.65 153.893 319.559 153.893 319.559C153.893 319.559 133.112 330.117 108.413 322.345C108.121 322.253 87.9622 317.651 87.9622 317.651C88.3746 316.714 92.0509 301.151 92.4536 300.294C97.6685 289.095 101.626 284.184 102.245 280.744C103.391 274.317 103.417 267.665 102.844 261.393C101.338 244.789 96.8533 231.004 96.8533 231.004C103.584 229.472 110.059 226.853 117.065 224.228C118.675 226.234 123.425 228.261 127.701 228.166C132.621 228.058 134.156 225.976 133.976 223.632C139.221 226.549 143.388 229.325 143.388 229.325C147.844 237.064 156.882 244.58 157.537 256.453C157.7 259.377 150.508 285.906 150.505 286.554Z" fill="#E7F1FD"/>
<path d="M108.763 289.127C106.642 292.129 102.573 310.383 92.4539 312.677C97.6688 299.668 101.627 293.965 102.245 289.965C103.391 282.498 103.417 274.775 102.844 267.488C106.233 261.55 108.76 257.481 108.76 257.481C109.025 256.521 114.145 240.697 115.785 254.842C117.425 268.987 111.133 285.768 108.763 289.127Z" fill="#5F9AA8"/>
<path d="M137.155 217.673C137.155 217.673 117.134 218.004 117.121 205.532C117.108 193.059 114.515 184.701 127.295 183.965C140.079 183.225 142.567 187.982 143.585 192.146C144.603 196.306 142.364 217.268 137.155 217.673Z" fill="#FFB27D"/>
<path d="M142.988 185.212C139.898 181.467 137.56 182.282 136.251 183.405C131.923 176.94 118.249 186.289 118.249 186.289C116.91 195.239 110.458 200.366 110.458 200.366C110.458 200.366 114.108 202.622 122.521 200.458C129.144 198.755 133.946 189.331 135.694 185.392C136.886 186.45 139.397 188.895 140.15 191.291C141.148 194.467 141.597 201.004 143.502 200.782C143.502 200.782 147.63 190.836 142.988 185.212Z" fill="#163560"/>
<path d="M111.709 500.057C111.709 500.057 112.37 504.621 110.664 509.505C110.664 509.505 109.322 515.617 115.342 515.728C121.363 515.839 122.839 515.273 122.155 511.528C121.474 507.78 120.177 501.301 120.177 501.301L111.709 500.057Z" fill="#FFB27D"/>
<path d="M122.725 518.73C122.725 518.73 122.718 518.733 122.705 518.743H110.252C110.239 518.733 110.233 518.73 110.233 518.73C109.552 515.535 110.665 509.511 110.665 509.511C117.48 516.026 121.746 509.348 121.746 509.348C122.852 512.134 122.725 518.73 122.725 518.73Z" fill="#C45446"/>
<path d="M211.581 512.425C211.581 512.425 200.483 499.825 197.076 493.556L188.826 497.782L207.27 515.103L211.584 514.536L211.581 512.425Z" fill="#FFB27D"/>
<path d="M218.386 518.707H202.99C201.635 517.486 200.342 515.025 198.758 511.797C197.851 509.947 195.818 508.929 193.733 508.369V518.707H190.547L187.598 507.715C185.634 504.032 187.11 500.653 188.491 497.743C190.099 497.74 194.761 498.902 202.958 508.32C205.652 511.414 208.624 512.517 211.58 512.425C211.62 512.452 211.662 512.474 211.702 512.491C216.37 514.632 217.892 517.264 218.386 518.707Z" fill="#C45446"/>
<path d="M217.64 238.373C217.64 238.373 204.497 245.722 199.802 247.84C198.133 248.593 195.108 250.001 192.018 251.445C190.152 252.315 188.263 253.203 186.629 253.972C183.87 255.268 180.586 254.558 178.602 252.24C171.486 243.932 153.068 225.92 134.048 223.661L133.983 223.632C133.983 223.632 133.986 223.638 133.993 223.651C133.986 223.651 133.976 223.648 133.97 223.648L134.074 223.854C135.145 226.513 145.571 252.564 145.892 258.061C146.233 263.852 147.254 352.77 147.254 352.77C147.254 352.77 146.573 356.859 154.407 355.153C162.244 353.451 164.287 351.745 164.287 351.745C164.287 351.745 156.79 296.896 158.836 277.817C159.239 274.072 158.876 269.865 158.037 265.521C169.623 272.537 183.28 275.66 183.28 275.66C183.28 275.66 188.374 273.437 196.29 268.533C199.613 266.471 203.466 263.184 207.26 259.707C211.843 255.507 219.729 245.356 219.729 245.356L217.64 238.373Z" fill="#E37970"/>
<path d="M186.589 487.755L177.911 488.02C177.911 488.02 157.87 465.704 146.625 429.933C146.363 429.101 146.088 428.26 145.793 427.409C139.642 409.469 126.885 386.95 120.164 366.565C119.094 363.318 118.135 360.263 117.27 357.369C116.995 356.443 116.724 355.533 116.468 354.636L123.615 349.211C123.615 349.211 145.073 383.961 151.719 416.661C157.493 445.073 180.605 479.253 186.589 487.755Z" fill="#5F9AA8"/>
<path d="M124.368 419.713C124.489 435.616 123.687 472.176 121.615 487.313H113.929C109.679 487.313 107.561 487.251 107.561 487.251C102.366 460.934 98.6701 439.158 95.9791 420.394C93.7727 404.994 91.8085 391.792 90.2994 380.429C88.7804 368.991 87.723 359.416 87.3465 351.323C87.2876 350.05 87.2451 348.809 87.2189 347.608C87.196 346.4 87.1894 345.224 87.1992 344.082L129.138 339.993C128.607 367.858 124.299 410.471 124.368 419.713Z" fill="#80BDCC"/>
<path d="M113.929 487.316C109.679 487.316 107.561 487.254 107.561 487.254C102.366 460.937 98.6702 439.161 95.9793 420.397C93.7729 404.997 91.8086 391.795 90.2995 380.432C88.7805 368.994 87.7231 359.419 87.3467 351.326L102.736 360.378C102.736 360.378 92.9152 363.841 96.6602 390.076C100.409 416.308 108.714 483.601 113.929 487.316Z" fill="#5F9AA8"/>
<path d="M115.909 351.068C115.909 351.068 112.956 361.74 102.736 360.378C92.5158 359.016 77.981 352.881 77.981 352.881C77.981 352.881 82.348 339.08 87.7789 320.95C94.3556 299.001 102.494 270.703 106.331 252.855C107.408 247.853 108.144 243.676 108.416 240.687L117.071 224.228C117.071 224.228 129.537 252.61 130.218 259.763C130.899 266.919 115.909 351.068 115.909 351.068Z" fill="#E37970"/>
<path d="M152.409 267.751C147.489 268.396 145.604 271.011 144.998 274.537C144.671 276.439 143.689 278.321 142.857 279.65C137.956 279.912 126.289 280.547 116.485 281.169L115.676 294.028C123.729 293.026 133.625 290.984 145.018 287.085C145.892 286.934 146.985 286.391 148.357 285.271C155.415 279.49 159.422 269.81 159.435 268.425C159.445 267.034 157.33 267.106 152.409 267.751Z" fill="#FFB27D"/>
<path d="M115.457 274.756C115.002 286.338 112.275 308.825 87.9752 320.862C87.9097 320.892 87.8442 320.928 87.782 320.954C94.3587 299.004 102.497 270.707 106.334 252.859C110.792 259.527 115.706 268.376 115.457 274.756Z" fill="#C45446"/>
<path d="M117.071 224.228C117.071 224.228 96.2837 225.701 91.2881 236.831C86.2926 247.961 84.7016 284.98 91.0623 295.881C91.0623 295.881 99.8193 298.375 115.304 295.478C115.493 295.442 115.683 295.406 115.876 295.37C115.876 295.37 120.816 283.274 116.387 280.891C116.387 280.891 103.329 281.572 104.69 277.257C106.049 272.942 117.071 224.228 117.071 224.228Z" fill="#E37970"/>
<path d="M231.73 229.639C220.548 228.202 217.726 238.373 217.726 238.373L219.814 245.359C223.262 245.834 226.28 244.937 229.059 240.959C231.838 236.982 232.604 238.511 234.372 235.548C236.765 231.538 233.014 230.042 231.73 229.639Z" fill="#FFB27D"/>
<path d="M199.803 247.84C198.133 248.593 195.108 250.001 192.018 251.445C193.671 254.381 195.74 259.717 196.29 268.536C199.613 266.474 203.914 263.04 207.587 259.436C213.48 253.651 219.729 245.359 219.729 245.359L217.641 238.373C217.641 238.373 204.497 245.722 199.803 247.84Z" fill="#FFB27D"/>
<path d="M640.979 520.933H6.39257C6.05298 520.933 5.77344 520.416 5.77344 519.787C5.77344 519.158 6.05298 518.64 6.39257 518.64H640.981C641.321 518.64 641.6 519.158 641.6 519.787C641.598 520.416 641.321 520.933 640.979 520.933Z" fill="#202F4E"/>
</svg>
