<svg width="674" height="518" viewBox="0 0 674 518" fill="none" xmlns="http://www.w3.org/2000/svg">
<path d="M158.98 140.753C151.813 26.3732 437.047 -1.72035 473.74 102.053C510.433 205.826 602.852 169.138 658.179 296.418C713.505 423.698 574.36 516.005 574.36 516.005H39.4401C39.4401 516.005 -28.7873 374.386 34.5664 303.006C97.9201 231.626 166.147 255.132 158.98 140.753Z" fill="#EBF3FA"/>
<path d="M153.145 361.165C153.145 361.165 159.182 361.859 163.857 361.579C169.703 361.229 176.908 361.083 178.247 362.639C179.583 364.195 179.583 364.195 176.99 365.567C174.967 366.635 167.17 370.071 161.906 368.444C156.638 366.814 149.915 367.146 149.915 367.146L153.145 361.165Z" fill="#FFB27D"/>
<path d="M88.6866 303.652C88.6866 303.652 99.9353 359.37 113.325 363.623C119.933 365.72 148.814 369.652 157.29 369.715C157.29 369.715 159.26 367.913 158.35 361.116C158.35 361.116 127.79 351.915 123.186 346.196C116.333 337.686 124.951 309.659 116.519 301.783C108.087 293.907 94.5106 291.117 88.6866 303.652Z" fill="#7AA9E2"/>
<path d="M94.0367 511.285H95.6597C97.2863 511.285 98.6145 509.953 98.6145 508.33V418.397C98.6145 416.77 97.2826 415.442 95.6597 415.442H94.0367C92.41 415.442 91.0819 416.774 91.0819 418.397V508.33C91.0781 509.953 92.41 511.285 94.0367 511.285Z" fill="#96C1ED"/>
<path d="M61.0477 517.586C64.592 510.255 78.3777 504.786 94.8459 504.786C111.314 504.786 125.1 510.255 128.644 517.586H61.0477Z" fill="#96C1ED"/>
<path d="M70.0507 492.719H119.645C120.168 492.719 120.593 492.294 120.593 491.772V489.806C120.593 489.283 120.168 488.858 119.645 488.858H70.0507C69.5283 488.858 69.103 489.283 69.103 489.806V491.772C69.103 492.294 69.5283 492.719 70.0507 492.719Z" fill="#96C1ED"/>
<path d="M90.4584 406.704C92.7679 410.621 95.4392 414.296 98.1963 417.773C106.706 428.518 115.974 437.379 117.586 445.751C117.907 447.419 118.418 449.217 119.082 451.113C119.757 453.03 120.589 455.049 121.552 457.134C125.163 464.98 130.566 473.77 135.957 481.762C145.28 495.577 154.048 507.102 154.048 507.102L170.124 506.416C169.479 504.804 162.468 485.732 153.089 462.421C149.28 452.959 145.228 442.893 141.322 433.186C140.799 431.891 140.281 430.6 139.766 429.32C138.572 426.351 137.397 423.426 136.248 420.579C127.439 398.69 120.425 381.263 120.425 381.263C120.425 381.263 85.2202 367.929 81.5677 376.569C78.5494 383.692 81.0043 390.672 90.4584 406.704Z" fill="#163560"/>
<path d="M154.548 504.177C154.548 504.177 155.369 517.444 157.935 517.635C158.275 517.661 170.952 517.661 170.952 517.661L187.133 517.567C187.133 517.567 187.029 513.669 182.298 512.844C177.567 512.02 169.65 508.695 166.785 502.442C163.774 495.865 154.548 504.177 154.548 504.177Z" fill="#163560"/>
<path d="M117.321 466.279C117.321 466.279 106.14 473.464 107.225 475.796C107.371 476.106 113.549 487.176 113.549 487.176L121.518 501.26C121.518 501.26 124.872 499.267 123.287 494.734C121.701 490.201 120.742 481.669 124.805 476.121C129.077 470.282 117.321 466.279 117.321 466.279Z" fill="#163560"/>
<path d="M133.069 375.327C133.069 375.327 180.72 409.554 185.921 420.306C189.984 428.705 125.234 482.086 125.234 482.086C125.234 482.086 115.802 472.744 114.571 468.222C114.571 468.222 136.875 436.17 154.548 425.765C159.808 422.668 91.4583 415.102 84.0599 403.592C76.6616 392.082 80.7395 376.841 80.7395 376.841L133.069 375.327Z" fill="#1C468A"/>
<path d="M56.3282 425.731H132.853C138.486 425.731 143.094 421.123 143.094 415.486V413.833C143.094 408.199 138.486 403.588 132.853 403.588H56.3282C50.6945 403.588 46.0831 408.196 46.0831 413.833V415.486C46.0831 421.123 50.6945 425.731 56.3282 425.731Z" fill="#EE9849"/>
<path d="M112.019 278.469C116.358 281.159 118.75 284.569 118.75 284.569C108.165 287.307 90.6153 277.499 90.6153 277.499C90.6153 277.499 97.4279 272.921 99.9537 262.863C100.081 262.355 100.196 261.833 100.301 261.303C100.633 259.609 100.838 257.774 100.875 255.796L105.737 260.154L113.821 267.399C113.821 267.399 113.639 270.407 112.628 275.578C112.452 276.469 112.251 277.439 112.019 278.469Z" fill="#FFB27D"/>
<path d="M133.789 373.461C133.767 373.57 133.733 373.678 133.696 373.79C132.677 376.651 117.269 386.366 106.863 390.224C100.368 392.634 77.8333 398.014 76.3484 393.381C74.6285 388.008 80.9262 348.845 79.4077 328.452C77.6206 303.522 84.5228 280.831 94.1187 273.425C94.8425 272.891 96.2788 274.309 100.435 276.283C104.274 278.103 108.516 278.622 112.109 277.835L115.325 280.599C119.776 284.599 124.664 290.061 126.88 298.429C128.234 303.563 129.26 311.693 130.021 320.826C130.312 324.366 130.57 328.06 130.79 331.787C131.129 337.727 131.431 343.719 131.577 349.412C131.581 349.52 131.584 349.628 131.584 349.74L131.588 349.945C131.648 350.52 131.659 351.147 131.663 351.721C131.681 352.296 131.696 352.87 131.711 353.438C131.816 357.896 131.808 362.034 131.965 365.611C132.043 367.406 132.405 368.693 132.789 369.719C133.181 370.764 133.599 371.529 133.771 372.264C133.856 372.652 133.883 373.043 133.789 373.461Z" fill="#B0D4FF"/>
<path d="M113.821 267.392C113.821 267.392 113.639 270.399 112.628 275.57C104.733 273.018 101.151 265.888 99.9537 262.863C99.6142 262.008 99.465 261.478 99.465 261.478C99.465 261.478 99.7709 261.411 100.301 261.299C101.409 261.064 103.502 260.62 105.737 260.146L113.821 267.392Z" fill="#ED975D"/>
<path d="M116.235 269.94C116.235 269.94 98.7819 269.496 99.2259 258.632C99.6699 247.768 97.7149 240.395 108.878 240.22C120.041 240.045 122.033 244.279 122.768 247.939C123.499 251.603 120.783 269.776 116.235 269.94Z" fill="#FFB27D"/>
<path d="M178.699 363.443L180.217 363.936L193.135 324.176L191.616 323.682L178.699 363.443Z" fill="#1C468A"/>
<path d="M136.371 362.991L180.234 363.93L180.29 361.308L136.427 360.369L136.371 362.991Z" fill="#1C468A"/>
<path d="M97.0543 238.44C96.9462 238.257 96.6477 238.075 95.95 237.91C95.95 237.91 96.5768 237.657 97.3379 237.772C97.6588 236.814 98.4907 235.168 100.259 235.045C100.259 235.045 99.263 235.37 98.9608 236.392C101.278 234.728 105.736 234.008 117.205 236.985C132.315 240.914 125.525 249.831 123.335 250.648C121.141 251.465 116.716 247.372 112.967 247.01C109.217 246.648 107.568 251.864 106.184 252.375C104.8 252.886 105.523 251.677 103.96 250.61C102.401 249.543 101.74 252.327 101.905 254.241C102.069 256.155 99.3115 258.154 99.3115 258.154C99.3115 258.154 99.3115 258.154 97.4051 255.199C95.4986 252.245 95.1852 241.104 96.6626 239C96.7895 238.817 96.92 238.63 97.0543 238.44Z" fill="#2C3A64"/>
<path d="M132.786 369.716C128.548 369.029 118.082 366.932 110.483 362.176C96.7678 353.591 88.6866 310.018 88.6866 310.018L110.169 337.529L131.681 353.274L131.711 353.434C131.816 357.892 131.808 362.03 131.965 365.608C132.043 367.406 132.405 368.69 132.786 369.716Z" fill="#91B8EF"/>
<path d="M153.208 349.516C153.208 349.516 154.731 350.024 156.51 349.516C158.286 349.009 164.382 347.487 165.397 347.994C166.412 348.502 169.587 351.042 170.348 351.55C171.109 352.057 172.251 354.217 172.251 354.217C171.549 354.728 169.654 352.986 168.699 352.859C167.748 352.732 160.126 355.422 158.029 355.169C155.932 354.915 152.761 353.964 152.761 353.964L153.208 349.516Z" fill="#FFB27D"/>
<path d="M165.849 351.878C165.849 351.994 167.931 355.239 170.013 354.654L168.229 352.214L165.849 351.878Z" fill="#FFB27D"/>
<path d="M156.507 349.516C156.507 349.516 159.13 347.774 160.047 346.882C160.047 346.882 160.469 347.162 160.424 347.55C160.35 348.199 159.533 349.274 159.533 349.274L156.507 349.516Z" fill="#FFB27D"/>
<path d="M110.512 288.307C99.2184 278.648 82.2727 289.58 86.3356 303.876C91.0477 320.449 100.144 347.789 109.501 350.445C116.168 352.337 145.157 355.37 153.634 355.169C153.634 355.169 155.204 355.769 154.085 348.998C154.085 348.998 122.298 339.178 118.813 332.716C116.948 329.254 119.444 296.139 110.773 288.531C110.687 288.457 110.598 288.382 110.512 288.307Z" fill="#B0D4FF"/>
<path d="M538.098 268.195C538.098 268.195 559.998 290.901 561.032 299.449C562.065 307.996 550.54 321.334 550.54 321.334L538.098 268.195Z" fill="#ED7D2B"/>
<path d="M528.204 503.517C528.204 503.517 527.431 515.56 525.1 515.728C524.79 515.75 513.28 515.724 513.28 515.724L498.588 515.609C498.588 515.609 498.692 512.068 502.99 511.329C507.288 510.591 514.482 507.587 517.097 501.916C519.843 495.951 528.204 503.517 528.204 503.517Z" fill="#163560"/>
<path d="M560.927 503.588C560.927 503.588 560.155 515.631 557.823 515.799C557.513 515.821 546.004 515.795 546.004 515.795L531.311 515.679C531.311 515.679 531.416 512.139 535.714 511.4C540.012 510.661 547.205 507.658 549.82 501.987C552.566 496.021 560.927 503.588 560.927 503.588Z" fill="#163560"/>
<path d="M512.209 374.022C512.209 374.022 516 398.608 530.241 442.267C544.482 485.926 546.396 504.823 546.396 504.823L561.774 504.424C561.774 504.424 562.009 456.743 555.451 434.791C548.892 412.838 554.197 355.692 554.197 355.692L512.209 374.022Z" fill="#163560"/>
<path d="M504.766 356.934C504.766 356.934 504.143 393.97 510.452 439.457C516.761 484.944 514.549 504.244 514.549 504.244L529.894 504.789C529.894 504.789 539.165 459.317 536.583 436.551C534.002 413.785 549.313 358.474 549.313 358.474L504.766 356.934Z" fill="#1C468A"/>
<path d="M534.662 270.328L526.472 275.671L514.66 273.444C514.825 272.489 515.615 268.538 516.332 264.956C516.377 264.743 516.418 264.534 516.459 264.325C517.074 261.281 517.604 258.662 517.604 258.662L528.651 253.816L532.77 252.01C532.759 252.073 532.442 255.39 532.401 255.875C531.614 264.478 534.662 270.328 534.662 270.328Z" fill="#FFB27D"/>
<path d="M517.701 267.587C517.933 267.49 531.942 263.389 533.461 263.893C534.979 264.4 535.874 267.344 535.874 267.344L512.959 272.474C512.963 272.474 514.773 268.814 517.701 267.587Z" fill="#ED7D2B"/>
<path d="M555.201 361.616C552.806 372.439 513.303 373.637 503.14 363.787C501.983 362.664 501.938 357.452 502.39 350.427C503.274 336.701 506.061 316.051 506.192 305.5C506.255 300.403 506.968 295.195 507.908 290.464C509.915 280.383 512.956 272.474 512.956 272.474C512.956 272.474 532.263 266.277 535.871 267.347C553.257 272.492 557.6 350.796 555.201 361.616Z" fill="#F99746"/>
<path d="M502.394 350.427C503.278 336.701 506.065 316.051 506.195 305.5C506.259 300.403 506.971 295.195 507.912 290.464L519.522 288.442C519.522 288.442 530.767 334.813 502.394 350.427Z" fill="#ED7D2B"/>
<path d="M508.717 331.302C508.717 331.302 509.505 333.194 507.841 334.462C506.177 335.727 505.095 337.783 505.471 339.286C505.848 340.79 509.486 343.249 510.751 342.857C512.015 342.465 514.59 340.492 514.314 339.697C514.038 338.902 516.06 332.742 512.982 330.362C509.911 327.982 508.717 331.302 508.717 331.302Z" fill="#FFB27D"/>
<path d="M521.828 269.713C521.828 269.713 510.504 271.806 501.457 285.077C492.41 298.348 486.455 308.216 488.104 313.01C489.753 317.804 504.863 334.451 507.471 334.455C510.083 334.463 514.299 332.571 514.545 328.299C514.545 328.299 503.919 312.297 506.024 309.91C506.923 308.887 519.891 298.407 521.727 303.16C524.775 311.021 521.828 269.713 521.828 269.713Z" fill="#F99746"/>
<path d="M531.576 256.032C529.144 260.132 520.104 263.666 516.335 264.96C516.38 264.748 516.421 264.539 516.462 264.33C517.078 261.285 517.608 258.666 517.608 258.666L528.655 253.82C531.095 253.794 532.58 254.342 531.576 256.032Z" fill="#FCA56B"/>
<path d="M513.448 257.987C513.448 257.987 531.214 263.572 534.524 252.454C537.833 241.336 542.351 234.568 531.147 230.531C519.943 226.494 516.466 230.08 514.459 233.523C512.455 236.967 508.911 256.248 513.448 257.987Z" fill="#FFB27D"/>
<path d="M515.16 232.452C515.16 232.452 516.265 245.402 518.944 244.846C521.622 244.291 524.051 243.88 523.652 247.779C523.253 251.678 519.529 256.181 527.778 256.886C536.027 257.595 547.936 236.34 545.679 232.307C539.165 220.67 505.74 218.249 515.16 232.452Z" fill="#163560"/>
<path d="M353.839 311.92C353.51 312.386 352.111 314.617 353.906 317.132C354.021 317.289 354.096 317.419 354.145 317.528C375.638 330.44 440.101 382.68 440.101 419.5V495.779H245.546V419.471C245.546 382.415 310.889 329.347 331.908 317.132C331.912 317.132 331.912 317.132 331.912 317.132C332.587 316.188 332.808 315.285 332.808 314.498C332.808 312.927 331.912 311.827 331.912 311.827C310.84 299.339 245.546 246.663 245.546 209.608V133.337H440.101V209.645C440.101 246.637 374.97 299.597 353.839 311.92Z" fill="#B0D4FF"/>
<path d="M451.26 515.43H232.839V506.028C232.839 500.368 237.424 495.783 243.084 495.783H441.437C446.861 495.783 451.26 500.181 451.26 505.606V515.43Z" fill="#F99746"/>
<path d="M301.237 424.194C300.241 441.266 303.486 478.094 303.192 495.782H245.546V419.474C245.546 382.419 310.889 329.351 331.908 317.136C331.912 317.136 331.912 317.136 331.912 317.136C332.587 316.192 332.808 315.289 332.808 314.502C332.808 312.931 331.912 311.83 331.912 311.83C310.84 299.343 245.546 246.667 245.546 209.611V133.337H284.112L311.642 140.87V201.191C311.642 201.191 308.915 218.565 315.742 235.631C322.57 252.696 337.225 307.447 336.997 314.558C336.77 321.669 302.945 394.929 301.237 424.194Z" fill="#A4C8FC"/>
<path d="M414.891 184.044C403.098 184.223 382.82 186.35 350.014 194.625C327.554 200.288 288.831 196.024 268.349 193.088C261.163 192.058 254.735 197.628 254.735 204.889V213.679C254.735 237.903 319.914 290.378 337.15 303.828C339.762 305.865 341.288 308.992 341.288 312.305V447.013C341.288 451.613 339.019 455.896 335.251 458.534C321.697 468.021 298.856 495.783 298.856 495.783H385.242C385.242 495.783 362.076 468.991 349.074 459.045C346.104 456.776 344.355 453.262 344.355 449.527V312.268C344.355 308.973 345.851 305.858 348.425 303.799C365.322 290.267 429.076 237.597 429.076 213.391V198.013C429.076 190.211 422.692 183.925 414.891 184.044Z" fill="#739AF0"/>
<path d="M441.071 140.867H242.662C237.238 140.867 232.839 136.468 232.839 131.043V121.22H451.26V130.678C451.26 136.307 446.701 140.867 441.071 140.867Z" fill="#F99746"/>
<path d="M328.588 111.851C324.033 119.78 318.302 122.843 318.302 122.843H294.465C294.465 122.843 332.065 105.804 328.588 111.851Z" fill="#233862"/>
<path d="M310.281 173.199C309.658 173.912 309.579 174.706 309.889 175.557C309.889 175.561 309.893 175.564 309.897 175.568C310.464 177.139 312.344 178.892 314.527 180.646C314.806 180.87 315.053 181.075 315.269 181.265C315.325 181.314 315.381 181.366 315.437 181.414C315.482 181.452 315.523 181.493 315.564 181.53C317.597 183.407 316.832 183.836 320.489 187.641C324.656 191.977 327.525 192.055 328.342 191.66C329.032 191.324 327.63 189.022 326.074 186.436C325.999 186.313 325.924 186.186 325.846 186.059C325.641 185.716 325.432 185.366 325.227 185.022C323.406 181.911 323.872 180.452 324.305 175.822C324.656 172.057 330.159 154.802 330.159 154.802L322.171 153.425C322.171 153.425 319.765 167.166 317.116 169.285C315.698 170.412 314.112 170.427 312.751 171.263C312.654 171.322 312.56 171.382 312.467 171.442C311.691 171.957 310.904 172.486 310.281 173.199Z" fill="#FFB27D"/>
<path d="M310.281 173.199C309.658 173.911 309.579 174.706 309.889 175.556C309.889 175.56 309.893 175.564 309.897 175.568C310.594 177.138 312.422 178.884 314.534 180.63C314.81 180.858 315.053 181.071 315.269 181.265C315.325 181.313 315.381 181.365 315.437 181.414C315.482 181.451 315.523 181.492 315.564 181.53C317.597 183.406 316.832 183.835 320.489 187.641C324.656 191.976 327.525 192.055 328.342 191.659C329.032 191.323 327.63 189.021 326.074 186.436C325.264 186.137 321.492 184.608 318.646 180.963C316.135 177.761 314.463 173.646 312.754 171.262C312.657 171.322 312.564 171.382 312.471 171.441C311.691 171.956 310.904 172.486 310.281 173.199Z" fill="#233862"/>
<path d="M374.684 168.21C375.176 170.676 378.691 170.266 382.619 169.303C386.544 168.345 385.612 169.486 391.2 168.867C396.789 168.248 398.483 166.166 398.651 165.334C398.804 164.595 396.043 164.338 393.081 163.994C392.708 163.953 392.335 163.905 391.962 163.86C388.619 163.442 386.167 161.282 383.131 159.51C380.254 157.831 375.96 150.992 375.96 150.992L368.297 151.6C368.297 151.6 372.318 157.708 373.874 160.364C374.788 161.927 374.74 163.991 374.628 165.587C374.568 166.457 374.512 167.341 374.684 168.21Z" fill="#FFB27D"/>
<path d="M382.619 169.307C386.544 168.348 385.611 169.49 391.2 168.871C396.789 168.251 398.483 166.169 398.651 165.337C398.804 164.599 396.043 164.341 393.081 163.998L393.054 164.054C393.054 164.054 389.704 166.431 385.052 166.543C381.261 166.636 377.247 165.55 374.628 165.591C374.568 166.457 374.512 167.345 374.687 168.214C375.18 170.676 378.694 170.266 382.619 169.307Z" fill="#233862"/>
<path d="M345.318 119.209L338.154 138.487L328.801 163.659C328.801 163.659 326.264 163.905 323.832 163.204C321.593 162.558 319.026 160.864 319.026 160.864C319.026 160.864 321.623 133.838 326.469 118.325C327.712 114.344 329.103 111.12 330.637 109.307C338.147 100.431 345.318 119.209 345.318 119.209Z" fill="#233862"/>
<path d="M338.031 88.5934C333.338 87.0787 319.951 89.0225 306.505 91.6565L303.688 87.0115L274.643 84.7432C274.643 84.7432 265.059 105.998 270.308 119.541C271.08 121.534 272.987 122.373 275.602 122.414L275.606 122.418C275.606 122.418 292.936 122.839 298.551 122.839C312.997 122.839 329.122 112.911 331.207 112.494C334.621 111.811 335.987 118.638 339.4 125.809C342.814 132.98 371.494 157.563 371.494 157.563C371.494 157.563 375.9 157.608 377.724 156.925C379.683 156.19 380.399 155.235 380.399 155.235C380.399 155.235 348.616 92.0072 338.031 88.5934Z" fill="#2B478B"/>
<path d="M300.607 1.72268C298.428 0.428055 296.309 0.237776 295.022 0.278815C294.093 0.308663 293.168 0.219125 292.246 0.0960051C281.24 -1.38143 274.618 14.6092 274.226 19.4556C273.51 28.3874 268.783 29.7492 262.13 35.3418C248.796 46.5568 252.706 59.5926 259.996 64.4353C264.373 67.3417 272.084 64.4353 272.084 64.4353C272.193 64.5099 293.175 52.7054 303.517 47.012C319.027 44.8108 306.834 5.43119 300.607 1.72268Z" fill="#233862"/>
<path d="M294.85 42.1656C294.895 42.1955 289.761 43.949 286.329 42.4268C283.098 40.9979 280.654 35.6851 280.699 35.6813C282.169 35.6142 283.781 34.3307 285.023 25.8989L285.65 26.1228L296.167 29.9059C296.167 29.9059 295.406 33.2824 294.914 36.4947C294.499 39.1996 294.276 41.7851 294.85 42.1656Z" fill="#FFB27D"/>
<path d="M296.171 29.9138C296.171 29.9138 295.41 33.2903 294.917 36.5026C288.877 35.4169 286.504 29.3952 285.653 26.127L296.171 29.9138Z" fill="#ED975D"/>
<path d="M297.737 33.2639C297.737 33.2639 283.344 31.3313 284.687 22.3883C286.026 13.4454 285.075 7.17002 294.32 8.02813C303.565 8.8825 304.834 12.5649 305.113 15.6578C305.39 18.747 301.513 33.5363 297.737 33.2639Z" fill="#FFB27D"/>
<path d="M304.587 10.7519C304.587 10.7519 295.376 18.6913 289.108 19.333C282.84 19.9747 280.467 17.96 280.467 17.96C280.467 17.96 284.161 14.8932 286.384 9.94233C287.041 8.48355 288.425 7.48367 290.018 7.34562C294.492 6.96134 302.976 6.78226 304.587 10.7519Z" fill="#233862"/>
<path d="M298.827 10.0389C298.827 10.0389 301.909 13.0199 302.879 15.2286C303.815 17.3626 304.095 22.4628 303.349 24.4887C303.349 24.4887 308.151 15.1502 305.431 10.6135C302.554 5.80807 298.827 10.0389 298.827 10.0389Z" fill="#233862"/>
<path d="M306.972 63.3681C306.535 92.5027 306.852 86.4138 303.666 89.1784C302.898 89.8425 300.741 90.2417 297.898 90.4283C288.966 91.0215 273.263 89.5478 272.666 87.8987C270.607 82.1867 272.062 80.4108 270.342 71.6656C270.163 70.7366 269.943 69.7293 269.681 68.6324C268.249 62.6256 266.853 60.5811 271.939 50.933C276.55 42.1915 281.34 35.0991 281.773 35.3528C293.94 42.5758 294.921 36.5056 294.921 36.5056C294.921 36.5056 307.184 49.1571 306.972 63.3681Z" fill="white"/>
<path d="M338.154 138.486L328.801 163.658C328.801 163.658 326.264 163.905 323.832 163.203C321.593 162.558 319.026 160.864 319.026 160.864C319.026 160.864 321.623 133.837 326.469 118.324L338.154 138.486Z" fill="#2B478B"/>
<path d="M294.913 36.502C294.913 36.502 307.434 38.6248 308.904 44.016C310.374 49.4071 319.026 81.0936 319.026 81.0936C319.026 81.0936 312.661 82.2352 309.721 79.2953C306.781 76.3554 299.491 52.0187 299.491 52.0187L294.913 36.502Z" fill="white"/>
<path d="M297.895 90.4248C288.963 91.018 273.259 89.5443 272.662 87.8953C270.603 82.1833 272.058 80.4074 270.338 71.6622L274.647 59.5293C274.647 59.5293 273.935 73.0389 277.919 76.5944C281.9 80.1462 294.234 83.4555 296.171 86.4216C297.104 87.8505 297.715 89.2794 297.895 90.4248Z" fill="#EBF3FF"/>
<path d="M287.66 84.7431C287.66 84.7431 296.473 82.7806 297.894 83.5641C299.316 84.3476 302.793 87.1943 303.226 88.1867C303.662 89.1791 300.058 87.4331 298.89 87.1197C298.133 86.9145 296.133 87.6084 295.148 87.9405C290.988 89.3284 288.44 88.612 288.44 88.612L287.66 84.7431Z" fill="#FFB27D"/>
<path d="M281.758 35.3457C281.758 35.3457 269.924 36.0732 265.827 41.789C260.059 49.8328 248.62 84.1085 255.176 88.6826C262.559 93.8312 288.78 90.0294 288.78 90.0294C288.78 90.0294 289.653 85.9516 288.437 83.9779C287.224 82.0043 267.495 78.8181 266.585 77.9078C265.674 76.9974 277.968 60.1524 277.968 57.4214C277.968 54.6904 281.758 35.3457 281.758 35.3457Z" fill="white"/>
<path d="M298.323 86.0146C298.323 86.0146 300.17 88.395 300.774 88.6822C301.379 88.9658 301.771 88.8949 301.771 88.8949L300.528 86.6564L298.323 86.0146Z" fill="#FFB27D"/>
<path d="M297.894 83.564L303.263 86.1719C303.263 86.1719 303.036 86.5449 302.375 86.5151C301.715 86.4853 300.047 85.8734 300.047 85.8734L297.894 83.564Z" fill="#FFB27D"/>
<path d="M300.775 92.3311H343.243L356.018 60.5625H313.616L300.775 92.3311Z" fill="#F99746"/>
<path d="M343.743 91.0923H287.661V92.3309H343.243L343.743 91.0923Z" fill="#ED7D2B"/>
<path d="M332.524 76.4484C332.845 75.3329 332.2 74.4263 331.08 74.4263C329.965 74.4263 328.797 75.3329 328.48 76.4484C328.159 77.564 328.805 78.4706 329.924 78.4706C331.039 78.4706 332.203 77.564 332.524 76.4484Z" fill="white"/>
<path d="M672.783 517.72H1.2172C0.798947 517.72 0.453308 517.279 0.453308 516.741V516.405C0.453308 515.868 0.796043 515.427 1.2172 515.427H672.783C673.201 515.427 673.547 515.868 673.547 516.405V516.741C673.544 517.279 673.201 517.72 672.783 517.72Z" fill="#2E3552"/>
</svg>
