<svg width="688" height="688" viewBox="0 0 688 688" fill="none" xmlns="http://www.w3.org/2000/svg">
<path fill-rule="evenodd" clip-rule="evenodd" d="M28.7441 579.64H637.818C684.873 505.517 691.933 339.905 640.718 264.976C593.525 195.935 506.6 124.914 397.065 104.212C287.528 83.5092 191.566 83.5332 150.065 110.883C118.316 131.806 130.044 160.411 140.409 185.692C141.132 187.454 141.848 189.2 142.542 190.926C156.76 226.286 158.855 254.362 100.365 305.731C33.5941 364.371 15.5213 449.449 12.176 506.152C11.0206 525.718 17.287 559.617 28.7441 579.64Z" fill="#A2ADDA"/>
<path d="M444.906 205.453H211.133V337.06H444.906V205.453Z" fill="#AED3FF"/>
<path d="M452.51 205.453H218.737V337.06H452.51V205.453Z" fill="#D2E4FF"/>
<path d="M312.55 298.175C329.057 281.668 329.057 254.905 312.55 238.398C296.043 221.891 269.28 221.891 252.773 238.398C236.266 254.905 236.266 281.668 252.773 298.175C269.28 314.682 296.043 314.682 312.55 298.175Z" fill="#F3F9FF"/>
<path d="M426.23 244.672H356.207C353.67 244.672 351.594 246.747 351.594 249.284C351.594 251.822 353.67 253.897 356.207 253.897H426.23C428.767 253.897 430.842 251.822 430.842 249.284C430.842 246.747 428.767 244.672 426.23 244.672Z" fill="#F3F9FF"/>
<path d="M426.23 263.672H356.207C353.67 263.672 351.594 265.748 351.594 268.285C351.594 270.822 353.67 272.898 356.207 272.898H426.23C428.767 272.898 430.842 270.822 430.842 268.285C430.842 265.748 428.767 263.672 426.23 263.672Z" fill="#F3F9FF"/>
<path d="M426.23 282.669H356.207C353.67 282.669 351.594 284.744 351.594 287.281C351.594 289.819 353.67 291.894 356.207 291.894H426.23C428.767 291.894 430.842 289.819 430.842 287.281C430.842 284.748 428.767 282.669 426.23 282.669Z" fill="#F3F9FF"/>
<path d="M243.97 267.672H282.671V228.971C261.298 228.971 243.97 246.298 243.97 267.672Z" fill="#A8D29F"/>
<path d="M321.372 268.916H282.671H243.97C243.97 290.29 261.298 307.617 282.671 307.617C304.045 307.617 321.372 290.29 321.372 268.916Z" fill="#F1A34F"/>
<path d="M275.988 247.774H254.984C253.789 247.774 252.811 248.753 252.811 249.948C252.811 251.143 253.789 252.122 254.984 252.122H275.988C277.183 252.122 278.162 251.143 278.162 249.948C278.162 248.75 277.183 247.774 275.988 247.774Z" fill="#82B378"/>
<path d="M259.766 255.681H254.983C253.788 255.681 252.81 256.659 252.81 257.854C252.81 259.049 253.788 260.028 254.983 260.028H259.766C260.961 260.028 261.94 259.049 261.94 257.854C261.94 256.659 260.961 255.681 259.766 255.681Z" fill="#82B378"/>
<path d="M307.168 278.377H286.164C284.969 278.377 283.99 279.356 283.99 280.551C283.99 281.746 284.969 282.724 286.164 282.724H307.168C308.363 282.724 309.342 281.746 309.342 280.551C309.342 279.356 308.363 278.377 307.168 278.377Z" fill="#DD8936"/>
<path d="M290.95 286.282H286.167C284.973 286.282 283.994 287.261 283.994 288.456C283.994 289.651 284.973 290.63 286.167 290.63H290.95C292.145 290.63 293.124 289.651 293.124 288.456C293.121 287.261 292.145 286.282 290.95 286.282Z" fill="#DD8936"/>
<path d="M194.669 360.629V495.225H428.443V360.629H194.669Z" fill="#AED3FF"/>
<path d="M202.271 360.629V495.224H436.045V360.629H202.271Z" fill="#D2E4FF"/>
<path d="M308.46 424.973C309.139 401.638 290.773 382.17 267.437 381.491C244.102 380.812 224.634 399.178 223.955 422.513C223.276 445.849 241.642 465.316 264.977 465.996C288.313 466.675 307.78 448.309 308.46 424.973Z" fill="#F3F9FF"/>
<path d="M339.741 409.387H409.764C412.301 409.387 414.376 407.312 414.376 404.775C414.376 402.238 412.301 400.162 409.764 400.162H339.741C337.204 400.162 335.128 402.238 335.128 404.775C335.125 407.309 337.204 409.387 339.741 409.387Z" fill="#F3F9FF"/>
<path d="M409.764 419.156H339.741C337.204 419.156 335.128 421.232 335.128 423.769C335.128 426.306 337.204 428.381 339.741 428.381H409.764C412.301 428.381 414.376 426.306 414.376 423.769C414.376 421.235 412.301 419.156 409.764 419.156Z" fill="#F3F9FF"/>
<path d="M409.764 438.156H339.741C337.204 438.156 335.128 440.231 335.128 442.768C335.128 445.305 337.204 447.381 339.741 447.381H409.764C412.301 447.381 414.376 445.305 414.376 442.768C414.376 440.231 412.301 438.156 409.764 438.156Z" fill="#F3F9FF"/>
<path d="M266.206 424.455L227.508 423.964C227.505 424.128 227.505 424.295 227.505 424.455C227.505 445.829 244.832 463.156 266.206 463.156C273.846 463.156 280.97 460.94 286.97 457.116L266.206 424.455Z" fill="#F1A34F"/>
<path d="M267.63 436.643H246.626C245.431 436.643 244.452 437.622 244.452 438.817C244.452 440.012 245.431 440.99 246.626 440.99H267.63C268.825 440.99 269.803 440.012 269.803 438.817C269.803 437.622 268.825 436.643 267.63 436.643Z" fill="#DD8936"/>
<path d="M251.409 444.549H246.626C245.431 444.549 244.452 445.528 244.452 446.723C244.452 447.918 245.431 448.897 246.626 448.897H251.409C252.604 448.897 253.583 447.918 253.583 446.723C253.583 445.528 252.604 444.549 251.409 444.549Z" fill="#DD8936"/>
<path d="M428.446 61.9199H194.669V183.886H428.446V61.9199Z" fill="#AED3FF"/>
<path d="M436.045 61.9199H202.271V183.886H436.045V61.9199Z" fill="#D2E4FF"/>
<path d="M296.086 154.585C312.592 138.078 312.592 111.315 296.085 94.8082C279.579 78.3013 252.815 78.3012 236.308 94.8082C219.801 111.315 219.801 138.078 236.308 154.585C252.815 171.092 279.579 171.092 296.086 154.585Z" fill="#F3F9FF"/>
<path d="M266.206 85.998C244.832 85.998 227.505 103.322 227.505 124.696C227.505 139.335 235.64 152.08 247.631 158.653C253.831 147.169 266.206 124.696 266.206 124.696L284.528 158.787C296.66 152.253 304.9 139.44 304.9 124.696C304.903 103.322 287.579 85.998 266.206 85.998Z" fill="#A8D29F"/>
<path d="M409.764 101.083H339.741C337.204 101.083 335.128 103.158 335.128 105.696C335.128 108.233 337.204 110.308 339.741 110.308H409.764C412.301 110.308 414.376 108.233 414.376 105.696C414.376 103.158 412.301 101.083 409.764 101.083Z" fill="#F3F9FF"/>
<path d="M409.764 120.083H339.741C337.204 120.083 335.128 122.158 335.128 124.695C335.128 127.232 337.204 129.308 339.741 129.308H409.764C412.301 129.308 414.376 127.232 414.376 124.695C414.376 122.158 412.301 120.083 409.764 120.083Z" fill="#F3F9FF"/>
<path d="M409.764 139.079H339.741C337.204 139.079 335.128 141.155 335.128 143.692C335.128 146.229 337.204 148.304 339.741 148.304H409.764C412.301 148.304 414.376 146.229 414.376 143.692C414.376 141.155 412.301 139.079 409.764 139.079Z" fill="#F3F9FF"/>
<path d="M267.63 106.212H246.626C245.431 106.212 244.452 107.191 244.452 108.386C244.452 109.581 245.431 110.56 246.626 110.56H267.63C268.825 110.56 269.803 109.581 269.803 108.386C269.803 107.191 268.825 106.212 267.63 106.212Z" fill="#82B378"/>
<path d="M251.409 114.118H246.626C245.431 114.118 244.452 115.097 244.452 116.292C244.452 117.487 245.431 118.466 246.626 118.466H251.409C252.604 118.466 253.583 117.487 253.583 116.292C253.583 115.097 252.607 114.118 251.409 114.118Z" fill="#82B378"/>
<path d="M496.002 272.552C496.002 272.552 523.271 300.702 524.581 311.319C525.89 321.935 511.607 338.539 511.607 338.539L496.002 272.552Z" fill="#E58638"/>
<path d="M484.342 564.583C484.342 564.583 483.416 579.547 480.519 579.763C480.132 579.793 465.833 579.793 465.833 579.793L447.579 579.688C447.579 579.688 447.7 575.288 453.036 574.358C458.373 573.429 467.303 569.677 470.537 562.626C473.935 555.208 484.342 564.583 484.342 564.583Z" fill="#163560"/>
<path d="M525.001 564.583C525.001 564.583 524.074 579.547 521.177 579.763C520.791 579.793 506.492 579.793 506.492 579.793L488.182 579.727C488.182 579.727 488.356 575.288 493.692 574.358C499.028 573.429 507.958 569.677 511.192 562.626C514.594 555.208 525.001 564.583 525.001 564.583Z" fill="#163560"/>
<path d="M464.127 404.1C464.127 404.1 468.9 434.633 486.712 488.838C504.523 543.042 506.949 566.514 506.949 566.514C506.949 566.514 511.768 567.212 516.855 567.212C520.073 567.212 526.054 565.977 526.054 565.977C526.054 565.977 526.218 506.738 518.008 479.481C509.797 452.225 516.237 381.217 516.237 381.217L464.127 404.1Z" fill="#163560"/>
<path d="M454.83 382.894C454.83 382.894 454.152 428.908 462.114 485.404C470.075 541.901 467.378 565.883 467.378 565.883C467.378 565.883 473.931 567.058 476.233 567.134C478.698 567.216 486.443 566.518 486.443 566.518C486.443 566.518 497.839 509.999 494.572 481.721C491.305 453.444 510.177 384.688 510.177 384.688L454.83 382.894Z" fill="#1C468A"/>
<path d="M491.74 275.214L482.748 281.876L469.751 279.139C469.932 277.954 470.789 273.041 471.572 268.592C471.617 268.33 471.667 268.068 471.709 267.809C472.377 264.025 472.956 260.771 472.956 260.771L485.095 254.721L489.622 252.466C489.609 252.544 489.272 256.669 489.223 257.268C488.375 267.953 491.74 275.214 491.74 275.214Z" fill="#FFB27D"/>
<path d="M470.661 271.852C470.946 271.731 488.342 266.597 490.231 267.223C492.12 267.848 493.24 271.505 493.24 271.505L464.785 277.937C464.785 277.937 467.024 273.384 470.661 271.852Z" fill="#E58638"/>
<path d="M517.504 388.573C514.555 402.024 465.483 403.619 452.833 391.408C451.393 390.017 451.324 383.541 451.868 374.811C452.928 357.752 456.336 332.093 456.47 318.985C456.536 312.654 457.407 306.179 458.566 300.3C461.031 287.768 464.789 277.934 464.789 277.934C464.789 277.934 488.758 270.185 493.243 271.505C514.846 277.852 520.454 375.122 517.504 388.573Z" fill="#EE9849"/>
<path d="M451.864 374.811C452.924 357.752 456.332 332.093 456.467 318.985C456.532 312.654 457.403 306.179 458.562 300.299L472.979 297.756C472.979 297.756 487.075 355.336 451.864 374.811Z" fill="#E58638"/>
<path d="M459.672 351.034C459.672 351.034 460.654 353.385 458.591 354.959C456.529 356.537 455.19 359.091 455.662 360.96C456.133 362.829 460.66 365.874 462.232 365.383C463.8 364.892 466.995 362.433 466.651 361.448C466.307 360.462 468.799 352.802 464.975 349.856C461.148 346.906 459.672 351.034 459.672 351.034Z" fill="#FFB27D"/>
<path d="M475.794 274.484C475.794 274.484 461.731 277.116 450.529 293.628C439.323 310.14 431.951 322.416 434.016 328.368C436.082 334.319 454.896 354.96 458.14 354.96C461.384 354.96 466.618 352.599 466.913 347.293C466.913 347.293 453.668 327.441 456.277 324.466C457.393 323.196 473.473 310.14 475.771 316.036C479.566 325.795 475.794 274.484 475.794 274.484Z" fill="#EE9849"/>
<path d="M488.313 257.458C485.648 262.558 475.712 266.971 471.571 268.592C471.617 268.33 471.666 268.068 471.709 267.809C472.377 264.025 472.956 260.771 472.956 260.771L485.095 254.721C487.779 254.679 489.413 255.359 488.313 257.458Z" fill="#FCA56B"/>
<path d="M469.045 261.048C469.045 261.048 487.014 266.652 490.333 255.407C493.653 244.162 498.206 237.314 486.873 233.258C475.54 229.202 472.034 232.832 470.014 236.316C467.994 239.802 464.455 259.3 469.045 261.048Z" fill="#FFB27D"/>
<path d="M470.721 235.236C470.721 235.236 471.867 248.321 474.574 247.754C477.281 247.185 479.733 246.766 479.337 250.71C478.941 254.655 475.189 259.209 483.527 259.906C491.868 260.603 503.857 239.096 501.565 235.023C494.956 223.274 461.165 220.904 470.721 235.236Z" fill="#163560"/>
<path d="M118.513 539.304L123.984 562.347L132.178 562.301L132.479 539.304H118.513Z" fill="#FFB27D"/>
<path d="M187.444 540.286L203.01 562.347L209.076 554.556L199.707 537.254L187.444 540.286Z" fill="#FFB27D"/>
<path d="M146.971 236.516C144.143 234.909 140.751 234.732 138.381 234.873C138.993 234.241 140.192 234.012 140.192 234.012C138.722 233.792 135.438 235.252 135.438 235.252C114.985 227.369 111.77 257.487 112.199 264.486C112.624 271.482 105.324 273.767 94.6849 279.279C74.3818 289.798 72.5977 303.884 72.5977 303.884C72.7548 303.976 72.9218 304.084 73.0953 304.205C74.1035 302.499 76.1757 299.294 77.9239 298.81C77.8584 298.964 75.8582 303.223 75.1118 305.662C81.1026 310.218 92.3082 320.314 100.116 327.474C100.08 326.076 100.135 324.089 100.646 323.041L101.612 328.852C105.792 332.695 108.673 335.396 108.673 335.396C108.156 329.742 134.244 299.903 147.855 290.97C151.168 286.092 152.347 277.476 152.435 276.798C151.862 283.63 150.694 287.463 149.649 289.621C161.179 279.004 154.471 240.778 146.971 236.516Z" fill="#163560"/>
<path d="M147.057 291.408C147.126 291.437 140.487 294.884 135.491 293.519C130.794 292.239 127.723 286.147 127.788 286.134C129.779 285.738 130.352 283.004 130.309 271.255L131.209 271.432L146.333 274.428C146.333 274.428 145.99 279.187 145.98 283.669C145.967 287.437 146.193 291.005 147.057 291.408Z" fill="#FFB27D"/>
<path d="M129.955 241.449C129.955 241.449 137.416 233.507 146.782 241.043C146.782 241.043 141.328 240.1 129.955 241.449Z" fill="#E37970"/>
<path d="M146.33 274.427C146.33 274.427 145.986 279.187 145.976 283.668C137.514 283.43 133.042 275.71 131.209 271.432L146.33 274.427Z" fill="#D68D5D"/>
<path d="M129.644 269.788C129.644 269.788 125.208 262.78 124.144 256.789C123.384 252.51 125.561 236.656 141.497 238.938C141.497 238.938 146.126 239.393 150.474 242.332C153.934 244.67 158.926 249.715 153.345 263.549L151.894 268.224L129.644 269.788Z" fill="#163560"/>
<path d="M206.608 548.51L198.59 548.755L189.912 549.021C189.912 549.021 169.871 526.704 158.626 490.933C158.364 490.102 158.089 489.26 157.794 488.409C151.643 470.47 138.886 447.95 132.165 427.565C131.095 424.318 130.135 421.264 129.271 418.37C128.996 417.443 128.725 416.533 128.469 415.636C123.516 398.424 122.082 387.126 120.76 375.05L169.298 375.439C169.301 375.443 177.138 457.889 206.608 548.51Z" fill="#80BDCC"/>
<path d="M162.505 347.554C162.384 370.65 165.893 380.559 165.893 380.559C165.893 380.559 145.112 391.117 120.413 383.345C120.121 383.253 99.9622 378.651 99.9622 378.651C100.375 377.714 104.051 362.151 104.454 361.294C109.668 350.095 113.626 345.184 114.245 341.744C115.391 335.317 115.417 328.665 114.844 322.393C113.338 305.789 108.853 292.004 108.853 292.004C115.584 290.472 122.059 287.853 129.065 285.228C130.675 287.234 135.425 289.261 139.701 289.166C144.621 289.058 146.156 286.976 145.976 284.632C151.221 287.549 155.388 290.325 155.388 290.325C159.844 298.064 168.882 305.58 169.537 317.453C169.7 320.377 162.508 346.906 162.505 347.554Z" fill="#E7F1FD"/>
<path d="M120.763 350.127C118.642 353.129 114.573 371.383 104.454 373.677C109.669 360.668 113.627 354.965 114.245 350.965C115.391 343.498 115.417 335.775 114.844 328.488C118.233 322.55 120.76 318.481 120.76 318.481C121.025 317.521 126.145 301.697 127.785 315.842C129.425 329.987 123.133 346.768 120.763 350.127Z" fill="#5F9AA8"/>
<path d="M149.155 278.673C149.155 278.673 129.134 279.004 129.121 266.532C129.108 254.059 126.515 245.701 139.295 244.965C152.079 244.225 154.567 248.982 155.585 253.146C156.603 257.306 154.364 278.268 149.155 278.673Z" fill="#FFB27D"/>
<path d="M154.988 246.212C151.898 242.467 149.56 243.282 148.251 244.405C143.923 237.94 130.249 247.289 130.249 247.289C128.91 256.239 122.458 261.366 122.458 261.366C122.458 261.366 126.108 263.622 134.521 261.458C141.144 259.755 145.946 250.331 147.694 246.392C148.886 247.45 151.397 249.895 152.15 252.291C153.148 255.467 153.597 262.004 155.502 261.782C155.502 261.782 159.63 251.836 154.988 246.212Z" fill="#163560"/>
<path d="M123.709 561.057C123.709 561.057 124.37 565.621 122.664 570.505C122.664 570.505 121.322 576.617 127.342 576.728C133.363 576.839 134.839 576.273 134.155 572.528C133.474 568.78 132.177 562.301 132.177 562.301L123.709 561.057Z" fill="#FFB27D"/>
<path d="M134.725 579.73C134.725 579.73 134.718 579.733 134.705 579.743H122.252C122.239 579.733 122.233 579.73 122.233 579.73C121.552 576.535 122.665 570.511 122.665 570.511C129.48 577.026 133.746 570.348 133.746 570.348C134.852 573.134 134.725 579.73 134.725 579.73Z" fill="#C45446"/>
<path d="M223.581 573.425C223.581 573.425 212.483 560.825 209.076 554.556L200.826 558.782L219.27 576.103L223.584 575.536L223.581 573.425Z" fill="#FFB27D"/>
<path d="M230.386 579.707H214.99C213.635 578.486 212.342 576.025 210.758 572.797C209.851 570.947 207.818 569.929 205.733 569.369V579.707H202.547L199.598 568.715C197.634 565.032 199.11 561.653 200.491 558.743C202.099 558.74 206.761 559.902 214.958 569.32C217.652 572.414 220.624 573.517 223.58 573.425C223.62 573.452 223.662 573.474 223.702 573.491C228.37 575.632 229.892 578.264 230.386 579.707Z" fill="#C45446"/>
<path d="M229.64 299.373C229.64 299.373 216.497 306.722 211.802 308.84C210.133 309.593 207.108 311.001 204.018 312.445C202.152 313.315 200.263 314.203 198.629 314.972C195.87 316.268 192.586 315.558 190.602 313.24C183.486 304.932 165.068 286.92 146.048 284.661L145.983 284.632C145.983 284.632 145.986 284.638 145.993 284.651C145.986 284.651 145.976 284.648 145.97 284.648L146.074 284.854C147.145 287.513 157.571 313.564 157.892 319.061C158.233 324.852 159.254 413.77 159.254 413.77C159.254 413.77 158.573 417.859 166.407 416.153C174.244 414.451 176.287 412.745 176.287 412.745C176.287 412.745 168.79 357.896 170.836 338.817C171.239 335.072 170.876 330.865 170.037 326.521C181.623 333.537 195.28 336.66 195.28 336.66C195.28 336.66 200.374 334.437 208.29 329.533C211.613 327.471 215.466 324.184 219.26 320.707C223.843 316.507 231.729 306.356 231.729 306.356L229.64 299.373Z" fill="#E37970"/>
<path d="M198.589 548.755L189.911 549.02C189.911 549.02 169.87 526.704 158.625 490.933C158.363 490.101 158.088 489.26 157.793 488.409C151.642 470.469 138.885 447.95 132.164 427.565C131.094 424.318 130.135 421.263 129.27 418.369C128.995 417.443 128.724 416.533 128.468 415.636L135.615 410.211C135.615 410.211 157.073 444.961 163.719 477.661C169.493 506.073 192.605 540.253 198.589 548.755Z" fill="#5F9AA8"/>
<path d="M136.368 480.713C136.489 496.616 135.687 533.176 133.615 548.313H125.929C121.679 548.313 119.561 548.251 119.561 548.251C114.366 521.934 110.67 500.158 107.979 481.394C105.773 465.994 103.809 452.792 102.299 441.429C100.78 429.991 99.723 420.416 99.3465 412.323C99.2876 411.05 99.2451 409.809 99.2189 408.608C99.196 407.4 99.1894 406.224 99.1992 405.082L141.138 400.993C140.607 428.858 136.299 471.471 136.368 480.713Z" fill="#80BDCC"/>
<path d="M125.929 548.316C121.679 548.316 119.561 548.254 119.561 548.254C114.366 521.937 110.67 500.161 107.979 481.397C105.773 465.997 103.809 452.795 102.3 441.432C100.781 429.994 99.7231 420.419 99.3467 412.326L114.736 421.378C114.736 421.378 104.915 424.841 108.66 451.076C112.409 477.308 120.714 544.601 125.929 548.316Z" fill="#5F9AA8"/>
<path d="M127.909 412.068C127.909 412.068 124.956 422.74 114.736 421.378C104.516 420.016 89.981 413.881 89.981 413.881C89.981 413.881 94.348 400.08 99.7789 381.95C106.356 360.001 114.494 331.703 118.331 313.855C119.408 308.853 120.144 304.676 120.416 301.687L129.071 285.228C129.071 285.228 141.537 313.61 142.218 320.763C142.899 327.919 127.909 412.068 127.909 412.068Z" fill="#E37970"/>
<path d="M164.409 328.751C159.489 329.396 157.604 332.011 156.998 335.537C156.671 337.439 155.689 339.321 154.857 340.65C149.956 340.912 138.289 341.547 128.485 342.169L127.676 355.028C135.729 354.026 145.625 351.984 157.018 348.085C157.892 347.934 158.985 347.391 160.357 346.271C167.415 340.49 171.422 330.81 171.435 329.425C171.445 328.034 169.33 328.106 164.409 328.751Z" fill="#FFB27D"/>
<path d="M127.457 335.756C127.002 347.338 124.275 369.825 99.9752 381.862C99.9097 381.892 99.8442 381.928 99.782 381.954C106.359 360.004 114.497 331.707 118.334 313.859C122.792 320.527 127.706 329.376 127.457 335.756Z" fill="#C45446"/>
<path d="M129.071 285.228C129.071 285.228 108.284 286.701 103.288 297.831C98.2926 308.961 96.7016 345.98 103.062 356.881C103.062 356.881 111.819 359.375 127.304 356.478C127.493 356.442 127.683 356.406 127.876 356.37C127.876 356.37 132.816 344.274 128.387 341.891C128.387 341.891 115.329 342.572 116.69 338.257C118.049 333.942 129.071 285.228 129.071 285.228Z" fill="#E37970"/>
<path d="M243.73 290.639C232.548 289.202 229.726 299.373 229.726 299.373L231.814 306.359C235.262 306.834 238.28 305.937 241.059 301.959C243.838 297.982 244.604 299.511 246.372 296.548C248.765 292.538 245.014 291.042 243.73 290.639Z" fill="#FFB27D"/>
<path d="M211.803 308.84C210.133 309.593 207.108 311.001 204.018 312.445C205.671 315.381 207.74 320.717 208.29 329.536C211.613 327.474 215.914 324.04 219.587 320.436C225.48 314.651 231.729 306.359 231.729 306.359L229.641 299.373C229.641 299.373 216.497 306.722 211.803 308.84Z" fill="#FFB27D"/>
<path d="M652.979 581.933H18.3926C18.053 581.933 17.7734 581.416 17.7734 580.787C17.7734 580.158 18.053 579.64 18.3926 579.64H652.981C653.321 579.64 653.6 580.158 653.6 580.787C653.598 581.416 653.321 581.933 652.979 581.933Z" fill="#202F4E"/>
</svg>
