<svg width="673" height="492" viewBox="0 0 673 492" fill="none" xmlns="http://www.w3.org/2000/svg">
<path d="M636.378 370.733C618.483 360.734 605.64 349.193 608.977 328.916C611.482 313.711 620.947 301.302 627.964 289.037C662.417 228.814 656.928 187.785 630.358 161.288C586.433 117.487 507.838 113.401 433.934 127.975C374.21 139.751 340.696 164.955 317.162 187.813C301.467 203.063 290.218 217.269 278.587 225.743C272.24 230.366 265.785 233.288 258.435 233.738C217.418 236.26 142.328 186.073 48.3379 276.644C17.2089 306.646 1.15223 343.309 0.514028 385.126C-0.279756 437.547 21.7017 475.855 28.3378 489.896L658.639 489.823C699.243 406.939 636.378 370.733 636.378 370.733Z" fill="#EBF3FA"/>
<path d="M371.775 489.854H574.348C574.348 489.854 606.522 477.576 604.83 461.701C603.137 445.825 551.065 466.146 551.065 466.146C551.065 466.146 554.875 450.057 541.117 445.825C527.359 441.592 480.367 488.372 462.374 467.838C444.38 447.304 462.688 415.344 423.053 415.131C383.415 414.921 371.775 489.854 371.775 489.854Z" fill="#A8D29F"/>
<path d="M262.061 488.625H426.231C431.378 488.625 435.588 484.415 435.588 479.268V150.962C435.588 145.815 431.378 141.605 426.231 141.605H262.061C256.914 141.605 252.703 145.815 252.703 150.962V479.265C252.703 484.412 256.914 488.625 262.061 488.625Z" fill="#4A75CB"/>
<path d="M244.333 488.626H408.504C413.651 488.626 417.861 484.416 417.861 479.269V150.963C417.861 145.816 413.651 141.605 408.504 141.605H244.333C239.187 141.605 234.976 145.816 234.976 150.963V479.265C234.976 484.412 239.187 488.626 244.333 488.626Z" fill="#AFCDFB"/>
<path d="M299.616 154.741H347.157C348.173 154.741 349.009 155.573 349.009 156.592C349.009 157.608 348.177 158.443 347.157 158.443H299.616C298.6 158.443 297.765 157.612 297.765 156.592C297.765 155.573 298.6 154.741 299.616 154.741Z" fill="#4A75CB"/>
<path d="M355.601 154.741C356.62 154.741 357.452 155.573 357.452 156.592C357.452 157.608 356.62 158.443 355.601 158.443C354.585 158.443 353.753 157.611 353.753 156.592C353.753 155.573 354.585 154.741 355.601 154.741Z" fill="#4A75CB"/>
<path d="M336.083 469.45C336.083 462.862 330.742 457.521 324.154 457.521C317.565 457.521 312.225 462.862 312.225 469.45C312.225 476.039 317.565 481.379 324.154 481.379C330.742 481.379 336.083 476.039 336.083 469.45Z" fill="#4A75CB"/>
<path d="M250.583 449.806H402.637L402.637 169.124H250.583L250.583 449.806Z" fill="#D5E7F7"/>
<path d="M250.583 449.827H402.637V417.244H250.583V449.827Z" fill="#D5E7F7"/>
<path d="M540.587 260.539C540.587 260.539 541.927 254.113 545.273 252.64C548.62 251.166 550.63 245.273 551.97 246.88C553.31 248.487 551.567 259.2 549.023 260.539C546.48 261.879 545.273 263.261 545.273 263.261L540.587 260.539Z" fill="#F4AC75"/>
<path d="M483.12 234.958C483.12 234.958 504.46 272.176 512.201 279.025L540.587 257.863C540.587 257.863 544.705 259.127 546.508 263.261C546.508 263.261 529.27 298.381 512.299 299.87C495.328 301.359 471.508 257.777 471.508 257.777L483.12 234.958Z" fill="#E58638"/>
<path d="M417.084 465.251C417.084 465.251 412.15 469.823 413.112 473.071C414.074 476.319 418.525 478.485 419.129 482.457C419.732 486.429 422.135 488.595 424.304 488.595C426.469 488.595 434.629 488.595 434.629 488.595C434.629 488.595 436.223 485.8 432.372 484.959C428.521 484.118 427.07 479.45 427.311 475.119C427.552 470.788 426.949 465.01 426.949 465.01L418.767 463.085L417.084 465.251Z" fill="#233862"/>
<path d="M478.574 488.426C478.72 488.499 478.968 488.566 479.307 488.623H506.541C506.328 487.674 505.493 485.715 502.159 485.175C497.847 484.473 490.37 481.971 488.706 476.453C488.652 476.275 488.604 476.094 488.563 475.91C487.239 470.014 477.612 477.713 477.612 477.713C477.612 477.713 477.583 477.948 477.542 478.348C477.317 480.517 476.745 487.512 478.574 488.426Z" fill="#233862"/>
<path d="M501.012 330.717C501.012 330.717 499.552 348.958 497.831 370.885C495.494 400.671 492.687 437.258 492.407 444.19C491.928 456.227 490.001 475.477 490.001 475.477C490.001 475.477 485.432 480.05 476.284 478.122C476.284 478.122 468.134 450.638 465.803 421.56C465.768 421.084 465.73 420.605 465.695 420.122C463.53 390.52 460.161 328.186 460.161 328.186L501.012 330.717Z" fill="#2B478B"/>
<path d="M501.012 330.717C501.012 330.717 499.552 348.958 497.831 370.886L465.803 421.564C465.768 421.088 465.73 420.609 465.695 420.126C463.53 390.524 460.161 328.19 460.161 328.19L501.012 330.717Z" fill="#233862"/>
<path d="M494.338 332.882C494.338 332.882 467.984 398.944 450.658 429.99C433.331 461.037 427.914 469.702 427.914 469.702C427.914 469.702 417.985 465.73 417.084 463.025C417.084 463.025 423.71 403.088 435.315 388.479C441.872 380.223 449.575 355.448 449.937 346.783C450.299 338.118 452.283 320.972 452.283 320.972L494.338 332.882Z" fill="#2B478B"/>
<path d="M480.821 230.909C481.993 223.991 482.028 219.892 482.028 219.892L468.657 209.115C469.153 223.934 459.659 231.055 459.659 231.055C459.659 231.055 477.478 239.825 487.775 236.577C487.775 236.577 485.241 233.335 480.821 230.909Z" fill="#F4AC75"/>
<path d="M485.075 224.048C485.075 224.048 467.831 223.987 468.035 213.249C468.238 202.511 466.148 195.271 477.166 194.859C488.184 194.443 490.245 198.58 491.048 202.18C491.854 205.781 489.565 223.787 485.075 224.048Z" fill="#F4AC75"/>
<path d="M502.149 332.237C501.838 332.495 501.479 332.65 501.066 332.65C497.199 332.596 485.921 334.746 476.379 333.765C468.334 332.993 461.215 330.609 453.569 327.183C452.553 326.729 450.216 325.481 450.27 324.344C450.305 323.103 450.429 321.299 450.581 319.029C451.121 311.135 452.064 297.562 451.147 281.902C450.981 278.984 450.896 276.095 450.883 273.247C450.804 252.021 455.014 233.354 463.469 227.036C464.193 226.518 468.626 228.687 472.703 230.696C476.468 232.554 480.231 232.757 483.79 232.04L487.346 235.183C491.677 239.206 496.424 244.673 498.485 252.973C500.24 260.038 501.269 272.777 501.838 285.979C502.095 291.961 502.301 297.997 502.355 303.721V303.928C502.406 304.496 502.406 305.115 502.406 305.684C502.615 320.375 502.406 332.028 502.149 332.237Z" fill="#EE9849"/>
<path d="M450.584 319.029C451.124 311.135 452.067 297.562 451.15 281.902C450.984 278.984 450.899 276.095 450.886 273.247C454.41 264.702 457.287 258.504 457.287 258.504H466.168C466.168 258.504 472.677 302.969 450.584 319.029Z" fill="#E58638"/>
<path d="M392.397 358.654L394.762 342.051C395.467 337.105 400.093 333.634 405.04 334.339L418.055 336.193L418.56 332.653C418.795 331.015 420.316 329.875 421.951 330.107L433.261 331.72C434.052 331.831 434.753 332.247 435.236 332.891C435.718 333.533 435.922 334.323 435.807 335.114L435.303 338.654L442.843 339.727C443.142 339.769 443.437 339.829 443.726 339.899L447.863 340.489C452.791 341.191 456.249 345.798 455.547 350.729L453.207 367.141C452.505 372.069 447.898 375.527 442.967 374.825L439.875 374.384C439.233 374.435 438.576 374.416 437.913 374.32L400.109 368.932C395.162 368.224 391.692 363.601 392.397 358.654ZM432.997 333.58L421.688 331.967C421.573 331.951 421.462 331.955 421.351 331.97C420.881 332.047 420.491 332.421 420.421 332.917L419.916 336.457L433.442 338.384L433.947 334.844C434.032 334.234 433.607 333.666 432.997 333.58Z" fill="#233862"/>
<path d="M433.309 321.795L431.623 324.7C431.623 324.7 434.925 331.695 427.092 334.305C427.092 334.305 423.72 335.156 423.434 332.819C423.145 330.482 423.643 331.399 423.155 328.101C422.666 324.802 423.955 321.865 426.387 321.077L428.308 319.239L433.309 321.795Z" fill="#F4AC75"/>
<path d="M428.838 322.588C432.035 323.21 435.502 322.96 435.502 322.96C435.502 322.96 444.996 293.634 446.219 290.954C447.441 288.274 474.417 256.568 474.417 256.568L463.18 228.445C463.18 228.445 434.004 277.18 431.041 284.029C426.145 295.345 424.447 320.718 424.447 320.718C424.447 320.718 426.329 322.099 428.838 322.588Z" fill="#EE9849"/>
<path d="M468.194 212.239C468.194 212.239 469.962 212.242 470.089 209.826C470.213 207.41 470.744 204.311 472.572 205.216C474.401 206.121 474.236 207.68 475.179 206.915C476.125 206.149 476.783 202.355 482.561 203.063C488.34 203.771 490.331 206.165 493.198 205.445C496.065 204.724 496.891 200.714 496.891 200.714C496.891 200.714 495.887 202.025 494.665 202.288C494.665 202.288 500.145 196.957 495.703 191.912C491.261 186.864 485.546 188.705 482.533 188.378C475.897 187.661 471.588 187.334 468.711 191.287C465.835 195.236 464.685 207.369 468.194 212.239Z" fill="#2B478B"/>
<path d="M541.722 254.894L548.641 240.857C548.774 240.584 549.108 240.473 549.378 240.606L553.229 242.505C553.502 242.638 553.613 242.972 553.48 243.245L546.561 257.282C546.428 257.555 546.095 257.666 545.822 257.533L541.97 255.634C541.703 255.498 541.589 255.167 541.722 254.894Z" fill="#2B478B"/>
<path d="M545.311 256.809L552.347 242.534C552.449 242.327 552.703 242.241 552.909 242.343L555.167 243.458C555.373 243.559 555.459 243.813 555.357 244.02L548.321 258.295C548.219 258.501 547.965 258.587 547.759 258.485L545.502 257.374C545.292 257.269 545.206 257.015 545.311 256.809Z" fill="#233862"/>
<path d="M481.774 223.8C481.774 223.8 481.615 225.661 481.32 227.67C481.32 227.67 474.23 224.641 471.734 220.393C471.734 220.393 474.852 222.959 481.774 223.8Z" fill="#C97C47"/>
<path d="M139.964 423.98L145.746 422.058L140.358 405.854L134.577 407.777L139.964 423.98Z" fill="#2B478B"/>
<path d="M139.945 423.994L141.569 423.454L136.182 407.251L134.558 407.791L139.945 423.994Z" fill="#233862"/>
<path d="M83.4372 488.241C83.4372 488.241 70.7811 489.327 70.2413 486.927C70.1683 486.609 68.3902 474.626 68.3902 474.626L66.4851 461.269C66.3264 460.16 67.4535 459.275 68.4727 459.738C69.5205 460.214 70.6795 461.202 71.3494 463.228C72.7941 467.584 77.0456 474.601 83.3578 476.43C90.0002 478.354 83.4372 488.241 83.4372 488.241Z" fill="#163560"/>
<path d="M212.021 464.926C212.021 464.926 163.012 427.479 149.07 427.069C135.128 426.659 89.9048 488.559 89.9048 488.559H106.841C106.841 488.559 136.681 472.677 147.178 457.585C148.235 456.067 150.493 456.137 151.474 457.703C156.9 466.374 171.087 487.641 180.26 488.559C190.106 489.543 212.021 464.926 212.021 464.926Z" fill="#233862"/>
<path d="M207.328 363.03C207.328 363.03 207.636 365.484 208.036 368.513C208.566 372.447 209.274 377.334 209.738 378.861L224.483 382.598L225.566 371.876C225.566 371.876 221.873 364.468 221.895 353.99L207.328 363.03Z" fill="#FFB27D"/>
<path d="M234.936 467.552L190.973 473.502C190.973 473.502 190.855 472.642 190.655 471.2C190.595 470.756 196.12 471.321 196.107 470.835C196.008 466.555 193.859 466.085 194.583 460.411C195.062 456.668 193.392 446.631 192.249 443.431C190.931 439.738 190.322 432.724 190.055 426.059C189.718 417.712 189.912 409.911 189.909 409.853C189.48 404.535 190.744 398.633 192.862 393.019C197.044 381.95 204.835 375.683 208.499 371.965C208.499 371.965 212.973 373.07 224.597 369.58C224.943 369.475 225.94 370.939 226.382 371.793C226.382 371.793 231.897 378.251 233.964 393.775C235.815 407.672 234.936 467.552 234.936 467.552Z" fill="#C65447"/>
<path d="M223.102 400.055C223.02 402.005 205.775 456.89 207.887 460.938C218.111 480.526 196.079 472.461 194.678 467.409C195.158 463.666 193.392 446.634 192.249 443.431C190.932 439.738 190.322 432.724 190.055 426.059C190.487 423.627 191.497 421.116 192.862 418.69C199.27 417.687 223.744 384.945 223.102 400.055Z" fill="#B23F36"/>
<path d="M235.012 461.301C235.012 461.301 234.986 464.736 234.964 469.835C234.929 477.98 233.354 488.559 225.385 488.559C212.427 488.559 82.7702 488.559 82.7702 488.559C82.7702 488.559 78.833 485.898 78.5568 480.834C78.2647 475.462 79.9602 473.557 79.9602 473.557C79.9602 473.557 131.013 471.779 141.377 468.305C193.335 450.899 235.012 461.301 235.012 461.301Z" fill="#2B478B"/>
<path d="M207.328 363.03C207.328 363.03 207.636 365.484 208.036 368.514C221.66 364.541 221.898 353.987 221.898 353.987L207.328 363.03Z" fill="#E8945B"/>
<path d="M205.184 363.817C205.184 363.817 221.743 364.306 221.892 353.99C222.038 343.674 224.276 336.787 213.71 336.038C203.143 335.288 201.031 339.197 200.145 342.626C199.256 346.058 200.879 363.423 205.184 363.817Z" fill="#FFB27D"/>
<path d="M222.188 358.029C222.188 358.029 220.438 357.737 220.721 355.327C221.004 352.917 221 349.767 219.041 350.355C217.082 350.942 216.984 352.511 216.181 351.596C215.374 350.679 215.361 346.821 209.532 346.551C203.702 346.281 201.33 348.31 198.622 347.119C195.911 345.929 195.768 341.823 195.768 341.823C195.768 341.823 196.539 343.29 197.704 343.754C197.704 343.754 193.18 337.568 198.419 333.323C203.655 329.081 208.995 331.856 212.028 332.04C218.705 332.444 223.02 332.844 225.201 337.232C227.373 341.623 226.471 353.806 222.188 358.029Z" fill="#233862"/>
<path d="M202.692 358.683C202.692 358.683 202.584 359.963 205.181 360.401C205.181 360.401 207.474 360.572 207.67 359.426C207.667 359.426 205.441 359.404 202.692 358.683Z" fill="white"/>
<path d="M152.17 423.697L149.474 423.608C149.474 423.608 143.975 418.512 142.733 422.021C142.733 422.021 135.621 419.188 135.313 421.144C135.113 422.433 136.9 423.903 139.882 426.078C142.136 427.726 146.969 429.165 148.861 428.33L150.96 427.387L152.17 423.697Z" fill="#E49963"/>
<path d="M219.117 372.06C219.117 372.06 208.598 376.502 203.133 385.996C199.491 392.321 193.224 403.084 189.445 409.562C187.432 413.01 184.073 415.461 180.171 416.318L167.403 419.128L149.47 423.612C149.47 423.612 149.045 424.37 149.15 425.615C149.296 427.377 150.451 427.733 150.451 427.733C150.451 427.733 167.194 431.762 173.154 432.21C187.839 433.315 194.799 431.391 196.955 430.597C197.437 430.419 197.866 430.162 198.266 429.841C200.514 428.012 209.144 420.786 213.684 413.88C218.104 407.161 230.287 389.701 230.287 389.701L219.117 372.06Z" fill="#C65447"/>
<path d="M189.827 408.91L198.723 393.622L189.973 404.77C189.973 404.77 189.75 406.618 189.827 408.91Z" fill="#B23F36"/>
<path d="M366.253 66.9458C366.253 66.9458 362.507 64.3835 362.402 67.2189C362.297 70.0543 364.11 74.4772 365.145 72.2102C366.183 69.9431 366.656 69.089 366.253 66.9458Z" fill="#E49963"/>
<path d="M669.44 491.347H2.56042C1.79724 491.347 1.17334 490.702 1.17334 489.913C1.17334 489.125 1.79724 488.48 2.56042 488.48H669.44C670.203 488.48 670.827 489.125 670.827 489.913C670.827 490.702 670.203 491.347 669.44 491.347Z" fill="#2E3552"/>
<path d="M379.906 222.594H271.288C266.744 222.594 263.026 226.312 263.026 230.855V243.937C263.026 246.014 263.804 247.915 265.08 249.37L263.026 258.762L274.872 252.199H379.903C384.446 252.199 388.164 248.481 388.164 243.937V230.855C388.164 226.309 384.446 222.594 379.906 222.594Z" fill="#A8D29F"/>
<path d="M270.668 232.561H380.538C381.274 232.561 381.877 231.957 381.877 231.218C381.877 230.481 381.274 229.875 380.538 229.875H270.668C269.932 229.875 269.325 230.478 269.325 231.218C269.328 231.957 269.932 232.561 270.668 232.561Z" fill="white"/>
<path d="M380.537 235.749H270.668C269.931 235.749 269.325 236.352 269.325 237.092C269.325 237.828 269.928 238.435 270.668 238.435H380.537C381.274 238.435 381.877 237.831 381.877 237.092C381.877 236.352 381.274 235.749 380.537 235.749Z" fill="white"/>
<path d="M380.537 241.4H270.668C269.931 241.4 269.325 242.004 269.325 242.743C269.325 243.48 269.928 244.087 270.668 244.087H380.537C381.274 244.087 381.877 243.483 381.877 242.743C381.877 242.004 381.274 241.4 380.537 241.4Z" fill="white"/>
<path d="M271.288 281.086H379.906C384.45 281.086 388.168 284.804 388.168 289.348V302.429C388.168 304.506 387.39 306.408 386.113 307.862L388.168 317.254L376.321 310.691H271.288C266.744 310.691 263.026 306.973 263.026 302.429V289.348C263.026 284.804 266.744 281.086 271.288 281.086Z" fill="#F1A34F"/>
<path d="M380.525 291.053H270.655C269.919 291.053 269.312 290.45 269.312 289.71C269.312 288.973 269.915 288.367 270.655 288.367H380.525C381.261 288.367 381.864 288.97 381.864 289.71C381.864 290.45 381.261 291.053 380.525 291.053Z" fill="white"/>
<path d="M270.656 294.241H380.525C381.261 294.241 381.865 294.844 381.865 295.584C381.865 296.32 381.261 296.927 380.525 296.927H270.656C269.919 296.927 269.312 296.324 269.312 295.584C269.312 294.844 269.916 294.241 270.656 294.241Z" fill="white"/>
<path d="M270.656 299.893H380.525C381.261 299.893 381.865 300.496 381.865 301.236C381.865 301.972 381.261 302.579 380.525 302.579H270.656C269.919 302.579 269.312 301.975 269.312 301.236C269.312 300.496 269.916 299.893 270.656 299.893Z" fill="white"/>
<path d="M379.906 339.579H271.288C266.744 339.579 263.026 343.297 263.026 347.84V360.922C263.026 362.998 263.804 364.9 265.08 366.355L263.026 375.747L274.872 369.184H379.903C384.446 369.184 388.164 365.465 388.164 360.922V347.84C388.164 343.297 384.446 339.579 379.906 339.579Z" fill="#699DEE"/>
<path d="M270.668 349.545H380.538C381.274 349.545 381.877 348.942 381.877 348.202C381.877 347.465 381.274 346.859 380.538 346.859H270.668C269.932 346.859 269.325 347.462 269.325 348.202C269.328 348.942 269.932 349.545 270.668 349.545Z" fill="white"/>
<path d="M380.537 352.732H270.668C269.931 352.732 269.325 353.336 269.325 354.075C269.325 354.812 269.928 355.419 270.668 355.419H380.537C381.274 355.419 381.877 354.815 381.877 354.075C381.877 353.339 381.274 352.732 380.537 352.732Z" fill="white"/>
<path d="M380.537 358.385H270.668C269.931 358.385 269.325 358.988 269.325 359.728C269.325 360.468 269.928 361.071 270.668 361.071H380.537C381.274 361.071 381.877 360.468 381.877 359.728C381.877 358.991 381.274 358.385 380.537 358.385Z" fill="white"/>
<path d="M271.288 398.071H379.906C384.45 398.071 388.168 401.789 388.168 406.333V419.415C388.168 421.491 387.39 423.393 386.113 424.847L388.168 434.239L376.321 427.676H271.288C266.744 427.676 263.026 423.958 263.026 419.415V406.333C263.026 401.789 266.744 398.071 271.288 398.071Z" fill="#A8D29F"/>
<path d="M380.525 408.037H270.655C269.919 408.037 269.312 407.434 269.312 406.694C269.312 405.958 269.915 405.351 270.655 405.351H380.525C381.261 405.351 381.864 405.954 381.864 406.694C381.864 407.434 381.261 408.037 380.525 408.037Z" fill="white"/>
<path d="M270.656 411.229H380.525C381.261 411.229 381.865 411.832 381.865 412.572C381.865 413.308 381.261 413.915 380.525 413.915H270.656C269.919 413.915 269.312 413.311 269.312 412.572C269.312 411.832 269.916 411.229 270.656 411.229Z" fill="white"/>
<path d="M270.656 416.88H380.525C381.261 416.88 381.865 417.483 381.865 418.223C381.865 418.963 381.261 419.566 380.525 419.566H270.656C269.919 419.566 269.312 418.963 269.312 418.223C269.312 417.483 269.916 416.88 270.656 416.88Z" fill="white"/>
<path d="M290.146 207.748C296.35 201.543 296.35 191.483 290.146 185.279C283.941 179.074 273.881 179.074 267.676 185.279C261.472 191.483 261.472 201.543 267.676 207.748C273.881 213.953 283.941 213.953 290.146 207.748Z" fill="#699DEE"/>
<path d="M383.087 211.767H304.474C301.671 211.767 299.394 209.493 299.394 206.69C299.394 203.886 301.667 201.613 304.474 201.613H383.087C385.891 201.613 388.168 203.886 388.168 206.69C388.164 209.493 385.891 211.767 383.087 211.767Z" fill="#699DEE"/>
<path d="M346.98 190.824H304.474C301.671 190.824 299.394 188.55 299.394 185.746C299.394 182.943 301.667 180.669 304.474 180.669H346.98C349.783 180.669 352.057 182.943 352.057 185.746C352.06 188.55 349.783 190.824 346.98 190.824Z" fill="#699DEE"/>
<path d="M312.596 194.326C312.532 195.24 312.938 195.9 313.675 196.377C313.678 196.38 313.681 196.383 313.688 196.383C315.05 197.263 317.53 197.517 320.241 197.59C320.587 197.599 320.902 197.612 321.178 197.631C321.251 197.637 321.324 197.64 321.394 197.65C321.451 197.653 321.508 197.659 321.562 197.663C324.236 197.917 323.896 198.698 328.951 199.495C334.714 200.4 336.977 198.777 337.378 197.993C337.714 197.329 335.282 196.373 332.564 195.288C332.434 195.237 332.3 195.183 332.167 195.129C331.805 194.986 331.443 194.837 331.081 194.691C327.849 193.357 324.683 191.82 324.105 188.41C323.496 184.797 326.788 175.062 326.788 175.062L317.669 173.42C317.669 173.42 316.05 183.727 315.244 186.915C314.812 188.617 313.932 189.934 313.37 191.379C313.329 191.481 313.291 191.582 313.256 191.684C312.954 192.538 312.656 193.408 312.596 194.326Z" fill="#E49963"/>
<path d="M312.596 194.326C312.532 195.24 312.938 195.901 313.675 196.377C313.678 196.38 313.681 196.383 313.688 196.383C315.145 197.186 317.584 197.463 320.238 197.574C320.584 197.59 320.895 197.609 321.178 197.634C321.251 197.641 321.324 197.644 321.394 197.653C321.451 197.656 321.508 197.663 321.562 197.666C324.236 197.92 323.896 198.701 328.951 199.498C334.714 200.403 336.977 198.78 337.378 197.996C337.714 197.333 335.282 196.377 332.564 195.291C331.764 195.539 327.954 196.564 323.613 195.421C319.797 194.418 316.088 192.224 313.37 191.382C313.329 191.484 313.291 191.586 313.256 191.687C312.954 192.538 312.656 193.408 312.596 194.326Z" fill="#233862"/>
<path d="M372.946 188.867C373.457 191.426 377.105 190.998 381.179 190.004C385.253 189.007 384.284 190.191 390.085 189.55C395.883 188.908 397.642 186.746 397.817 185.883C397.976 185.117 395.108 184.847 392.035 184.495C391.647 184.451 391.26 184.403 390.873 184.355C387.402 183.92 384.862 181.682 381.709 179.843C378.725 178.1 374.27 171.004 374.27 171.004L366.316 171.633C366.316 171.633 370.488 177.97 372.105 180.726C373.054 182.349 373.003 184.492 372.886 186.146C372.825 187.048 372.765 187.965 372.946 188.867Z" fill="#E49963"/>
<path d="M381.179 190.004C385.253 189.007 384.284 190.192 390.085 189.55C395.883 188.909 397.642 186.747 397.817 185.883C397.975 185.118 395.108 184.848 392.035 184.496L392.006 184.556C392.006 184.556 388.529 187.023 383.7 187.137C379.766 187.233 375.6 186.105 372.882 186.15C372.822 187.048 372.762 187.969 372.943 188.871C373.46 191.427 377.105 191.001 381.179 190.004Z" fill="#233862"/>
<path d="M355.251 72.0602C355.251 72.0602 357.146 67.4182 359.229 67.2277C361.312 67.0372 367.945 65.9957 368.418 66.9419C368.891 67.8881 368.418 71.3014 366.996 72.5301C365.573 73.7621 356.762 75.7529 356.762 75.7529L355.251 72.0602Z" fill="#E49963"/>
<path d="M342.471 138.018L325.331 184.143C325.331 184.143 322.699 184.397 320.175 183.67C317.854 183 315.19 181.241 315.19 181.241C315.19 181.241 319.441 136.951 327.236 127.74C335.031 118.529 342.471 138.018 342.471 138.018Z" fill="#233862"/>
<path d="M274.678 119.357C274.678 119.357 323.928 102.704 334.911 106.247C345.894 109.791 378.874 175.405 378.874 175.405C378.874 175.405 378.131 176.395 376.099 177.157C374.209 177.866 369.634 177.821 369.634 177.821C369.634 177.821 339.87 152.309 336.33 144.87C332.787 137.43 331.37 130.343 327.827 131.051C324.284 131.759 282.121 148.413 272.554 138.491C262.988 128.568 265.49 115.68 265.49 115.68L274.678 119.357Z" fill="#2B478B"/>
<path d="M304.775 41.887C305.563 40.2645 306.442 37.3783 306.871 32.2378C306.804 32.749 305.918 39.2326 303.426 42.9031C293.183 49.628 273.551 72.0826 273.941 76.3372C273.941 76.3372 267.026 64.6083 266.908 64.5384C266.908 64.5384 254.154 48.3167 269.271 39.0262C276.955 34.3048 276.917 28.2435 276.596 22.9791C276.272 17.7147 278.691 -4.94943 294.084 0.981729C294.084 0.981729 296.555 -0.116869 297.66 0.0482386C297.66 0.0482386 296.755 0.219696 296.298 0.695966C298.082 0.591187 300.632 0.721368 302.762 1.93109C308.398 5.13481 313.446 33.9047 304.775 41.887Z" fill="#163560"/>
<path d="M302.82 43.2365C302.871 43.2587 297.876 45.8528 294.117 44.8272C290.583 43.862 288.271 39.2803 288.319 39.2707C289.818 38.9723 290.249 36.9148 290.218 28.0752L290.894 28.2086L302.274 30.4629C302.274 30.4629 302.013 34.0445 302.007 37.4196C301.997 40.2487 302.172 42.9348 302.82 43.2365Z" fill="#E49963"/>
<path d="M302.273 30.4597C302.273 30.4597 302.013 34.0412 302.007 37.4164C295.637 37.2386 292.272 31.4281 290.894 28.2085L302.273 30.4597Z" fill="#D68D5D"/>
<path d="M289.716 26.9673C289.716 26.9673 286.379 21.6934 285.578 17.1847C285.007 13.9651 286.645 2.03295 298.638 3.7507C298.638 3.7507 302.121 4.09361 305.394 6.30351C307.998 8.06253 311.754 11.8568 307.554 22.2713L306.461 25.7893L289.716 26.9673Z" fill="#163560"/>
<path d="M304.401 33.6539C304.401 33.6539 289.335 33.9015 289.322 24.5158C289.313 15.1301 287.36 8.84019 296.98 8.28454C306.601 7.72889 308.474 11.3073 309.24 14.4411C310.002 17.575 308.319 33.3459 304.401 33.6539Z" fill="#E49963"/>
<path d="M303.842 8.0563C303.842 8.0563 299.718 19.0677 293.387 20.6965C287.055 22.3254 284.309 20.6298 284.309 20.6298C284.309 20.6298 284.918 16.772 285.928 10.0376C285.928 10.0376 300.731 2.81732 303.842 8.0563Z" fill="#163560"/>
<path d="M302.82 8.95104C302.82 8.95104 305.899 11.4086 306.652 13.7995C307.404 16.1904 307.741 21.1086 309.176 20.9435C309.176 20.9435 312.285 13.4597 308.792 9.22728C305.087 4.73446 302.82 8.95104 302.82 8.95104Z" fill="#163560"/>
<path d="M269.268 83.7705C267.782 77.5377 272.837 65.4468 278.114 55.4356C282.902 46.361 287.871 39.0011 288.319 39.2678C300.947 46.7643 302.09 40.5315 302.09 40.5315C302.09 40.5315 313.561 42.0555 316.81 47.647C321.302 55.3784 326.195 78.5791 331.002 78.2362C333.209 78.0775 355.413 69.7332 355.413 69.7332C355.413 69.7332 359.112 73.1973 358.404 77.452C358.404 77.452 347.44 84.7929 338.169 89.4794C333.266 91.956 328.834 93.6896 326.751 93.2006C322.528 92.2068 315.93 82.4147 312.364 76.6518C312.358 76.6391 312.349 76.6264 312.342 76.6137C307.792 102.367 313.977 108.235 310.847 110.95C307.538 113.817 302.814 109.584 292.421 114.09C285.604 117.046 276.142 121.323 269.776 122.066C266.436 122.46 263.944 121.875 263.131 119.621C260.765 113.061 272.104 95.6518 269.268 83.7705Z" fill="#699DEE"/>
<path d="M301.051 27.9639C301.051 27.9639 301.33 29.1578 304.299 28.9736C304.299 28.9736 306.788 28.8212 306.712 27.5099C306.712 27.5067 304.296 26.5764 301.051 27.9639Z" fill="white"/>
<path d="M263.127 119.614C263.94 121.869 266.432 122.45 269.773 122.059C274.18 120.138 293.221 112.762 293.008 107.762C292.691 100.36 289.347 100.125 291.71 90.9906C293.605 83.656 276.012 70.0188 273.205 67.0532C267.928 77.0644 267.782 77.5375 269.268 83.7703C272.103 95.6517 260.765 113.061 263.127 119.614Z" fill="#3B76CA"/>
<path d="M312.361 76.6481C315.927 82.411 322.525 92.2031 326.748 93.1969C328.831 93.6891 333.263 91.9555 338.165 89.4757C334.587 90.3996 331.11 90.3742 327.732 90.0472C324.071 89.6916 323.007 85.2051 317.219 78.4738C313.466 74.108 312.545 75.2066 312.361 76.6481Z" fill="#3B76CA"/>
<path d="M294.719 90.8161C294.719 90.8161 297.907 88.3363 300.92 88.9269C303.933 89.5174 305.41 91.5844 305.289 92.5306C305.172 93.4768 303.578 96.1344 301.273 96.3694C298.971 96.6043 292.414 94.9533 292.414 94.9533L294.719 90.8161Z" fill="#E49963"/>
<path d="M288.319 39.2676C288.319 39.2676 276.037 40.0233 271.789 45.9544C265.804 54.3019 251.443 91.4256 258.247 96.1724C265.909 101.516 295.609 96.0136 295.609 96.0136C295.609 96.0136 296.514 91.7812 295.253 89.7332C293.993 87.6852 273.523 84.3799 272.576 83.4337C271.63 82.4875 284.388 65.0084 284.388 62.173C284.388 59.3376 288.319 39.2676 288.319 39.2676Z" fill="#699DEE"/>
<path d="M356.473 56.7942L364.89 54.5399C365.179 54.4637 365.433 54.5304 365.611 54.6859L365.62 54.6828L366.798 55.394L365.858 77.1342L357.771 79.2996L357.174 79.252L355.812 78.4169V78.4106C355.622 78.2836 355.501 78.0708 355.501 77.7914V58.023C355.504 57.4896 355.939 56.9371 356.473 56.7942Z" fill="#233862"/>
<path d="M357.775 79.2995L366.192 77.0451C366.725 76.9022 367.16 76.3498 367.16 75.8163V56.0479C367.16 55.5145 366.725 55.197 366.192 55.3399L357.775 57.5942C357.241 57.7371 356.806 58.2896 356.806 58.823V78.5914C356.806 79.1217 357.241 79.4423 357.775 79.2995Z" fill="#2B478B"/>
<path d="M363.982 57.9212L365.944 57.3338C366.236 57.2449 366.471 56.9337 366.462 56.6352C366.452 56.3399 366.208 56.1685 365.913 56.2574L363.95 56.8448C363.658 56.9337 363.423 57.2449 363.433 57.5433C363.442 57.8386 363.69 58.0069 363.982 57.9212Z" fill="#233862"/>
<path d="M366.291 71.9909C366.342 72.4354 366.869 72.6608 367.218 72.3814C367.936 71.8099 368.863 70.5589 368.863 67.9299C368.863 63.7609 365.145 62.1638 366.291 71.9909Z" fill="#E49963"/>
</svg>
