<svg width="688" height="530" viewBox="0 0 688 530" fill="none" xmlns="http://www.w3.org/2000/svg">
<path d="M128.85 526.868C128.85 526.868 54.8292 525.316 17.9199 378.896C-18.9894 232.476 12.2412 161.294 171.437 57.6646C330.634 -45.9649 700.407 -25.5602 628.616 252.706C593.873 387.368 734.346 392.264 662.771 526.868H128.85Z" fill="#FCECDB"/>
<path d="M635.986 526.389H595.946C593.801 524.567 597.431 520.434 601.223 520.159C602.87 520.033 604.954 520.378 607.335 520.881C607.887 513.564 611.034 480.662 622.89 481.984C636.226 483.464 622.89 496.472 619.122 504.174C616.327 509.877 613.383 518.058 612.036 521.919C613.119 522.154 614.239 522.381 615.382 522.592C617.151 517.165 623.725 498.914 632.089 499.976C641.908 501.221 637.962 508.538 631.002 512.882C625.895 516.078 619.625 520.617 616.648 522.811C619.171 523.225 621.807 523.501 624.48 523.44C631.338 523.282 634.689 525.302 635.986 526.389Z" fill="#82B378"/>
<path d="M476.879 477.097L473.784 490.124L469.675 507.399H456.834L456.068 490.85L455.476 478.086L476.879 477.097Z" fill="#FFB27D"/>
<path d="M517.568 193.553C517.568 193.553 527.729 182.683 534.336 191.204C540.943 199.73 548.264 205.485 558.4 212.04C568.536 218.594 549.44 269.987 536.745 268.929C524.046 267.878 472.235 227.363 517.568 193.553Z" fill="#BC3F3F"/>
<path d="M466.979 188.386C469.514 186.492 492.868 178.473 515.634 186.358C538.4 194.243 497.998 216.206 497.998 216.206L484.906 216.769L466.979 188.386Z" fill="#4A75CB"/>
<path d="M451.756 526.376C451.756 526.376 451.756 520.089 452.653 518C453.549 515.911 456.834 507.398 456.834 507.398H469.676C469.676 507.398 472.065 515.161 472.215 517.7C472.365 520.239 472.215 526.376 472.215 526.376H451.756Z" fill="#233862"/>
<path d="M533.286 526.376C533.286 526.376 533.286 520.089 532.389 518C531.493 515.911 528.208 507.398 528.208 507.398H515.367C515.367 507.398 512.978 515.161 512.828 517.7C512.678 520.239 512.828 526.376 512.828 526.376H533.286Z" fill="#233862"/>
<path d="M481.844 173.537C481.844 173.537 481.389 187.534 479.601 193.804L465.421 224.37L518.801 211.683L506.07 194.092C506.07 194.092 502.225 175.325 504.241 168.382C506.256 161.442 481.844 173.537 481.844 173.537Z" fill="#FFB27D"/>
<path d="M481.767 175.468C481.767 175.464 485.989 185.628 493.938 185.405C501.888 185.182 503.697 176.19 503.697 176.19L481.767 175.468Z" fill="#ED985F"/>
<path d="M477.021 167.242C477.021 167.242 474.453 154.425 472.661 150.544C470.868 146.662 469.375 129.343 489.233 128.447C489.233 128.447 496.846 129.343 501.028 126.804C501.028 126.804 501.028 129.343 499.981 130.24C499.981 130.24 506.848 128.597 512.226 134.571C517.601 140.546 508.645 161.45 509.091 166.374L477.021 167.242Z" fill="#2C3A64"/>
<path d="M493.026 181.479C487.267 181.377 476.66 173.703 476.66 164.204V149.38C476.66 145.912 479.078 143.073 482.034 143.073H504.014C506.97 143.073 509.388 145.912 509.388 149.38V163.365C509.392 173.33 499.633 181.596 493.026 181.479Z" fill="#FFB27D"/>
<path d="M476.66 157.297C476.66 157.297 476.689 148.39 483.746 147.019C490.8 145.648 506.589 151.359 508.832 144.866C511.075 138.372 478.311 138.482 476.665 142.627C475.014 146.772 476.66 157.297 476.66 157.297Z" fill="#2C3A64"/>
<path d="M501.26 311.662C504.792 300.663 504.723 357.194 490.536 420.779C488.37 430.485 483.523 453.884 480.043 476.533H450.978C450.576 458.244 448.617 432.712 447.38 413.592C443.511 353.654 453.363 308.669 453.363 308.669L501.26 311.662Z" fill="#2B478B"/>
<path d="M538.558 413.593C538.238 431.922 534.514 456.265 534.178 474.112H504.691C502.712 461.157 499.564 447.817 497.305 437.056C495.695 429.415 494.535 423.076 494.551 419.093C494.584 411.309 489.66 388.864 486.727 369.071C486.723 369.042 486.719 369.014 486.715 368.989C486.601 368.231 486.492 367.468 486.387 366.718C482.46 338.894 483.843 311.663 483.843 311.663L533.598 308.552C533.594 308.552 539.41 364.715 538.558 413.593Z" fill="#2B478B"/>
<path d="M449.424 331.723C449.424 331.723 460.619 345.286 491.03 343.327C521.442 341.368 535.95 336.075 535.95 336.075L449.424 331.723Z" fill="#233862"/>
<path d="M535.951 336.079C526.018 337.429 458.433 340.942 449.425 331.723C440.417 322.504 464.132 196.749 464.132 196.749C464.132 196.749 466.817 195.97 471.351 195.118C473.663 194.684 476.45 194.23 479.605 193.853C479.642 194.834 480.425 209.659 492.734 215.783C492.734 215.783 507.518 209.862 506.07 194.092C506.054 193.906 506.034 193.727 506.005 193.553C507.977 193.764 509.976 194.039 511.984 194.384C516.04 195.082 520.144 196.067 524.217 197.414C524.213 197.414 545.888 334.732 535.951 336.079Z" fill="#739AF0"/>
<path d="M449.996 271.156C449.595 271.679 452.292 275.549 456.092 280.525C463.912 290.746 476.421 305.619 476.421 305.619C476.255 310.661 475.549 313.914 475.549 313.914C458.368 305.794 446.752 298.201 439.049 292.101C428.224 283.523 425.117 277.897 425.117 277.897C442.477 204.46 464.748 196.814 464.748 196.814L472.016 241.065C472.016 241.069 451.213 269.566 449.996 271.156Z" fill="#739AF0"/>
<path d="M511.98 194.384L507.502 208.004L501.536 216.769L492.97 221.417L484.906 216.769L471.352 195.122C473.663 194.688 476.45 194.234 479.605 193.857C479.642 194.838 480.425 209.663 492.734 215.787C492.734 215.787 507.518 209.866 506.07 194.096C506.054 193.91 506.034 193.731 506.006 193.557C507.977 193.763 509.976 194.039 511.98 194.384Z" fill="#EE9849"/>
<path d="M476.421 305.623C476.417 305.765 476.413 305.907 476.405 306.044C476.368 306.973 476.312 307.845 476.243 308.632C475.813 309.228 475.334 309.788 474.815 310.315C474.024 311.114 473.172 311.784 472.3 312.351C471.866 312.145 471.428 311.93 471.002 311.719C456.287 304.434 446.046 297.653 439.045 292.108C443.491 290.741 449.717 287.614 456.089 280.524C463.908 290.745 476.421 305.623 476.421 305.623Z" fill="#FFB27D"/>
<path d="M561.75 275.199C561.75 275.199 558.752 280.886 548.093 289.667C540.509 295.913 529.043 303.725 512.016 312.174C512.016 312.174 511.249 308.933 510.986 303.895C510.986 303.895 523.206 288.783 530.831 278.416C534.534 273.366 537.155 269.448 536.745 268.933C535.776 267.716 522.736 250.564 516.915 242.914C515.228 240.691 514.149 239.272 514.149 239.272L521.515 195.764C521.519 195.764 542.987 202.111 561.75 275.199Z" fill="#739AF0"/>
<path d="M548.089 289.667C541.17 295.361 531.018 302.362 516.364 309.967C516.003 310.153 515.634 310.344 515.261 310.535C513.391 308.275 512.251 305.582 511.562 303.185C511.805 302.881 512.125 302.479 512.511 302.001C516.023 297.62 524.841 286.556 530.827 278.416C537.333 285.38 543.62 288.385 548.089 289.667Z" fill="#FFB27D"/>
<path d="M506.005 193.553C496.145 192.498 486.898 192.977 479.605 193.853C479.601 193.821 479.601 193.804 479.601 193.804C479.601 193.804 504.034 178.692 506.005 193.553Z" fill="#FFB27D"/>
<path d="M481.499 236.295H480.996L480.627 212.742H481.892L481.499 236.295Z" fill="#BBD4FF"/>
<path d="M480.943 235.682C480.484 236.372 479.458 238.647 480.14 238.89C480.821 239.13 482.018 239.146 482.338 238.826C482.663 238.505 481.807 234.384 480.943 235.682Z" fill="#EE9849"/>
<path d="M504.63 236.295H504.127L503.758 212.742H505.023L504.63 236.295Z" fill="#BBD4FF"/>
<path d="M504.074 235.682C503.616 236.372 502.59 238.647 503.271 238.89C503.952 239.13 505.149 239.146 505.469 238.826C505.794 238.505 504.938 234.384 504.074 235.682Z" fill="#EE9849"/>
<path d="M484.906 216.769L464.135 196.753C464.135 196.753 459.459 193.435 466.849 188.471C474.239 183.506 484.906 216.769 484.906 216.769Z" fill="#4A75CB"/>
<path d="M501.535 216.769L522.306 196.753C522.306 196.753 526.983 193.435 519.593 188.471C512.199 183.506 501.535 216.769 501.535 216.769Z" fill="#4A75CB"/>
<path d="M527.603 314.217C523.555 314.558 520.181 313.544 517.577 311.22C517.139 310.827 516.737 310.409 516.364 309.971C514.312 307.57 513.16 304.552 512.511 302.005C511.769 299.097 511.688 296.805 511.688 296.76L511.671 296.172H478.121L478.141 296.797C478.271 300.403 477.691 303.501 476.401 306.049C475.764 307.322 474.949 308.462 473.959 309.456C473.047 310.376 472.037 311.119 471.002 311.719C466.513 314.319 461.516 314.217 461.451 314.217L460.83 314.197V328.373H528.256V314.165L527.603 314.217Z" fill="#678FE5"/>
<path d="M536.745 268.933C536.745 268.933 518.043 244.395 532.847 237.248C538.724 234.413 546.999 268.09 542.561 271.253C538.128 274.421 530.827 278.412 530.827 278.412L536.745 268.933Z" fill="#678FE5"/>
<path d="M452.146 264.888C452.146 264.888 458.643 234.075 452.941 237.251C447.238 240.423 438.789 268.093 443.227 271.256C447.66 274.424 454.961 278.415 454.961 278.415L452.146 264.888Z" fill="#678FE5"/>
<path d="M534.121 268.864C525.579 258.262 522.391 241.048 522.825 223.283C523.154 209.943 524.983 197.905 525.101 197.483L532.105 202.939C532.077 203.04 528.086 210.337 527.777 223.32C527.493 235.192 526.934 244.228 533.642 264.893L534.121 268.864Z" fill="#BC3F3F"/>
<path d="M469.278 483.091L454.23 483.083C452.9 483.233 450.815 481.282 450.815 478.496C450.815 478.496 450.783 471.812 450.34 470.623C448.406 465.415 451.285 465.131 454.072 465.131H481.527C484.313 465.131 480.042 473.746 480.042 476.537L481.032 480.191C481.032 482.978 472.064 483.091 469.278 483.091Z" fill="#233862"/>
<path d="M473.785 490.125L469.676 507.399H456.835L456.072 490.851C457.983 491.552 464.423 493.345 473.785 490.125Z" fill="#233862"/>
<path d="M508.187 477.097L511.286 489.926L515.395 506.944H528.236L528.998 490.644L529.59 478.07L508.187 477.097Z" fill="#FFB27D"/>
<path d="M515.792 483.091L530.84 483.083C532.17 483.233 534.255 481.282 534.255 478.496C534.255 478.496 534.287 471.812 534.729 470.623C536.664 465.415 533.784 465.131 530.998 465.131H503.543C500.757 465.131 505.028 473.746 505.028 476.537L504.038 480.191C504.034 482.978 513.002 483.091 515.792 483.091Z" fill="#233862"/>
<path d="M511.286 490.125L515.395 507.399H528.236L528.999 490.851C527.084 491.552 520.643 493.345 511.286 490.125Z" fill="#233862"/>
<path d="M136.362 158.087C132.895 156.947 129.131 157.503 126.555 158.184C127.086 157.357 128.356 156.838 128.356 156.838C126.689 156.923 123.408 159.255 123.408 159.255C99.1734 155.122 102.313 188.949 104.337 196.546C106.356 204.142 94.651 226.166 86.5756 236.91C63.9109 267.058 100.151 298.455 100.151 298.455C129.528 323.128 116.18 275.284 116.18 275.284C114.359 269.184 136.431 230.595 149.414 217.754C151.978 211.658 151.361 201.92 151.309 201.157C152.193 208.795 151.759 213.268 151.09 215.872C161.4 201.652 145.549 161.109 136.362 158.087Z" fill="#163560"/>
<path d="M196.67 269.24C196.67 272.51 195.028 276.695 192.679 281.007C186.835 291.751 176.618 303.274 176.618 303.274L170.696 294.842C170.696 294.842 174.294 285.91 176.683 278.545C178.118 274.116 179.112 270.258 178.63 269.24C177.336 266.531 151.694 236.201 151.694 236.201L144.726 212.733C144.726 212.733 161.781 213.633 169.045 224.268C176.31 234.907 196.67 260.435 196.67 269.24Z" fill="#BC3F3F"/>
<path d="M192.679 281.007C186.835 291.752 176.618 303.275 176.618 303.275L170.696 294.842C170.696 294.842 174.294 285.911 176.683 278.545C179.558 280.245 184.527 281.863 192.679 281.007Z" fill="#FFB27D"/>
<path d="M121.809 480.755L127.942 506.599L137.133 506.547L137.473 480.755H121.809Z" fill="#FFB27D"/>
<path d="M199.12 481.858L216.577 506.599L223.383 497.863L212.874 478.455L199.12 481.858Z" fill="#FFB27D"/>
<path d="M145.951 220.314C146.028 220.347 138.581 224.216 132.98 222.683C127.711 221.247 124.268 214.413 124.341 214.401C126.572 213.958 127.217 210.892 127.168 197.714L128.178 197.913L145.14 201.271C145.14 201.271 144.754 206.609 144.742 211.638C144.726 215.861 144.982 219.864 145.951 220.314Z" fill="#FFB27D"/>
<path d="M118.743 167.283C118.743 167.283 125.184 156.895 137.153 163.105C137.153 163.105 130.952 163.275 118.743 167.283Z" fill="#5FABB7"/>
<path d="M145.135 201.271C145.135 201.271 144.75 206.609 144.738 211.638C135.247 211.371 130.23 202.711 128.173 197.913L145.135 201.271Z" fill="#EF9E67"/>
<path d="M124.685 198.505C124.685 198.505 118.256 191.784 115.758 185.433C113.973 180.898 112.858 162.983 130.883 161.961C130.883 161.961 136.07 161.438 141.505 163.705C145.825 165.506 152.432 169.947 149.361 186.398L148.802 191.857L124.685 198.505Z" fill="#163560"/>
<path d="M221.748 492.209C221.748 492.209 217.238 492.988 213.539 493.267C212.716 493.328 211.937 493.365 211.255 493.365C209.475 493.365 206.262 492.696 204.105 492.193L203.942 492.156C202.997 491.933 202.276 491.751 202.004 491.678L201.89 491.649C201.89 491.649 179.408 466.62 166.802 426.502C166.51 425.566 166.198 424.625 165.869 423.671C158.966 403.55 144.661 378.293 137.121 355.43C135.92 351.792 134.841 348.36 133.876 345.12C133.564 344.081 133.263 343.063 132.976 342.058C127.419 322.751 125.813 310.08 124.328 296.538L169.654 308.069C169.662 308.069 188.692 390.571 221.748 492.209Z" fill="#A53D38"/>
<path d="M148.104 203.953C148.104 203.953 126.166 208.751 123.383 195.042C120.605 181.333 115.9 172.718 129.792 169.075C143.683 165.429 147.472 170.11 149.516 174.458C151.556 178.81 153.742 202.35 148.104 203.953Z" fill="#FFB27D"/>
<path d="M139.754 166.719C139.754 166.719 136.967 184.021 128.198 188.264C119.429 192.506 114.915 190.839 114.915 190.839C114.915 190.839 120.873 183.774 120.362 173.638C120.362 173.638 133.662 159.978 139.754 166.719Z" fill="#163560"/>
<path d="M138.52 168.325C138.52 168.325 143.744 171.01 145.545 174.279C147.346 177.548 149.289 184.638 151.333 183.972C151.333 183.972 153.669 172.121 147.322 166.966C140.589 161.498 138.52 168.325 138.52 168.325Z" fill="#163560"/>
<path d="M127.634 505.156C127.634 505.156 128.372 510.274 126.466 515.75C126.466 515.75 124.961 522.604 131.71 522.73C138.459 522.856 140.118 522.219 139.352 518.017C138.589 513.815 137.133 506.547 137.133 506.547L127.634 505.156Z" fill="#FFB27D"/>
<path d="M126.466 515.75C126.466 515.75 124.969 522.949 125.732 526.389C125.732 526.389 128.015 527.188 132.919 527.188C137.567 527.188 140.301 526.389 140.301 526.389C140.301 526.389 140.13 518.569 138.889 515.576C138.893 515.576 134.107 522.755 126.466 515.75Z" fill="#C45446"/>
<path d="M239.647 518.707C239.647 518.707 227.203 504.892 223.382 497.863L214.127 502.605L234.812 522.033L239.651 521.396L239.647 518.707Z" fill="#FFB27D"/>
<path d="M247.552 526.802C247.552 526.802 234.179 526.802 231.887 526.546C229.596 526.295 227.75 522.981 225.264 518.013C224.246 515.981 221.967 514.861 219.626 514.245L219.671 526.388H215.992L212.747 513.523C210.541 509.471 212.573 505.8 214.122 502.604C215.927 502.6 220.778 503.833 229.973 514.192C232.995 517.591 236.333 518.808 239.642 518.706C239.687 518.739 239.736 518.759 239.78 518.779C247.426 522.215 247.552 526.802 247.552 526.802Z" fill="#C45446"/>
<path d="M213.535 493.268C212.711 493.329 211.932 493.365 211.251 493.365C209.47 493.365 206.258 492.696 204.1 492.193L203.938 492.157L201.999 491.678L201.886 491.65C201.886 491.65 179.404 466.62 166.798 426.503C166.506 425.566 166.193 424.625 165.865 423.672C158.962 403.55 144.656 378.294 137.116 355.431C135.916 351.792 134.837 348.361 133.872 345.12C133.559 344.082 133.259 343.064 132.971 342.058L140.986 335.974C140.986 335.974 165.058 374.948 172.505 411.626C178.694 442.025 205.285 481.441 213.535 493.268Z" fill="#912F2F"/>
<path d="M141.834 415.044C141.971 432.878 141.067 473.884 138.747 490.866C138.747 490.866 136.545 492.813 131.081 492.837C125.488 492.862 122.986 490.797 122.986 490.797C117.157 461.278 113.012 436.857 109.994 415.811C107.516 398.54 105.318 383.732 103.627 370.984C102.126 359.689 101.027 350.011 100.499 341.664C100.43 340.532 100.366 339.421 100.317 338.342C100.252 336.91 100.199 335.523 100.175 334.177C100.151 332.818 100.142 331.5 100.155 330.218L100.349 330.202L111.609 329.107L147.192 325.635C146.591 356.882 141.756 404.677 141.834 415.044Z" fill="#A53D38"/>
<path d="M131.081 492.834C126.324 493.109 122.986 490.794 122.986 490.794C117.157 461.274 113.012 436.853 109.994 415.807C107.516 398.537 105.318 383.729 103.627 370.981C102.126 359.685 101.027 350.007 100.499 341.66C100.439 337.547 100.394 333.609 100.345 330.194C100.293 326.73 100.24 323.802 100.142 321.762L111.605 329.099L123.667 336.813C123.667 336.813 106.559 352.376 110.761 381.798C114.959 411.22 125.229 488.668 131.081 492.834Z" fill="#912F2F"/>
<path d="M175.92 333.613C162.272 337.162 98.5772 344.163 98.0256 328.211C97.8918 324.317 98.0256 319.62 98.3338 314.534C99.2829 298.777 101.871 279.3 103.112 268.588C103.68 263.676 101.79 241.677 103.242 229.692C103.452 227.915 103.74 226.358 104.122 225.108C106.872 216.064 119.234 213.61 125.582 213.395L144.73 212.742C144.73 212.742 164.503 234.83 167.257 241.616C170.007 248.402 170.907 271.634 173.044 282.881C175.178 294.128 182.56 331.889 175.92 333.613Z" fill="#BC3F3F"/>
<path d="M138.305 279.697C138.305 279.697 127.658 312.392 98.3378 314.53C99.2869 298.773 101.875 279.296 103.116 268.584C103.684 263.672 101.793 241.673 103.246 229.688C103.627 229.769 103.971 229.98 104.373 230.057C136.654 236.295 141.238 272.883 138.305 279.697Z" fill="#A53D38"/>
<path d="M164.299 246.707L130.291 243.085L124.779 294.844L158.787 298.465L164.299 246.707Z" fill="#2B478B"/>
<path d="M130.279 243.084L128.096 242.91L122.97 294.627L124.762 294.842L130.279 243.084Z" fill="#163560"/>
<path d="M101.599 265.996C101.599 265.996 125.594 273.329 148.522 276.606C148.522 276.606 156.09 279.88 152.537 280.776C151.629 281.007 105.707 291.017 98.8973 284.524L101.599 265.996Z" fill="#FFB27D"/>
<path d="M125.577 213.39C125.577 213.39 112.963 213.459 107.577 219.604C97.7415 230.823 95.7987 278.533 98.8974 284.523C100.232 287.099 110.469 287.31 114.785 274.834C117.028 268.36 126.806 225.156 125.577 213.39Z" fill="#BC3F3F"/>
<path d="M146.263 276.274C146.263 276.274 149.082 276.01 149.617 275.11C150.688 273.309 152.379 273.329 153.787 273.094C155.198 272.855 156.78 271.313 157.06 271.622C157.34 271.934 156.021 273.633 155.283 274.27C155.283 274.27 156.796 274.363 157.798 273.885C158.8 273.406 161.85 269.464 162.333 271.123C163.598 275.487 162.284 279.681 158.784 280.021C155.007 280.391 145.634 282.2 145.634 282.2L146.263 276.274Z" fill="#FFB27D"/>
<path d="M292.819 296.538C274.896 291.975 255.196 264.171 255.196 264.171L260.242 259.795C265.466 265.956 287.19 276.562 287.19 276.562C287.072 270.924 287.222 265.785 287.575 261.105C289.984 229.298 301.978 218.704 305.247 216.376C305.774 215.999 306.078 215.84 306.078 215.84C306.078 215.84 306.09 216.072 306.111 216.51C306.159 217.455 306.245 219.361 306.334 221.973C306.999 241.437 307.794 300.35 292.819 296.538Z" fill="#D9935C"/>
<path d="M260.242 259.795C260.165 259.045 259.662 248.118 257.492 246.037C255.322 243.957 251.035 241.126 249.802 241.353C248.569 241.584 244.387 248.54 246.362 253.334C248.338 258.128 255.196 264.176 255.196 264.176L260.242 259.795Z" fill="#D9935C"/>
<path d="M264.696 261.064L252.893 261.559C252.499 261.575 252.171 261.271 252.155 260.878L251.214 238.371C251.198 237.978 251.502 237.649 251.895 237.633L263.698 237.138C264.091 237.122 264.42 237.426 264.436 237.816L265.377 260.322C265.393 260.716 265.085 261.048 264.696 261.064Z" fill="#F1A34F"/>
<path d="M261.629 261.191L250.921 261.637C250.228 261.665 249.64 261.126 249.611 260.432L248.715 239.021C248.687 238.327 249.226 237.739 249.92 237.711L260.627 237.265C261.321 237.236 261.909 237.776 261.937 238.469L262.834 259.881C262.862 260.578 262.323 261.162 261.629 261.191Z" fill="#D86713"/>
<path d="M248.906 242.184C248.906 242.184 252.122 238.59 255.343 241.336C258.559 244.082 255.128 249.943 252.337 251.545C249.547 253.147 248.65 253.982 248.65 253.982L248.906 242.184Z" fill="#D9935C"/>
<path d="M331.846 481.452C330.755 485.792 329.554 489.925 328.329 493.774C328.066 494.597 327.81 495.408 327.547 496.203C327.417 496.597 327.283 496.986 327.157 497.372C326.898 498.134 326.646 498.88 326.391 499.61C326.058 500.564 325.729 501.492 325.401 502.389C325.162 503.054 324.922 503.707 324.683 504.348C321.049 514.094 318.003 520.271 318.003 520.271L310.763 519.773C310.763 519.773 313.48 506.838 314.024 488.315C314.04 487.654 314.06 486.988 314.073 486.311C314.101 484.875 314.117 483.411 314.117 481.914C314.117 481.302 314.113 480.681 314.109 480.057C313.963 464.101 311.988 445.244 305.685 427.24C300.558 412.602 296.843 398.909 294.158 386.535C285.486 346.583 287.522 320.337 287.522 320.337L328.26 325.103L330.159 325.326C330.329 344.036 330.812 369.443 331.233 389.305C331.306 392.752 331.375 396.034 331.44 399.084C331.72 411.836 331.935 420.556 331.935 420.556C339.775 437.416 336.928 461.225 331.846 481.452Z" fill="#CB7D45"/>
<path d="M320.181 180.46C320.181 180.46 329.818 188.666 320.98 198.112C320.98 198.112 328.346 198.834 330.836 196.794C330.836 196.794 330.345 197.787 329.891 198.234C329.891 198.234 338.125 198.53 341.524 195.962C344.922 193.395 342.74 151.274 319.889 155.983C319.889 155.983 300.522 154.518 302.327 176.932C304.132 199.341 296.819 199.341 296.819 199.341C296.819 199.341 298.851 200.343 299.832 200.343C299.832 200.343 301.268 199.795 301.552 199C301.552 199 301.268 200.245 300.899 200.643C300.899 200.643 308.792 201.389 312.734 198.412C316.677 195.435 321.309 185.084 320.181 180.46Z" fill="#233862"/>
<path d="M351.282 315.762C343.583 298.496 339.901 293.613 339.771 288.182C339.669 283.887 341.787 279.251 345.903 267.886C346.873 265.209 347.542 262.455 347.952 259.668C351.205 237.754 338.534 214.067 330.661 212.453C328.471 211.873 324.756 203.96 324.8 191.208L323.815 191.403L307.23 194.688C307.23 194.688 307.607 199.908 307.619 204.824C307.632 208.92 307.408 213.09 306.48 213.577C305.287 213.686 304.2 213.901 304.2 213.901C304.2 213.901 290.167 223.757 289.258 237.125C288.045 254.984 300.635 276.152 289.473 311.84C278.076 348.291 355.536 325.306 351.282 315.762Z" fill="#D9935C"/>
<path d="M307.23 194.684C307.23 194.684 307.607 199.904 307.619 204.82C316.899 204.556 321.803 196.092 323.815 191.403L307.23 194.684Z" fill="#CB7D45"/>
<path d="M325.527 189.594C325.527 189.594 330.39 181.912 331.559 175.341C332.39 170.649 330.001 153.265 312.528 155.767C312.528 155.767 307.454 156.266 302.684 159.491C298.892 162.054 293.416 167.582 299.537 182.756L301.127 187.882L325.527 189.594Z" fill="#233862"/>
<path d="M304.131 199.34C304.131 199.34 326.086 199.701 326.102 186.025C326.119 172.348 328.962 163.186 314.944 162.375C300.927 161.563 298.197 166.779 297.082 171.346C295.967 175.909 298.421 198.894 304.131 199.34Z" fill="#D9935C"/>
<path d="M304.943 162.042C304.943 162.042 310.954 178.087 320.181 180.46C329.409 182.833 333.408 180.359 333.408 180.359C333.408 180.359 326.33 174.737 324.862 164.926C324.866 164.926 309.482 154.405 304.943 162.042Z" fill="#233862"/>
<path d="M306.435 163.344C306.435 163.344 301.945 166.925 300.85 170.409C299.755 173.894 299.264 181.06 297.175 180.817C297.175 180.817 292.645 169.911 297.735 163.741C303.134 157.199 306.435 163.344 306.435 163.344Z" fill="#233862"/>
<path d="M379.84 334.104L373.249 336.079C373.249 336.079 351.505 300.001 349.53 290.616C348.885 287.558 347.303 281.445 345.458 274.591C341.641 260.399 336.713 243.04 336.713 243.04L335.091 236.011L329.555 212.04C329.555 212.04 340.153 213.123 346.35 215.715C348.403 216.571 349.968 217.593 350.516 218.793C355.071 228.807 359.617 254.076 362.813 272.105C364.594 282.151 365.953 289.951 366.662 291.602C368.638 296.217 374.677 321.587 379.84 334.104Z" fill="#D9935C"/>
<path d="M305.6 163.888C305.6 163.888 309.883 180.692 321.524 186.07C321.524 186.07 309.883 175.748 308.894 164.655C307.908 153.566 305.6 163.888 305.6 163.888Z" fill="#233862"/>
<path d="M355.212 477.944C352.867 502.941 342.553 519.108 342.553 519.108L339.033 522.312C339.033 522.312 335.824 504.007 333.508 483.054C331.302 463.14 328.276 442.061 324.853 435.628C319.738 426.016 315.966 406.356 313.253 385.59C308.767 351.224 307.177 313.804 307.177 313.804L348.483 311.755C352.64 318.74 354.449 330.194 354.879 343.217C355.333 356.91 354.255 372.343 352.758 386.133C350.669 405.44 347.761 421.53 347.084 425.148C347.084 425.152 347.084 425.156 347.08 425.164C346.99 425.638 347.128 426.117 347.351 426.547C355.573 442.815 356.761 461.428 355.212 477.944Z" fill="#D9935C"/>
<path d="M307.011 258.367C306.082 281.056 302.687 303.526 292.807 302.078C280.7 300.31 277.545 289.01 276.9 280.606C276.502 275.378 277.078 271.269 277.078 271.269C277.078 271.269 283.036 271.241 284.002 270.352C288.577 266.126 287.218 224.662 289.485 220.355C291.753 216.051 306.451 213.285 306.451 213.285C306.451 213.285 307.936 235.938 307.011 258.367Z" fill="#EE9849"/>
<path d="M307.011 258.367C306.082 281.056 302.687 303.526 292.807 302.078C280.7 300.31 277.544 289.01 276.899 280.606C279.872 280.456 285.105 279.73 287.185 276.558C290.162 272.015 299.451 242.788 299.451 242.788C299.451 242.788 303.109 249.351 307.011 258.367Z" fill="#E58638"/>
<path d="M331.846 481.452C330.755 485.792 329.554 489.925 328.329 493.774C328.066 494.597 327.81 495.409 327.547 496.204C327.417 496.597 327.283 496.986 327.157 497.372C326.898 498.134 326.646 498.881 326.391 499.611C326.058 500.564 325.729 501.493 325.401 502.389C325.162 503.054 324.922 503.707 324.683 504.348C321.049 514.094 318.003 520.272 318.003 520.272L310.763 519.773C310.763 519.773 313.48 506.838 314.024 488.315C314.04 487.654 314.06 486.989 314.073 486.311C314.101 484.875 314.117 483.411 314.117 481.915C314.117 481.302 314.113 480.682 314.109 480.057C313.963 464.101 311.988 445.245 305.685 427.24C300.558 412.602 296.843 398.909 294.158 386.535C298.461 387.423 302.254 386.514 313.253 385.594C314.409 385.496 319.938 392.343 325.397 401.4C325.677 414.152 331.935 420.556 331.935 420.556C339.775 437.417 336.928 461.225 331.846 481.452Z" fill="#233862"/>
<path d="M355.212 477.944C352.867 502.941 342.553 519.108 342.553 519.108L339.033 522.312C339.033 522.312 335.824 504.007 333.508 483.054C331.302 463.14 328.276 442.061 324.853 435.628C319.738 426.016 315.966 406.356 313.253 385.59C317.057 387.172 329.992 391.28 352.754 386.133C350.665 405.44 347.757 421.53 347.08 425.148C347.08 425.152 347.08 425.156 347.076 425.164C346.986 425.638 347.124 426.117 347.347 426.547C355.573 442.815 356.761 461.428 355.212 477.944Z" fill="#2B478B"/>
<path d="M363.126 356.306C363.126 356.306 354.482 358.975 341.755 360.735C325.993 362.913 303.957 363.7 284.278 356.306C284.278 356.306 282.656 327.022 287.32 311.76C291.984 296.489 294.162 289.188 294.162 289.188C294.162 289.188 312.844 293.873 331.818 290.239C334.483 289.732 337.151 289.055 339.776 288.183C339.776 288.183 351.481 313.033 354.697 323.68C357.914 334.327 363.126 356.306 363.126 356.306Z" fill="#2B478B"/>
<path d="M363.125 356.306C363.125 356.306 354.482 358.975 341.754 360.735C318.408 347.496 329.793 291.792 329.793 291.792C330.487 291.228 331.164 290.709 331.817 290.235C334.482 289.728 337.151 289.05 339.775 288.178C339.775 288.178 351.48 313.029 354.697 323.676C357.913 334.323 363.125 356.306 363.125 356.306Z" fill="#233862"/>
<path d="M382.237 300.569C382.237 306.268 376.425 309.772 370.183 311.476C364.184 313.115 357.792 313.094 355.796 311.756C352.349 309.444 346.727 283.749 345.089 275.93C344.792 274.51 344.626 273.683 344.626 273.683C344.626 273.683 340.144 284.378 340.002 285.376C339.937 285.826 339.885 286.443 339.844 286.986C339.8 287.643 339.771 288.187 339.771 288.187C339.771 288.187 315.452 300.464 294.162 289.188C294.162 289.188 285.507 239.166 289.262 230.56C291.128 226.281 300.867 217.455 304.764 213.646C305.64 212.791 305.551 211.095 305.214 209.546C304.935 208.236 306.111 207.084 307.409 207.421C309.915 208.074 314.421 207.96 319.256 206.374C321.661 205.591 324.148 204.439 326.496 202.833C327.182 202.367 328.11 202.797 328.212 203.616C328.581 206.597 329.481 212.044 331.124 212.044C333.391 212.032 348.852 213.93 349.984 215.841C350.378 216.506 354.397 225.603 359.471 237.65C359.471 237.65 359.475 237.658 359.479 237.682C369.007 260.286 382.237 293.277 382.237 300.569Z" fill="#EE9849"/>
<path d="M344.622 273.682C344.622 273.682 340.14 284.378 339.998 285.375C339.934 285.826 339.881 286.442 339.84 286.986C337.674 288.754 335.054 290.093 332.385 290.904C324.805 293.199 321.511 278.667 321.962 271.419C322.416 264.167 333.136 243.473 336.709 243.043C340.278 242.614 344.622 273.682 344.622 273.682Z" fill="#E58638"/>
<path d="M345.084 275.929C344.788 274.509 344.622 273.682 344.622 273.682C344.861 274.448 345.015 275.195 345.084 275.929Z" fill="#E58638"/>
<path d="M314 294.7C300.161 294.7 294.454 289.939 294.032 289.614L293.136 283.096C293.27 283.194 311.838 294.343 340.578 283.664L339.97 288.6C328.917 292.709 321.187 294.7 314 294.7Z" fill="#B64C41"/>
<path d="M382.237 300.569C382.237 306.267 376.425 309.772 370.183 311.475C378.786 301.234 359.966 239.263 359.483 237.681C369.007 260.285 382.237 293.276 382.237 300.569Z" fill="#E58638"/>
<path d="M331.124 212.044C331.124 212.044 319.544 219.377 310.788 217.641C310.788 217.641 308.687 216.315 311.587 214.976C314.308 213.727 320.644 210.024 319.252 206.37C321.658 205.587 324.144 204.435 326.492 202.829C327.178 202.362 328.107 202.792 328.208 203.612C328.577 206.597 329.481 212.044 331.124 212.044Z" fill="#E58638"/>
<path d="M322.172 526.344H317.548C315.999 526.1 314.855 525.65 313.269 525.443C310.856 525.127 309.749 526.116 309.526 526.344C309.497 526.372 309.481 526.388 309.481 526.388H289.846C289.351 525.682 289.826 524.048 290.292 522.847C290.605 522.032 291.286 521.411 292.13 521.168C294.21 520.564 298.315 520.028 302.075 516.625C304.188 514.715 312.288 509.596 312.288 509.596L312.328 509.588C312.507 509.592 313.355 509.852 317.037 512.963C318.944 514.569 322.188 510.696 322.188 510.696C322.188 510.696 322.797 511.199 323.251 512.14C323.616 512.882 323.884 513.9 323.673 515.153C323.381 516.922 324.326 520.211 325.08 522.434C325.539 523.78 325.924 524.737 325.924 524.737C325.924 524.737 326.151 525.845 322.172 526.344Z" fill="#233862"/>
<path d="M323.26 512.136C322.157 512.914 319.829 514.443 318.283 514.646C316.199 514.918 312.297 509.596 312.297 509.596L312.337 509.588C312.516 509.592 313.363 509.852 317.046 512.963C318.952 514.569 322.197 510.696 322.197 510.696C322.197 510.696 322.802 511.199 323.26 512.136Z" fill="#466AA5"/>
<path d="M322.172 526.344H317.548C315.999 526.1 314.855 525.65 313.269 525.443C310.856 525.127 309.749 526.116 309.526 526.344C309.497 526.372 309.481 526.388 309.481 526.388H289.846C289.351 525.682 289.826 524.048 290.292 522.847C290.889 522.316 291.055 525.151 291.388 525.601C291.716 526.051 307.404 525.768 308.313 525.106C309.217 524.449 311.935 523.293 315.727 524.202C319.025 524.989 323.884 522.969 325.088 522.434C325.547 523.78 325.932 524.737 325.932 524.737C325.932 524.737 326.151 525.845 322.172 526.344Z" fill="#466AA5"/>
<path d="M346.842 526.345H342.218C340.669 526.101 339.525 525.651 337.939 525.444C335.526 525.128 334.418 526.117 334.195 526.345C334.167 526.373 334.155 526.389 334.155 526.389H314.52C314.025 525.683 314.5 524.049 314.966 522.848C315.278 522.033 315.96 521.412 316.803 521.169C318.884 520.565 322.989 520.029 326.749 516.626C328.862 514.716 336.962 509.597 336.962 509.597L337.006 509.589C337.185 509.593 338.032 509.853 341.715 512.964C343.621 514.57 346.866 510.697 346.866 510.697C346.866 510.697 347.475 511.2 347.929 512.141C348.294 512.883 348.562 513.901 348.351 515.154C348.059 516.923 349.004 520.212 349.758 522.435C350.216 523.781 350.602 524.738 350.602 524.738C350.602 524.738 350.817 525.846 346.842 526.345Z" fill="#233862"/>
<path d="M347.924 512.136C346.821 512.914 344.492 514.443 342.947 514.646C340.862 514.918 336.961 509.596 336.961 509.596L337.005 509.588C337.184 509.592 338.031 509.852 341.714 512.963C343.62 514.569 346.865 510.696 346.865 510.696C346.865 510.696 347.47 511.199 347.924 512.136Z" fill="#466AA5"/>
<path d="M346.841 526.344H342.217C340.667 526.1 339.524 525.65 337.938 525.443C335.525 525.127 334.417 526.116 334.194 526.344C334.166 526.372 334.154 526.388 334.154 526.388H314.519C314.024 525.682 314.498 524.048 314.965 522.847C315.561 522.316 315.727 525.151 316.06 525.601C316.389 526.051 332.077 525.768 332.986 525.106C333.89 524.449 336.607 523.293 340.4 524.202C343.697 524.989 348.556 522.969 349.761 522.434C350.219 523.78 350.605 524.737 350.605 524.737C350.605 524.737 350.815 525.845 346.841 526.344Z" fill="#466AA5"/>
<path d="M396.17 362.192C395.711 359.896 394.101 358.03 391.907 357.215C388.35 355.897 382.521 354.705 375.358 356.81C363.268 360.363 362.083 367.797 362.882 373.143C363.681 378.489 361.313 387.006 361.662 393.07C362.01 399.133 363.746 414.359 372.698 413.56C381.653 412.761 410.511 405.006 410.511 405.006C410.511 405.006 415.496 395.52 405.255 381.774C399.179 373.621 396.969 366.195 396.17 362.192Z" fill="#D37129"/>
<path d="M390.629 355.187L388.236 355.402C388.236 355.398 387.96 353.747 386.861 352.705C386.018 351.906 384.845 351.618 383.389 351.853C382.01 352.072 381.017 352.705 380.514 353.727C379.804 355.159 380.197 357.008 380.201 357.029L377.869 357.568C377.841 357.442 377.163 354.441 378.388 351.918C379.228 350.178 380.733 349.172 382.813 348.783C384.959 348.438 386.772 348.961 388.208 350.34C390.183 352.243 390.613 355.07 390.629 355.187Z" fill="#D37129"/>
<path d="M416.441 403.652C416.441 403.652 387.579 411.427 378.619 412.21C369.668 413.025 367.924 397.795 367.595 391.715C367.242 385.672 369.603 377.146 368.816 371.788C368.654 370.774 368.56 369.651 368.633 368.519C368.864 363.749 371.533 358.335 381.272 355.475C388.455 353.358 394.263 354.567 397.836 355.885C400.018 356.7 401.649 358.558 402.103 360.849C402.208 361.316 402.306 361.883 402.432 362.443C403.462 366.698 405.839 373.301 411.188 380.439C421.438 394.173 416.441 403.652 416.441 403.652Z" fill="#F1A34F"/>
<path opacity="0.4" d="M371.955 392.996L389.351 389.058C389.351 389.058 393.399 401.514 385.177 403.785C376.956 406.053 373.545 401.23 371.955 392.996Z" fill="#D86713"/>
<path d="M371.955 392.996C371.955 392.996 375.97 396.866 381.393 395.499C386.816 394.136 389.351 389.058 389.351 389.058L371.955 392.996Z" fill="#D37129"/>
<path opacity="0.4" d="M392.88 388.259L410.276 384.325C410.276 384.325 414.324 396.781 406.102 399.052C397.881 401.319 394.47 396.497 392.88 388.259Z" fill="#D86713"/>
<path d="M392.88 388.259C392.88 388.259 396.895 392.129 402.318 390.762C407.741 389.399 410.276 384.321 410.276 384.321L392.88 388.259Z" fill="#D37129"/>
<path opacity="0.4" d="M402.107 360.849C402.212 361.315 402.31 361.883 402.436 362.443C400.136 367.188 395.776 373.252 388.398 374.659C375.853 377.105 368.637 368.519 368.637 368.519C368.869 363.749 371.537 358.334 381.276 355.475C388.459 353.357 394.267 354.566 397.84 355.884C400.022 356.704 401.653 358.561 402.107 360.849Z" fill="#D86713"/>
<path d="M388.577 377.292C387.79 377.471 387.003 376.972 386.825 376.189L386.533 374.891C386.354 374.104 386.853 373.317 387.636 373.139C388.423 372.96 389.21 373.459 389.388 374.242L389.68 375.54C389.859 376.323 389.36 377.114 388.577 377.292Z" fill="#D86713"/>
<path d="M379.369 333.009C379.369 333.009 381.373 337.73 383.458 339.048C385.542 340.366 387.526 343.53 387.96 346.077C388.755 350.754 385.169 353.654 382.533 353.654C379.896 353.654 377.378 350.06 375.828 341.478C375.743 341.007 373.241 336.083 373.241 336.083L379.369 333.009Z" fill="#D9935C"/>
<path d="M395.992 9.55859C363.853 9.55859 337.704 35.7073 337.704 67.8467C337.704 99.986 363.853 126.131 395.992 126.131C428.131 126.131 454.28 99.986 454.28 67.8467C454.276 35.7073 428.131 9.55859 395.992 9.55859ZM395.992 122.33C365.95 122.33 341.508 97.8891 341.508 67.8467C341.508 37.8042 365.95 13.3631 395.992 13.3631C426.034 13.3631 450.476 37.8042 450.476 67.8467C450.476 97.8891 426.034 122.33 395.992 122.33Z" fill="#F9DDBF"/>
<path d="M395.992 23.6618C397.273 23.6618 398.316 22.6235 398.316 21.3377C398.316 20.056 397.278 19.0137 395.992 19.0137C394.71 19.0137 393.668 20.052 393.668 21.3377C393.668 22.6194 394.71 23.6618 395.992 23.6618Z" fill="#F9DDBF"/>
<path d="M395.992 112.783C394.71 112.783 393.668 113.826 393.668 115.107C393.668 116.389 394.706 117.431 395.992 117.431C397.273 117.431 398.316 116.393 398.316 115.107C398.316 113.826 397.273 112.783 395.992 112.783Z" fill="#F9DDBF"/>
<path d="M440.555 65.9004C439.273 65.9004 438.231 66.9387 438.231 68.2245C438.231 69.5061 439.269 70.5485 440.555 70.5485C441.836 70.5485 442.879 69.5102 442.879 68.2245C442.875 66.9387 441.836 65.9004 440.555 65.9004Z" fill="#F9DDBF"/>
<path d="M417.675 105.117C416.791 106.046 416.823 107.518 417.752 108.402C418.681 109.287 420.149 109.254 421.037 108.325C421.921 107.396 421.889 105.928 420.96 105.04C420.031 104.156 418.559 104.188 417.675 105.117Z" fill="#F9DDBF"/>
<path d="M432.881 90.6619C431.997 91.5907 432.029 93.063 432.958 93.9472C433.887 94.8314 435.359 94.799 436.243 93.8702C437.127 92.9413 437.095 91.469 436.166 90.5848C435.237 89.7006 433.765 89.7371 432.881 90.6619Z" fill="#F9DDBF"/>
<path d="M435.57 48.1388C436.726 47.5831 437.213 46.1919 436.657 45.036C436.101 43.88 434.71 43.3933 433.554 43.953C432.398 44.5087 431.912 45.8999 432.471 47.0558C433.027 48.2118 434.414 48.6944 435.57 48.1388Z" fill="#F9DDBF"/>
<path d="M420.616 28.3096C419.537 27.612 418.101 27.9243 417.403 29.0032C416.706 30.0821 417.018 31.5179 418.097 32.2155C419.176 32.9131 420.612 32.6008 421.309 31.5219C422.003 30.4431 421.694 29.0073 420.616 28.3096Z" fill="#F9DDBF"/>
<path d="M354.8 65.1211C353.518 65.1211 352.476 66.1594 352.476 67.4451C352.476 68.7268 353.514 69.7692 354.8 69.7692C356.081 69.7692 357.124 68.7309 357.124 67.4451C357.12 66.1594 356.081 65.1211 354.8 65.1211Z" fill="#F9DDBF"/>
<path d="M374.391 104.261C373.462 105.145 373.425 106.618 374.313 107.546C375.198 108.475 376.67 108.512 377.599 107.623C378.528 106.739 378.564 105.267 377.676 104.338C376.792 103.409 375.319 103.377 374.391 104.261Z" fill="#F9DDBF"/>
<path d="M359.184 89.806C358.255 90.6902 358.219 92.1625 359.107 93.0913C359.991 94.0202 361.463 94.0567 362.392 93.1684C363.321 92.2842 363.357 90.8119 362.469 89.8831C361.585 88.9583 360.113 88.9218 359.184 89.806Z" fill="#F9DDBF"/>
<path d="M359.781 47.3602C360.937 47.9158 362.324 47.4332 362.884 46.2772C363.439 45.1213 362.957 43.7341 361.801 43.1744C360.645 42.6187 359.258 43.1014 358.698 44.2574C358.138 45.4174 358.625 46.8045 359.781 47.3602Z" fill="#F9DDBF"/>
<path d="M374.735 27.5305C373.656 28.2281 373.348 29.6639 374.041 30.7428C374.739 31.8217 376.175 32.1299 377.254 31.4364C378.333 30.7388 378.641 29.3029 377.947 28.2241C377.25 27.1452 375.814 26.8369 374.735 27.5305Z" fill="#F9DDBF"/>
<path d="M417.889 50.808L398.899 63.929C398.83 63.8885 398.762 63.8479 398.689 63.8114L396.652 27.9365V63.8114C395.882 64.1886 395.355 64.9795 395.355 65.8962C395.355 67.1779 396.393 68.2202 397.679 68.2202C398.96 68.2202 400.003 67.1819 400.003 65.8962C400.003 65.7785 399.991 65.665 399.974 65.5514L417.889 50.808Z" fill="#F9DDBF"/>
<path d="M677.439 529.36H10.5603C9.79711 529.36 9.17322 528.715 9.17322 527.927C9.17322 527.138 9.79711 526.493 10.5603 526.493H677.439C678.203 526.493 678.826 527.138 678.826 527.927C678.826 528.715 678.203 529.36 677.439 529.36Z" fill="#2E3552"/>
</svg>
