<svg width="688" height="688" viewBox="0 0 688 688" fill="none" xmlns="http://www.w3.org/2000/svg">
<path d="M165.98 204.753C158.813 90.3732 444.047 62.2796 480.74 166.053C517.433 269.826 609.852 233.138 665.179 360.418C720.505 487.698 581.36 580.005 581.36 580.005H46.4401C46.4401 580.005 -21.7873 438.386 41.5664 367.006C104.92 295.626 173.147 319.132 165.98 204.753Z" fill="#EBF3FA"/>
<path d="M160.145 425.165C160.145 425.165 166.182 425.859 170.857 425.579C176.703 425.229 183.908 425.083 185.247 426.639C186.583 428.195 186.583 428.195 183.99 429.567C181.967 430.635 174.17 434.071 168.906 432.444C163.638 430.814 156.915 431.146 156.915 431.146L160.145 425.165Z" fill="#FFB27D"/>
<path d="M95.6866 367.652C95.6866 367.652 106.935 423.37 120.325 427.623C126.933 429.72 155.814 433.652 164.29 433.715C164.29 433.715 166.26 431.913 165.35 425.116C165.35 425.116 134.79 415.915 130.186 410.196C123.333 401.686 131.951 373.659 123.519 365.783C115.087 357.907 101.511 355.117 95.6866 367.652Z" fill="#7AA9E2"/>
<path d="M101.037 575.285H102.66C104.286 575.285 105.615 573.953 105.615 572.33V482.397C105.615 480.77 104.283 479.442 102.66 479.442H101.037C99.41 479.442 98.0819 480.774 98.0819 482.397V572.33C98.0781 573.953 99.41 575.285 101.037 575.285Z" fill="#96C1ED"/>
<path d="M68.0477 581.586C71.592 574.255 85.3777 568.786 101.846 568.786C118.314 568.786 132.1 574.255 135.644 581.586H68.0477Z" fill="#96C1ED"/>
<path d="M77.0507 556.719H126.645C127.168 556.719 127.593 556.294 127.593 555.772V553.806C127.593 553.283 127.168 552.858 126.645 552.858H77.0507C76.5283 552.858 76.103 553.283 76.103 553.806V555.772C76.103 556.294 76.5283 556.719 77.0507 556.719Z" fill="#96C1ED"/>
<path d="M97.4584 470.704C99.7679 474.621 102.439 478.296 105.196 481.773C113.706 492.518 122.974 501.379 124.586 509.751C124.907 511.419 125.418 513.217 126.082 515.113C126.757 517.03 127.589 519.049 128.552 521.134C132.163 528.98 137.566 537.77 142.957 545.762C152.28 559.577 161.048 571.102 161.048 571.102L177.124 570.416C176.479 568.804 169.468 549.732 160.089 526.421C156.28 516.959 152.228 506.893 148.322 497.186C147.799 495.891 147.281 494.6 146.766 493.32C145.572 490.351 144.397 487.426 143.248 484.579C134.439 462.69 127.425 445.263 127.425 445.263C127.425 445.263 92.2202 431.929 88.5677 440.569C85.5494 447.692 88.0043 454.672 97.4584 470.704Z" fill="#163560"/>
<path d="M161.548 568.177C161.548 568.177 162.369 581.444 164.935 581.635C165.275 581.661 177.952 581.661 177.952 581.661L194.133 581.567C194.133 581.567 194.029 577.669 189.298 576.844C184.567 576.02 176.65 572.695 173.785 566.442C170.774 559.865 161.548 568.177 161.548 568.177Z" fill="#163560"/>
<path d="M124.321 530.279C124.321 530.279 113.14 537.464 114.225 539.796C114.371 540.106 120.549 551.176 120.549 551.176L128.518 565.26C128.518 565.26 131.872 563.267 130.287 558.734C128.701 554.201 127.742 545.669 131.805 540.121C136.077 534.282 124.321 530.279 124.321 530.279Z" fill="#163560"/>
<path d="M140.069 439.327C140.069 439.327 187.72 473.554 192.921 484.306C196.984 492.705 132.234 546.086 132.234 546.086C132.234 546.086 122.802 536.744 121.571 532.222C121.571 532.222 143.875 500.17 161.548 489.765C166.808 486.668 98.4583 479.102 91.0599 467.592C83.6616 456.082 87.7395 440.841 87.7395 440.841L140.069 439.327Z" fill="#1C468A"/>
<path d="M63.3282 489.731H139.853C145.486 489.731 150.094 485.123 150.094 479.486V477.833C150.094 472.199 145.486 467.588 139.853 467.588H63.3282C57.6945 467.588 53.0831 472.196 53.0831 477.833V479.486C53.0831 485.123 57.6945 489.731 63.3282 489.731Z" fill="#EE9849"/>
<path d="M119.019 342.469C123.358 345.159 125.75 348.569 125.75 348.569C115.165 351.307 97.6153 341.499 97.6153 341.499C97.6153 341.499 104.428 336.921 106.954 326.863C107.081 326.355 107.196 325.833 107.301 325.303C107.633 323.609 107.838 321.774 107.875 319.796L112.737 324.154L120.821 331.399C120.821 331.399 120.639 334.407 119.628 339.578C119.452 340.469 119.251 341.439 119.019 342.469Z" fill="#FFB27D"/>
<path d="M140.789 437.461C140.767 437.57 140.733 437.678 140.696 437.79C139.677 440.651 124.269 450.366 113.863 454.224C107.368 456.634 84.8333 462.014 83.3484 457.381C81.6285 452.008 87.9262 412.845 86.4077 392.452C84.6206 367.522 91.5228 344.831 101.119 337.425C101.842 336.891 103.279 338.309 107.435 340.283C111.274 342.103 115.516 342.622 119.109 341.835L122.325 344.599C126.776 348.599 131.664 354.061 133.88 362.429C135.234 367.563 136.26 375.693 137.021 384.826C137.312 388.366 137.57 392.06 137.79 395.787C138.129 401.727 138.431 407.719 138.577 413.412C138.581 413.52 138.584 413.628 138.584 413.74L138.588 413.945C138.648 414.52 138.659 415.147 138.663 415.721C138.681 416.296 138.696 416.87 138.711 417.438C138.816 421.896 138.808 426.034 138.965 429.611C139.043 431.406 139.405 432.693 139.789 433.719C140.181 434.764 140.599 435.529 140.771 436.264C140.856 436.652 140.883 437.043 140.789 437.461Z" fill="#B0D4FF"/>
<path d="M120.821 331.392C120.821 331.392 120.639 334.399 119.628 339.57C111.733 337.018 108.151 329.888 106.954 326.863C106.614 326.008 106.465 325.478 106.465 325.478C106.465 325.478 106.771 325.411 107.301 325.299C108.409 325.064 110.502 324.62 112.737 324.146L120.821 331.392Z" fill="#ED975D"/>
<path d="M123.235 333.94C123.235 333.94 105.782 333.496 106.226 322.632C106.67 311.768 104.715 304.395 115.878 304.22C127.041 304.045 129.033 308.279 129.768 311.939C130.499 315.603 127.783 333.776 123.235 333.94Z" fill="#FFB27D"/>
<path d="M185.699 427.443L187.217 427.936L200.135 388.176L198.616 387.682L185.699 427.443Z" fill="#1C468A"/>
<path d="M143.371 426.991L187.234 427.93L187.29 425.308L143.427 424.369L143.371 426.991Z" fill="#1C468A"/>
<path d="M104.054 302.44C103.946 302.257 103.648 302.075 102.95 301.91C102.95 301.91 103.577 301.657 104.338 301.772C104.659 300.814 105.491 299.168 107.259 299.045C107.259 299.045 106.263 299.37 105.961 300.392C108.278 298.728 112.736 298.008 124.205 300.985C139.315 304.914 132.525 313.831 130.335 314.648C128.141 315.465 123.716 311.372 119.967 311.01C116.217 310.648 114.568 315.864 113.184 316.375C111.8 316.886 112.523 315.677 110.96 314.61C109.401 313.543 108.74 316.327 108.905 318.241C109.069 320.155 106.312 322.154 106.312 322.154C106.312 322.154 106.312 322.154 104.405 319.199C102.499 316.245 102.185 305.104 103.663 303C103.789 302.817 103.92 302.63 104.054 302.44Z" fill="#2C3A64"/>
<path d="M139.786 433.716C135.548 433.029 125.082 430.932 117.483 426.176C103.768 417.591 95.6866 374.018 95.6866 374.018L117.169 401.529L138.681 417.274L138.711 417.434C138.816 421.892 138.808 426.03 138.965 429.608C139.043 431.406 139.405 432.69 139.786 433.716Z" fill="#91B8EF"/>
<path d="M160.208 413.516C160.208 413.516 161.731 414.024 163.51 413.516C165.286 413.009 171.382 411.487 172.397 411.994C173.412 412.502 176.587 415.042 177.348 415.55C178.109 416.057 179.251 418.217 179.251 418.217C178.549 418.728 176.654 416.986 175.699 416.859C174.748 416.732 167.126 419.422 165.029 419.169C162.932 418.915 159.761 417.964 159.761 417.964L160.208 413.516Z" fill="#FFB27D"/>
<path d="M172.849 415.878C172.849 415.994 174.931 419.239 177.013 418.654L175.229 416.214L172.849 415.878Z" fill="#FFB27D"/>
<path d="M163.507 413.516C163.507 413.516 166.13 411.774 167.047 410.882C167.047 410.882 167.469 411.162 167.424 411.55C167.35 412.199 166.533 413.274 166.533 413.274L163.507 413.516Z" fill="#FFB27D"/>
<path d="M117.512 352.307C106.218 342.648 89.2727 353.58 93.3356 367.876C98.0477 384.449 107.144 411.789 116.501 414.445C123.168 416.337 152.157 419.37 160.634 419.169C160.634 419.169 162.204 419.769 161.085 412.998C161.085 412.998 129.298 403.178 125.813 396.716C123.948 393.254 126.444 360.139 117.773 352.531C117.687 352.457 117.598 352.382 117.512 352.307Z" fill="#B0D4FF"/>
<path d="M545.098 332.195C545.098 332.195 566.998 354.901 568.032 363.449C569.065 371.996 557.54 385.334 557.54 385.334L545.098 332.195Z" fill="#ED7D2B"/>
<path d="M535.204 567.517C535.204 567.517 534.431 579.56 532.1 579.728C531.79 579.75 520.28 579.724 520.28 579.724L505.588 579.609C505.588 579.609 505.692 576.068 509.99 575.329C514.288 574.591 521.482 571.587 524.097 565.916C526.843 559.951 535.204 567.517 535.204 567.517Z" fill="#163560"/>
<path d="M567.927 567.588C567.927 567.588 567.155 579.631 564.823 579.799C564.513 579.821 553.004 579.795 553.004 579.795L538.311 579.679C538.311 579.679 538.416 576.139 542.714 575.4C547.012 574.661 554.205 571.658 556.82 565.987C559.566 560.021 567.927 567.588 567.927 567.588Z" fill="#163560"/>
<path d="M519.209 438.022C519.209 438.022 523 462.608 537.241 506.267C551.482 549.926 553.396 568.823 553.396 568.823L568.774 568.424C568.774 568.424 569.009 520.743 562.451 498.791C555.892 476.838 561.197 419.692 561.197 419.692L519.209 438.022Z" fill="#163560"/>
<path d="M511.766 420.934C511.766 420.934 511.143 457.97 517.452 503.457C523.761 548.944 521.549 568.244 521.549 568.244L536.894 568.789C536.894 568.789 546.165 523.317 543.583 500.551C541.002 477.785 556.313 422.474 556.313 422.474L511.766 420.934Z" fill="#1C468A"/>
<path d="M541.662 334.328L533.472 339.671L521.66 337.444C521.825 336.489 522.615 332.538 523.332 328.956C523.377 328.743 523.418 328.534 523.459 328.325C524.074 325.281 524.604 322.662 524.604 322.662L535.651 317.816L539.77 316.01C539.759 316.073 539.442 319.39 539.401 319.875C538.614 328.478 541.662 334.328 541.662 334.328Z" fill="#FFB27D"/>
<path d="M524.701 331.587C524.933 331.49 538.942 327.389 540.461 327.893C541.979 328.4 542.874 331.344 542.874 331.344L519.959 336.474C519.963 336.474 521.773 332.814 524.701 331.587Z" fill="#ED7D2B"/>
<path d="M562.201 425.616C559.806 436.439 520.303 437.637 510.14 427.787C508.983 426.664 508.938 421.452 509.39 414.427C510.274 400.701 513.061 380.051 513.192 369.5C513.255 364.403 513.968 359.195 514.908 354.464C516.915 344.383 519.956 336.474 519.956 336.474C519.956 336.474 539.263 330.277 542.871 331.347C560.257 336.492 564.6 414.796 562.201 425.616Z" fill="#F99746"/>
<path d="M509.394 414.427C510.278 400.701 513.065 380.051 513.195 369.5C513.259 364.403 513.971 359.195 514.912 354.464L526.522 352.442C526.522 352.442 537.767 398.813 509.394 414.427Z" fill="#ED7D2B"/>
<path d="M515.717 395.302C515.717 395.302 516.505 397.194 514.841 398.462C513.177 399.727 512.095 401.783 512.471 403.286C512.848 404.79 516.486 407.249 517.751 406.857C519.015 406.465 521.59 404.492 521.314 403.697C521.038 402.902 523.06 396.742 519.982 394.362C516.911 391.982 515.717 395.302 515.717 395.302Z" fill="#FFB27D"/>
<path d="M528.828 333.713C528.828 333.713 517.504 335.806 508.457 349.077C499.41 362.348 493.455 372.216 495.104 377.01C496.753 381.804 511.863 398.451 514.471 398.455C517.083 398.463 521.299 396.571 521.545 392.299C521.545 392.299 510.919 376.297 513.024 373.91C513.923 372.887 526.891 362.407 528.727 367.16C531.775 375.021 528.828 333.713 528.828 333.713Z" fill="#F99746"/>
<path d="M538.576 320.032C536.144 324.132 527.104 327.666 523.335 328.96C523.38 328.748 523.421 328.539 523.462 328.33C524.078 325.285 524.608 322.666 524.608 322.666L535.655 317.82C538.095 317.794 539.58 318.342 538.576 320.032Z" fill="#FCA56B"/>
<path d="M520.448 321.987C520.448 321.987 538.214 327.572 541.524 316.454C544.833 305.336 549.351 298.568 538.147 294.531C526.943 290.494 523.466 294.08 521.459 297.523C519.455 300.967 515.911 320.248 520.448 321.987Z" fill="#FFB27D"/>
<path d="M522.16 296.452C522.16 296.452 523.265 309.402 525.944 308.846C528.622 308.291 531.051 307.88 530.652 311.779C530.253 315.678 526.529 320.181 534.778 320.886C543.027 321.595 554.936 300.34 552.679 296.307C546.165 284.67 512.74 282.249 522.16 296.452Z" fill="#163560"/>
<path d="M360.839 375.92C360.51 376.386 359.111 378.617 360.906 381.132C361.021 381.289 361.096 381.419 361.145 381.528C382.638 394.44 447.101 446.68 447.101 483.5V559.779H252.546V483.471C252.546 446.415 317.889 393.347 338.908 381.132C338.912 381.132 338.912 381.132 338.912 381.132C339.587 380.188 339.808 379.285 339.808 378.498C339.808 376.927 338.912 375.827 338.912 375.827C317.84 363.339 252.546 310.663 252.546 273.608V197.337H447.101V273.645C447.101 310.637 381.97 363.597 360.839 375.92Z" fill="#B0D4FF"/>
<path d="M458.26 579.43H239.839V570.028C239.839 564.368 244.424 559.783 250.084 559.783H448.437C453.861 559.783 458.26 564.181 458.26 569.606V579.43Z" fill="#F99746"/>
<path d="M308.237 488.194C307.241 505.266 310.486 542.094 310.192 559.782H252.546V483.474C252.546 446.419 317.889 393.351 338.908 381.136C338.912 381.136 338.912 381.136 338.912 381.136C339.587 380.192 339.808 379.289 339.808 378.502C339.808 376.931 338.912 375.83 338.912 375.83C317.84 363.343 252.546 310.667 252.546 273.611V197.337H291.112L318.642 204.87V265.191C318.642 265.191 315.915 282.565 322.742 299.631C329.57 316.696 344.225 371.447 343.997 378.558C343.77 385.669 309.945 458.929 308.237 488.194Z" fill="#A4C8FC"/>
<path d="M421.891 248.044C410.098 248.223 389.82 250.35 357.014 258.625C334.554 264.288 295.831 260.024 275.349 257.088C268.163 256.058 261.735 261.628 261.735 268.889V277.679C261.735 301.903 326.914 354.378 344.15 367.828C346.762 369.865 348.288 372.992 348.288 376.305V511.013C348.288 515.613 346.019 519.896 342.251 522.534C328.697 532.021 305.856 559.783 305.856 559.783H392.242C392.242 559.783 369.076 532.991 356.074 523.045C353.104 520.776 351.355 517.262 351.355 513.527V376.268C351.355 372.973 352.851 369.858 355.425 367.799C372.322 354.267 436.076 301.597 436.076 277.391V262.013C436.076 254.211 429.692 247.925 421.891 248.044Z" fill="#739AF0"/>
<path d="M448.071 204.867H249.662C244.238 204.867 239.839 200.468 239.839 195.043V185.22H458.26V194.678C458.26 200.307 453.701 204.867 448.071 204.867Z" fill="#F99746"/>
<path d="M335.588 175.851C331.033 183.78 325.302 186.843 325.302 186.843H301.465C301.465 186.843 339.065 169.804 335.588 175.851Z" fill="#233862"/>
<path d="M317.281 237.199C316.658 237.912 316.579 238.706 316.889 239.557C316.889 239.561 316.893 239.564 316.897 239.568C317.464 241.139 319.344 242.892 321.527 244.646C321.806 244.87 322.053 245.075 322.269 245.265C322.325 245.314 322.381 245.366 322.437 245.414C322.482 245.452 322.523 245.493 322.564 245.53C324.597 247.407 323.832 247.836 327.489 251.641C331.656 255.977 334.525 256.055 335.342 255.66C336.032 255.324 334.63 253.022 333.074 250.436C332.999 250.313 332.924 250.186 332.846 250.059C332.641 249.716 332.432 249.366 332.227 249.022C330.406 245.911 330.872 244.452 331.305 239.822C331.656 236.057 337.159 218.802 337.159 218.802L329.171 217.425C329.171 217.425 326.765 231.166 324.116 233.285C322.698 234.412 321.112 234.427 319.751 235.263C319.654 235.322 319.56 235.382 319.467 235.442C318.691 235.957 317.904 236.486 317.281 237.199Z" fill="#FFB27D"/>
<path d="M317.281 237.199C316.658 237.911 316.579 238.706 316.889 239.556C316.889 239.56 316.893 239.564 316.897 239.568C317.594 241.138 319.422 242.884 321.534 244.63C321.81 244.858 322.053 245.071 322.269 245.265C322.325 245.313 322.381 245.365 322.437 245.414C322.482 245.451 322.523 245.492 322.564 245.53C324.597 247.406 323.832 247.835 327.489 251.641C331.656 255.976 334.525 256.055 335.342 255.659C336.032 255.323 334.63 253.021 333.074 250.436C332.264 250.137 328.492 248.608 325.646 244.963C323.135 241.761 321.463 237.646 319.754 235.262C319.657 235.322 319.564 235.382 319.471 235.441C318.691 235.956 317.904 236.486 317.281 237.199Z" fill="#233862"/>
<path d="M381.684 232.21C382.176 234.676 385.691 234.266 389.619 233.303C393.544 232.345 392.612 233.486 398.2 232.867C403.789 232.248 405.483 230.166 405.651 229.334C405.804 228.595 403.043 228.338 400.081 227.994C399.708 227.953 399.335 227.905 398.962 227.86C395.619 227.442 393.167 225.282 390.131 223.51C387.254 221.831 382.96 214.992 382.96 214.992L375.297 215.6C375.297 215.6 379.318 221.708 380.874 224.364C381.788 225.927 381.74 227.991 381.628 229.587C381.568 230.457 381.512 231.341 381.684 232.21Z" fill="#FFB27D"/>
<path d="M389.619 233.307C393.544 232.348 392.611 233.49 398.2 232.871C403.789 232.251 405.483 230.169 405.651 229.337C405.804 228.599 403.043 228.341 400.081 227.998L400.054 228.054C400.054 228.054 396.704 230.431 392.052 230.543C388.261 230.636 384.247 229.55 381.628 229.591C381.568 230.457 381.512 231.345 381.687 232.214C382.18 234.676 385.694 234.266 389.619 233.307Z" fill="#233862"/>
<path d="M352.318 183.209L345.154 202.487L335.801 227.659C335.801 227.659 333.264 227.905 330.832 227.204C328.593 226.558 326.026 224.864 326.026 224.864C326.026 224.864 328.623 197.838 333.469 182.325C334.712 178.344 336.103 175.12 337.637 173.307C345.147 164.431 352.318 183.209 352.318 183.209Z" fill="#233862"/>
<path d="M345.031 152.593C340.338 151.079 326.951 153.023 313.505 155.657L310.688 151.012L281.643 148.743C281.643 148.743 272.059 169.998 277.308 183.541C278.08 185.534 279.987 186.373 282.602 186.414L282.606 186.418C282.606 186.418 299.936 186.839 305.551 186.839C319.997 186.839 336.122 176.911 338.207 176.494C341.621 175.811 342.987 182.638 346.4 189.809C349.814 196.98 378.494 221.563 378.494 221.563C378.494 221.563 382.9 221.608 384.724 220.925C386.683 220.19 387.399 219.235 387.399 219.235C387.399 219.235 355.616 156.007 345.031 152.593Z" fill="#2B478B"/>
<path d="M307.607 65.7227C305.428 64.4281 303.309 64.2378 302.022 64.2788C301.093 64.3087 300.168 64.2191 299.246 64.096C288.24 62.6186 281.618 78.6092 281.226 83.4556C280.51 92.3874 275.783 93.7492 269.13 99.3418C255.796 110.557 259.706 123.593 266.996 128.435C271.373 131.342 279.084 128.435 279.084 128.435C279.193 128.51 300.175 116.705 310.517 111.012C326.027 108.811 313.834 69.4312 307.607 65.7227Z" fill="#233862"/>
<path d="M301.85 106.166C301.895 106.195 296.761 107.949 293.329 106.427C290.098 104.998 287.654 99.6851 287.699 99.6813C289.169 99.6142 290.781 98.3307 292.023 89.8989L292.65 90.1228L303.167 93.9059C303.167 93.9059 302.406 97.2824 301.914 100.495C301.499 103.2 301.276 105.785 301.85 106.166Z" fill="#FFB27D"/>
<path d="M303.171 93.9138C303.171 93.9138 302.41 97.2903 301.917 100.503C295.877 99.4169 293.504 93.3952 292.653 90.127L303.171 93.9138Z" fill="#ED975D"/>
<path d="M304.737 97.2639C304.737 97.2639 290.344 95.3313 291.687 86.3883C293.026 77.4454 292.075 71.17 301.32 72.0281C310.565 72.8825 311.834 76.5649 312.113 79.6578C312.39 82.747 308.513 97.5363 304.737 97.2639Z" fill="#FFB27D"/>
<path d="M311.587 74.7519C311.587 74.7519 302.376 82.6913 296.108 83.333C289.84 83.9747 287.467 81.96 287.467 81.96C287.467 81.96 291.161 78.8932 293.384 73.9423C294.041 72.4835 295.425 71.4837 297.018 71.3456C301.492 70.9613 309.976 70.7823 311.587 74.7519Z" fill="#233862"/>
<path d="M305.827 74.0389C305.827 74.0389 308.909 77.0199 309.879 79.2286C310.815 81.3626 311.095 86.4628 310.349 88.4887C310.349 88.4887 315.151 79.1502 312.431 74.6135C309.554 69.8081 305.827 74.0389 305.827 74.0389Z" fill="#233862"/>
<path d="M313.972 127.368C313.535 156.503 313.852 150.414 310.666 153.178C309.898 153.843 307.741 154.242 304.898 154.428C295.966 155.022 280.263 153.548 279.666 151.899C277.607 146.187 279.062 144.411 277.342 135.666C277.163 134.737 276.943 133.729 276.681 132.632C275.249 126.626 273.853 124.581 278.939 114.933C283.55 106.192 288.34 99.0991 288.773 99.3528C300.94 106.576 301.921 100.506 301.921 100.506C301.921 100.506 314.184 113.157 313.972 127.368Z" fill="white"/>
<path d="M345.154 202.486L335.801 227.658C335.801 227.658 333.264 227.905 330.832 227.203C328.593 226.558 326.026 224.864 326.026 224.864C326.026 224.864 328.623 197.837 333.469 182.324L345.154 202.486Z" fill="#2B478B"/>
<path d="M301.913 100.502C301.913 100.502 314.434 102.625 315.904 108.016C317.374 113.407 326.026 145.094 326.026 145.094C326.026 145.094 319.661 146.235 316.721 143.295C313.781 140.355 306.491 116.019 306.491 116.019L301.913 100.502Z" fill="white"/>
<path d="M304.895 154.425C295.963 155.018 280.259 153.544 279.662 151.895C277.603 146.183 279.058 144.407 277.338 135.662L281.647 123.529C281.647 123.529 280.935 137.039 284.919 140.594C288.9 144.146 301.234 147.456 303.171 150.422C304.104 151.851 304.715 153.279 304.895 154.425Z" fill="#EBF3FF"/>
<path d="M294.66 148.743C294.66 148.743 303.473 146.781 304.894 147.564C306.316 148.348 309.793 151.194 310.226 152.187C310.662 153.179 307.058 151.433 305.89 151.12C305.133 150.914 303.133 151.608 302.148 151.94C297.988 153.328 295.44 152.612 295.44 152.612L294.66 148.743Z" fill="#FFB27D"/>
<path d="M288.758 99.3457C288.758 99.3457 276.924 100.073 272.827 105.789C267.059 113.833 255.62 148.109 262.176 152.683C269.559 157.831 295.78 154.029 295.78 154.029C295.78 154.029 296.653 149.952 295.437 147.978C294.224 146.004 274.495 142.818 273.585 141.908C272.674 140.997 284.968 124.152 284.968 121.421C284.968 118.69 288.758 99.3457 288.758 99.3457Z" fill="white"/>
<path d="M305.323 150.015C305.323 150.015 307.17 152.395 307.774 152.682C308.379 152.966 308.771 152.895 308.771 152.895L307.528 150.656L305.323 150.015Z" fill="#FFB27D"/>
<path d="M304.894 147.564L310.263 150.172C310.263 150.172 310.036 150.545 309.375 150.515C308.715 150.485 307.047 149.873 307.047 149.873L304.894 147.564Z" fill="#FFB27D"/>
<path d="M307.775 156.331H350.243L363.018 124.562H320.616L307.775 156.331Z" fill="#F99746"/>
<path d="M350.743 155.092H294.661V156.331H350.243L350.743 155.092Z" fill="#ED7D2B"/>
<path d="M339.524 140.448C339.845 139.333 339.2 138.426 338.08 138.426C336.965 138.426 335.797 139.333 335.48 140.448C335.159 141.564 335.805 142.471 336.924 142.471C338.039 142.471 339.203 141.564 339.524 140.448Z" fill="white"/>
<path d="M679.783 581.72H8.2172C7.79895 581.72 7.45331 581.279 7.45331 580.741V580.405C7.45331 579.868 7.79604 579.427 8.2172 579.427H679.783C680.201 579.427 680.547 579.868 680.547 580.405V580.741C680.544 581.279 680.201 581.72 679.783 581.72Z" fill="#2E3552"/>
</svg>
