<svg width="659" height="486" viewBox="0 0 659 486" fill="none" xmlns="http://www.w3.org/2000/svg">
<path opacity="0.5" fill-rule="evenodd" clip-rule="evenodd" d="M49.3466 483.32L624.335 484.639C658.68 423.219 651.512 393.155 643.501 359.551C636.974 332.176 629.888 302.453 644.229 251.516C645.448 247.195 646.52 242.916 647.453 238.687C649.034 231.511 650.216 224.476 651.008 217.582C651.43 213.963 651.741 210.384 651.95 206.845C657.254 117.339 596.946 53.2387 519.428 21.846C514.146 19.7053 508.783 17.7186 503.359 15.889C462.169 1.97608 417.257 -3.05686 375.327 1.80975C373.615 2.0038 371.905 2.21941 370.205 2.45042C360.755 3.73791 351.475 5.53671 342.438 7.85605C340.568 8.33347 338.702 8.83861 336.85 9.36223C297.117 20.6478 247.433 59.9133 242.273 90.5867C237.113 121.26 208.447 145.627 159.713 156.807C110.98 167.987 85.1799 143.047 40.46 180.887C-4.25994 218.727 -8.55985 271.76 14.087 348.3C36.7338 424.84 49.3466 483.32 49.3466 483.32Z" fill="#DCEAFF"/>
<mask id="mask0" mask-type="alpha" maskUnits="userSpaceOnUse" x="0" y="0" width="653" height="485">
<path opacity="0.5" fill-rule="evenodd" clip-rule="evenodd" d="M49.3466 483.32L624.335 484.639C658.68 423.219 651.512 393.155 643.501 359.551C636.974 332.176 629.888 302.453 644.229 251.516C645.448 247.195 646.52 242.916 647.453 238.687C649.034 231.511 650.216 224.476 651.008 217.582C651.43 213.963 651.741 210.384 651.95 206.845C657.254 117.339 596.946 53.2387 519.428 21.846C514.146 19.7053 508.783 17.7186 503.359 15.889C462.169 1.97608 417.257 -3.05686 375.327 1.80975C373.615 2.0038 371.905 2.21941 370.205 2.45042C360.755 3.73791 351.475 5.53671 342.438 7.85605C340.568 8.33347 338.702 8.83861 336.85 9.36223C297.117 20.6478 247.433 59.9133 242.273 90.5867C237.113 121.26 208.447 145.627 159.713 156.807C110.98 167.987 85.1799 143.047 40.46 180.887C-4.25994 218.727 -8.55985 271.76 14.087 348.3C36.7338 424.84 49.3466 483.32 49.3466 483.32Z" fill="#DCEAFF"/>
</mask>
<g mask="url(#mask0)">
<path d="M626.086 481.556V481.559L50.0784 481.624L55.4902 294.056V243.095H78.9639V203.294H125.794V237.077H140.095V174.596H143.206V170.229H143.764V174.596H155.058V170.229H155.619V174.596H171.608V170.229H172.169V174.596H182.234V170.229H182.789V174.596H186.922V232.922H202.73V223.487L221.371 223.57V208.284H225.119V205.262H225.618V208.284H240.015V208.29H242.895V205.259H243.39V208.29H246.862V238.685H269.054V249.872H281.393V243.376H292.836V217.586H298.543V205.555H299.406V217.586H313.078V195.036H314.421V217.586H323.468V217.272H323.452V214.41H323.468V211.703H323.452V207.193H323.468V204.317H323.452V199.81H323.468V196.933H323.452V192.424H323.468V189.313H323.452V184.81H323.468V180.849H323.452V176.346H323.468V173.358H326.163V169.985H326.594V173.358H346.566V169.985H346.994V173.358H350.641V196.933L353.203 196.949V196.933H353.182V192.424H353.203V189.313H353.182V184.81H353.203V181.711H353.182V177.202H353.203V177.19H377.419V177.202H381.581C381.793 177.322 382.012 177.442 382.23 177.562V207.628H386.687V203.294H437.802V237.077H453.412V174.596H456.803V170.229H457.416V174.596H469.74V170.229H470.35V174.596H487.805V170.229H488.415V174.596H499.402V170.229H500.008V174.596H504.524V232.922H521.776V223.487L542.12 223.57V208.287H546.217V205.262H546.762V208.287H562.467V208.29H565.612V205.259H566.151V208.29H569.94V238.688H594.159V249.872H607.628V243.376H620.115V217.583H626.343V205.555H627.286V217.583H642.212V195.036H643.675V217.583H651.015C650.223 224.476 649.041 231.511 647.461 238.688C646.527 242.917 645.455 247.195 644.236 251.516C612.285 364.979 688.409 370.102 626.086 481.556Z" fill="#DFEBFA"/>
<path d="M50.0784 481.624L55.4902 294.056V243.095H32.7199V216.433H-0.820068L1.75993 481.624H50.0784Z" fill="#DFEBFA"/>
</g>
<path d="M519.431 21.8491V481.552H503.362V15.8921C508.789 17.7217 514.151 19.7084 519.431 21.8491Z" fill="#AFCDFB"/>
<path d="M375.334 1.81201V58.4248C375.334 62.8386 374.256 66.4393 372.944 66.4393H372.602C371.287 66.4393 370.215 62.8386 370.215 58.4248V2.45268C371.912 2.22167 373.621 2.00606 375.334 1.81201Z" fill="#9FC1F4"/>
<path d="M371.437 52.8188C352.778 52.8188 337.655 68.8109 337.655 88.5422H405.22C405.22 68.8109 390.094 52.8188 371.437 52.8188Z" fill="#FF9843"/>
<path d="M374.129 53.2536C373.159 53.0411 372.167 52.9302 371.163 52.9302C359.006 52.9302 349.153 68.8729 349.153 88.5396H355.088C355.085 70.5023 363.377 55.5976 374.129 53.2536Z" fill="#FFC48A"/>
<path d="M593.924 428.863C593.924 428.863 584.933 418.376 593.369 411.713C593.369 411.713 599.532 407.983 604.556 408.285C604.556 408.285 597.435 420.224 599.739 421.413C602.043 422.602 606.712 407.537 606.712 407.537C606.712 407.537 620.736 406.175 625.245 408.347C625.245 408.347 613.258 418.157 615.783 418.742C618.309 419.327 631.258 409.696 631.258 409.696C631.258 409.696 644.308 411.917 643.612 419.879C642.916 427.841 638.419 430.299 636.442 430.086C634.464 429.874 622.901 425.46 622.652 427.08C622.399 428.7 629.361 433.992 634.233 434.238C634.233 434.238 625.033 444.387 618.916 441.458C612.802 438.529 612.278 433.887 608.468 432.147C604.655 430.407 601.402 430.41 602.976 432.187C604.55 433.964 611.449 435.689 613.63 439.545C615.811 443.402 617.767 446.001 611.44 445.05C605.114 444.098 594.829 439.468 594.376 434.167C593.924 428.863 593.924 428.863 593.924 428.863Z" fill="#77A4E5"/>
<path d="M637.199 420.094C637.199 420.094 601.75 418.727 593.923 428.867C593.923 428.867 592.192 434.05 586.863 438.772L586.032 441.036C586.032 441.036 592.173 434.559 594.373 434.167C594.373 434.167 590.935 421.607 637.199 420.094Z" fill="#77A4E5"/>
<path d="M586.863 438.772C586.863 438.772 579.256 444.399 578.726 454.453L580.106 454.576C580.106 454.576 582.536 444.181 586.928 440.115C591.323 436.049 586.863 438.772 586.863 438.772Z" fill="#77A4E5"/>
<path d="M562.488 415.676C562.488 415.676 576.789 407.667 570.115 396.797C570.115 396.797 564.777 390.123 559.054 388.407C559.054 388.407 562.106 404.615 559.054 404.997C556.001 405.379 556.956 386.691 556.956 386.691C556.956 386.691 541.891 379.444 535.981 380.017C535.981 380.017 545.326 395.843 542.273 395.464C539.221 395.085 528.733 379.065 528.733 379.065C528.733 379.065 513.286 376.204 510.81 385.358C508.33 394.512 512.334 399.086 514.623 399.659C516.911 400.232 531.595 400.041 531.213 401.947C530.831 403.854 520.916 406.906 515.387 405.191C515.387 405.191 521.489 420.256 529.497 419.492C537.505 418.728 539.985 413.772 544.944 413.39C549.903 413.008 553.525 414.345 551.046 415.679C548.566 417.012 540.176 416.116 536.172 419.52C532.167 422.923 528.924 425.021 536.363 426.548C543.801 428.073 557.147 427.121 559.818 421.398C562.488 415.676 562.488 415.676 562.488 415.676Z" fill="#77A4E5"/>
<path d="M517.869 388.216C517.869 388.216 557.914 401.184 562.491 415.676C562.491 415.676 562.3 422.159 566.304 429.595V432.456C566.304 432.456 562.109 422.732 559.82 421.395C559.82 421.395 568.78 408.81 517.869 388.216Z" fill="#77A4E5"/>
<path d="M566.305 429.596C566.305 429.596 572.481 438.975 568.96 450.39L567.371 449.962C567.371 449.962 568.914 437.389 565.683 431.065C562.448 424.742 566.305 429.596 566.305 429.596Z" fill="#77A4E5"/>
<path d="M585.241 404.629C585.241 404.629 566.388 394.071 575.188 379.745C575.188 379.745 582.226 370.948 589.766 368.684C589.766 368.684 585.743 390.051 589.766 390.553C593.789 391.055 592.532 366.423 592.532 366.423C592.532 366.423 612.39 356.872 620.182 357.626C620.182 357.626 607.865 378.488 611.888 377.986C615.91 377.484 629.734 356.37 629.734 356.37C629.734 356.37 650.094 352.6 653.362 364.664C656.63 376.729 651.35 382.763 648.335 383.518C645.319 384.273 625.964 384.02 626.466 386.533C626.968 389.047 640.04 393.07 647.328 390.806C647.328 390.806 639.285 410.663 628.727 409.659C618.168 408.655 614.903 402.119 608.367 401.617C601.831 401.115 597.057 402.874 600.325 404.632C603.593 406.391 614.654 405.208 619.93 409.696C625.206 414.184 629.481 416.95 619.677 418.961C609.873 420.972 592.279 419.716 588.759 412.176C585.238 404.635 585.241 404.629 585.241 404.629Z" fill="#9FC1F4"/>
<path d="M644.063 368.432C644.063 368.432 591.275 385.524 585.245 404.63C585.245 404.63 585.497 413.177 580.218 422.978V426.748C580.218 426.748 585.747 413.929 588.765 412.17C588.762 412.17 576.947 395.58 644.063 368.432Z" fill="#9FC1F4"/>
<path d="M580.214 422.979C580.214 422.979 572.074 435.339 576.715 450.389L578.81 449.825C578.81 449.825 576.777 433.251 581.037 424.916C585.297 416.581 580.214 422.979 580.214 422.979Z" fill="#9FC1F4"/>
<path d="M584.931 482.928C605.324 482.928 621.858 466.394 621.858 446H548C548.003 466.394 564.537 482.928 584.931 482.928Z" fill="#9FC1F4"/>
<path d="M593.693 482.735C592.19 482.923 590.659 483.018 589.104 483.018C568.71 483.018 552.176 466.484 552.176 446.091H561.352C561.355 464.932 575.465 480.477 593.693 482.735Z" fill="#AFCDFB"/>
<path d="M622.376 446.091H546.466V447.224H622.376V446.091Z" fill="#9FC1F4"/>
<path d="M412.689 481.204L376.402 330.592L378.937 324.663L414.885 481.186C414.977 481.586 414.673 481.968 414.26 481.968H413.659C413.2 481.971 412.797 481.654 412.689 481.204Z" fill="#77A4E5"/>
<path d="M248.922 481.971C248.177 481.971 247.61 481.302 247.73 480.566L258.418 415.785H262.998L250.253 480.877C250.127 481.512 249.572 481.971 248.922 481.971Z" fill="#77A4E5"/>
<path d="M351.447 481.971C350.702 481.971 350.135 481.302 350.255 480.566L360.943 415.785H365.523L352.778 480.877C352.655 481.512 352.097 481.971 351.447 481.971Z" fill="#77A4E5"/>
<path d="M376.307 415.921H248.666L275.109 250.133H402.753L376.307 415.921Z" fill="#F5FBFF"/>
<path d="M385.858 414.655H239.262V419.531H385.858V414.655Z" fill="#77A4E5"/>
<path d="M325.659 284.821C325.564 286.133 325.37 287.424 325.086 288.681C322.425 300.53 311.876 309.607 299.953 309.629C286.76 309.65 276.886 298.583 277.893 284.904C278.9 271.226 290.407 260.122 303.599 260.1C306.365 260.094 308.984 260.578 311.389 261.474C312.47 261.874 313.511 262.358 314.5 262.915C316.635 264.126 318.535 265.688 320.14 267.536C321.033 268.561 321.834 269.679 322.53 270.868C322.936 271.558 323.306 272.273 323.639 273.009C324.566 275.06 325.207 277.287 325.515 279.637C325.672 280.814 325.739 282.028 325.724 283.263C325.718 283.777 325.696 284.295 325.659 284.821Z" fill="#BDD1F9"/>
<path d="M323.639 273.01L301.78 284.862C301.78 284.862 310.798 268.978 314.501 262.913C316.635 264.124 318.536 265.685 320.14 267.533C321.034 268.559 321.834 269.677 322.531 270.866C322.937 271.556 323.307 272.27 323.639 273.01Z" fill="white"/>
<path d="M325.909 270.01L305.941 280.836C305.941 280.836 314.18 266.326 317.562 260.788C319.512 261.893 321.249 263.319 322.712 265.007C323.528 265.947 324.258 266.966 324.896 268.054C325.269 268.685 325.604 269.335 325.909 270.01Z" fill="#F99746"/>
<path d="M366.142 403.316L261.082 403.31L271.717 342.693L376.777 342.7L366.142 403.316ZM261.932 402.7L365.51 402.707L375.933 343.309L272.355 343.303L261.932 402.7Z" fill="#BDD1F9"/>
<path d="M359.877 395.006L266.7 395C266.7 395 283.228 386.135 287.762 386.6C292.296 387.065 298.814 390.654 303.003 390.792C307.192 390.931 311.732 378.352 316.395 378.946C321.058 379.538 322.814 390.666 325.229 389.579C327.644 388.492 334.897 388.02 339.074 389.579C343.251 391.137 349.337 384.626 353.009 384.829C356.683 385.033 359.877 395.006 359.877 395.006Z" fill="#F99746"/>
<path d="M289.108 377.188H271.311L271.477 376.245H289.271L289.108 377.188Z" fill="#F99746"/>
<path d="M288.754 379.206H270.957L271.124 378.26L288.921 378.263L288.754 379.206Z" fill="#F99746"/>
<path d="M272.035 364.614L365.212 364.62C365.212 364.62 351.795 355.756 347.097 356.218C342.4 356.683 334.626 360.268 330.388 360.407C326.149 360.545 326.026 347.966 321.154 348.557C316.281 349.149 310.623 360.277 308.587 359.19C306.554 358.103 299.466 357.631 294.741 359.19C290.02 360.749 286.216 354.237 282.473 354.44C278.728 354.644 272.035 364.614 272.035 364.614Z" fill="#BDD1F9"/>
<path d="M294.134 348.535H276.337L276.504 347.59L294.301 347.593L294.134 348.535Z" fill="#BDD1F9"/>
<path d="M293.781 350.553L275.984 350.55L276.15 349.607H293.947L293.781 350.553Z" fill="#BDD1F9"/>
<path d="M278.075 334.239H273.988L277.539 315.087H281.627L278.075 334.239Z" fill="#BDD1F9"/>
<path d="M283.64 334.239H279.553L282.304 319.405H286.391L283.64 334.239Z" fill="#BDD1F9"/>
<path d="M289.209 334.24H285.122L287.989 318.769H292.077L289.209 334.24Z" fill="#BDD1F9"/>
<path d="M294.775 334.239H290.688L292.872 322.47H296.959L294.775 334.239Z" fill="#BDD1F9"/>
<path d="M300.344 334.24H296.257L298.598 321.614H302.685L300.344 334.24Z" fill="#BDD1F9"/>
<path d="M305.91 334.239H301.823L303.64 324.447H307.725L305.91 334.239Z" fill="#BDD1F9"/>
<path d="M332.744 334.239H328.657L332.208 315.086H336.296L332.744 334.239Z" fill="#F99746"/>
<path d="M338.31 334.239H334.226L336.976 319.405H341.061L338.31 334.239Z" fill="#F99746"/>
<path d="M343.879 334.239H339.792L342.659 318.768H346.747L343.879 334.239Z" fill="#F99746"/>
<path d="M349.444 334.239H345.357L347.541 322.47H351.628L349.444 334.239Z" fill="#F99746"/>
<path d="M355.013 334.24H350.925L353.266 321.614H357.354L355.013 334.24Z" fill="#F99746"/>
<path d="M360.579 334.239H356.492L358.309 324.447H362.396L360.579 334.239Z" fill="#F99746"/>
<path d="M352.42 271.724H339.116L339.458 269.9H352.761L352.42 271.724Z" fill="#BDD1F9"/>
<path d="M368.741 271.724H354.049L354.394 269.9H369.083L368.741 271.724Z" fill="#BDD1F9"/>
<path d="M379.211 271.724H369.844L370.186 269.9H379.553L379.211 271.724Z" fill="#BDD1F9"/>
<path d="M387.951 271.724H380.725L381.067 269.9H388.293L387.951 271.724Z" fill="#BDD1F9"/>
<path d="M350.96 279.499H337.657L337.999 277.679H351.302L350.96 279.499Z" fill="#BDD1F9"/>
<path d="M367.279 279.499H352.59L352.932 277.679H367.624L367.279 279.499Z" fill="#BDD1F9"/>
<path d="M377.751 279.499H368.385L368.726 277.679H378.093L377.751 279.499Z" fill="#BDD1F9"/>
<path d="M386.493 279.499H379.267L379.608 277.679H386.835L386.493 279.499Z" fill="#BDD1F9"/>
<path d="M360.327 267.472H339.915L340.257 265.651H360.669L360.327 267.472Z" fill="#BDD1F9"/>
<path d="M374.036 267.471H362.27L362.612 265.651H374.378L374.036 267.471Z" fill="#BDD1F9"/>
<path d="M388.762 267.471H375.696L376.038 265.651H389.104L388.762 267.471Z" fill="#BDD1F9"/>
<path d="M358.774 275.742H338.362L338.704 273.919H359.116L358.774 275.742Z" fill="#BDD1F9"/>
<path d="M372.484 275.741H360.718L361.06 273.917H372.826L372.484 275.741Z" fill="#BDD1F9"/>
<path d="M387.21 275.741H374.144L374.486 273.917H387.552L387.21 275.741Z" fill="#BDD1F9"/>
<path d="M349.5 287.277H336.197L336.539 285.454H349.842L349.5 287.277Z" fill="#BDD1F9"/>
<path d="M365.818 287.276H351.129L351.471 285.453H366.16L365.818 287.276Z" fill="#BDD1F9"/>
<path d="M376.291 287.276H366.924L367.266 285.453H376.633L376.291 287.276Z" fill="#BDD1F9"/>
<path d="M385.033 287.276H377.807L378.149 285.453H385.374L385.033 287.276Z" fill="#BDD1F9"/>
<path d="M357.314 283.517H336.902L337.244 281.693H357.656L357.314 283.517Z" fill="#BDD1F9"/>
<path d="M371.024 283.515H359.258L359.6 281.691H371.366L371.024 283.515Z" fill="#BDD1F9"/>
<path d="M385.747 283.515H372.682L373.026 281.691H386.092L385.747 283.515Z" fill="#BDD1F9"/>
<path d="M348.132 294.564H334.826L335.168 292.744H348.474L348.132 294.564Z" fill="#BDD1F9"/>
<path d="M364.451 294.564H349.762L350.103 292.744H364.793L364.451 294.564Z" fill="#BDD1F9"/>
<path d="M374.92 294.564H365.557L365.899 292.744H375.262L374.92 294.564Z" fill="#BDD1F9"/>
<path d="M383.665 294.564H376.439L376.781 292.744H384.007L383.665 294.564Z" fill="#BDD1F9"/>
<path d="M355.944 290.807H335.535L335.877 288.983H356.286L355.944 290.807Z" fill="#BDD1F9"/>
<path d="M369.653 290.806H357.887L358.232 288.982H369.995L369.653 290.806Z" fill="#BDD1F9"/>
<path d="M384.38 290.806H371.314L371.656 288.982H384.722L384.38 290.806Z" fill="#BDD1F9"/>
<path d="M317.855 317.935H311.343L311.513 317.045H318.024L317.855 317.935Z" fill="#BDD1F9"/>
<path d="M325.845 317.935H318.656L318.822 317.045H326.011L325.845 317.935Z" fill="#BDD1F9"/>
<path d="M317.14 321.742H310.629L310.798 320.849H317.31L317.14 321.742Z" fill="#BDD1F9"/>
<path d="M325.13 321.742H317.941L318.108 320.849H325.297L325.13 321.742Z" fill="#BDD1F9"/>
<path d="M321.727 315.853H311.735L311.904 314.963H321.893L321.727 315.853Z" fill="#BDD1F9"/>
<path d="M328.435 315.853H322.678L322.845 314.963H328.604L328.435 315.853Z" fill="#BDD1F9"/>
<path d="M320.966 319.9H310.977L311.144 319.01H321.132L320.966 319.9Z" fill="#BDD1F9"/>
<path d="M327.678 319.9H321.918L322.084 319.01H327.844L327.678 319.9Z" fill="#BDD1F9"/>
<path d="M370.017 317.935H363.506L363.675 317.045H370.187L370.017 317.935Z" fill="#BDD1F9"/>
<path d="M378.007 317.935H370.815L370.985 317.045H378.174L378.007 317.935Z" fill="#BDD1F9"/>
<path d="M369.303 321.742H362.792L362.961 320.849H369.472L369.303 321.742Z" fill="#BDD1F9"/>
<path d="M377.293 321.742H370.101L370.27 320.849H377.459L377.293 321.742Z" fill="#BDD1F9"/>
<path d="M373.89 315.853H363.898L364.067 314.963H374.056L373.89 315.853Z" fill="#BDD1F9"/>
<path d="M380.598 315.853H374.841L375.007 314.963H380.767L380.598 315.853Z" fill="#BDD1F9"/>
<path d="M373.128 319.9H363.136L363.305 319.01H373.294L373.128 319.9Z" fill="#BDD1F9"/>
<path d="M379.84 319.9H374.08L374.247 319.01H380.006L379.84 319.9Z" fill="#BDD1F9"/>
<path d="M404.665 479.513C404.437 482.631 400.039 482.664 395.052 482.085C390.062 481.506 391.39 482.769 384.404 482.868C377.419 482.966 375.01 480.656 374.671 479.658C374.369 478.771 377.736 478.026 381.333 477.151C381.786 477.043 382.242 476.929 382.695 476.812C386.754 475.78 389.44 472.743 392.915 470.091C396.204 467.578 400.446 458.485 400.446 458.485L409.988 458.054C409.988 458.054 405.968 466.204 404.459 469.719C403.572 471.785 403.948 474.327 404.336 476.273C404.539 477.333 404.745 478.417 404.665 479.513Z" fill="#FFB27D"/>
<path d="M395.046 482.085C390.056 481.506 391.383 482.769 384.398 482.868C377.412 482.966 375.003 480.656 374.664 479.658C374.363 478.771 377.729 478.026 381.327 477.151L381.37 477.215C381.37 477.215 385.867 479.63 391.621 479.051C396.309 478.58 401.095 476.624 404.329 476.273C404.536 477.333 404.742 478.417 404.659 479.513C404.431 482.63 400.035 482.661 395.046 482.085Z" fill="#233862"/>
<path d="M470.571 480.161C470.346 483.278 465.948 483.315 460.958 482.742C455.968 482.169 457.296 483.429 450.31 483.534C443.324 483.639 440.912 481.332 440.574 480.334C440.272 479.447 443.635 478.698 447.233 477.82C447.686 477.712 448.138 477.595 448.594 477.481C452.651 476.447 455.337 473.406 458.805 470.748C462.091 468.232 458.808 453.34 458.808 453.34L469.305 452.317C469.305 452.317 468.803 464.856 468.809 470.56C468.812 472.809 469.847 474.974 470.235 476.921C470.445 477.977 470.651 479.062 470.571 480.161Z" fill="#FFB27D"/>
<path d="M460.958 482.74C455.968 482.167 457.296 483.427 450.31 483.532C443.324 483.636 440.912 481.329 440.574 480.331C440.272 479.444 443.635 478.696 447.233 477.818L447.276 477.883C447.276 477.883 451.776 480.291 457.53 479.709C462.218 479.235 467.001 477.273 470.235 476.918C470.442 477.978 470.651 479.062 470.568 480.159C470.346 483.276 465.948 483.316 460.958 482.74Z" fill="#233862"/>
<path d="M439.938 222.736C438.13 215.303 440.752 211.841 443.114 209.999C444.235 207.264 445.513 205.293 446.823 204.547C449.21 203.192 452.068 203.044 454.067 203.161C453.553 202.628 452.539 202.438 452.539 202.438C453.781 202.253 456.547 203.482 456.547 203.482C473.795 196.835 476.506 222.23 476.142 228.132C475.782 234.03 475.831 240.979 484.804 245.627C501.926 254.498 479.115 287.92 479.115 287.92C479.549 283.152 457.551 257.991 446.074 250.457C443.28 246.345 442.289 239.076 442.212 238.506C442.695 244.269 443.681 247.5 444.562 249.32C439.329 244.506 438.552 232.946 439.938 222.736Z" fill="#A9453D"/>
<path d="M446.752 250.836C446.693 250.86 452.293 253.768 456.507 252.616C460.468 251.535 463.058 246.4 463.002 246.388C461.324 246.055 460.84 243.748 460.877 233.843L460.12 233.991L447.368 236.516C447.368 236.516 447.657 240.53 447.667 244.309C447.67 247.485 447.479 250.497 446.752 250.836Z" fill="#FFB27D"/>
<path d="M447.362 236.516C447.362 236.516 447.651 240.529 447.66 244.309C454.797 244.108 458.567 237.597 460.113 233.99L447.362 236.516Z" fill="#ED975D"/>
<path d="M395.477 463.534C394.852 465.492 396.256 467.513 398.314 467.609L403.294 467.843L408.564 468.003C409.883 468.043 411.142 467.467 411.977 466.444C416.185 461.282 429.136 444.079 436.991 419.084C437.213 418.382 437.444 417.673 437.693 416.956C442.88 401.826 453.636 382.837 459.306 365.65C460.209 362.912 461.019 360.337 461.746 357.897C461.977 357.115 462.205 356.348 462.42 355.593C466.597 341.08 467.808 331.55 468.923 321.37L427.994 321.697C427.994 321.697 419.376 388.671 395.477 463.534Z" fill="#2A4E96"/>
<path d="M433.723 298.181C433.825 317.656 430.865 326.013 430.865 326.013C430.865 326.013 448.388 334.917 469.216 328.363C469.462 328.286 484.118 324.137 484.118 324.137C483.769 323.348 480.874 310.316 480.532 309.592C476.134 300.149 474.936 296.185 474.415 293.28C473.448 287.859 473.426 282.253 473.91 276.962C475.182 262.959 478.961 251.338 478.961 251.338C473.288 250.047 467.971 247.777 462.064 245.563C460.705 247.254 456.553 249.025 452.95 248.945C448.801 248.852 447.455 247.078 447.67 245.138C443.25 247.599 439.72 249.921 439.72 249.921C435.963 256.448 428.342 262.787 427.791 272.797C427.656 275.261 433.72 297.635 433.723 298.181Z" fill="white"/>
<path d="M468.923 300.352C470.713 302.884 474.144 318.276 482.676 320.21C478.277 309.242 474.939 304.43 474.418 301.058C473.451 294.762 473.429 288.247 473.913 282.103C471.058 277.094 468.923 273.663 468.923 273.663C468.698 272.853 464.383 259.51 463 271.436C461.62 283.368 466.924 297.519 468.923 300.352Z" fill="#5F9AA8"/>
<path d="M444.981 240.098C444.981 240.098 461.866 240.375 461.876 229.86C461.888 219.344 464.075 212.297 453.294 211.675C442.514 211.052 440.416 215.063 439.557 218.571C438.701 222.079 440.589 239.753 444.981 240.098Z" fill="#FFB27D"/>
<path d="M445.606 211.414C445.606 211.414 450.229 223.753 457.323 225.576C464.416 227.399 467.493 225.499 467.493 225.499C467.493 225.499 462.051 221.178 460.923 213.631C460.923 213.631 449.093 205.543 445.606 211.414Z" fill="#A9453D"/>
<path d="M446.752 212.417C446.752 212.417 443.299 215.171 442.458 217.85C441.617 220.527 441.238 226.04 439.63 225.855C439.63 225.855 436.147 217.468 440.062 212.725C444.211 207.692 446.752 212.417 446.752 212.417Z" fill="#A9453D"/>
<path d="M418.415 311.699L410.44 336.011L414.987 337.834L428.173 316.356L418.415 311.699Z" fill="#FFB27D"/>
<path d="M439.914 248.492C439.914 248.492 430.51 252.222 427.791 258.04C425.068 263.858 420.95 302.878 419.308 306.885C417.666 310.892 416.434 314.065 416.434 314.065C416.434 314.065 421.174 318.06 425.942 318.352C430.707 318.645 439.914 248.492 439.914 248.492Z" fill="#F99746"/>
<path d="M447.67 245.138C447.67 245.138 437.903 269.271 437.614 274.153C437.327 279.038 436.465 354.017 436.465 354.017C436.465 354.017 437.041 357.464 430.431 356.029C423.824 354.593 422.099 353.155 422.099 353.155C422.099 353.155 428.419 306.904 426.694 290.816C424.97 274.729 439.908 248.489 439.908 248.489L447.67 245.138Z" fill="#F99746"/>
<path d="M403.294 467.843L409.017 468.019C410.04 468.049 411.019 467.609 411.672 466.82C415.519 462.163 428.936 444.721 436.994 419.088C437.216 418.385 437.447 417.677 437.696 416.959C442.883 401.83 453.639 382.841 459.309 365.654C460.212 362.915 461.022 360.34 461.749 357.901C461.98 357.119 462.208 356.352 462.423 355.597L456.396 351.023C456.396 351.023 438.3 380.324 432.697 407.901C427.827 431.852 408.339 460.676 403.294 467.843Z" fill="#1E3D70"/>
<path d="M455.765 410.47C455.666 423.157 456.267 451.432 457.813 465.256C457.955 466.522 459.024 467.477 460.299 467.477H464.568C466.367 467.477 467.716 467.465 468.609 467.452C469.382 467.44 470.044 466.885 470.192 466.125C474.44 444.514 477.48 426.56 479.704 411.046C481.564 398.06 483.221 386.928 484.493 377.346C485.774 367.702 486.665 359.626 486.985 352.804C487.034 351.729 487.071 350.684 487.09 349.668C487.111 348.648 487.114 347.657 487.108 346.696L451.745 343.249C452.189 366.741 455.823 402.674 455.765 410.47Z" fill="#2A4E96"/>
<path d="M464.568 467.473C466.185 467.473 467.436 467.464 468.323 467.452C469.262 467.44 470.069 466.765 470.248 465.844C474.468 444.357 477.489 426.492 479.704 411.045C481.564 398.06 483.221 386.928 484.493 377.346C485.775 367.702 486.665 359.626 486.985 352.803L474.009 360.436C474.009 360.436 482.291 363.359 479.131 385.477C475.971 407.596 468.966 464.341 464.568 467.473Z" fill="#1E3D70"/>
<path d="M462.895 352.581C462.895 352.581 465.387 361.582 474.005 360.433C482.624 359.284 494.879 354.112 494.879 354.112C494.879 354.112 491.196 342.475 486.615 327.186C481.071 308.677 474.209 284.815 470.975 269.763C470.066 265.546 469.447 262.022 469.216 259.5L462.067 245.627C462.067 245.627 451.406 269.553 450.83 275.587C450.258 281.624 462.895 352.581 462.895 352.581Z" fill="#F99746"/>
<path d="M471.501 274.691L462.064 245.63C462.088 245.643 473.984 249.169 479.965 252.191C479.965 252.191 483.704 257.011 486.018 268.134C486.018 268.134 488.463 294.838 483.005 304.606C483.005 304.606 465.769 308.052 438.189 298.572V292.251C438.189 292.251 468.353 293.831 474.532 294.549L471.501 274.691Z" fill="#FFB27D"/>
<path d="M463.277 288.231C463.662 297.998 465.96 316.96 486.452 327.109C486.508 327.133 486.56 327.164 486.615 327.186C481.071 308.677 474.209 284.815 470.975 269.763C467.211 275.39 463.068 282.853 463.277 288.231Z" fill="#ED7D2B"/>
<path d="M462.067 245.63C462.067 245.63 479.559 246.862 483.773 256.248C487.986 265.633 489.326 296.85 483.964 306.044C483.964 306.044 476.58 308.148 463.524 305.705C463.364 305.674 463.203 305.644 463.04 305.613C463.04 305.613 458.876 295.415 462.609 293.403C462.609 293.403 473.62 293.979 472.472 290.338C471.323 286.698 462.067 245.63 462.067 245.63Z" fill="#F99746"/>
<path d="M418.206 296.157L418.72 297.814L447.424 288.885C447.424 288.885 447.806 288.447 447.618 287.868C447.408 287.228 446.909 287.228 446.909 287.228L418.206 296.157Z" fill="#A9453D"/>
<path d="M416.13 297.722L418.206 296.157L418.72 297.814L416.13 297.722Z" fill="#A9453D"/>
<path d="M411.574 335.346C411.574 335.346 404.293 339.368 403.335 342.436C402.377 345.504 403.036 351.923 404.191 351.827C405.346 351.732 407.071 344.928 408.029 344.451C408.987 343.97 410.33 342.535 410.33 343.588C410.33 344.642 409.372 346.557 409.849 346.847C410.33 347.133 411.861 344.164 412.914 343.588C413.968 343.012 414.411 338.275 415.434 337.003C416.459 335.731 411.574 335.346 411.574 335.346Z" fill="#FFB27D"/>
<path d="M438.19 292.254C438.19 292.254 431.678 288.243 428.946 288.859C426.214 289.475 419.253 294.517 422.601 295.611C425.949 296.701 428.663 295.559 429.95 296.35C431.238 297.145 432.19 298.593 438.19 298.574C444.193 298.552 438.19 292.254 438.19 292.254Z" fill="#FFB27D"/>
<g opacity="0.6">
<g opacity="0.6">
<path opacity="0.6" d="M122.803 481.962H122.695C122.061 481.962 121.553 481.442 121.568 480.807L123.277 406.699L128.313 406.111L124.02 480.813C123.983 481.457 123.447 481.962 122.803 481.962Z" fill="#77A4E5"/>
</g>
<g opacity="0.6">
<path opacity="0.6" d="M93.4529 481.962H93.3451C92.7106 481.962 92.2023 481.442 92.2177 480.807L93.9272 406.699L98.9632 406.111L94.6695 480.813C94.6326 481.457 94.0966 481.962 93.4529 481.962Z" fill="#77A4E5"/>
</g>
<g opacity="0.6">
<path opacity="0.6" d="M174.441 481.962H174.549C175.183 481.962 175.692 481.442 175.676 480.807L173.967 406.699L168.931 406.111L173.224 480.813C173.261 481.457 173.797 481.962 174.441 481.962Z" fill="#77A4E5"/>
</g>
<path opacity="0.6" d="M90.1135 402.103V351.321C90.1135 342.386 97.358 335.141 106.293 335.141H142.882C151.818 335.141 159.062 342.386 159.062 351.321V404.044L90.1135 402.103Z" fill="#77A4E5"/>
<path opacity="0.6" d="M165.617 410.117H94.9742C92.2914 410.117 90.1168 407.943 90.1168 405.26V402.1H165.62V410.117H165.617Z" fill="#77A4E5"/>
<path opacity="0.6" d="M174.081 410.118H120.635C118.651 410.118 117.043 408.51 117.043 406.527V405.695C117.043 403.711 118.651 402.104 120.635 402.104H174.081C176.065 402.104 177.673 403.711 177.673 405.695V406.527C177.676 408.51 176.068 410.118 174.081 410.118Z" fill="#77A4E5"/>
</g>
<path d="M214.067 452.412C214.578 454.965 218.216 454.537 222.282 453.545C226.348 452.553 225.38 453.733 231.165 453.092C236.949 452.452 238.702 450.296 238.881 449.433C239.038 448.669 236.179 448.401 233.115 448.047C232.73 448.004 232.341 447.958 231.953 447.908C228.491 447.474 225.956 445.241 222.812 443.405C219.833 441.668 215.388 434.587 215.388 434.587L207.454 435.215C207.454 435.215 211.618 441.539 213.229 444.289C214.178 445.906 214.126 448.044 214.009 449.695C213.947 450.594 213.888 451.512 214.067 452.412Z" fill="#FFB27D"/>
<path d="M222.281 453.545C226.347 452.554 225.38 453.733 231.164 453.093C236.949 452.452 238.701 450.296 238.88 449.433C239.037 448.67 236.179 448.402 233.114 448.047L233.086 448.106C233.086 448.106 229.618 450.567 224.801 450.681C220.877 450.776 216.718 449.652 214.008 449.695C213.946 450.592 213.888 451.509 214.069 452.409C214.578 454.965 218.215 454.537 222.281 453.545Z" fill="#233862"/>
<path d="M145.885 463.829C144.308 465.902 147.034 468.348 150.468 470.738C153.902 473.128 152.378 473.186 156.684 477.101C160.99 481.016 163.768 480.902 164.529 480.468C165.206 480.083 163.515 477.76 161.754 475.225C161.532 474.908 161.31 474.585 161.091 474.264C159.126 471.381 159.126 468.003 158.421 464.43C157.753 461.048 163.278 448.613 163.278 448.613L154.401 447.495C154.401 447.495 153.243 455.004 152.245 458.029C151.66 459.809 149.193 460.983 147.878 461.987C147.166 462.535 146.439 463.099 145.885 463.829Z" fill="#FFB27D"/>
<path d="M150.469 470.738C153.903 473.129 152.378 473.187 156.684 477.102C160.99 481.017 163.769 480.903 164.529 480.468C165.207 480.083 163.516 477.761 161.754 475.226L161.69 475.245C161.69 475.245 157.55 474.271 154.279 470.735C151.611 467.855 149.705 463.993 147.878 461.991C147.164 462.539 146.437 463.103 145.882 463.833C144.308 465.899 147.034 468.348 150.469 470.738Z" fill="#233862"/>
<path d="M182.132 400.265L174.025 422.078L163.442 450.56C163.442 450.56 160.571 450.837 157.821 450.046C155.289 449.313 152.384 447.4 152.384 447.4C152.384 447.4 155.323 416.817 160.805 399.264C162.21 394.757 163.784 391.114 165.521 389.062C174.019 379.015 182.132 400.265 182.132 400.265Z" fill="#163560"/>
<path d="M173.889 365.623C168.579 363.91 152.575 364.933 137.359 367.911L135.03 363.833L102.165 361.268C102.165 361.268 91.3203 385.317 97.2588 400.641C98.1304 402.892 99.8646 404.337 102.821 404.386C102.821 404.386 103.299 404.386 103.302 404.386C103.302 404.386 122.864 404.374 129.215 404.374C145.558 404.374 163.805 393.138 166.164 392.666C170.027 391.893 171.573 399.621 175.436 407.734C179.298 415.848 211.75 443.664 211.75 443.664C211.75 443.664 216.737 443.714 218.798 442.94C221.012 442.109 221.825 441.031 221.825 441.031C221.825 441.031 185.868 369.485 173.889 365.623Z" fill="#2A4E96"/>
<path d="M123.52 264.351C118.894 263.248 112.613 264.542 111.569 264.665C99.0886 266.122 96.298 285.508 97.2251 290.933C98.9346 300.928 94.1357 303.743 88.4067 311.736C76.9209 327.765 84.8553 340.96 94.2035 344.231C99.8124 346.193 107.457 340.849 107.457 340.849C107.599 340.901 127.303 322.091 137.048 312.952C153.437 306.201 135.311 267.16 123.52 264.351Z" fill="#233862"/>
<path d="M126.194 310.064C126.252 310.082 121.111 313.44 116.922 312.734C112.983 312.072 108.813 306.931 108.865 306.916C110.457 306.429 111.865 304.572 110.87 294.983L111.619 295.054L124.21 296.262C124.21 296.262 124.318 300.177 124.678 303.836C124.977 306.91 125.458 309.805 126.194 310.064Z" fill="#FFB27D"/>
<path d="M124.213 296.258C124.213 296.258 124.321 300.173 124.681 303.832C117.751 304.331 113.47 298.393 111.621 295.048L124.213 296.258Z" fill="#ED975D"/>
<path d="M126.866 299.492C126.866 299.492 110.547 301.399 109.515 291.219C108.484 281.036 105.684 274.426 116.061 272.778C126.438 271.131 128.859 274.811 130.029 278.126C131.2 281.44 131.086 298.735 126.866 299.492Z" fill="#FFB27D"/>
<path d="M128.082 272.895C128.082 272.895 120.2 284.177 113.51 286.632C106.816 289.087 103.653 287.544 103.653 287.544C103.653 287.544 106.844 283.149 107.898 277.099C108.209 275.316 109.447 273.831 111.153 273.237C115.952 271.561 125.205 268.995 128.082 272.895Z" fill="#233862"/>
<path d="M121.568 273.727C121.568 273.727 125.781 276.133 127.463 278.286C129.086 280.362 130.82 285.878 130.571 288.308C130.571 288.308 133.226 276.727 128.975 272.513C124.469 268.044 121.568 273.727 121.568 273.727Z" fill="#233862"/>
<path d="M138.743 337.076C138.25 370.043 138.607 363.152 135 366.282C134.132 367.036 131.689 367.483 128.473 367.696C118.364 368.367 100.595 366.701 99.9206 364.834C97.5889 358.369 99.2337 356.364 97.2902 346.467C97.0869 345.414 96.8374 344.274 96.5417 343.036C94.9185 336.238 93.3414 333.928 99.0951 323.009C104.313 313.119 109.949 305.218 110.436 305.508C124.204 313.679 125.101 306.684 125.101 306.684C125.101 306.684 138.983 320.998 138.743 337.076Z" fill="white"/>
<path d="M174.025 422.078L163.202 451.746C163.202 451.746 159.315 453.012 156.481 452.602C153.595 452.183 152.015 450.609 152.015 450.609C152.015 450.609 155.323 416.82 160.802 399.267L174.025 422.078Z" fill="#2A4E96"/>
<path d="M125.101 306.679C125.101 306.679 139.266 309.081 140.929 315.18C142.593 321.279 154.759 354.889 154.759 354.889C154.759 354.889 145.183 358.428 141.853 355.101C138.527 351.775 130.278 324.235 130.278 324.235L125.101 306.679Z" fill="white"/>
<path d="M128.473 367.696C118.364 368.367 100.595 366.701 99.9206 364.834C97.5889 358.369 99.2337 356.364 97.2902 346.467L102.03 335.671C102.03 335.671 101.359 348.026 105.868 352.045C110.371 356.065 124.328 359.807 126.521 363.168C127.577 364.779 128.273 366.396 128.473 367.696Z" fill="#DFEBFD"/>
<path d="M129.298 360.66C129.298 360.66 132.308 363.257 133.167 363.466C134.023 363.676 134.51 363.482 134.51 363.482L132.317 360.913L129.298 360.66Z" fill="#FFB27D"/>
<path d="M128.103 357.601L135.726 359.569C135.726 359.569 135.529 360.111 134.667 360.247C133.804 360.379 131.488 360.028 131.488 360.028L128.103 357.601Z" fill="#FFB27D"/>
<path d="M115.179 361.803C115.179 361.803 126.061 356.961 128.103 357.601C130.146 358.242 135.385 361.014 136.207 362.181C137.03 363.349 131.917 362.037 130.321 361.935C129.286 361.87 126.887 363.29 125.695 363.974C120.68 366.854 117.197 366.598 117.197 366.598L115.179 361.803Z" fill="#FFB27D"/>
<path d="M110.436 305.502C110.436 305.502 95.0414 308.391 92.1892 312.657C85.9673 321.968 72.7197 360.544 80.1397 365.715C88.493 371.54 118.164 367.24 118.164 367.24C118.164 367.24 119.153 362.626 117.779 360.393C116.405 358.16 94.0835 354.553 93.0516 353.524C92.0228 352.496 103.228 337.597 102.036 334.745C98.2077 325.612 110.436 305.502 110.436 305.502Z" fill="white"/>
<path d="M171.296 360.159C171.296 360.159 182.07 363.069 183.176 364.742C184.285 366.414 186.453 371.527 186.361 372.861C186.268 374.195 183.327 370.221 182.224 369.205C181.509 368.546 178.925 368.161 177.656 367.954C174.453 367.434 172.91 365.968 171.708 365.241C170.905 364.751 169.925 364.844 169.925 364.844L171.296 360.159Z" fill="#FFB27D"/>
<path d="M182.236 367.671C182.236 367.671 182.889 371.34 183.391 371.996C183.89 372.655 184.358 372.803 184.358 372.803L184.281 369.637L182.236 367.671Z" fill="#FFB27D"/>
<path d="M183.176 364.739L187.556 370.674C187.556 370.674 187.091 370.951 186.386 370.539C185.68 370.126 184.205 368.503 184.205 368.503L183.176 364.739Z" fill="#FFB27D"/>
<path d="M171.711 365.238C171.711 365.238 172.709 367.662 174.705 368.531C176.698 369.4 178.164 370.706 178.485 370.237C178.805 369.769 176.975 367.299 176.975 367.299L171.711 365.238Z" fill="#FFB27D"/>
<path d="M151.898 346.942L174.555 361.268C174.555 361.268 172.174 364.452 171.379 364.742C167.184 366.282 148.312 364.807 141.85 355.104L151.898 346.942Z" fill="white"/>
<path d="M142.919 362.509C144.256 362.506 157.556 361.588 157.556 361.588C157.556 361.588 157.171 363.944 157.994 365.207L145.032 367.686L142.368 366.904L142.919 362.509Z" fill="#F9DDBF"/>
<path d="M120.736 364.645L142.919 362.508C142.919 362.508 142.14 366.611 145.035 367.682L120.579 369.472C120.579 369.472 118.608 366.7 120.736 364.645Z" fill="#F99746"/>
<path d="M157.519 361.88L142.528 363.035C142.528 363.035 142.642 362.517 142.919 362.511C143.199 362.505 157.812 361.442 157.812 361.442L157.759 361.852L157.519 361.88Z" fill="#F99746"/>
<path d="M145.032 367.685L158.237 365.175L158.114 364.833L144.044 367.528L145.032 367.685Z" fill="#F99746"/>
<path d="M657.906 485.04H25.0142C24.5216 485.04 24.1201 484.509 24.1201 483.858V482.782C24.1201 482.133 24.5216 481.6 25.0142 481.6H657.906C658.397 481.6 658.8 482.13 658.8 482.782V483.858C658.8 484.509 658.399 485.04 657.906 485.04Z" fill="#2E3552"/>
</svg>
