<?xml version="1.0" encoding="utf-8"?>
<!-- Generator: Adobe Illustrator 24.2.1, SVG Export Plug-In . SVG Version: 6.00 Build 0)  -->
<svg version="1.1" id="Layer_1" xmlns="http://www.w3.org/2000/svg" xmlns:xlink="http://www.w3.org/1999/xlink" x="0px" y="0px"
	 viewBox="0 0 491.5 423.5" style="enable-background:new 0 0 491.5 423.5;" xml:space="preserve">
<style type="text/css">
	.st0{fill:#F2F2F2;}
	.st1{fill:#82B378;}
	.st2{fill:#DDDDDD;}
	.st3{fill:#FFFFFF;}
	.st4{fill:#56CAD8;}
	.st5{fill:#F3F3F3;}
	.st6{fill:#74D5DE;}
	.st7{fill:#DE8E68;}
	.st8{fill:#FCC486;}
	.st9{fill:#FED385;}
	.st10{fill:#FED892;}
	.st11{fill:#FD8369;}
	.st12{fill:#F3F3F3;stroke:#DDDDDD;stroke-width:2.1996;}
	.st13{fill:none;stroke:#74D5DE;stroke-width:3.1242;stroke-linecap:round;stroke-miterlimit:10;}
	.st14{fill-rule:evenodd;clip-rule:evenodd;fill:#DCB46C;}
</style>
<path class="st0" d="M428.9,216.6c43.6,40.6,65.3,59.7,49.5,105.8c-15.8,46.2-89.8,69.9-154.9,84.8c-65.1,15-121.3,21.2-178.4,11.9
	c-57-9.3-114.9-33.9-135.5-76.9c-20.5-42.8-3.5-104,6.5-161.2c10.1-57.4-11.1-62.6,36.2-123.5C99.7-3.3,233.1-18.7,294,24.9
	c60.8,43.6,111.8-16.5,134.9,42.9C452,127.2,385.1,176,428.9,216.6z"/>
<path class="st1" d="M333.6,223.3c0,0-43.1-24.1-23-56.8c0,0,16.1-20.1,33.3-25.3c0,0-9.2,48.8,0,49.9c9.2,1.1,6.3-55.1,6.3-55.1
	s45.3-21.8,63.1-20.1c0,0-28.1,47.6-18.9,46.5c9.2-1.1,40.8-49.4,40.8-49.4s46.5-8.6,54,18.9c7.5,27.6-4.6,41.3-11.5,43.1
	c-6.9,1.7-51.1,1.1-49.9,6.9c1.1,5.7,31,14.9,47.6,9.8c0,0-18.4,45.4-42.5,43.1c-24.1-2.3-31.6-17.2-46.5-18.4
	c-14.9-1.1-25.8,2.9-18.4,6.9c7.5,4,32.7,1.3,44.8,11.6c12,10.2,21.8,16.6-0.6,21.2c-22.4,4.6-62.6,1.7-70.6-15.5
	C333.6,223.3,333.6,223.3,333.6,223.3z"/>
<path class="st1" d="M188.2,218c0,0,65.5-13.1,53.3-63.6c0,0-12.3-32.6-32.3-46.5c0,0-8.6,66.7-20.9,64.3
	c-12.3-2.4,14.9-73.6,14.9-73.6s-49.3-47.1-72.9-52.3c0,0,16.3,73.1,5,67.8c-11.4-5.3-31.9-80.6-31.9-80.6S47.1,3.1,25.9,35.4
	C4.8,67.8,14.6,90.6,22.7,95.7c8.2,5.1,65.3,22.8,61.5,29.7c-3.9,6.9-46.2,6.3-65.4-7.3c0,0,4.7,66.1,36.7,73.2
	c32,7.1,47.9-9,67.6-4.2c19.7,4.8,32.1,14.5,20.8,16.5c-11.3,2.1-42.7-12-62.5-3.8c-19.8,8.2-35,12.2-8.1,27.5
	c26.9,15.3,79.9,28.4,97.4,9.6S188.2,218,188.2,218z"/>
<path class="st2" d="M334.6,380.5c0,10.3-57.3,27.1-110.7,27.1c-53.5,0-82.9-16.8-82.9-27.1c0-10.3,43.3-18.7,96.8-18.7
	C291.3,361.8,334.6,370.2,334.6,380.5z"/>
<path class="st1" d="M467.9,140.6c0,0-120.6,39-134.3,82.7c0,0,0.6,19.5-11.5,41.9v8.6c0,0,12.6-29.3,19.5-33.3
	C341.6,240.5,314.7,202.6,467.9,140.6z"/>
<path class="st1" d="M49.7,55.4c0,0,139,100.7,138.5,162.6c0,0-8.9,24.9-2.7,58.8l-3.6,11.1c0,0-4-43-11.2-51
	C170.6,236.9,221.2,199.3,49.7,55.4z"/>
<path class="st1" d="M322.1,265.2c0,0-18.6,28.2-8,62.6l4.8-1.3c0,0-4.6-37.9,5.1-56.9C333.7,250.6,322.1,265.2,322.1,265.2z"/>
<path class="st1" d="M185.5,276.8c0,0,12.1,44.1-15.9,84l-5.6-3.7c0,0,21.8-46.8,17.2-75.4C176.6,253.2,185.5,276.8,185.5,276.8z"/>
<path class="st3" d="M310.6,210.4v148.5c0,10.9-8.8,19.6-19.6,19.6H175.6c-10.9,0-19.6-8.8-19.6-19.6V64.3
	c0-10.9,8.8-19.6,19.6-19.6H291c10.9,0,19.6,8.8,19.6,19.6V210.4z"/>
<path class="st4" d="M282.2,384.8l-25.5-35.3c0,0-14.4-19.9-23.4-20.2c-0.1,5.2,0.3,42.6,1.9,55.5L282.2,384.8L282.2,384.8z"/>
<path class="st5" d="M200.2,36.9h66.2c3,0,5.5,2.4,5.5,5.4v8.4c0,3-2.4,5.4-5.5,5.4h-66.2c-3,0-5.5-2.4-5.5-5.4v-8.4
	C194.7,39.4,197.1,36.9,200.2,36.9z"/>
<path class="st6" d="M305.9,379.1h4.7v-57.5l-39.8-6.6l-37.6,14.2c1.8,4,11.1,30.8,31.1,54.2h41.4L305.9,379.1L305.9,379.1z"/>
<path class="st7" d="M222.2,238.1C219,238,219,243,219,243c-1.6-4.7-35.7-89.5-35.7-89.5s-7,3,1.1,19c-2.6,1.6-10,7.4-6.9,16.9
	c2.3,7.1,7.3,9.6,10.4,9.6c-0.5,5.3,10.8,59.6,12.3,62.2c3.5,6.1,10.2,12.8,14.1,13c6.3,0.3,21.9-8,25.7-12.3
	C243.9,257.5,228.3,238.2,222.2,238.1z"/>
<path class="st8" d="M269.1,208.2c-15.4-13.7-52.9,19.1-52.2,24.8s20.9,26.3,26.9,24.5C249.8,255.8,281.3,218.9,269.1,208.2z"/>
<path class="st9" d="M310.6,210.4c-6.8-11.1-16.9-18.2-31.2-18.2c-49.9,0-51.3,129.8-46.1,137c4.6,6.4,59.6,8.1,77.3,3.6"/>
<path class="st7" d="M310.6,257.8l-5.2,2.2c0.5,1.7,2.5,11,5.2,21.3"/>
<path class="st10" d="M310.6,209.3c-3.5-2.6-7-3.6-10.3-2.3c-18.8,7.8-5.4,55,0,56.8c1.7,0.6,5.7,0,10.3-1.2"/>
<path class="st7" d="M289,203.6c0,4.1-22.9,5-22.9,0v-28.1H289V203.6z"/>
<path class="st7" d="M293.7,171.1c5.7-14.3,1.7-29.3-9-33.6c-10.6-4.2-23.9,3.9-29.6,18.2c-5.7,14.3-1.7,29.3,9,33.6
	C274.8,193.6,288,185.5,293.7,171.1z"/>
<path class="st7" d="M296.1,175.9c2.1-2.9,2.2-6.5,0.1-8c-2.1-1.5-5.4-0.3-7.5,2.7c-2.1,2.9-2.2,6.5-0.1,8
	C290.6,180.1,294,178.9,296.1,175.9z"/>
<path class="st11" d="M311.6,160.1c0-3.8-3.6-8-4.2-12.8c-0.3-2.4,0.4-12.5-2.4-16c-5.9-7.1-9.4-5.6-13.9-7.3
	c-7.8-2.9-10.9-7.6-17.4-7.6c-7.4,0-10.3,3.8-15.6,3.8c-6,0-11-2.8-19.4-2.8c-4.5,0-10.4,5.9-10.4,11.1c0,12.3,11.5,10.6,11.5,13.5
	c0,2.1-0.7,3.7-0.7,6.6c0,3.7,4.9,5.9,7.6,5.9c8.5,0,9.6-1,9.6-1c1.7-3.4,3.8-6.5,6.4-9.2c0.3-0.3,5.8,3.5,14.8,3.8
	c7.4,0.2,12.5,1.7,12.5,5.1c0,2.4-0.9,9.6-0.8,11.6s0.8,3.3,1.2,3.3c0.5,0,0.7-0.7,3.5-0.7c3,0,3.3,3.7,3.8,3.7
	C300.7,171.2,311.6,168.8,311.6,160.1z"/>
<path class="st9" d="M174.6,114.2h17.3c5.1,0,9.3,4.2,9.3,9.3v17.3c0,5.1-4.2,9.3-9.3,9.3h-17.3c-5.1,0-9.3-4.2-9.3-9.3v-17.3
	C165.3,118.4,169.4,114.2,174.6,114.2z"/>
<path class="st11" d="M196.9,124.4c4.1,0,7.4-3.3,7.4-7.4c0-4.1-3.3-7.4-7.4-7.4s-7.4,3.3-7.4,7.4
	C189.5,121.1,192.8,124.4,196.9,124.4z"/>
<path class="st12" d="M175,35.2h116.6c15.1,0,27.3,12.2,27.3,27.3v298.1c0,15.1-12.2,27.3-27.3,27.3H175
	c-15.1,0-27.3-12.2-27.3-27.3V62.5C147.7,47.4,159.9,35.2,175,35.2z M311.7,358.9V210.4V64.3c0-11.5-9.3-20.7-20.7-20.7H175.6
	c-11.5,0-20.7,9.3-20.7,20.7v294.6c0,11.5,9.3,20.7,20.7,20.7H291C302.4,379.6,311.7,370.4,311.7,358.9z"/>
<path class="st6" d="M309.6,78.2h42.1c7.6,0,13.8,6.2,13.8,13.8s-6.2,13.8-13.8,13.8h-42.1c-7.6,0-13.8-6.2-13.8-13.8
	C295.9,84.3,302,78.2,309.6,78.2z"/>
<path class="st6" d="M312.2,99.3l-11.9-12v24L312.2,99.3z"/>
<path class="st9" d="M316.5,95.9c1.9,0,3.5-1.6,3.5-3.5c0-1.9-1.6-3.5-3.5-3.5s-3.5,1.6-3.5,3.5C313,94.3,314.6,95.9,316.5,95.9z"/>
<path class="st9" d="M330.7,95.9c1.9,0,3.5-1.6,3.5-3.5c0-1.9-1.6-3.5-3.5-3.5s-3.5,1.6-3.5,3.5C327.2,94.3,328.8,95.9,330.7,95.9z"
	/>
<path class="st9" d="M344.9,95.9c1.9,0,3.5-1.6,3.5-3.5c0-1.9-1.6-3.5-3.5-3.5c-1.9,0-3.5,1.6-3.5,3.5
	C341.4,94.3,343,95.9,344.9,95.9z"/>
<path class="st13" d="M121.3,358.1c5.2-2.2,9.2-5.7,9.2-15.6c0-46.3-54.8-33.8-54.8-72.3"/>
<path class="st6" d="M85.3,269.9c3,3.9-7,8.3-8.4,6.5C75.5,274.5,82.2,265.8,85.3,269.9z"/>
<path class="st6" d="M133.9,201.8c3.6,4.7-7.1,9-8.8,6.8C123.4,206.3,130,196.7,133.9,201.8z"/>
<path class="st6" d="M131,221.3c2.9,5.2-11.1,9.4-12.5,6.9C117.1,225.7,128,215.7,131,221.3z"/>
<path class="st6" d="M131.8,236.1c3.8,4.6-9.2,11.2-11,9.1C119,243,127.8,231.2,131.8,236.1z"/>
<path class="st6" d="M136.3,252.8c3.8,4.6-9.2,11.2-11,9.1C123.4,259.6,132.3,247.9,136.3,252.8z"/>
<path class="st6" d="M140.2,268.3c3.4,4.2-7.9,9.9-9.6,7.8C129,274.1,136.5,263.8,140.2,268.3z"/>
<path class="st6" d="M145.4,285.3c3.4,4.2-7.9,9.9-9.6,7.8C134.2,291.1,141.7,280.8,145.4,285.3z"/>
<path class="st6" d="M66.4,266.9c1.3-4.7,10.9,0.4,10.3,2.7C76.1,271.9,65.1,271.9,66.4,266.9z"/>
<path class="st6" d="M66.3,283.5c-0.6-4.8,10.2-3.6,10.5-1.3C77.1,284.5,66.9,288.7,66.3,283.5z"/>
<path class="st6" d="M75.9,298.6c-3.2-3.7,6.6-8.7,8.1-6.9C85.5,293.5,79.3,302.6,75.9,298.6z"/>
<path class="st6" d="M87.9,306.8c-1.9-4.5,8.9-6.3,9.8-4.1C98.6,304.8,89.9,311.5,87.9,306.8z"/>
<path class="st6" d="M104,315.2c-1.9-4.5,8.9-6.3,9.8-4.1C114.7,313.2,106.1,320,104,315.2z"/>
<path class="st6" d="M116.2,327.5c-0.4-4.9,10.4-3.2,10.6-0.9C127,328.9,116.6,332.7,116.2,327.5z"/>
<path class="st6" d="M90.6,280.4c3.8,3.1-4.8,9.8-6.6,8.3C82.1,287.2,86.5,277.1,90.6,280.4z"/>
<path class="st6" d="M99.2,289c4.2,2.5-3.4,10.3-5.4,9.1C91.8,297,94.7,286.4,99.2,289z"/>
<path class="st6" d="M115.1,297.6c4,2.8-4.3,10-6.2,8.6C106.9,304.8,110.8,294.5,115.1,297.6z"/>
<path class="st13" d="M122.3,359.9c0-2,16.8-20.4,16.8-43.4c0-37.4-20.9-56.2-20.9-82.9c0-5.1,0.5-21,8.5-27.4"/>
<path class="st11" d="M145.2,402.9h-30.7c-1.4,0-2.7-0.9-3.2-2.3l-15.3-46.3c-0.6-1.7,0.4-3.6,2.1-4.2c0.3-0.1,0.7-0.2,1-0.2h61.4
	c1.8,0,3.3,1.5,3.3,3.3c0,0.3-0.1,0.7-0.2,1l-15.4,46.3C147.8,402,146.6,402.9,145.2,402.9z"/>
<path class="st6" d="M150.3,304.7c1.8,5.1-10.8,6.6-11.7,4.1C137.8,306.4,148.4,299.3,150.3,304.7z"/>
<path class="st6" d="M129.7,312.2c4-3.6,10.2,7.5,8.3,9.2C136,323.2,125.4,316.1,129.7,312.2z"/>
<path class="st6" d="M126.5,298.4c2.6-4.7,12,3.9,10.8,6.1C136,306.7,123.6,303.5,126.5,298.4z"/>
<path class="st6" d="M123.4,282c2.6-4.7,12,3.9,10.8,6.1C133,290.3,120.6,287.1,123.4,282z"/>
<path class="st6" d="M118.1,269c1.7-5.1,12.6,1.5,11.7,4C129,275.4,116.2,274.5,118.1,269z"/>
<path class="st6" d="M110.4,251c2.5-4.8,12.1,3.5,10.9,5.8C120.1,259.1,107.8,256.2,110.4,251z"/>
<path class="st6" d="M106.9,231c3-4.5,11.8,4.6,10.4,6.8C115.8,240,103.7,235.9,106.9,231z"/>
<path class="st6" d="M108.6,213.8c3-4.5,11.8,4.6,10.4,6.8C117.6,222.7,105.5,218.7,108.6,213.8z"/>
<path class="st6" d="M150.3,322.4c1.8,5.1-10.8,6.6-11.7,4.1C137.8,324.1,148.4,317,150.3,322.4z"/>
<path class="st14" d="M263.2,227.9c-5.6,1-10.8,3-16.1,6.3l-1.2,0.7l0.7,0.4c0.8,0.4,1.5,1,1.8,1.5c0.2,0.3,0.3,0.5,0.4,1
	c0.1,0.6,0.1,0.8,0,1.3c-0.3,1.4-1.2,2.8-3.6,5.4c-3.3,3.7-4.1,5.2-4,7.7c0,0.8,0.5,2.7,0.9,3.5c0.3,0.7,0.9,1.8,1.2,2.2l0.2,0.3
	l0.2-0.8c0.3-1.1,0.7-1.9,1.4-2.9c1.5-2.1,3.9-4,7.7-6c3.2-1.7,8.5-3.9,12.8-5c1.6-0.5,1.3-0.2-0.7,0.7c-3.8,1.6-7.5,3.5-10.3,5.2
	c-3.1,2-5.6,4.4-6.3,6.4c-0.5,1.3-0.5,2.5-0.1,3.8c0.5,1.4,1.2,2.5,2.6,3.8c1,0.9,2.4,2,2.5,1.9c0.1,0,0.2-0.5,0.4-1.3
	c0.6-2.6,1.4-4.2,3-6.5c1.7-2.4,3.9-4.5,6.8-6.4c2-1.3,4.7-2.8,6.2-3.4c1.2-0.5,1-0.3-0.6,0.7c-2.9,1.7-5,3.3-6.8,5.2
	c-2.6,2.7-3.9,5-4.1,7.4c0,0.6,0,0.9,0.1,1.5c0.2,1,0.5,1.4,1.1,2.2c0.5,0.6,1.6,1.4,2.4,1.7c0.8,0.4,2.7,0.9,3.8,1.1
	c0.1,0,0.2,0,0.3-0.1c0.1-0.1,0.1-0.3-0.1-1c-0.7-2.9-0.4-5.2,1-7.6c0.7-1.2,2.1-2.7,3.2-3.5c0.2-0.1,0.4-0.2,0.4-0.2
	c0,0-0.1,0.3-0.4,0.6c-0.8,1-1.7,2.4-1.9,3c-1.7,3.8,0.2,7.1,4.3,7.6c0.8,0.1,2.6,0,3.5-0.2c0.8-0.2,2.2-0.7,2.8-1.1
	c0.7-0.4,0.7-0.5,0.1-1.1c-1.5-1.6-2.9-3.7-3.8-5.7c-0.5-1.2-1-3.1-1.1-4.2c-0.1-2,0.4-3.7,1.5-5.3c0.7-1,1.2-1.6,2.2-2.5
	c1.3-1.2,3-2.2,5.2-3.2c1-0.4,1.2-0.6,1.1-0.7c0-0.1-1.9-0.4-3.1-0.5c-1.5-0.1-2.5-0.1-5.4-0.1c-2.3,0.1-2.6,0-2.6,0
	c0,0,0.7-0.1,1.6-0.3c5.1-0.8,10.7-0.4,12.2,1c0.3,0.3,0.5,0.7,0.4,1.2c0,0.1,0,0.3,0,0.3c0.1,0.1,1.3-0.6,1.8-1
	c0.7-0.5,1.2-1.3,1.3-1.8c0.3-1.7-1.7-3.6-5.7-5.3c-0.6-0.3-1-0.5-1.1-0.6c-0.1-0.1-0.3-0.5-0.5-0.9c-0.8-1.7-2-2.9-3.8-4.1
	c-2.7-1.7-6.1-2.6-10.5-2.6C267.6,227.4,264.1,227.7,263.2,227.9z"/>
</svg>
