<svg width="625" height="465" viewBox="0 0 625 465" fill="none" xmlns="http://www.w3.org/2000/svg">
<path d="M200.817 283.236C200.817 283.236 255.561 313.892 230.011 355.501C230.011 355.501 209.578 381.051 187.671 387.618C187.671 387.618 199.355 325.576 187.671 324.114C175.987 322.652 179.642 394.186 179.642 394.186C179.642 394.186 121.974 421.929 99.3478 419.736C99.3478 419.736 135.12 359.156 123.436 360.606C111.751 362.056 71.6045 423.379 71.6045 423.379C71.6045 423.379 12.4748 434.333 2.99516 399.291C-6.49627 364.249 8.83136 346.74 17.5918 344.547C26.3522 342.354 82.558 343.085 81.096 335.787C79.634 328.488 41.6799 316.804 20.5158 323.371C20.5158 323.371 43.873 265.703 74.5286 268.627C105.184 271.552 114.675 290.523 133.658 291.985C152.641 293.447 166.507 288.33 157.015 283.224C147.524 278.119 115.406 281.55 100.079 268.521C84.7509 255.493 72.3356 247.463 100.81 241.615C129.284 235.779 180.373 239.422 190.595 261.329C200.818 283.236 200.817 283.236 200.817 283.236Z" fill="#82B378"/>
<path d="M30.0171 388.348C30.0171 388.348 183.306 338.71 200.827 283.235C200.827 283.235 200.096 258.416 215.424 229.954V219C215.424 219 199.365 256.223 190.605 261.34C190.605 261.34 224.904 309.517 30.0171 388.348Z" fill="#82B378"/>
<path d="M396.863 266.247C396.863 266.247 336.727 274.837 345.292 321.318C345.292 321.318 354.837 351.515 372.316 365.09C372.316 365.09 383.412 304.985 394.469 307.743C405.526 310.501 377.279 373.82 377.279 373.82C377.279 373.82 419.676 418.983 440.875 424.898C440.875 424.898 429.708 357.715 439.748 363.106C449.788 368.497 464.649 437.869 464.649 437.869C464.649 437.869 514.219 468.379 535.011 440.052C555.802 411.724 548.07 390.554 540.927 385.52C533.784 380.487 482.772 361.542 486.635 355.46C490.498 349.378 528.851 352.071 545.668 365.39C545.668 365.39 544.695 305.17 515.99 297.108C487.284 289.045 472.102 302.877 454.454 297.573C436.806 292.268 426.068 282.82 436.419 281.519C446.771 280.217 474.577 294.523 492.959 288.1C511.341 281.676 525.354 278.754 501.682 263.548C478.01 248.342 430.601 233.815 413.731 250.022C396.861 266.228 396.863 266.247 396.863 266.247Z" fill="#94C28B"/>
<path d="M514.443 420.752C514.443 420.752 393.333 322.46 396.872 266.249C396.872 266.249 406.193 244.091 402.277 213.042L406.096 203.156C406.096 203.156 407.608 242.373 413.742 250.043C413.734 250.04 365.946 281.574 514.443 420.752Z" fill="#94C28B"/>
<path d="M402.268 213.038C402.268 213.038 393.441 172.378 420.858 137.616L425.78 141.216C425.78 141.216 403.66 182.619 406.387 208.791C409.114 234.962 402.268 213.038 402.268 213.038Z" fill="#94C28B"/>
<path d="M394.472 13.5785C449.705 21.4018 519.002 51.1197 531.585 94.8953C544.174 138.785 500.077 196.625 458.098 242.901C416.132 289.285 376.325 324.111 327.555 347.574C278.792 370.936 221.173 383.104 182.392 361.068C143.718 339.187 124.015 283.164 101.068 233.824C78.0477 184.377 51.7354 141.507 64.1977 111.454C76.6868 81.5146 127.951 64.3864 166.511 53.6135C205.071 42.8405 230.813 38.3021 264.386 29.1179C297.844 19.8131 339.126 5.75525 394.472 13.5785Z" fill="#F2F2F2"/>
<path d="M218.706 26.8052C209.85 26.8052 207.082 40.6418 207.082 46.1724C207.082 55.5577 217.044 94.3189 226.449 94.3189C235.854 94.3189 245.823 56.1074 245.823 51.7097C245.823 47.312 234.199 26.8052 218.706 26.8052Z" fill="#FFD3BE"/>
<path d="M392.628 29.4269L259.508 3.30982C250.298 1.50289 241.367 7.50425 239.56 16.7142L188.763 275.632C186.956 284.842 192.957 293.773 202.167 295.58L335.287 321.697C344.497 323.504 353.428 317.502 355.235 308.292L406.032 49.3747C407.839 40.1648 401.838 31.2338 392.628 29.4269Z" fill="#74D5DE"/>
<path d="M362.127 23.5069L360.444 32.081C360.028 34.1787 358.797 36.0259 357.022 37.2182C355.246 38.4106 353.071 38.8509 350.972 38.4429L293.574 27.1806C291.477 26.7625 289.631 25.5316 288.439 23.7567C287.247 21.9818 286.806 19.8073 287.212 17.7082L288.928 9.13403" fill="#70B6F6"/>
<path d="M178.376 262.141L359.807 297.745" stroke="#70B6F6" stroke-width="2.01113" stroke-miterlimit="10"/>
<path d="M269.266 300.969C272.979 300.969 275.99 297.959 275.99 294.245C275.99 290.532 272.979 287.521 269.266 287.521C265.552 287.521 262.542 290.532 262.542 294.245C262.542 297.959 265.552 300.969 269.266 300.969Z" fill="#70B6F6"/>
<path d="M208.195 101.545C196.57 101.545 188.821 110.394 188.821 119.806C188.821 150.791 206.532 176.246 214.295 176.246C230.894 176.246 236.981 167.39 236.981 161.303C236.967 156.845 234.755 101.545 208.195 101.545Z" fill="#FFD3BE"/>
<path d="M202.108 182.856C205.426 186.174 230.88 213.291 230.88 232.101C230.88 244.839 228.112 254.787 204.87 254.787C193.802 254.787 162.817 211.072 162.817 193.367C162.817 183.405 168.904 160.163 186.059 160.163C191.04 160.163 202.108 169.019 203.764 171.231C205.469 172.997 207.278 174.661 209.18 176.212C208.483 179.812 204.635 198.75 204.635 198.75" fill="#FFD3BE"/>
<path d="M210.259 191.966C210.259 191.966 202.383 182.024 197.402 177.6" stroke="#FED385" stroke-width="2.01113" stroke-miterlimit="10" stroke-linecap="round"/>
<path d="M197.972 294.178C196.316 298.61 195.19 341.393 200.17 365.185C196.819 382.34 183.565 438.256 183.565 438.256H303.677L315.851 389.56C315.851 389.56 389.968 324.781 397.161 313.17C404.354 301.559 421.234 233.764 420.993 227.402C420.798 222.978 340.199 154.907 337.987 152.139C335.774 149.37 296.852 188.339 361.597 233.187C361.041 238.718 361.074 263.147 361.074 263.147C361.074 263.147 316.038 278.626 311.466 281.964C306.894 285.303 298.146 308.826 296.564 314.102C290.443 312.909 197.972 294.178 197.972 294.178Z" fill="#FFD3BE"/>
<path d="M287.125 341.829C288.633 336.064 295.947 315.356 297.764 310.415" stroke="#70B6F6" stroke-width="2.01113" stroke-miterlimit="10" stroke-linecap="round"/>
<path fill-rule="evenodd" clip-rule="evenodd" d="M311.152 94.5837C301.178 93.391 290.984 94.0588 279.674 96.6456L277.186 97.2147L278.049 98.219C278.971 99.2936 279.632 100.569 279.82 101.637C279.91 102.15 279.871 102.563 279.643 103.495C279.385 104.549 279.268 104.801 278.674 105.576C277.084 107.652 274.342 109.498 268.318 112.546C259.842 116.834 257.319 118.892 255.43 123.062C254.809 124.431 254.029 127.688 253.936 129.3C253.86 130.618 253.967 132.714 254.153 133.551L254.276 134.104L255.309 132.858C256.706 131.174 257.975 130.071 259.988 128.791C264.087 126.183 269.651 124.305 277.456 122.893C284.149 121.683 294.591 120.955 302.455 121.15C305.457 121.224 304.761 121.52 300.736 121.881C293.203 122.557 285.531 123.754 279.676 125.167C272.988 126.782 266.94 129.599 264.015 132.462C262.068 134.368 261.105 136.203 260.737 138.71C260.363 141.256 260.704 143.43 261.917 146.237C262.767 148.206 264.159 150.631 264.439 150.634C264.575 150.636 265.256 149.89 266.145 148.764C269.239 144.851 271.838 142.53 276.33 139.67C281.168 136.591 286.343 134.372 292.648 132.673C297.015 131.496 302.62 130.442 305.518 130.253C307.867 130.099 307.419 130.354 304.033 131.098C297.838 132.46 293.143 133.989 288.584 136.126C282.072 139.18 278.097 142.309 275.863 146.141C275.327 147.059 275.123 147.57 274.86 148.651C274.448 150.342 274.454 151.231 274.89 152.744C275.252 154.001 276.36 155.804 277.4 156.829C278.459 157.871 281.109 159.72 282.696 160.522C282.838 160.594 283.084 160.594 283.241 160.523C283.483 160.413 283.593 160.143 283.943 158.8C285.279 153.672 287.608 150.134 291.766 146.917C293.855 145.301 297.417 143.51 299.86 142.846C300.332 142.718 300.744 142.652 300.776 142.699C300.808 142.746 300.313 143.092 299.675 143.469C297.488 144.759 295.01 146.472 294.04 147.365C288.209 152.729 288.514 159.05 294.748 162.032C296.021 162.641 299.01 163.363 300.638 163.455C302.148 163.541 304.749 163.385 306.057 163.132C307.42 162.867 307.54 162.656 307.083 161.333C305.894 157.897 305.326 153.835 305.517 150.126C305.635 147.82 306.405 144.496 307.246 142.663C308.726 139.437 310.926 136.884 314.084 134.728C316.007 133.416 317.412 132.682 319.805 131.738C322.926 130.508 326.596 129.644 330.852 129.137C332.765 128.91 333.204 128.808 333.248 128.579C333.285 128.393 330.549 126.99 328.588 126.188C326.163 125.197 324.568 124.675 319.795 123.311C315.985 122.222 315.432 122.043 315.576 121.949C315.613 121.925 316.885 122.085 318.402 122.305C327.434 123.615 336.153 127.162 337.587 130.111C337.866 130.683 337.777 131.541 337.369 132.226C337.242 132.44 337.156 132.64 337.179 132.673C337.265 132.797 339.743 132.32 340.844 131.966C342.354 131.48 343.846 130.532 344.498 129.642C346.394 127.055 344.615 122.964 339.497 118.142C338.714 117.405 338.257 116.863 338.168 116.57C338.094 116.324 338.049 115.576 338.068 114.909C338.16 111.8 337.261 109.096 335.199 106.275C332.142 102.095 327.263 98.9464 320.222 96.6089C318.697 96.1026 312.75 94.7748 311.152 94.5837Z" fill="#A5F7FF"/>
</svg>
