<svg width="720" height="318" viewBox="0 0 720 318" fill="none" xmlns="http://www.w3.org/2000/svg">
<path d="M0 0H720V222C720 275.019 677.019 318 624 318H96C42.9807 318 0 275.019 0 222V0Z" fill="#F4AD48"/>
<mask id="mask0" mask-type="alpha" maskUnits="userSpaceOnUse" x="0" y="0" width="720" height="318">
<path d="M0 0H720V222C720 275.019 677.019 318 624 318H96C42.9807 318 0 275.019 0 222V0Z" fill="#F4AD48"/>
</mask>
<g mask="url(#mask0)">
<path d="M885 390.5C885 557.014 750.014 692 583.5 692C416.986 692 122 561.514 122 395C483 310 436.486 81 603 81C769.514 81 885 223.986 885 390.5Z" fill="#F5BD56"/>
<path d="M504 -25C561.5 163 226.5 291.5 138 194.5C49.5 97.5 -136 92.4128 -136 -25.5C-136 -143.413 -40.4128 -239 77.5 -239C195.413 -239 446.5 -213 504 -25Z" fill="#F5BD56"/>
</g>
</svg>
