<svg width="646" height="601" viewBox="0 0 646 601" fill="none" xmlns="http://www.w3.org/2000/svg">
<path d="M204.083 337.661C94.6099 262.527 171.61 124.742 277.083 124.742" stroke="#EBF3FA" stroke-width="5" stroke-dasharray="15 15"/>
<g clip-path="url(#clip0)">
<path d="M25.3077 599.511C25.3077 599.511 -31.7688 512.7 30.6971 418.715C86.1208 335.326 173.568 401.633 223.118 316.781C290.692 201.067 627.913 246.257 585.207 424.288C564.538 510.442 679.006 513.573 636.425 599.694L25.3077 599.511Z" fill="#EBF3FA"/>
<path d="M451.33 426.041C451.33 426.041 441.02 412.372 451.969 404.785C451.969 404.785 459.88 400.646 466.071 401.41C466.071 401.41 456.342 415.626 459.1 417.274C461.857 418.92 468.798 400.651 468.798 400.651C468.798 400.651 486.248 400.052 491.66 403.083C491.66 403.083 476.075 414.29 479.153 415.208C482.23 416.126 498.99 405.216 498.99 405.216C498.99 405.216 514.962 408.97 513.486 418.764C512.009 428.558 506.258 431.251 503.83 430.838C501.403 430.423 487.441 424.071 487.006 426.056C486.57 428.04 494.769 435.124 500.777 435.808C500.777 435.808 488.611 447.65 481.274 443.553C473.937 439.459 473.649 433.677 469.068 431.229C464.488 428.781 460.463 428.535 462.272 430.854C464.081 433.172 472.481 435.839 474.88 440.777C477.279 445.715 479.497 449.083 471.744 447.417C463.992 445.751 451.629 439.232 451.48 432.638C451.33 426.041 451.33 426.041 451.33 426.041Z" fill="#82B378"/>
<path d="M505.537 418.532C505.537 418.532 461.796 414.105 451.33 426.039C451.33 426.039 448.788 432.319 441.833 437.747L440.632 440.483C440.632 440.483 448.73 432.947 451.48 432.632C451.48 432.632 448.199 416.832 505.537 418.532Z" fill="#82B378"/>
<path d="M441.833 437.749C441.833 437.749 431.988 444.121 430.557 456.517L432.254 456.776C432.254 456.776 436.062 444.105 441.809 439.415C447.56 434.727 441.833 437.749 441.833 437.749Z" fill="#82B378"/>
<path d="M400.746 393.365C400.746 393.365 377.887 380.563 388.554 363.191C388.554 363.191 397.088 352.524 406.232 349.779C406.232 349.779 401.354 375.687 406.232 376.297C411.108 376.906 409.584 347.036 409.584 347.036C409.584 347.036 433.663 335.453 443.113 336.369C443.113 336.369 428.178 361.667 433.056 361.058C437.932 360.448 454.696 334.846 454.696 334.846C454.696 334.846 479.385 330.274 483.347 344.903C487.309 359.532 480.908 366.849 477.252 367.763C473.594 368.676 450.124 368.372 450.734 371.421C451.344 374.47 467.192 379.345 476.033 376.603C476.033 376.603 466.279 400.682 453.477 399.462C440.674 398.243 436.712 390.318 428.788 389.709C420.863 389.099 415.072 391.232 419.034 393.367C422.996 395.5 436.408 394.066 442.807 399.507C449.208 404.948 454.39 408.302 442.504 410.739C430.617 413.178 409.281 411.653 405.012 402.509C400.746 393.365 400.746 393.365 400.746 393.365Z" fill="#A8D29F"/>
<path d="M472.071 349.475C472.071 349.475 408.064 370.202 400.747 393.365C400.747 393.365 401.053 403.728 394.652 415.615V420.187C394.652 420.187 401.357 404.642 405.015 402.509C405.015 402.509 390.69 382.392 472.071 349.475Z" fill="#82B378"/>
<path d="M394.652 415.615C394.652 415.615 384.78 430.604 390.408 448.851L392.948 448.17C392.948 448.17 390.482 428.073 395.648 417.965C400.812 407.856 394.652 415.615 394.652 415.615Z" fill="#82B378"/>
<path d="M280.198 399.925C280.198 399.925 306.801 388.666 297.215 368.335C297.215 368.335 289.155 355.61 279.468 351.496C279.468 351.496 281.672 380.478 276.254 380.556C270.836 380.632 276.127 348.084 276.127 348.084C276.127 348.084 251.143 332.474 240.677 332.329C240.677 332.329 253.977 361.862 248.709 360.602C243.438 359.343 228.17 329.253 228.17 329.253C228.17 329.253 201.669 321.251 195.554 336.802C189.439 352.354 195.567 361.147 199.465 362.592C203.362 364.037 229.119 366.548 228.08 369.813C227.042 373.078 209.082 376.502 199.728 372.426C199.728 372.426 207.499 399.996 221.675 400.211C235.85 400.425 241.153 392.222 249.912 392.514C258.67 392.807 264.758 395.846 260.157 397.705C255.556 399.563 241.034 396.365 233.36 401.553C225.686 406.741 219.602 409.788 232.333 413.9C245.064 418.012 268.629 418.927 274.414 409.424C280.198 399.925 280.198 399.925 280.198 399.925Z" fill="#A8D29F"/>
<path d="M207.356 343.183C207.356 343.183 274.988 373.654 280.196 399.925C280.196 399.925 278.606 411.244 284.181 425.047L283.627 430.056C283.627 430.056 278.162 412.209 274.414 409.428C274.414 409.428 292.55 389.119 207.356 343.183Z" fill="#82B378"/>
<path d="M284.181 425.047C284.181 425.047 293.182 442.669 284.804 461.984L282.104 460.93C282.104 460.93 287.241 439.205 282.808 427.502C278.372 415.798 284.181 425.047 284.181 425.047Z" fill="#82B378"/>
<path d="M225.632 465.263C220.931 458.482 220.406 452.166 220.406 452.166C220.406 452.166 233.414 442.825 225.746 433.005C225.746 433.005 219.832 427.108 214.092 426.07C214.092 426.07 218.827 441.472 215.908 442.175C212.986 442.879 211.87 424.634 211.87 424.634C211.87 424.634 196.452 419.246 190.777 420.448C190.777 420.448 201.58 434.791 198.576 434.756C195.572 434.72 183.639 420.316 183.639 420.316C183.639 420.316 168.33 419.229 166.925 428.386C165.521 437.543 169.909 441.548 172.192 441.854C174.477 442.16 188.711 440.368 188.548 442.26C188.387 444.152 179.093 448.199 173.537 447.138C173.537 447.138 181.108 461.095 188.8 459.478C196.492 457.861 198.357 452.778 203.128 451.864C207.899 450.951 211.564 451.851 209.301 453.419C207.041 454.987 198.797 455.031 195.282 458.774C191.766 462.518 188.849 464.908 196.235 465.575C203.622 466.243 216.477 463.858 218.443 458.011C218.528 457.756 218.61 457.513 218.689 457.28C218.584 457.756 218.443 458.011 218.443 458.011C219.863 458.638 222.278 462.118 223.984 464.805C224.237 465.267 224.625 465.902 225.19 466.757C225.425 467.146 225.612 467.465 225.744 467.688C229.007 473.77 228.898 484.917 228.898 484.917L230.488 485.159C232.652 473.69 225.632 465.263 225.632 465.263Z" fill="#82B378"/>
<path d="M138.69 309.147C138.563 308.444 136.91 300.912 125.26 302.199C125.26 302.199 131.058 302.051 132.407 304.414C132.407 304.414 128.077 301.882 125.059 303.336C122.042 304.79 120.99 310.599 121.236 312.421C121.481 314.246 124.09 319.863 126.169 320.071C126.958 320.149 127.824 319.973 128.599 319.72C128.186 320.632 127.797 321.628 127.447 322.727C124.199 332.893 130.317 341.481 134.085 339.886C136.501 338.864 137.832 343.047 137.832 343.047L159.365 319.752C159.368 319.752 147.713 302.507 138.69 309.147Z" fill="#2C3A64"/>
<path d="M166.743 589.721L161.505 591.671C161.505 591.671 138.757 560.121 135.957 532.363C135.456 527.407 135.624 522.605 136.705 518.172C136.705 518.172 136.481 516.901 136.093 514.656C135.914 513.609 135.691 512.347 135.438 510.902C134.699 506.665 133.681 500.867 132.517 494.264C129.841 479.072 126.373 459.652 123.679 445.376L125.091 444.922L140.359 439.998L143.515 429.976L154.883 426.983C154.883 426.983 157.423 431.953 159.694 455.422C160.114 458.5 160.494 461.895 160.779 465.578C161.664 476.814 161.729 490.753 159.699 506.689C159.176 510.768 158.519 514.98 157.702 519.306C157.103 522.478 157.014 526.802 157.266 531.767C158.414 554.454 166.743 589.721 166.743 589.721Z" fill="#2B478B"/>
<path d="M160.784 465.573L136.095 514.656C135.916 513.609 135.693 512.347 135.44 510.902C134.701 506.665 133.683 500.867 132.519 494.264C129.843 479.072 126.375 459.652 123.681 445.376L125.093 444.922L140.361 439.998L143.517 429.976L154.885 426.983C154.885 426.983 157.425 431.953 159.696 455.422C160.116 458.498 160.496 461.892 160.784 465.573Z" fill="#233862"/>
<path d="M149.922 433.279L149.35 428.379C139.776 430.923 114.191 421.272 114.191 421.272C114.191 421.272 104.915 429.427 106.133 448.972C106.727 458.511 107.812 499.049 108.947 511.045C109.358 515.393 109.715 518.487 109.863 519.722C109.865 519.728 109.865 519.731 109.865 519.733C109.909 520.11 109.778 520.465 109.586 520.796C107.915 523.63 106.532 526.581 105.4 529.598C94.2684 559.261 107.115 595.789 107.115 595.789L110.448 594.447C110.448 594.447 117.758 553.796 123.697 535.836C124.704 532.79 125.671 530.395 126.558 528.966C129.14 524.798 131.536 517.989 133.712 509.888C137.823 494.573 141.131 474.652 143.336 459.275C143.642 459.288 149.922 433.279 149.922 433.279Z" fill="#2B478B"/>
<path d="M165.36 393.995C165.548 394.187 165.729 394.379 165.95 394.558C174.133 402.183 185.156 408.925 191.052 410.411C194.931 411.402 203.483 410.073 210.584 408.613C215.316 407.679 219.435 406.647 221.135 406.243C221.677 406.116 221.979 406.022 221.979 406.022L221.237 401.233C221.237 401.233 216.98 400.896 211.691 400.3C204.325 399.433 194.987 398.104 192.595 396.69C187.047 393.394 177.312 379.566 169.501 370.874C169.092 370.4 168.686 369.945 168.284 369.498C167.989 369.172 167.696 368.85 167.404 368.538C167.344 368.475 167.27 368.372 167.174 368.319C166.814 367.975 166.51 367.653 166.216 367.372C166.204 367.336 166.153 367.311 166.104 367.282C164.715 365.889 162.282 364.196 162.282 364.196C160.918 363.418 159.794 363.267 159.004 363.93C159.004 363.93 157.983 364.928 156.982 366.811C156.77 367.204 156.56 367.637 156.362 368.111C156.196 368.37 156.114 368.645 156.033 368.919C155.37 370.659 154.887 372.844 154.975 375.392C155.035 377.322 155.403 379.45 156.261 381.798C157.621 385.65 161.07 389.932 165.36 393.995Z" fill="#FFB27D"/>
<path d="M158.235 373.795C155.461 375.606 152.004 377.067 147.693 377.936C131.532 381.192 125.761 367.45 123.712 358.067C125.937 356.877 128.005 356.658 129.2 356.548C130.364 356.443 131.588 356.387 132.599 356.365C134.442 355.034 137.287 349.459 138.13 340.699L138.88 340.923L151.437 344.742C151.437 344.742 150.744 348.749 150.351 352.544C150.047 355.512 149.933 358.355 150.476 359.068C151.457 359.309 152.046 359.465 152.046 359.465C152.046 359.465 152.046 359.47 152.053 359.476C152.214 359.764 155.716 365.904 158.235 373.795Z" fill="#FFB27D"/>
<path d="M163.861 383.893C163.788 384.237 163.696 384.574 163.595 384.92C160.759 394.406 158.463 432.324 158.463 432.324C159.966 437.063 132.412 438.035 117.217 435.844C111.692 435.048 107.801 433.836 107.533 432.234C104.815 426.106 111.468 414.659 115.31 408.841C115.792 408.11 116.208 407.342 116.549 406.547C117.418 404.546 117.836 402.366 117.749 400.168C117.633 397.162 117.376 394.243 117.063 391.507C116.476 386.35 115.687 381.847 115.276 378.66C115.276 378.66 115.276 378.66 115.276 378.658C116.076 377.862 116.853 377.125 117.579 376.424C118.685 375.343 119.654 374.342 120.333 373.371C121.081 372.312 121.497 371.278 121.405 370.195C121.334 369.375 121.186 368.544 120.981 367.725C120.885 367.336 120.777 366.952 120.661 366.566C119.428 362.523 117.157 359.025 117.157 359.025C121.271 356.62 129.198 356.546 129.198 356.546C129.198 356.546 129.251 356.979 129.352 357.687C129.738 360.531 130.821 367.819 131.931 369.065C133.318 370.619 155.233 375.124 155.995 372.632C156.745 370.182 152.22 359.87 152.051 359.479C152.046 359.472 152.046 359.465 152.046 359.465C159.064 361.134 162.112 363.019 162.251 363.13C162.251 363.13 162.246 363.13 162.244 363.128C158.436 366.467 165.86 374.803 163.861 383.893Z" fill="#FF9843"/>
<path d="M151.434 344.749C151.434 344.749 150.739 348.751 150.351 352.548C143.201 351.628 140.066 344.709 138.877 340.927L151.434 344.749Z" fill="#ED985F"/>
<path d="M153.469 348.586C153.469 348.586 136.479 347.168 137.524 336.599C138.57 326.032 137.082 318.731 147.975 319.191C158.867 319.649 160.572 323.89 161.081 327.502C161.59 331.113 157.916 348.682 153.469 348.586Z" fill="#FFB27D"/>
<path d="M161.166 321.576C158.861 318.135 156.81 318.635 155.604 319.479C146.842 313.453 140.115 320.393 140.115 320.393C138.221 327.861 132.32 331.656 132.32 331.656C132.32 331.656 135.222 333.876 142.532 332.757C144.765 332.415 146.865 331.062 148.705 329.351C145.337 333.898 141.062 336.987 141.062 336.987C149.969 333.905 154.575 322.405 155.041 321.188C155.984 322.222 157.822 324.446 158.247 326.488C158.823 329.264 158.649 334.841 160.281 334.814C160.279 334.812 164.621 326.736 161.166 321.576Z" fill="#2C3A64"/>
<path d="M236.972 400.601C235.272 402.221 233.555 406.27 228.322 406.192C224.587 406.16 220.808 406.58 218.977 406.806C218.264 406.931 217.851 406.98 217.851 406.98L217.664 401.052C217.664 401.052 217.74 401.059 217.909 401.032C219.173 400.843 225.595 399.855 228.136 398.169C230.989 396.257 237.66 398.028 237.66 398.028C237.66 398.028 238.683 399.013 236.972 400.601Z" fill="#FFB27D"/>
<path d="M126.498 598.514H100.12C100.12 598.514 99.4882 594.494 100.866 591.443C102.186 588.517 104.254 587.186 103.759 583.646C105.434 585.372 108.167 587.304 111.98 586.791C112.447 587.548 114.995 591.602 116.556 592.723C118.278 593.962 125.966 593.52 126.498 598.514Z" fill="#233862"/>
<path d="M183.134 598.514H156.757C156.757 598.514 155.769 594.306 157.503 591.443C159.035 588.91 158.447 587.467 157.313 585.372C158.508 585.861 160.053 586.306 161.755 586.21C163.068 586.134 164.46 585.538 165.677 584.83C166.812 586.123 171.674 591.633 173.193 592.725C174.917 593.962 182.602 593.52 183.134 598.514Z" fill="#233862"/>
<path d="M149.417 342.473C149.417 342.473 149.654 343.871 153.098 343.875C153.098 343.875 155.988 343.878 155.995 342.359C155.995 342.359 153.27 341.104 149.417 342.473Z" fill="white"/>
<path d="M120.818 409.64C119.775 416.249 114.995 429.512 117.217 435.846C111.692 435.051 107.801 433.838 107.533 432.236C104.815 426.108 111.468 414.661 115.31 408.843C115.792 408.113 116.208 407.344 116.549 406.549C117.418 404.548 117.836 402.368 117.749 400.17C117.633 397.164 117.376 394.245 117.063 391.509C117.063 391.509 121.928 402.616 120.818 409.64Z" fill="#ED7D2B"/>
<path d="M158.155 365.049C158.338 370.923 162.586 387.049 163.596 384.92C164.748 382.492 169.208 373.264 171.303 372.924C171.194 372.498 162.62 363.019 162.244 363.128C162.242 363.13 159.913 363.841 158.155 365.049Z" fill="#FF9843"/>
<path d="M117.709 448.375L113.334 451.288C113.334 451.288 112.226 449.903 110.472 447.692C109.948 447.026 109.668 446.624 109.668 446.624C108.281 444.838 106.669 442.644 104.904 440.266L104.875 440.239C101.921 436.087 98.673 431.367 96.1894 427.099C94.4629 424.073 93.1184 421.272 92.4617 419.07C92.3903 418.849 92.3501 418.657 92.3054 418.407C91.0211 412.821 93.3775 401.731 97.1275 390.91C97.6434 389.414 98.1861 387.942 98.7065 386.504C100.701 381.197 102.943 376.209 105.195 372.18C106.515 369.757 107.83 367.644 109.099 366.067C109.539 365.502 109.952 364.971 110.399 364.517C110.64 364.242 110.881 363.979 111.12 363.727C113.749 363.948 119.263 364.991 123.357 369.717C123.288 369.965 123.214 370.213 123.141 370.467C121.486 375.805 118.931 382.356 116.282 388.777C114.841 392.304 113.367 395.804 112.076 399.096C111.256 401.064 110.517 402.94 109.847 404.673C108.587 407.99 107.652 410.75 107.281 412.687C107.028 413.942 107.388 416.303 108.065 419.206C109.226 424.267 111.437 431.082 113.494 436.866C114.334 439.281 115.163 441.528 115.855 443.39C116.959 446.405 117.709 448.375 117.709 448.375Z" fill="#FFB27D"/>
<path d="M119.624 386.425C115.253 379.828 102.725 376.989 102.725 376.989C109.794 354.558 128.354 356.638 128.354 356.638C128.354 356.638 121.602 379.975 119.624 386.425Z" fill="#FF9843"/>
<path d="M113.333 451.29C113.333 451.29 114.484 452.988 114.611 454.207C114.741 455.429 115.833 459.476 117.244 460.76C118.658 462.044 121.87 464.615 122.319 464.229C122.768 463.842 124.07 460.814 122.864 458.672C122.319 457.705 121.579 455.009 120.606 454.357C119.422 453.564 117.707 448.375 117.707 448.375L113.333 451.29Z" fill="#FFB27D"/>
<path d="M117.727 449.034C117.727 449.034 121.206 450.801 121.678 452.215C122.149 453.628 124.094 456.478 123.893 456.809C123.679 457.162 120.655 455.234 119.627 453.479C118.6 451.723 117.727 449.034 117.727 449.034Z" fill="#FFB27D"/>
<path d="M200.542 432.598L327.984 356.303C335.013 352.095 343.786 352.095 350.813 356.303L478.255 432.598V556.949L200.544 543.026V432.598H200.542Z" fill="#ED7D2B"/>
<path d="M454.349 377.5H224.446V576.182H454.349V377.5Z" fill="#FCECDB"/>
<path d="M234.738 388.351C235.944 387.851 236.516 386.469 236.017 385.263C235.517 384.057 234.135 383.485 232.929 383.984C231.724 384.484 231.151 385.866 231.65 387.072C232.15 388.278 233.532 388.85 234.738 388.351Z" fill="#EFCBAB"/>
<path d="M442.463 386.169C442.463 384.864 443.522 383.806 444.826 383.806C446.13 383.806 447.189 384.864 447.189 386.169C447.189 387.473 446.13 388.532 444.826 388.532C443.519 388.534 442.463 387.475 442.463 386.169Z" fill="#EFCBAB"/>
<path d="M444.826 385.912H233.827V386.426H444.826V385.912Z" fill="#EFCBAB"/>
<path d="M234.084 385.23H233.57V596.229H234.084V385.23Z" fill="#EFCBAB"/>
<path d="M445.166 385.23H444.652V596.229H445.166V385.23Z" fill="#EFCBAB"/>
<path d="M478.253 432.254V598.512H200.542V432.254L339.397 515.384L478.253 432.254Z" fill="#FF9843"/>
<path d="M200.541 598.514L327.74 507.321C334.708 502.325 344.084 502.325 351.053 507.321L478.252 598.514H200.541Z" fill="#ED7D2B"/>
<path d="M381.788 405.026H297.966C296.749 405.026 295.752 404.03 295.752 402.813C295.752 401.595 296.749 400.599 297.966 400.599H381.788C383.005 400.599 384.002 401.595 384.002 402.813C384.002 404.03 383.005 405.026 381.788 405.026Z" fill="#EFCBAB"/>
<path d="M403.379 413.906H276.373C275.155 413.906 274.159 412.91 274.159 411.693C274.159 410.476 275.155 409.479 276.373 409.479H403.379C404.597 409.479 405.593 410.476 405.593 411.693C405.593 412.91 404.597 413.906 403.379 413.906Z" fill="#EFCBAB"/>
<path d="M386.91 441.445H295.018C294.138 441.445 293.417 440.724 293.417 439.844C293.417 438.964 294.138 438.242 295.018 438.242H386.91C387.79 438.242 388.511 438.964 388.511 439.844C388.509 440.726 387.79 441.445 386.91 441.445Z" fill="#EFCBAB"/>
<path d="M304.244 449.808H278.334C277.454 449.808 276.732 449.086 276.732 448.206C276.732 447.326 277.454 446.605 278.334 446.605H304.244C305.124 446.605 305.846 447.326 305.846 448.206C305.846 449.089 305.124 449.808 304.244 449.808Z" fill="#EFCBAB"/>
<path d="M343.319 449.807H312.017C311.137 449.807 310.416 449.086 310.416 448.206C310.416 447.326 311.137 446.604 312.017 446.604H343.319C344.199 446.604 344.921 447.326 344.921 448.206C344.921 449.088 344.201 449.807 343.319 449.807Z" fill="#EFCBAB"/>
<path d="M403.592 449.807H349.477C348.597 449.807 347.875 449.086 347.875 448.206C347.875 447.326 348.597 446.604 349.477 446.604H403.592C404.472 446.604 405.193 447.326 405.193 448.206C405.193 449.088 404.472 449.807 403.592 449.807Z" fill="#EFCBAB"/>
<path d="M343.527 459.532H293.193C292.313 459.532 291.592 458.81 291.592 457.931C291.592 457.051 292.313 456.329 293.193 456.329H343.527C344.407 456.329 345.128 457.051 345.128 457.931C345.128 458.81 344.407 459.532 343.527 459.532Z" fill="#EFCBAB"/>
<path d="M388.732 459.532H349.088C348.208 459.532 347.487 458.81 347.487 457.931C347.487 457.051 348.208 456.329 349.088 456.329H388.732C389.612 456.329 390.334 457.051 390.334 457.931C390.334 458.81 389.612 459.532 388.732 459.532Z" fill="#EFCBAB"/>
<path d="M357.664 479.3C354.638 481.813 351.397 483.908 347.984 485.82C348.273 484.915 348.514 483.975 348.469 483.14C348.409 481.987 347.489 481.482 346.568 481.004C346.341 480.886 346.128 480.761 345.916 480.636C346.274 480.285 346.457 479.801 346.22 479.271C345.831 478.398 344.741 478.539 344.373 479.347C344.304 479.497 344.266 479.642 344.248 479.783C344.1 479.704 343.986 479.62 343.888 479.501C344.449 478.454 344.978 477.386 345.465 476.296C345.574 476.051 345.436 475.762 345.239 475.613C344.431 475.003 343.328 475.2 342.678 475.966C341.907 476.875 342.101 478.257 342.47 479.289C342.497 479.361 342.524 479.434 342.555 479.506C341.84 480.797 341.063 482.05 340.23 483.269C340.152 483.191 340.073 483.113 339.995 483.037C339.779 482.825 339.546 482.554 339.345 482.255C339.727 481.261 339.971 480.216 340.062 479.13C340.102 478.646 339.618 478.407 339.211 478.556C338.09 478.972 337.487 480.111 337.632 481.284C337.681 481.686 337.813 482.07 337.996 482.427C337.746 482.97 337.449 483.497 337.098 484.004C336.871 484.332 337.034 484.667 337.302 484.824C336.933 486.048 336.44 487.298 335.595 488.181C334.905 488.9 333.619 489.447 332.779 488.591C332.247 488.051 332.18 487.146 332.107 486.432C331.928 484.67 331.794 482.84 331.859 481.067C331.89 480.227 331.979 479.374 332.265 478.581C332.444 478.087 332.694 477.341 332.933 478.19C333.051 478.608 332.888 479.253 332.846 479.678C332.77 480.435 333.945 480.522 334.021 479.769C334.11 478.88 334.508 477.018 333.503 476.461C332.669 475.999 331.903 476.662 331.517 477.355C330.128 479.847 330.682 483.269 330.889 485.978C331.057 488.138 331.863 490.789 334.622 490.101C337.217 489.456 338.171 486.184 338.767 483.932C338.805 483.792 338.791 483.664 338.749 483.555C338.758 483.537 338.769 483.517 338.78 483.499C338.887 483.609 338.995 483.714 339.104 483.823C339.258 483.959 339.403 484.102 339.544 484.25C339.272 484.627 338.995 485.002 338.709 485.373C338.548 485.583 338.595 485.898 338.756 486.092C339.629 487.144 341.199 486.365 341.168 485.072C341.161 484.772 341.087 484.506 340.971 484.263C341.791 483.084 342.557 481.869 343.267 480.622C343.636 480.984 344.107 481.217 344.683 481.19C344.724 481.188 344.762 481.183 344.802 481.179C345.103 481.498 345.483 481.764 345.829 481.96C346.164 482.148 346.551 482.266 346.852 482.512C347.413 482.97 347.245 483.492 347.122 484.142C346.959 484.998 346.689 485.851 346.439 486.686C345.253 487.368 344.083 488.232 343.683 489.599C343.319 490.845 343.643 492.156 344.71 492.929C345.032 493.161 345.458 492.974 345.595 492.636C346.265 490.99 346.87 489.317 347.388 487.618C347.404 487.564 347.422 487.508 347.439 487.455C348.487 486.858 349.584 486.333 350.62 485.721C353.369 484.093 355.978 482.237 358.437 480.196C359.027 479.702 358.249 478.816 357.664 479.3ZM343.341 477.73C343.33 477.259 343.58 476.394 344.123 476.406C343.877 476.937 343.622 477.464 343.359 477.985C343.352 477.9 343.343 477.813 343.341 477.73ZM344.84 491.35C344.344 490.421 345.054 489.275 345.865 488.518C345.548 489.471 345.204 490.414 344.84 491.35Z" fill="#F99746"/>
<g opacity="0.5">
<path opacity="0.5" d="M334.435 295.91L346.406 322.324L302.286 342.32L290.314 315.907L318.36 319.116L334.435 295.91Z" fill="#CDE0FB"/>
<path opacity="0.5" d="M290.315 315.906L334.435 295.907L321.244 318.139C320.203 319.893 318.187 320.819 316.179 320.464L290.315 315.906Z" fill="#B1CFF2"/>
</g>
<g opacity="0.5">
<path opacity="0.5" d="M75.0514 468.382L81.3476 485.269L53.1387 495.789L46.8403 478.899L64.094 482.084L75.0514 468.382Z" fill="#CDE0FB"/>
<path opacity="0.5" d="M46.8413 478.898L75.0524 468.379L65.9264 481.603C65.2072 482.646 63.9162 483.133 62.6856 482.829L46.8413 478.898Z" fill="#B1CFF2"/>
</g>
<g opacity="0.5">
<path opacity="0.5" d="M558.148 367.861L549.299 401.024L493.907 386.24L502.756 353.078L526.026 377.052L558.148 367.861Z" fill="#CDE0FB"/>
<path opacity="0.5" d="M502.756 353.077L558.148 367.859L529.397 378.32C527.13 379.144 524.588 378.481 523.016 376.65L502.756 353.077Z" fill="#B1CFF2"/>
</g>
<path d="M62.897 543.053C62.897 543.053 62.8948 543.053 62.897 543.053C61.5569 543.048 60.2593 543.03 59.0353 542.997C58.8924 542.992 58.7807 542.874 58.7852 542.733C58.7897 542.59 58.9036 542.481 59.0487 542.483C60.2682 542.517 61.5636 542.535 62.897 542.539C63.04 542.539 63.1539 542.655 63.1539 542.796C63.1539 542.939 63.0377 543.053 62.897 543.053ZM66.7565 543.024C66.6158 543.024 66.5019 542.912 66.4996 542.771C66.4974 542.631 66.6113 542.512 66.752 542.51C67.9871 542.49 69.2848 542.456 70.607 542.414C70.7544 542.403 70.8683 542.521 70.8728 542.662C70.8772 542.805 70.7656 542.923 70.6249 542.928C69.2982 542.972 67.9983 543.004 66.7609 543.026C66.7587 543.024 66.7587 543.024 66.7565 543.024ZM55.1893 542.832C55.1848 542.832 55.1781 542.832 55.1737 542.832C53.8135 542.749 52.5181 542.644 51.3209 542.517C51.1802 542.501 51.0775 542.376 51.0931 542.233C51.1087 542.092 51.236 541.99 51.3767 542.005C52.5672 542.133 53.8559 542.237 55.2072 542.32C55.3479 542.329 55.4573 542.45 55.4484 542.593C55.4372 542.727 55.3255 542.832 55.1893 542.832ZM74.4731 542.774C74.3369 542.774 74.223 542.666 74.2163 542.528C74.2096 542.387 74.319 542.267 74.462 542.26C75.6993 542.202 76.9947 542.135 78.3147 542.059C78.4554 542.054 78.5783 542.159 78.5872 542.3C78.5961 542.441 78.4867 542.564 78.346 542.57C77.026 542.646 75.7261 542.713 74.4888 542.771C74.4821 542.774 74.4776 542.774 74.4731 542.774ZM82.1809 542.329C82.0469 542.329 81.933 542.226 81.924 542.09C81.9151 541.949 82.0223 541.827 82.163 541.815C83.4294 541.73 84.7114 541.637 86.0113 541.538C86.152 541.527 86.2771 541.634 86.286 541.775C86.2972 541.916 86.19 542.041 86.0493 542.05C84.7494 542.148 83.4651 542.242 82.1965 542.327C82.1943 542.329 82.1876 542.329 82.1809 542.329ZM47.5307 541.983C47.5151 541.983 47.4994 541.983 47.486 541.978C46.0678 541.724 44.7969 541.42 43.707 541.074C43.5707 541.031 43.497 540.886 43.5395 540.75C43.5819 540.614 43.7271 540.54 43.8633 540.582C44.9309 540.922 46.1817 541.221 47.5776 541.471C47.7183 541.496 47.8099 541.63 47.7853 541.771C47.7607 541.896 47.6535 541.983 47.5307 541.983ZM89.8797 541.744C89.7479 541.744 89.634 541.643 89.6228 541.509C89.6116 541.369 89.7166 541.244 89.8573 541.232C91.1259 541.125 92.408 541.014 93.7011 540.895C93.8441 540.882 93.9669 540.987 93.9803 541.127C93.9937 541.268 93.8888 541.393 93.7481 541.407C92.4526 541.525 91.1706 541.637 89.902 541.744C89.8931 541.744 89.8864 541.744 89.8797 541.744ZM97.5673 541.047C97.4355 541.047 97.3239 540.947 97.3127 540.815C97.2993 540.674 97.402 540.547 97.5427 540.533C98.8136 540.41 100.093 540.281 101.382 540.149C101.523 540.138 101.65 540.236 101.663 540.379C101.677 540.52 101.576 540.647 101.433 540.661C100.145 540.792 98.8627 540.922 97.5919 541.045C97.5829 541.047 97.574 541.047 97.5673 541.047ZM105.244 540.259C105.114 540.259 105.003 540.16 104.989 540.029C104.974 539.888 105.076 539.761 105.217 539.745C106.488 539.609 107.768 539.466 109.052 539.321C109.193 539.305 109.32 539.405 109.335 539.546C109.351 539.687 109.251 539.814 109.11 539.83C107.823 539.975 106.546 540.116 105.273 540.254C105.264 540.259 105.253 540.259 105.244 540.259ZM40.3121 539.455C40.2607 539.455 40.2071 539.439 40.1602 539.405C39.4165 538.863 38.8782 538.249 38.5633 537.581C38.3332 537.094 38.1412 536.605 37.9915 536.127C37.9491 535.99 38.025 535.847 38.1613 535.805C38.2953 535.763 38.4404 535.839 38.4829 535.975C38.6236 536.428 38.8067 536.895 39.0278 537.362C39.307 537.951 39.7895 538.499 40.464 538.99C40.5779 539.073 40.6047 539.233 40.5198 539.35C40.4684 539.417 40.3903 539.455 40.3121 539.455ZM112.914 539.394C112.784 539.394 112.675 539.298 112.659 539.166C112.643 539.026 112.744 538.898 112.884 538.881C114.158 538.731 115.433 538.579 116.715 538.425C116.856 538.409 116.983 538.508 117.001 538.648C117.019 538.789 116.918 538.919 116.777 538.934C115.495 539.091 114.218 539.242 112.945 539.392C112.934 539.394 112.925 539.394 112.914 539.394ZM120.577 538.465C120.449 538.465 120.338 538.369 120.322 538.24C120.304 538.099 120.405 537.969 120.545 537.954C121.814 537.795 123.087 537.634 124.36 537.469C124.501 537.453 124.63 537.552 124.648 537.692C124.666 537.833 124.568 537.963 124.427 537.98C123.152 538.144 121.881 538.307 120.61 538.465C120.597 538.465 120.588 538.465 120.577 538.465ZM128.213 537.482C128.086 537.482 127.976 537.389 127.958 537.259C127.94 537.118 128.039 536.989 128.179 536.971C129.455 536.803 130.73 536.631 132.005 536.459C132.148 536.442 132.276 536.54 132.293 536.681C132.314 536.821 132.213 536.951 132.072 536.969C130.797 537.141 129.519 537.313 128.244 537.48C128.235 537.482 128.224 537.482 128.213 537.482ZM135.871 536.446C135.744 536.446 135.635 536.352 135.617 536.225C135.597 536.084 135.695 535.955 135.836 535.935C137.111 535.758 138.384 535.579 139.657 535.401C139.796 535.381 139.927 535.479 139.948 535.62C139.968 535.76 139.869 535.89 139.729 535.91C138.456 536.089 137.18 536.267 135.907 536.444C135.896 536.446 135.883 536.446 135.871 536.446ZM143.514 535.367C143.389 535.367 143.28 535.276 143.26 535.146C143.24 535.005 143.338 534.876 143.479 534.856C144.754 534.673 146.027 534.487 147.298 534.302C147.439 534.28 147.568 534.378 147.59 534.519C147.611 534.659 147.515 534.789 147.374 534.809C146.103 534.994 144.83 535.18 143.555 535.363C143.539 535.367 143.526 535.367 143.514 535.367ZM151.151 534.248C151.026 534.248 150.916 534.157 150.896 534.029C150.876 533.889 150.972 533.759 151.113 533.737C152.39 533.547 153.661 533.355 154.927 533.163C155.068 533.141 155.198 533.239 155.22 533.38C155.242 533.52 155.144 533.65 155.006 533.672C153.739 533.864 152.466 534.056 151.189 534.246C151.175 534.248 151.162 534.248 151.151 534.248ZM158.78 533.094C158.655 533.094 158.546 533.002 158.526 532.875C158.503 532.734 158.599 532.602 158.74 532.582C160.018 532.386 161.291 532.189 162.553 531.993C162.693 531.972 162.825 532.066 162.845 532.207C162.867 532.348 162.771 532.479 162.631 532.5C161.367 532.696 160.096 532.893 158.816 533.089C158.807 533.091 158.794 533.094 158.78 533.094ZM37.9848 532.508C37.9669 532.508 37.9513 532.506 37.9334 532.504C37.795 532.475 37.7034 532.341 37.7324 532.202C37.9803 530.976 38.5588 529.795 39.4544 528.694C39.5438 528.582 39.7046 528.566 39.8163 528.656C39.9257 528.745 39.9436 528.906 39.8542 529.018C39.0122 530.056 38.4672 531.162 38.2372 532.305C38.2104 532.424 38.1032 532.508 37.9848 532.508ZM166.408 531.903C166.282 531.903 166.173 531.814 166.153 531.687C166.131 531.546 166.227 531.414 166.367 531.392C167.647 531.188 168.918 530.987 170.178 530.784C170.316 530.762 170.45 530.858 170.472 530.996C170.495 531.137 170.399 531.269 170.26 531.291C169.001 531.492 167.73 531.695 166.448 531.899C166.434 531.903 166.421 531.903 166.408 531.903ZM174.03 530.684C173.908 530.684 173.798 530.594 173.778 530.467C173.756 530.326 173.85 530.195 173.99 530.172C175.272 529.965 176.543 529.757 177.798 529.551C177.939 529.529 178.071 529.623 178.093 529.764C178.115 529.904 178.022 530.036 177.881 530.058C176.623 530.264 175.355 530.472 174.071 530.679C174.057 530.681 174.044 530.684 174.03 530.684ZM181.647 529.433C181.524 529.433 181.414 529.344 181.394 529.219C181.372 529.078 181.466 528.946 181.606 528.924C182.893 528.709 184.161 528.497 185.414 528.287C185.557 528.263 185.687 528.359 185.712 528.499C185.736 528.64 185.64 528.772 185.502 528.794C184.249 529.004 182.98 529.216 181.693 529.431C181.676 529.433 181.662 529.433 181.647 529.433ZM189.263 528.155C189.14 528.155 189.03 528.066 189.01 527.941C188.986 527.8 189.082 527.669 189.22 527.644C190.511 527.425 191.78 527.208 193.026 526.994C193.165 526.969 193.299 527.063 193.323 527.204C193.348 527.342 193.254 527.476 193.113 527.501C191.867 527.715 190.598 527.932 189.307 528.151C189.29 528.153 189.276 528.155 189.263 528.155ZM196.872 526.849C196.749 526.849 196.642 526.762 196.62 526.637C196.595 526.496 196.689 526.364 196.83 526.34C198.127 526.114 199.398 525.893 200.633 525.676C200.774 525.652 200.906 525.745 200.93 525.884C200.955 526.025 200.861 526.156 200.723 526.181C199.485 526.398 198.217 526.619 196.917 526.844C196.901 526.847 196.888 526.849 196.872 526.849ZM42.5009 526.538C42.4205 526.538 42.3401 526.5 42.291 526.429C42.2106 526.313 42.2374 526.152 42.3557 526.072C43.3273 525.395 44.4597 524.738 45.726 524.122C45.8534 524.059 46.0075 524.113 46.07 524.24C46.1325 524.367 46.0789 524.522 45.9516 524.584C44.7098 525.189 43.5998 525.833 42.6505 526.494C42.6014 526.523 42.55 526.538 42.5009 526.538ZM204.482 525.515C204.359 525.515 204.252 525.428 204.229 525.303C204.205 525.163 204.299 525.031 204.437 525.006C205.75 524.774 207.019 524.548 208.241 524.329C208.379 524.303 208.513 524.396 208.538 524.537C208.562 524.678 208.471 524.81 208.33 524.834C207.108 525.053 205.84 525.279 204.526 525.511C204.511 525.515 204.495 525.515 204.482 525.515ZM212.087 524.155C211.964 524.155 211.857 524.068 211.834 523.943C211.81 523.805 211.901 523.671 212.042 523.644C213.384 523.4 214.653 523.17 215.846 522.954C215.986 522.927 216.118 523.021 216.145 523.159C216.169 523.298 216.078 523.432 215.937 523.458C214.744 523.677 213.476 523.907 212.134 524.151C212.118 524.155 212.102 524.155 212.087 524.155ZM49.389 523.099C49.284 523.099 49.1857 523.034 49.1477 522.931C49.0986 522.797 49.1656 522.65 49.2996 522.601C50.4387 522.176 51.676 521.763 52.9804 521.375C53.1166 521.334 53.2596 521.41 53.2998 521.547C53.34 521.683 53.264 521.826 53.1278 521.866C51.8346 522.252 50.6084 522.661 49.4805 523.081C49.4493 523.092 49.418 523.099 49.389 523.099ZM219.696 522.766C219.576 522.766 219.466 522.679 219.444 522.556C219.417 522.418 219.511 522.284 219.649 522.257C221.099 521.989 222.374 521.752 223.455 521.549C223.594 521.522 223.73 521.614 223.754 521.754C223.781 521.893 223.69 522.029 223.549 522.054C222.466 522.257 221.19 522.494 219.741 522.762C219.727 522.764 219.712 522.766 219.696 522.766ZM227.314 521.337C227.194 521.337 227.087 521.252 227.062 521.129C227.035 520.99 227.127 520.854 227.265 520.827C227.527 520.778 227.674 520.749 227.705 520.742C227.857 520.707 228.02 520.832 228.02 520.993C228.02 521.205 227.996 521.209 227.361 521.332C227.348 521.334 227.332 521.337 227.314 521.337ZM56.7818 520.868C56.6656 520.868 56.5606 520.789 56.5316 520.671C56.4981 520.533 56.583 520.394 56.7192 520.361C57.9208 520.066 59.1917 519.78 60.5005 519.512C60.639 519.483 60.7752 519.572 60.8043 519.713C60.8333 519.851 60.744 519.988 60.6032 520.017C59.3011 520.282 58.037 520.566 56.8421 520.861C56.822 520.865 56.8019 520.868 56.7818 520.868ZM64.351 519.309C64.2282 519.309 64.1187 519.219 64.0986 519.096C64.0741 518.956 64.1679 518.824 64.3086 518.799C65.5415 518.587 66.8279 518.384 68.1323 518.194C68.2752 518.172 68.4025 518.27 68.4226 518.411C68.4427 518.551 68.3445 518.681 68.206 518.701C66.9061 518.889 65.6241 519.092 64.3957 519.304C64.3801 519.306 64.3667 519.309 64.351 519.309ZM72.0007 518.196C71.8734 518.196 71.7617 518.1 71.7461 517.971C71.7282 517.83 71.8287 517.703 71.9694 517.685C73.2358 517.533 74.5312 517.39 75.8177 517.263C75.9584 517.252 76.0857 517.352 76.0991 517.493C76.1125 517.633 76.0098 517.761 75.8691 517.774C74.5848 517.902 73.2939 518.042 72.0319 518.196C72.0208 518.196 72.0118 518.196 72.0007 518.196ZM79.6972 517.435C79.5632 517.435 79.4516 517.332 79.4404 517.198C79.4292 517.057 79.5364 516.932 79.6771 516.921C82.0647 516.738 83.55 516.673 83.5656 516.673C83.7086 516.662 83.8269 516.778 83.8336 516.919C83.8403 517.059 83.7287 517.18 83.588 517.187C83.5746 517.187 82.096 517.249 79.7173 517.432C79.7106 517.435 79.7039 517.435 79.6972 517.435Z" fill="#AFCDFB"/>
<path d="M235.906 534.874L267.563 516.932L238.685 518.639L240.911 523.517L234.946 530.126L235.906 534.874Z" fill="#AFCDFB"/>
<path d="M267.564 516.932L234.39 523.012L210.226 539.792L267.564 516.932Z" fill="white"/>
<path d="M238.685 518.639L267.564 516.932L237.354 508.079L238.685 518.639Z" fill="white"/>
<path d="M407.154 299.139L443.095 304.828L419.441 288.17L418.145 293.374L409.361 294.826L407.154 299.139Z" fill="#AFCDFB"/>
<path d="M443.095 304.828L413.357 288.917L384.002 286.989L443.095 304.828Z" fill="white"/>
<path d="M419.44 288.171L443.095 304.828L424.979 279.083L419.44 288.171Z" fill="white"/>
<path d="M515.987 444.764C515.987 444.764 508.659 445.273 503.249 458.471C497.793 471.783 509.997 471.651 505.885 480.131C501.773 488.612 511.804 493.671 514.848 500.615C517.894 507.558 533.238 524.307 534.453 531.948C535.668 539.586 549.313 524.006 549.313 524.006C549.313 524.006 563.183 509.211 558.209 500.617C550.012 486.45 557.112 483.372 556.855 475.461C556.601 467.546 541.583 436.369 515.987 444.764Z" fill="#233862"/>
<path d="M512.009 492.109C512.009 492.109 483.637 504.476 478.248 504.239C472.859 504.005 439.649 494.124 439.649 494.124L440.495 499.837C440.495 499.837 466.125 514.578 475.085 515.414C483.908 516.238 514.071 507.496 516.983 505.651C519.891 503.806 520.472 493.979 512.009 492.109Z" fill="#FFAD76"/>
<path d="M509.72 505.669C512.326 507.478 515.596 508.97 519.701 509.917C535.088 513.473 540.984 500.467 543.197 491.542C541.1 490.341 539.126 490.077 537.984 489.941C536.872 489.809 535.702 489.722 534.735 489.675C533.008 488.353 530.433 482.937 529.864 474.528L529.14 474.722L517.014 478.041C517.014 478.041 517.57 481.896 517.843 485.539C518.053 488.391 518.424 490.044 517.883 490.711C516.936 490.917 516.032 492.121 516.032 492.121C516.032 492.121 516.032 492.125 516.025 492.132C515.862 492.395 512.344 498.18 509.72 505.669Z" fill="#FFB27D"/>
<path d="M517.012 478.041C517.012 478.041 517.571 481.891 517.841 485.539C524.711 484.851 527.898 478.311 529.14 474.722L517.012 478.041Z" fill="#ED985F"/>
<path d="M514.962 481.659C514.962 481.659 531.268 480.759 530.551 470.612C529.834 460.465 531.456 453.517 521.014 453.662C510.573 453.807 508.826 457.821 508.241 461.267C507.658 464.711 510.702 481.63 514.962 481.659Z" fill="#FFB27D"/>
<path d="M547.843 538.82C549.315 531.293 554.117 501.217 549.315 491.54C547.591 488.062 540.825 487.75 533.401 488.053C531.092 489.545 522.29 495.18 518.674 494.477C518.636 494.47 518.564 494.452 518.47 494.43C516.769 494.003 516.463 491.739 517.883 490.707C517.885 490.704 513.87 491.421 509.304 492.281C506.725 492.766 499.77 496.366 499.77 496.366C499.77 496.366 503.272 502.694 508.438 504.88C507.56 512.738 508.867 516.204 517.016 534.351C523.905 549.691 516.087 563.502 516.087 563.502C516.087 563.502 556.634 596.102 556.859 579.503C557.025 567.007 545.96 548.442 547.843 538.82Z" fill="#739AF0"/>
<path d="M514.075 598.95C511.871 598.702 509.885 597.494 508.652 595.649C508.456 595.356 508.248 595.041 508.025 594.704C503.41 587.718 501.612 566.321 491.233 543.526C488.705 537.976 479.628 536.98 477.153 530.706C477.153 530.706 471.063 510.373 488.812 509.774C506.564 509.173 536.352 566.35 536.823 572.347C537.279 578.154 548.56 602.841 514.075 598.95Z" fill="#233862"/>
<path d="M443.522 598.483H468.787C468.787 598.483 469.732 594.454 468.072 591.711C466.605 589.286 467.168 587.903 468.253 585.895C467.11 586.364 465.629 586.791 463.998 586.697C462.739 586.626 461.408 586.054 460.242 585.375C459.154 586.615 454.497 591.892 453.043 592.938C451.393 594.124 444.029 593.701 443.522 598.483Z" fill="#172B4C"/>
<path d="M545.179 499.424C545.179 499.424 548.466 529.342 527.141 535.611C505.816 541.88 499.761 508.083 516.979 505.653C534.199 503.221 545.179 499.424 545.179 499.424Z" fill="#5486D6"/>
<path d="M476.575 515.65C475.054 527.057 469.113 563.056 458.633 580.618C455.254 586.28 467.145 589.453 467.21 589.438C468.804 589.02 471.462 586.478 472.686 585.373C481.196 577.705 498.467 555.991 498.467 538.584C498.467 530.096 498.617 513.886 492.444 509.765C488.642 507.23 477.18 511.121 476.575 515.65Z" fill="#233862"/>
<path d="M529.14 598.483C529.14 598.483 528.204 597.181 526.571 594.704C524.628 591.761 522.477 585.969 519.869 578.545C517.128 570.753 513.876 561.164 509.814 551.187C508.561 548.107 507.227 544.992 505.811 541.878C503.283 536.328 496.326 537.096 493.851 530.822C493.851 530.822 484.193 509.075 501.945 508.474C519.697 507.873 553.427 566.652 555.365 572.345C557.492 578.576 567.844 604.454 529.14 598.483Z" fill="#2B478B"/>
<path d="M462.068 598.483H487.333C487.333 598.483 488.278 594.454 486.619 591.711C485.151 589.286 485.714 587.903 486.8 585.895C485.656 586.364 484.175 586.791 482.545 586.697C481.285 586.626 479.954 586.054 478.788 585.375C477.7 586.615 473.044 591.892 471.59 592.938C469.939 594.124 462.575 593.701 462.068 598.483Z" fill="#233862"/>
<path d="M519.869 578.547C517.129 570.754 513.877 561.166 509.814 551.189C510.875 543.631 513.164 537.018 517.012 534.353C517.015 534.351 526.351 563.277 519.869 578.547Z" fill="#23407A"/>
<path d="M491.323 514.842C489.802 526.248 487.658 563.056 477.178 580.618C473.799 586.28 485.69 589.453 485.755 589.438C487.349 589.02 490.007 586.478 491.231 585.373C499.738 577.705 517.012 555.991 517.012 538.584C517.012 530.096 507.051 514.567 500.88 510.446C497.078 507.911 491.928 510.312 491.323 514.842Z" fill="#2B478B"/>
<path d="M460.04 484.929C460.04 484.929 458.747 481.641 456.391 481.853C454.035 482.068 432.64 484.929 432.64 484.929C432.64 484.929 435.13 485.525 436.071 487.158L445.941 516.24H471.255L460.04 484.929Z" fill="#EBF3FA"/>
<path d="M543.197 491.54C543.197 491.54 507.337 504.746 501.949 504.476C498.467 504.302 469.519 494.126 469.519 494.126L466.922 499.042C466.922 499.042 495.097 517.151 502.843 517.062C518.135 516.885 543.939 507.498 546.851 505.653C549.762 503.806 551.66 493.409 543.197 491.54Z" fill="#FFBF94"/>
<path d="M469.517 494.126C469.517 494.126 466.919 490.126 464.331 490.01C461.742 489.892 457.273 491.774 455.745 492.069C454.215 492.364 449.865 493.776 451.158 495.891C452.451 498.008 458.45 498.479 461.039 498.008C463.627 497.537 466.92 499.042 466.92 499.042L469.517 494.126Z" fill="#FFBF94"/>
<path d="M465.037 490.133C465.037 490.133 460.923 488.246 459.746 487.893C458.569 487.54 458.806 487.899 459.158 489.014C459.511 490.128 461.629 491.192 461.629 491.542C461.626 491.891 465.037 490.133 465.037 490.133Z" fill="#FFBF94"/>
<path d="M511.909 475.823C511.909 475.823 513.45 475.213 517.787 475.564C517.787 475.564 517.557 477.257 514.359 477.425C512.547 477.521 511.909 475.823 511.909 475.823Z" fill="white"/>
<path d="M524.722 498.053C524.722 498.053 527.929 508.206 538.945 510.516C538.945 510.516 557.134 504.912 548.078 492.52C548.078 492.52 539.124 485.867 524.722 498.053Z" fill="#739AF0"/>
<path d="M432.643 484.929C432.643 484.929 430.266 485.838 432.064 488.922L455.194 485.838C455.194 485.838 454.39 482.262 456.208 481.874L432.643 484.929Z" fill="white"/>
<path d="M440.929 492.521C441.478 490.323 441.443 489.791 440.201 488.449C439.379 487.562 438.121 489.762 437.471 491.089C437.233 490.504 436.826 489.55 436.688 489.501C436.487 489.432 436.965 492.456 436.965 492.456C436.951 492.581 436.947 492.708 436.951 492.835L436.949 492.833C436.949 492.833 435.946 497.278 440.317 499.679L439.484 497.229C439.993 497.144 440.373 494.754 440.929 492.521Z" fill="#FFAD76"/>
<path d="M514.343 455.905C514.343 455.905 517.781 454.701 519.447 458.212C521.111 461.723 521.64 470.119 528.314 470.804C534.987 471.49 535.246 456.584 535.246 456.584L518.542 449.988L509.722 455.556L514.343 455.905Z" fill="#233862"/>
<path d="M514.343 455.905C514.343 455.905 510.58 455.985 509.72 459.154C508.86 462.324 510.202 468.236 508.118 468.662C506.035 469.091 504.141 458.81 508.172 455.469C512.203 452.128 514.343 455.905 514.343 455.905Z" fill="#233862"/>
<path d="M218.907 400.874C218.907 400.874 222.675 399.447 223.102 398.462C223.531 397.477 224.772 397.048 226.271 396.362C227.77 395.677 228.67 394.435 228.884 394.607C229.099 394.779 229.141 395.634 228.542 396.278C227.942 396.921 225.402 401.417 224.446 401.931C223.488 402.446 218.907 400.874 218.907 400.874Z" fill="#FFB27D"/>
<path d="M609.835 598.3H585.618C584.32 597.199 586.516 594.7 588.81 594.532C589.806 594.456 591.065 594.666 592.506 594.97C592.839 590.543 594.742 570.645 601.913 571.445C609.978 572.34 601.913 580.207 599.633 584.866C597.944 588.316 596.162 593.263 595.349 595.597C596.004 595.74 596.683 595.879 597.375 596.006C598.445 592.725 602.42 581.685 607.479 582.328C613.418 583.081 611.03 587.508 606.823 590.134C603.734 592.066 599.943 594.813 598.141 596.14C599.666 596.39 601.261 596.558 602.878 596.52C607.026 596.419 609.049 597.643 609.835 598.3Z" fill="#82B378"/>
<path d="M67.1052 598.793C67.1052 598.793 57.901 573.513 51.4373 575.668C44.9737 577.821 67.1052 598.793 67.1052 598.793Z" fill="#82B378"/>
<path d="M63.5784 598.793C62.7945 598.793 48.1071 583.55 47.1266 587.541C46.1483 591.53 63.5784 598.793 63.5784 598.793Z" fill="#82B378"/>
<path d="M79.2485 598.793C79.2485 598.793 73.1734 593.223 65.4813 594.673C57.7892 596.122 54.506 597.71 49.675 596.611C44.844 595.512 42.376 598.791 42.376 598.791H79.2485V598.793Z" fill="#82B378"/>
<path d="M645.359 600.228H0.732581C0.330555 600.228 0 599.899 0 599.495V599.245C0 598.843 0.328321 598.512 0.732581 598.512H645.361" fill="#2E3552"/>
<path d="M266.677 588.698H218.827C216.156 588.698 213.99 586.532 213.99 583.861V570.813C213.99 568.141 216.156 565.975 218.827 565.975H266.677C269.349 565.975 271.515 568.141 271.515 570.813V583.861C271.515 586.532 269.349 588.698 266.677 588.698Z" fill="#FCECDB"/>
<path d="M256.944 571.623H220.9C220.498 571.623 220.167 571.295 220.167 570.891C220.167 570.489 220.496 570.158 220.9 570.158H256.944C257.346 570.158 257.676 570.487 257.676 570.891C257.676 571.293 257.346 571.623 256.944 571.623Z" fill="#EFCBAB"/>
<path d="M227.292 574.779H220.9C220.498 574.779 220.167 574.451 220.167 574.047C220.167 573.645 220.496 573.314 220.9 573.314H227.292C227.694 573.314 228.025 573.642 228.025 574.047C228.025 574.451 227.694 574.779 227.292 574.779Z" fill="#EFCBAB"/>
<path d="M247.43 574.779H229.819C229.417 574.779 229.086 574.451 229.086 574.047C229.086 573.645 229.415 573.314 229.819 573.314H247.43C247.832 573.314 248.163 573.642 248.163 574.047C248.163 574.451 247.832 574.779 247.43 574.779Z" fill="#EFCBAB"/>
<path d="M256.944 580.624H220.9C220.498 580.624 220.167 580.296 220.167 579.892C220.167 579.49 220.496 579.159 220.9 579.159H256.944C257.346 579.159 257.676 579.488 257.676 579.892C257.676 580.296 257.346 580.624 256.944 580.624Z" fill="#EFCBAB"/>
<path d="M233.982 583.78H220.9C220.498 583.78 220.167 583.452 220.167 583.048C220.167 582.646 220.496 582.315 220.9 582.315H233.982C234.384 582.315 234.714 582.643 234.714 583.048C234.714 583.452 234.386 583.78 233.982 583.78Z" fill="#EFCBAB"/>
<path d="M249.9 583.78H236.819C236.416 583.78 236.086 583.452 236.086 583.048C236.086 582.646 236.414 582.315 236.819 582.315H249.9C250.302 582.315 250.633 582.643 250.633 583.048C250.633 583.452 250.302 583.78 249.9 583.78Z" fill="#EFCBAB"/>
</g>
<path d="M475.527 313.043C585 237.91 508 100.124 402.527 100.124" stroke="#EBF3FA" stroke-width="5" stroke-dasharray="15 15"/>
<path d="M420.473 108.11L402.226 89.2496L405.897 63.2692C406.644 57.9792 403.06 53.0533 397.799 52.1237L371.953 47.5908L359.657 24.4183C357.165 19.7129 351.368 17.825 346.576 20.1729L323.001 31.6921L299.426 20.1729C294.634 17.825 288.836 19.7129 286.335 24.4279L274.04 47.61L248.193 52.1429C242.932 53.0629 239.348 57.9887 240.095 63.2787L243.766 89.2592L225.519 108.119C221.801 111.962 221.801 118.047 225.519 121.89L243.766 140.75L240.095 166.731C239.348 172.021 242.932 176.947 248.193 177.876L274.04 182.409L286.335 205.582C288.836 210.297 294.634 212.185 299.435 209.837L323.001 198.308L346.576 209.827C351.377 212.175 357.165 210.287 359.676 205.572L371.972 182.4L397.818 177.867C403.079 176.947 406.663 172.011 405.916 166.721L402.245 140.741L420.492 121.881C424.182 118.048 424.182 111.952 420.473 108.11ZM313.418 157.301L277.892 121.775L291.443 108.225L313.418 130.199L364.142 79.4746L377.693 93.0254L313.418 157.301Z" fill="#B8E2C3"/>
<path d="M389.626 93.3455L389.865 91.6517L393.123 68.5882L396.589 69.0778L393.123 68.5881C393.522 65.7648 391.61 63.1289 388.792 62.6305C388.792 62.6305 388.791 62.6304 388.791 62.6304L365.851 58.6071L364.166 58.3116L363.364 56.8002L352.449 36.2294L352.448 36.2268C351.12 33.7201 348.024 32.7106 345.468 33.9631L345.465 33.9648L324.537 44.1907L323 44.9415L321.463 44.1907L300.535 33.9648L300.532 33.9631C297.979 32.7122 294.88 33.7168 293.543 36.2374C293.543 36.2375 293.543 36.2376 293.543 36.2376L282.628 56.8167L281.826 58.3285L280.14 58.6242L257.196 62.6481L257.194 62.6484C254.383 63.1401 252.469 65.7715 252.868 68.5966L252.868 68.5967L256.127 91.6602L256.366 93.354L255.176 94.5835L238.978 111.326L238.978 111.326C236.99 113.381 236.99 116.629 238.978 118.684L238.978 118.684L255.176 135.426L256.366 136.656L256.127 138.35L252.868 161.413L249.403 160.923L252.868 161.413C252.469 164.235 254.38 166.87 257.196 167.37L389.626 93.3455ZM389.626 93.3455L390.815 94.5749L407.01 111.314C408.995 113.371 408.992 116.633 407.027 118.679C407.026 118.68 407.025 118.681 407.024 118.682L390.832 135.418L389.643 136.647L389.882 138.341L393.14 161.405L396.606 160.915L393.14 161.405C393.54 164.233 391.622 166.87 388.814 167.361L388.812 167.362L365.868 171.386L364.183 171.681L363.381 173.193L352.468 193.759C351.123 196.286 348.027 197.29 345.466 196.037L345.465 196.036L324.537 185.811L322.999 185.059L321.462 185.811L300.543 196.045C300.543 196.046 300.542 196.046 300.542 196.046C297.977 197.3 294.879 196.291 293.543 193.772L293.542 193.772L282.628 173.201L281.826 171.69L280.14 171.394L257.2 167.371L389.626 93.3455Z" stroke="#71C688" stroke-width="7"/>
<defs>
<clipPath id="clip0">
<rect width="646" height="347.228" fill="white" transform="translate(0 253)"/>
</clipPath>
</defs>
</svg>
