<?xml version="1.0" encoding="utf-8"?>
<!-- Generator: Adobe Illustrator 24.2.1, SVG Export Plug-In . SVG Version: 6.00 Build 0)  -->
<svg version="1.1" id="Layer_1" xmlns="http://www.w3.org/2000/svg" xmlns:xlink="http://www.w3.org/1999/xlink" x="0px" y="0px"
	 viewBox="0 0 308.7 223.9" style="enable-background:new 0 0 308.7 223.9;" xml:space="preserve">
<style type="text/css">
	.st0{fill:#82B378;}
	.st1{fill:#F2F2F2;}
	.st2{fill:#DE8E68;}
	.st3{fill:#FCC486;}
	.st4{fill:#56CAD8;}
	.st5{fill:#A97619;}
	.st6{fill:#EBBCA5;}
	.st7{fill:#FFD3BE;}
	.st8{fill:#F4AD48;}
	.st9{fill:#74D5DE;}
	.st10{fill:#FFF5E3;}
	.st11{fill:#FFFFFF;}
	.st12{fill:#D29320;}
	.st13{fill:#845B12;}
	.st14{fill:#F9DDBF;}
</style>
<path class="st0" d="M300.8,129.8l-118.1,3.8c-6.5-5.1,3.8-17.7,14.9-18.8c4.9-0.6,11.1,0.3,18.1,1.6C216.7,94.6,222.9-2.7,258,0.1
	c39.5,3.1,1.4,42.7-9,65.8c-7.7,17.1-15.6,41.5-19.2,53c3.2,0.6,6.6,1.1,9.9,1.6c4.7-16.1,22.4-70.6,47.2-68.3
	c29.1,2.8,18.1,24.7-2,38.2c-14.8,9.9-32.8,23.9-41.4,30.6c7.5,1,15.3,1.6,23.2,1.1C286.8,121.1,296.9,126.7,300.8,129.8z"/>
<path class="st1" d="M11.7,102.8C19.2,37,116.9-30,181.2,64.8s54.5,46.3,84.3,38c29.8-8.3,43.2,27,43.2,63
	c0,32.8-32.1,37.6-37.6,38.2c-0.5,0.1-1.1,0.1-1.6,0.1H53.5c-21.8,0-40.9-13.9-43-35.6C9,151.9,8.6,129.9,11.7,102.8z"/>
<path class="st0" d="M39.5,172.3L143,115.3c2.9-7.8-12.3-13.3-22.5-8.6c-4.4,2-9.3,5.9-14.8,10.6C93.9,99.2,39,18.6,10.2,38.9
	c-32.3,22.8,20.6,37.5,41.3,52c15.4,10.8,34.6,27.7,43.5,35.8c-2.4,2.2-5.1,4.4-7.7,6.5C75.1,121.7,32.1,83.8,12,98.5
	c-23.6,17.2-3,30.5,21.1,31.8c17.8,1,40.4,3.8,51.3,5.3c-5.9,4.6-12.3,9.1-19.3,12.8C47.1,157.6,41.3,167.6,39.5,172.3z"/>
<path class="st2" d="M246.2,205.3h-5.6v4.4h5.6V205.3z"/>
<path class="st3" d="M229.7,93.5c-0.6-0.4-5.4-7.3-6.6-12.2c-1.2-4.8-1.3,14.2-1.3,14.2l3,2.6L229.7,93.5z"/>
<path class="st4" d="M229.1,163.6l-6.5,11.4l-1.6-35.3l10.4,0.4L229.1,163.6z"/>
<path class="st5" d="M235.8,91.7c16.4,3.4,11.4,41.3,8.1,44.4c-3.2,3.1-26.7,3.7-28.9,1.1C212.7,134.7,215.1,87.4,235.8,91.7z"/>
<path class="st6" d="M238.1,95.9c-0.2,1.3-7.6,0.3-7.3-1.3l1.9-10.1l7.3,1.3C240,85.8,238.3,94.7,238.1,95.9z"/>
<path class="st7" d="M242.4,80.9c1.1-5.6-1.4-10.8-5.4-11.5c-4.1-0.8-8.1,3.2-9.2,8.8s1.4,10.8,5.4,11.5
	C237.2,90.4,241.4,86.5,242.4,80.9z"/>
<path class="st8" d="M229.6,62.7c1.9,0,2.8,1.3,7.8,1.3c2.4,0,7.4,0.5,7.4,6.8c0,4.3,2.5,4.6,2.5,7.3c0,1.3-1.2,4.6-4.2,4.6
	c-1.4,0-2.6-2.3-2.6-3.1s0.8-1.3,0.8-1.9c0-2.8-8.9-4.3-9.5-6.8c-0.6,0.6-2.1,2.4-2.7,3.6c-0.8-0.4-0.6-1-1.5-1.6
	c-0.8-0.5-3-1.8-3-4.3C224.5,67.4,225.8,62.7,229.6,62.7z"/>
<path class="st7" d="M241.5,83.8c1.3,0,2.4-1.1,2.4-2.4c0-1.3-1.1-2.4-2.4-2.4c-1.3,0-2.4,1.1-2.4,2.4
	C239.1,82.7,240.1,83.8,241.5,83.8z"/>
<path class="st9" d="M243.4,136.6l3.7,69.1h-6.8l-18.1-64.9v-3.9L243.4,136.6z"/>
<path class="st8" d="M223.3,62.8H51.1v127.1h172.3L223.3,62.8L223.3,62.8z"/>
<path class="st10" d="M223.3,77.7H51.1v127.1h172.3L223.3,77.7L223.3,77.7z"/>
<path class="st7" d="M232,111.6c-1.6,0.8-3.9,2-5.4,5.1c-2-0.3-11.9-2.2-19-2.1c-0.6,1.4-1.8,3.7-1.4,4c0.4,0.3,15,6.4,25.2,5.4
	c1.4,0.1,6.7-4.9,6.9-5.3C238.5,118.3,232,111.6,232,111.6z"/>
<path class="st7" d="M208.5,117.2c0.5-1.7-1.1-3.6-3.6-4.3c-2.4-0.7-4.9,0.1-5.3,1.7c-0.5,1.7,1.1,3.6,3.6,4.3
	C205.7,119.6,208,118.8,208.5,117.2z"/>
<path class="st2" d="M208.5,60.1c2.7,0,4.9-1.9,4.9-4.2s-2.2-4.2-4.9-4.2s-4.9,1.9-4.9,4.2S205.8,60.1,208.5,60.1z"/>
<path class="st8" d="M156.7,102.3H93.5v102.5h86.4v-79.3L156.7,102.3z"/>
<path class="st11" d="M117,151.5c5.6,0,10.1-4.5,10.1-10.1s-4.5-10.1-10.1-10.1s-10.1,4.5-10.1,10.1S111.5,151.5,117,151.5z"/>
<path class="st11" d="M166.5,149.2h-34.1v2.7h34.1L166.5,149.2L166.5,149.2z"/>
<path class="st11" d="M166.5,161.3H107v2.7h59.6V161.3z"/>
<path class="st11" d="M166.5,173.3H107v2.7h59.6V173.3z"/>
<path class="st10" d="M218.6,54.2h-52.3c-2.6,0-4.6,2.1-4.6,4.7V78c0,2.6,2.1,4.7,4.6,4.7h52.3c2.6,0,4.6-2.1,4.6-4.7V58.9
	C223.3,56.3,221.2,54.2,218.6,54.2z"/>
<path class="st10" d="M161.6,58.9c0,2.2-6.6,18.8-42,18.8c0,3.6,43.8,1.8,43.8,1.8l0.6-20.3L161.6,58.9z"/>
<path class="st12" d="M247,102.2c4.4,4.9-6.4,19.1-8.4,18.5c-2.4-0.7-9.9-7.6-9.9-10C228.5,108.3,241.6,96.1,247,102.2z"/>
<path class="st13" d="M240.6,208.5v3.6l8.8,11.1l2.6-1.3l-5.4-13.4H240.6z"/>
<path class="st14" d="M104,28c-7.1,0-12.8,5.7-12.8,12.8s5.8,12.8,12.8,12.8c7.1,0,12.8-5.8,12.8-12.8S111.1,28,104,28z M104,52.9
	c-6.7,0-12-5.4-12-12c0-6.7,5.4-12,12-12c6.6,0,12,5.4,12,12C116,47.5,110.6,52.9,104,52.9z"/>
<path class="st14" d="M104,50.8c-0.3,0-0.5,0.3-0.5,0.5c0,0.3,0.3,0.5,0.5,0.5c0.3,0,0.5-0.3,0.5-0.5S104.3,50.8,104,50.8z"/>
<path class="st14" d="M113.8,40.5c-0.3,0-0.5,0.3-0.5,0.5c0,0.3,0.3,0.5,0.5,0.5c0.3,0,0.5-0.3,0.5-0.5
	C114.3,40.7,114.1,40.5,113.8,40.5z"/>
<path class="st14" d="M108.8,49.1c-0.2,0.2-0.2,0.5,0,0.7c0.2,0.2,0.6,0.2,0.7,0c0.2-0.2,0.2-0.5,0-0.7
	C109.3,48.9,109,48.9,108.8,49.1z"/>
<path class="st14" d="M112.1,45.9c-0.2,0.2-0.2,0.5,0,0.7c0.2,0.2,0.6,0.2,0.7,0c0.2-0.2,0.2-0.5,0-0.7
	C112.7,45.7,112.3,45.7,112.1,45.9z"/>
<path class="st14" d="M112.7,36.5c0.3-0.1,0.3-0.5,0.3-0.7s-0.4-0.3-0.7-0.3s-0.3,0.5-0.3,0.7C112.2,36.6,112.5,36.7,112.7,36.5z"/>
<path class="st14" d="M109.4,32.2c-0.3-0.2-0.6-0.1-0.7,0.2c-0.2,0.3-0.1,0.5,0.2,0.7s0.6,0.1,0.7-0.2
	C109.7,32.6,109.7,32.3,109.4,32.2z"/>
<path class="st14" d="M94.9,40.3c-0.3,0-0.5,0.3-0.5,0.5c0,0.3,0.3,0.5,0.5,0.5c0.3,0,0.5-0.3,0.5-0.5S95.2,40.3,94.9,40.3z"/>
<path class="st14" d="M99.2,48.9c-0.2,0.2-0.2,0.5,0,0.7s0.5,0.2,0.7,0s0.2-0.5,0-0.7C99.8,48.7,99.4,48.7,99.2,48.9z"/>
<path class="st14" d="M95.9,45.7c-0.2,0.2-0.2,0.5,0,0.7s0.5,0.2,0.7,0s0.2-0.5,0-0.7C96.4,45.5,96.1,45.5,95.9,45.7z"/>
<path class="st14" d="M96,36.4c0.3,0.1,0.6,0,0.7-0.3c0.1-0.3,0-0.5-0.3-0.7c-0.3-0.1-0.6,0-0.7,0.3C95.7,35.9,95.8,36.2,96,36.4z"
	/>
<path class="st14" d="M99.3,32c-0.3,0.1-0.3,0.4-0.2,0.7s0.4,0.3,0.7,0.2c0.3-0.2,0.3-0.5,0.2-0.7C99.9,31.9,99.6,31.8,99.3,32z"/>
<path class="st14" d="M103.9,30.1c-0.3,0.1-0.3,0.4-0.2,0.7s0.4,0.3,0.7,0.2c0.3-0.2,0.3-0.5,0.2-0.7S104.1,30,103.9,30.1z"/>
<path class="st14" d="M108.8,37.1l-4.2,2.9c0,0-0.1,0-0.1,0l-0.4-7.9V40c-0.2,0.1-0.3,0.3-0.3,0.5c0,0.3,0.3,0.5,0.5,0.5
	c0.3,0,0.5-0.3,0.5-0.5c0,0,0,0,0-0.1L108.8,37.1z"/>
<path class="st0" d="M211.2,204.9H109.9c0,0-16.1-6.1-15.2-14.1c0.8-7.9,26.9,2.2,26.9,2.2s-1.9-8.1,4.9-10.1
	c6.9-2.1,30.4,21.2,39.4,11c9-10.2-0.1-26.2,19.6-26.3C205.4,167.4,211.2,204.9,211.2,204.9z"/>
<rect x="86.7" y="102.5" class="st5" width="7" height="101.5"/>
</svg>
