<svg width="720" height="485" viewBox="0 0 720 485" fill="none" xmlns="http://www.w3.org/2000/svg">
<path d="M0 0H720V389C720 442.019 677.019 485 624 485H96C42.9807 485 0 442.019 0 389V0Z" fill="#F4AD48"/>
<mask id="mask0" mask-type="alpha" maskUnits="userSpaceOnUse" x="0" y="0" width="720" height="485">
<path d="M0 0H720V389C720 442.019 677.019 485 624 485H96C42.9807 485 0 442.019 0 389V0Z" fill="#F4AD48"/>
</mask>
<g mask="url(#mask0)">
<path d="M975.076 421.603C1098.66 591.811 1108.37 882.586 996.768 1071.07C885.167 1259.55 590.62 1460.06 467.04 1289.86C645.904 794.348 444.774 612.917 556.375 424.437C667.975 235.957 851.495 251.394 975.076 421.603Z" fill="#F5BD56"/>
<path d="M428.5 -38.8916C486 247.838 226.5 444.583 138 296.643C49.5 148.703 -136 140.944 -136 -38.8916C-136 -218.727 -40.4128 -364.513 77.5 -364.513C195.413 -364.513 371 -325.621 428.5 -38.8916Z" fill="#F5BD56"/>
<path d="M665.523 82.9186C661.119 126.625 595.567 107.647 596.798 52.4195C598.029 -2.80833 507.399 1.38147 519.703 -20.717C532.008 -42.8155 583.4 -48.5023 614.602 -31.1285C645.805 -13.7548 669.926 39.2125 665.523 82.9186Z" fill="#F5BD56"/>
</g>
</svg>
