<svg width="720" height="259" viewBox="0 0 720 259" fill="none" xmlns="http://www.w3.org/2000/svg">
<g filter="url(#filter0_d)">
<path d="M0 12H720V198C720 225.062 698.062 247 671 247H49C21.9381 247 0 225.062 0 198V12Z" fill="#F7F7F7"/>
<mask id="mask0" mask-type="alpha" maskUnits="userSpaceOnUse" x="0" y="12" width="720" height="235">
<path d="M0 12H720V199C720 225.51 698.51 247 672 247H48C21.4903 247 0 225.51 0 199V12Z" fill="#F4AD48"/>
</mask>
<g mask="url(#mask0)">
<path d="M885 431.029C885 609.709 750.014 754.557 583.5 754.557C416.986 754.557 122 614.537 122 435.858C571.5 494.876 454 257.73 598 158.473C742 59.2146 885 252.35 885 431.029Z" fill="#FDFDFD"/>
<path d="M428.5 -15.363C486 186.372 276.5 411.178 175 191.201C73.5 -28.7763 -136 111.164 -136 -15.363C-136 -141.89 -40.4128 -244.461 77.5 -244.461C195.413 -244.461 371 -217.098 428.5 -15.363Z" fill="#FDFDFD"/>
<path d="M232.61 422.771C340.14 599.379 197.189 877.849 42.6676 696.854C-111.854 515.859 -276.806 712.814 -309.607 591.281C-342.409 469.748 -277.186 342.692 -163.927 307.494C-50.669 272.295 125.081 246.164 232.61 422.771Z" fill="#FDFDFD"/>
</g>
</g>
<defs>
<filter id="filter0_d" x="-12" y="0" width="744" height="259" filterUnits="userSpaceOnUse" color-interpolation-filters="sRGB">
<feFlood flood-opacity="0" result="BackgroundImageFix"/>
<feColorMatrix in="SourceAlpha" type="matrix" values="0 0 0 0 0 0 0 0 0 0 0 0 0 0 0 0 0 0 127 0" result="hardAlpha"/>
<feOffset/>
<feGaussianBlur stdDeviation="6"/>
<feColorMatrix type="matrix" values="0 0 0 0 0.9 0 0 0 0 0.9 0 0 0 0 0.9 0 0 0 1 0"/>
<feBlend mode="normal" in2="BackgroundImageFix" result="effect1_dropShadow"/>
<feBlend mode="normal" in="SourceGraphic" in2="effect1_dropShadow" result="shape"/>
</filter>
</defs>
</svg>
