<?xml version="1.0" encoding="utf-8"?>
<!-- Generator: Adobe Illustrator 24.2.1, SVG Export Plug-In . SVG Version: 6.00 Build 0)  -->
<svg version="1.1" id="Layer_1" xmlns="http://www.w3.org/2000/svg" xmlns:xlink="http://www.w3.org/1999/xlink" x="0px" y="0px"
	 viewBox="0 0 20 20" enable-background="new 0 0 20 20" xml:space="preserve">
<circle fill="#93EAC4" fill-opacity="0.5" cx="10" cy="10" r="10"/>
<path fill="#63C79A" stroke="#62C79A" d="M15.6,4.8c-0.2,0-0.4,0.1-0.5,0.3L9,14.4L5,11c-0.2-0.2-0.4-0.2-0.7-0.2
	c-0.2,0.1-0.4,0.3-0.4,0.5c0,0.2,0.1,0.5,0.3,0.6l4.5,3.9C8.8,16,9,16,9.2,16c0.2,0,0.3-0.1,0.4-0.3l6.5-9.9c0.1-0.2,0.1-0.5,0-0.7
	C16,4.9,15.8,4.8,15.6,4.8z"/>
</svg>
