<svg width="63" height="62" viewBox="0 0 63 62" fill="none" xmlns="http://www.w3.org/2000/svg">
<circle cx="31.5" cy="31" r="31" fill="#71C688" fill-opacity="0.5"/>
<circle cx="31.5" cy="31" r="22" fill="#71C688"/>
<path d="M31.5 17.6667C29.9529 17.6667 28.4692 18.2813 27.3752 19.3753C26.2812 20.4693 25.6667 21.953 25.6667 23.5001C25.6667 25.0472 26.2812 26.5309 27.3752 27.6249C28.4692 28.7188 29.9529 29.3334 31.5 29.3334C33.0471 29.3334 34.5308 28.7188 35.6248 27.6249C36.7188 26.5309 37.3333 25.0472 37.3333 23.5001C37.3333 21.953 36.7188 20.4693 35.6248 19.3753C34.5308 18.2813 33.0471 17.6667 31.5 17.6667ZM19 22.6667C17.8949 22.6667 16.8351 23.1057 16.0537 23.8871C15.2723 24.6685 14.8333 25.7283 14.8333 26.8334C14.8333 27.3806 14.9411 27.9224 15.1505 28.4279C15.3599 28.9335 15.6668 29.3928 16.0537 29.7797C16.8351 30.5611 17.8949 31.0001 19 31.0001C19.5472 31.0001 20.089 30.8923 20.5945 30.6829C21.1 30.4735 21.5594 30.1666 21.9463 29.7797C22.3332 29.3928 22.6401 28.9335 22.8495 28.4279C23.0589 27.9224 23.1667 27.3806 23.1667 26.8334C23.1667 26.2862 23.0589 25.7444 22.8495 25.2389C22.6401 24.7334 22.3332 24.274 21.9463 23.8871C21.5594 23.5002 21.1 23.1933 20.5945 22.9839C20.089 22.7745 19.5472 22.6667 19 22.6667ZM44 22.6667C42.8949 22.6667 41.8351 23.1057 41.0537 23.8871C40.2723 24.6685 39.8333 25.7283 39.8333 26.8334C39.8333 27.3806 39.9411 27.9224 40.1505 28.4279C40.3599 28.9335 40.6668 29.3928 41.0537 29.7797C41.8351 30.5611 42.8949 31.0001 44 31.0001C44.5472 31.0001 45.089 30.8923 45.5945 30.6829C46.1 30.4735 46.5594 30.1666 46.9463 29.7797C47.3332 29.3928 47.6401 28.9335 47.8495 28.4279C48.0589 27.9224 48.1667 27.3806 48.1667 26.8334C48.1667 25.7283 47.7277 24.6685 46.9463 23.8871C46.1649 23.1057 45.1051 22.6667 44 22.6667ZM31.5 32.6667C27.6067 32.6667 19.8333 34.6217 19.8333 38.5001V42.6667C19.8333 43.5867 20.58 54.3334 21.5 54.3334H41.5C42.42 54.3334 43.1667 43.5867 43.1667 42.6667V38.5001C43.1667 34.6217 35.3933 32.6667 31.5 32.6667ZM17.9974 34.4213C15.3624 34.828 11.5 36.6485 11.5 38.8419V42.6667C11.5 43.5867 12.2467 54.3334 13.1667 54.3334H16.5V38.5001C16.5 36.8984 17.0757 35.5546 17.9974 34.4213ZM45.0026 34.4213C45.9243 35.5546 46.5 36.8984 46.5 38.5001V54.3334H49.8333C50.7533 54.3334 51.5 43.5867 51.5 42.6667V38.8419C51.5 36.6485 47.6376 34.828 45.0026 34.4213Z" fill="#B8E2C3"/>
</svg>
