<svg width="31" height="31" viewBox="0 0 62 62" fill="none" xmlns="http://www.w3.org/2000/svg">
<circle cx="31" cy="31" r="31" fill="#CABBF6"/>
<circle cx="31" cy="31" r="22" fill="#9677ED"/>
<path d="M24 15.25C19.1683 15.25 15.25 19.1683 15.25 24V38C15.25 42.8317 19.1683 46.75 24 46.75H38C42.8317 46.75 46.75 42.8317 46.75 38V24C46.75 19.1683 42.8317 15.25 38 15.25H24ZM41.5 18.75C42.466 18.75 43.25 19.534 43.25 20.5C43.25 21.466 42.466 22.25 41.5 22.25C40.534 22.25 39.75 21.466 39.75 20.5C39.75 19.534 40.534 18.75 41.5 18.75ZM31 22.25C35.8317 22.25 39.75 26.1683 39.75 31C39.75 35.8317 35.8317 39.75 31 39.75C26.1683 39.75 22.25 35.8317 22.25 31C22.25 26.1683 26.1683 22.25 31 22.25ZM31 25.75C29.6076 25.75 28.2723 26.3031 27.2877 27.2877C26.3031 28.2723 25.75 29.6076 25.75 31C25.75 32.3924 26.3031 33.7277 27.2877 34.7123C28.2723 35.6969 29.6076 36.25 31 36.25C32.3924 36.25 33.7277 35.6969 34.7123 34.7123C35.6969 33.7277 36.25 32.3924 36.25 31C36.25 29.6076 35.6969 28.2723 34.7123 27.2877C33.7277 26.3031 32.3924 25.75 31 25.75Z" fill="#CABBF6"/>
</svg>
