<svg width="62" height="62" viewBox="0 0 62 62" fill="none" xmlns="http://www.w3.org/2000/svg">
<circle cx="31" cy="31" r="22" fill="#80AEF2"/>
<circle cx="31" cy="31" r="31" fill="#80AEF2" fill-opacity="0.5"/>
<mask id="mask0" mask-type="alpha" maskUnits="userSpaceOnUse" x="9" y="9" width="44" height="44">
<circle cx="31" cy="31" r="22" fill="#80AEF2"/>
</mask>
<g mask="url(#mask0)">
<path d="M19.75 16.875V32.5417H23.6667V28.625H25.625V24.7083H23.6667V20.7917H27.5833V24.7083H31.5V20.7917H35.4167V24.7083H39.3333V16.875H19.75ZM29.5417 28.625V54.125H33.4583V48.2083H37.375V52.125H41.2917V48.2083H45.2083V52.125H49.125V28.625H29.5417ZM33.4583 32.5417H37.375V36.4583H33.4583V32.5417ZM41.2917 32.5417H45.2083V36.4583H41.2917V32.5417ZM13.875 36.4583V52.125H17.7917V48.2083H21.7083V53.125H25.625V36.4583H13.875ZM17.7917 40.375H21.7083V44.2917H17.7917V40.375ZM33.4583 40.375H37.375V44.2917H33.4583V40.375ZM41.2917 40.375H45.2083V44.2917H41.2917V40.375Z" fill="#BFD6F8"/>
</g>
</svg>
