<svg width="62" height="62" viewBox="0 0 62 62" fill="none" xmlns="http://www.w3.org/2000/svg">
<circle cx="31" cy="31" r="31" fill="#F4AD48" fill-opacity="0.5"/>
<circle cx="31" cy="31" r="22" fill="#F4AD48"/>
<path d="M31 13.5C21.3348 13.5 13.5 21.3348 13.5 31C13.5 40.6652 21.3348 48.5 31 48.5C40.6652 48.5 48.5 40.6652 48.5 31C48.5 21.3348 40.6652 13.5 31 13.5ZM35.5255 38L29.7628 32.2372C29.4338 31.9082 29.25 31.4638 29.25 31V22.25C29.25 21.284 30.034 20.5 31 20.5C31.966 20.5 32.75 21.284 32.75 22.25V30.2755L38 35.5255C38.6825 36.208 38.6825 37.3175 38 38C37.3175 38.6825 36.208 38.6825 35.5255 38Z" fill="#F9D6A3"/>
</svg>
