<svg width="42" height="42" viewBox="0 0 42 42" fill="none" xmlns="http://www.w3.org/2000/svg">
<path d="M21 3.5C11.3505 3.5 3.5 11.3505 3.5 21C3.5 30.6495 11.3505 38.5 21 38.5C30.6495 38.5 38.5 30.6495 38.5 21C38.5 11.3505 30.6495 3.5 21 3.5ZM33.1065 14H29.0728C28.6405 11.9017 28.014 10.0363 27.2318 8.4805C29.687 9.709 31.731 11.634 33.1065 14ZM35 21C35 22.211 34.8302 23.3783 34.5397 24.5H29.5872C29.6922 23.3748 29.75 22.2057 29.75 21C29.75 19.7943 29.6922 18.6252 29.5872 17.5H34.5397C34.8302 18.6217 35 19.789 35 21ZM21 35C19.5247 35 17.5892 32.4083 16.5287 28H25.4695C24.4107 32.4083 22.4753 35 21 35ZM15.939 24.5C15.8217 23.3993 15.75 22.2372 15.75 21C15.75 19.7628 15.8217 18.6007 15.939 17.5H26.061C26.1783 18.6007 26.25 19.7628 26.25 21C26.25 22.2372 26.1783 23.3993 26.061 24.5H15.939ZM7 21C7 19.789 7.16975 18.6217 7.46025 17.5H12.4128C12.3077 18.6252 12.25 19.7943 12.25 21C12.25 22.2057 12.3077 23.3748 12.4128 24.5H7.46025C7.16975 23.3783 7 22.211 7 21ZM21 7C22.4753 7 24.4108 9.59175 25.4713 14H16.5287C17.5892 9.59175 19.5247 7 21 7ZM14.77 8.4805C13.9877 10.0363 13.3612 11.9017 12.929 14H8.8935C10.269 11.634 12.313 9.709 14.77 8.4805ZM8.8935 28H12.9272C13.3595 30.0982 13.986 31.9637 14.7683 33.5195C12.313 32.291 10.269 30.366 8.8935 28ZM27.23 33.5195C28.0123 31.9637 28.637 30.0982 29.071 28H33.1047C31.731 30.366 29.687 32.291 27.23 33.5195Z" fill="#BFD6F8"/>
</svg>
