<svg width="64" height="64" viewBox="0 0 64 64" fill="none" xmlns="http://www.w3.org/2000/svg">
<path d="M32.0001 16.0507L36.3147 24.7947L37.5547 27.3093L40.3307 27.712L49.9787 29.1147L42.9974 35.92L40.9894 37.8773L41.4641 40.64L43.1121 50.2507L34.4827 45.7147L32.0001 44.408L29.5174 45.712L20.8881 50.248L22.5361 40.6373L23.0107 37.8747L21.0027 35.92L14.0214 29.1147L23.6694 27.712L26.4454 27.3093L27.6854 24.7947L32.0001 16.0507ZM32.0001 4L22.9014 22.4347L2.56006 25.3893L17.2801 39.7387L13.8054 60L32.0001 50.4347L50.1947 60L46.7201 39.7387L61.4401 25.3893L41.0961 22.432L32.0001 4Z" fill="#ADADAD"/>
</svg>
