<svg width="64" height="64" viewBox="0 0 64 64" fill="none" xmlns="http://www.w3.org/2000/svg">
<g clip-path="url(#clip0)">
<path d="M21.3333 10.6667C9.57067 10.6667 0 20.2374 0 32.0001C0 43.7627 9.57067 53.3334 21.3333 53.3334C33.096 53.3334 42.6667 43.7627 42.6667 32.0001C42.6667 20.2374 33.096 10.6667 21.3333 10.6667ZM32 10.6667C31.096 10.6667 30.208 10.7397 29.3333 10.849C39.8533 12.1637 48 21.1227 48 32.0001C48 42.8774 39.8533 51.8365 29.3333 53.1511C30.208 53.2605 31.096 53.3334 32 53.3334C43.7813 53.3334 53.3333 43.7814 53.3333 32.0001C53.3333 20.2187 43.7813 10.6667 32 10.6667ZM42.6667 10.6667C41.7627 10.6667 40.8747 10.7397 40 10.849C50.52 12.1637 58.6667 21.1227 58.6667 32.0001C58.6667 42.8774 50.52 51.8365 40 53.1511C40.8747 53.2605 41.7627 53.3334 42.6667 53.3334C54.448 53.3334 64 43.7814 64 32.0001C64 20.2187 54.448 10.6667 42.6667 10.6667ZM20.5677 16.0365V18.7397C19.6637 18.8543 14.6042 19.8101 14.6042 25.9167C14.6042 34.8261 23.8281 32.1863 23.8281 38.1303C23.8281 41.1063 21.9024 41.1772 21.5104 41.1772C21.1531 41.1772 18.8073 41.3672 18.8073 36.8126H13.7656C13.7656 44.5246 19.3607 45.1406 20.1927 45.2553V47.9428C11.9008 47.3545 5.33333 40.4394 5.33333 32.0001C5.33333 23.4342 12.1 16.4395 20.5677 16.0365ZM23.2552 16.1303C31.1745 17.0837 37.3333 23.8275 37.3333 32.0001C37.3333 40.3077 30.9728 47.1491 22.8646 47.922V45.2553C23.7659 45.1433 28.8646 44.3018 28.8646 38.0938C28.8646 29.5472 19.6433 31.1829 19.6406 25.9376C19.6406 22.9322 21.2937 22.8386 21.651 22.8386C22.3044 22.8386 23.8594 23.4169 23.8594 27.0782H28.901C28.901 20.0729 24.1112 18.9805 23.2552 18.8178V16.1303Z" fill="#ADADAD"/>
</g>
<defs>
<clipPath id="clip0">
<rect width="64" height="64" fill="white"/>
</clipPath>
</defs>
</svg>
