<svg width="64" height="64" viewBox="0 0 64 64" fill="none" xmlns="http://www.w3.org/2000/svg">
<path d="M32 6.25513L6.65438 17.8013C5.31475 18.4116 4.72313 19.992 5.33272 21.332C5.94275 22.6729 7.52462 23.265 8.86522 22.6543L32 12.1145L55.1347 22.6543C56.4753 23.265 58.0572 22.6729 58.6672 21.332C59.2768 19.992 58.6852 18.4116 57.3455 17.8013L32 6.25513ZM32 18.3853L30.8645 18.9218L7.01715 30.1438C5.44664 30.8829 5.44666 33.1169 7.01717 33.8559L13.3333 36.828V49.6458L32 58.9791L50.6666 49.6458V36.828L56.9831 33.8558C58.5535 33.1168 58.5536 30.8829 56.9832 30.1437L32 18.3853ZM32 24.2812L48.4062 31.9999L32 39.7187L15.5937 31.9999L32 24.2812ZM18.6666 39.3385L32 45.6145L45.3333 39.3385V46.3541L32 53.0208L18.6666 46.3541V39.3385Z" fill="#ADADAD"/>
</svg>
