<svg width="688" height="688" viewBox="0 0 688 688" fill="none" xmlns="http://www.w3.org/2000/svg">
<path opacity="0.5" fill-rule="evenodd" clip-rule="evenodd" d="M61.3466 579.32L636.335 580.639C670.68 519.219 663.512 489.155 655.501 455.551C648.974 428.176 641.888 398.453 656.229 347.516C657.448 343.195 658.52 338.916 659.453 334.687C661.034 327.511 662.216 320.476 663.008 313.582C663.43 309.963 663.741 306.384 663.95 302.845C669.254 213.339 608.946 149.239 531.428 117.846C526.146 115.705 520.783 113.719 515.359 111.889C474.169 97.9761 429.257 92.9431 387.327 97.8098C385.615 98.0038 383.905 98.2194 382.205 98.4504C372.755 99.7379 363.475 101.537 354.438 103.856C352.568 104.333 350.702 104.839 348.85 105.362C309.117 116.648 259.433 155.913 254.273 186.587C249.113 217.26 220.447 241.627 171.713 252.807C122.98 263.987 97.1799 239.047 52.46 276.887C7.74006 314.727 3.44015 367.76 26.087 444.3C48.7338 520.84 61.3466 579.32 61.3466 579.32Z" fill="#DCEAFF"/>
<mask id="mask0" mask-type="alpha" maskUnits="userSpaceOnUse" x="12" y="96" width="653" height="485">
<path opacity="0.5" fill-rule="evenodd" clip-rule="evenodd" d="M61.3466 579.32L636.335 580.639C670.68 519.219 663.512 489.155 655.501 455.551C648.974 428.176 641.888 398.453 656.229 347.516C657.448 343.195 658.52 338.916 659.453 334.687C661.034 327.511 662.216 320.476 663.008 313.582C663.43 309.963 663.741 306.384 663.95 302.845C669.254 213.339 608.946 149.239 531.428 117.846C526.146 115.705 520.783 113.719 515.359 111.889C474.169 97.9761 429.257 92.9431 387.327 97.8098C385.615 98.0038 383.905 98.2194 382.205 98.4504C372.755 99.7379 363.475 101.537 354.438 103.856C352.568 104.333 350.702 104.839 348.85 105.362C309.117 116.648 259.433 155.913 254.273 186.587C249.113 217.26 220.447 241.627 171.713 252.807C122.98 263.987 97.1799 239.047 52.46 276.887C7.74006 314.727 3.44015 367.76 26.087 444.3C48.7338 520.84 61.3466 579.32 61.3466 579.32Z" fill="#DCEAFF"/>
</mask>
<g mask="url(#mask0)">
<path d="M638.086 577.556V577.559L62.0784 577.624L67.4902 390.056V339.095H90.9639V299.294H137.794V333.077H152.095V270.596H155.206V266.229H155.764V270.596H167.058V266.229H167.619V270.596H183.608V266.229H184.169V270.596H194.234V266.229H194.789V270.596H198.922V328.922H214.73V319.487L233.371 319.57V304.284H237.119V301.262H237.618V304.284H252.015V304.29H254.895V301.259H255.39V304.29H258.862V334.685H281.054V345.872H293.393V339.376H304.836V313.586H310.543V301.555H311.406V313.586H325.078V291.036H326.421V313.586H335.468V313.272H335.452V310.41H335.468V307.703H335.452V303.193H335.468V300.317H335.452V295.81H335.468V292.933H335.452V288.424H335.468V285.313H335.452V280.81H335.468V276.849H335.452V272.346H335.468V269.358H338.163V265.985H338.594V269.358H358.566V265.985H358.994V269.358H362.641V292.933L365.203 292.949V292.933H365.182V288.424H365.203V285.313H365.182V280.81H365.203V277.711H365.182V273.202H365.203V273.19H389.419V273.202H393.581C393.793 273.322 394.012 273.442 394.23 273.562V303.628H398.687V299.294H449.802V333.077H465.412V270.596H468.803V266.229H469.416V270.596H481.74V266.229H482.35V270.596H499.805V266.229H500.415V270.596H511.402V266.229H512.008V270.596H516.524V328.922H533.776V319.487L554.12 319.57V304.287H558.217V301.262H558.762V304.287H574.467V304.29H577.612V301.259H578.151V304.29H581.94V334.688H606.159V345.872H619.628V339.376H632.115V313.583H638.343V301.555H639.286V313.583H654.212V291.036H655.675V313.583H663.015C662.223 320.476 661.041 327.511 659.461 334.688C658.527 338.917 657.455 343.195 656.236 347.516C624.285 460.979 700.409 466.102 638.086 577.556Z" fill="#DFEBFA"/>
<path d="M62.0784 577.624L67.4902 390.056V339.095H44.7199V312.433H11.1799L13.7599 577.624H62.0784Z" fill="#DFEBFA"/>
</g>
<path d="M531.431 117.849V577.552H515.362V111.892C520.789 113.722 526.151 115.708 531.431 117.849Z" fill="#AFCDFB"/>
<path d="M387.334 97.812V154.425C387.334 158.839 386.256 162.439 384.944 162.439H384.602C383.287 162.439 382.215 158.839 382.215 154.425V98.4527C383.912 98.2217 385.621 98.0061 387.334 97.812Z" fill="#9FC1F4"/>
<path d="M383.437 148.819C364.778 148.819 349.655 164.811 349.655 184.542H417.22C417.22 164.811 402.094 148.819 383.437 148.819Z" fill="#FF9843"/>
<path d="M386.129 149.254C385.159 149.041 384.167 148.93 383.163 148.93C371.006 148.93 361.153 164.873 361.153 184.54H367.088C367.085 166.502 375.377 151.598 386.129 149.254Z" fill="#FFC48A"/>
<path d="M605.924 524.863C605.924 524.863 596.933 514.376 605.369 507.713C605.369 507.713 611.532 503.983 616.556 504.285C616.556 504.285 609.435 516.224 611.739 517.413C614.043 518.602 618.712 503.537 618.712 503.537C618.712 503.537 632.736 502.175 637.245 504.347C637.245 504.347 625.258 514.157 627.783 514.742C630.309 515.327 643.258 505.696 643.258 505.696C643.258 505.696 656.308 507.917 655.612 515.879C654.916 523.841 650.419 526.299 648.442 526.086C646.464 525.874 634.901 521.46 634.652 523.08C634.399 524.7 641.361 529.992 646.233 530.238C646.233 530.238 637.033 540.387 630.916 537.458C624.802 534.529 624.278 529.887 620.468 528.147C616.655 526.407 613.402 526.41 614.976 528.187C616.55 529.964 623.449 531.689 625.63 535.545C627.811 539.402 629.767 542.001 623.44 541.05C617.114 540.098 606.829 535.468 606.376 530.167C605.924 524.863 605.924 524.863 605.924 524.863Z" fill="#77A4E5"/>
<path d="M649.199 516.094C649.199 516.094 613.75 514.727 605.923 524.867C605.923 524.867 604.192 530.05 598.863 534.772L598.032 537.036C598.032 537.036 604.173 530.559 606.373 530.167C606.373 530.167 602.935 517.607 649.199 516.094Z" fill="#77A4E5"/>
<path d="M598.863 534.772C598.863 534.772 591.256 540.399 590.726 550.453L592.106 550.576C592.106 550.576 594.536 540.181 598.928 536.115C603.323 532.049 598.863 534.772 598.863 534.772Z" fill="#77A4E5"/>
<path d="M574.488 511.676C574.488 511.676 588.789 503.667 582.115 492.797C582.115 492.797 576.777 486.123 571.054 484.407C571.054 484.407 574.106 500.615 571.054 500.997C568.001 501.379 568.956 482.691 568.956 482.691C568.956 482.691 553.891 475.444 547.981 476.017C547.981 476.017 557.326 491.843 554.273 491.464C551.221 491.085 540.733 475.065 540.733 475.065C540.733 475.065 525.286 472.204 522.81 481.358C520.33 490.512 524.334 495.086 526.623 495.659C528.911 496.232 543.595 496.041 543.213 497.947C542.831 499.854 532.916 502.906 527.387 501.191C527.387 501.191 533.489 516.256 541.497 515.492C549.505 514.728 551.985 509.772 556.944 509.39C561.903 509.008 565.525 510.345 563.046 511.679C560.566 513.012 552.176 512.116 548.172 515.52C544.167 518.923 540.924 521.021 548.363 522.548C555.801 524.073 569.147 523.121 571.818 517.398C574.488 511.676 574.488 511.676 574.488 511.676Z" fill="#77A4E5"/>
<path d="M529.869 484.216C529.869 484.216 569.914 497.184 574.491 511.676C574.491 511.676 574.3 518.159 578.304 525.595V528.456C578.304 528.456 574.109 518.732 571.82 517.395C571.82 517.395 580.78 504.81 529.869 484.216Z" fill="#77A4E5"/>
<path d="M578.305 525.596C578.305 525.596 584.481 534.975 580.96 546.39L579.371 545.962C579.371 545.962 580.914 533.389 577.683 527.065C574.448 520.742 578.305 525.596 578.305 525.596Z" fill="#77A4E5"/>
<path d="M597.241 500.629C597.241 500.629 578.388 490.071 587.188 475.745C587.188 475.745 594.226 466.948 601.766 464.684C601.766 464.684 597.743 486.051 601.766 486.553C605.789 487.055 604.532 462.423 604.532 462.423C604.532 462.423 624.39 452.872 632.182 453.626C632.182 453.626 619.865 474.488 623.888 473.986C627.91 473.484 641.734 452.37 641.734 452.37C641.734 452.37 662.094 448.6 665.362 460.664C668.63 472.729 663.35 478.763 660.335 479.518C657.319 480.273 637.964 480.02 638.466 482.533C638.968 485.047 652.04 489.07 659.328 486.806C659.328 486.806 651.285 506.663 640.727 505.659C630.168 504.655 626.903 498.119 620.367 497.617C613.831 497.115 609.057 498.874 612.325 500.632C615.593 502.391 626.654 501.208 631.93 505.696C637.206 510.184 641.481 512.95 631.677 514.961C621.873 516.972 604.279 515.716 600.759 508.176C597.238 500.635 597.241 500.629 597.241 500.629Z" fill="#9FC1F4"/>
<path d="M656.063 464.432C656.063 464.432 603.275 481.524 597.245 500.63C597.245 500.63 597.497 509.177 592.218 518.978V522.748C592.218 522.748 597.747 509.929 600.765 508.17C600.762 508.17 588.947 491.58 656.063 464.432Z" fill="#9FC1F4"/>
<path d="M592.214 518.979C592.214 518.979 584.074 531.339 588.715 546.389L590.81 545.825C590.81 545.825 588.777 529.251 593.037 520.916C597.297 512.581 592.214 518.979 592.214 518.979Z" fill="#9FC1F4"/>
<path d="M596.931 578.928C617.324 578.928 633.858 562.394 633.858 542H560C560.003 562.394 576.537 578.928 596.931 578.928Z" fill="#9FC1F4"/>
<path d="M605.693 578.735C604.19 578.923 602.659 579.018 601.104 579.018C580.71 579.018 564.176 562.484 564.176 542.091H573.352C573.355 560.932 587.465 576.477 605.693 578.735Z" fill="#AFCDFB"/>
<path d="M634.376 542.091H558.466V543.224H634.376V542.091Z" fill="#9FC1F4"/>
<path d="M424.689 577.204L388.402 426.592L390.937 420.663L426.885 577.186C426.977 577.586 426.673 577.968 426.26 577.968H425.659C425.2 577.971 424.797 577.654 424.689 577.204Z" fill="#77A4E5"/>
<path d="M260.922 577.971C260.177 577.971 259.61 577.302 259.73 576.566L270.418 511.785H274.998L262.253 576.877C262.127 577.512 261.572 577.971 260.922 577.971Z" fill="#77A4E5"/>
<path d="M363.447 577.971C362.702 577.971 362.135 577.302 362.255 576.566L372.943 511.785H377.523L364.778 576.877C364.655 577.512 364.097 577.971 363.447 577.971Z" fill="#77A4E5"/>
<path d="M388.307 511.921H260.666L287.109 346.133H414.753L388.307 511.921Z" fill="#F5FBFF"/>
<path d="M397.858 510.655H251.262V515.531H397.858V510.655Z" fill="#77A4E5"/>
<path d="M337.659 380.821C337.564 382.133 337.37 383.424 337.086 384.681C334.425 396.53 323.876 405.607 311.953 405.629C298.76 405.65 288.886 394.583 289.893 380.904C290.9 367.226 302.407 356.122 315.599 356.1C318.365 356.094 320.984 356.578 323.389 357.474C324.47 357.874 325.511 358.358 326.5 358.915C328.635 360.126 330.535 361.688 332.14 363.536C333.033 364.561 333.834 365.679 334.53 366.868C334.936 367.558 335.306 368.273 335.639 369.009C336.566 371.06 337.207 373.287 337.515 375.637C337.672 376.814 337.739 378.028 337.724 379.263C337.718 379.777 337.696 380.295 337.659 380.821Z" fill="#BDD1F9"/>
<path d="M335.639 369.01L313.78 380.862C313.78 380.862 322.798 364.978 326.501 358.913C328.635 360.124 330.536 361.685 332.14 363.533C333.034 364.559 333.834 365.677 334.531 366.866C334.937 367.556 335.307 368.27 335.639 369.01Z" fill="white"/>
<path d="M337.909 366.01L317.941 376.836C317.941 376.836 326.18 362.326 329.562 356.788C331.512 357.893 333.249 359.319 334.712 361.007C335.528 361.947 336.258 362.966 336.896 364.054C337.269 364.685 337.604 365.335 337.909 366.01Z" fill="#F99746"/>
<path d="M378.142 499.316L273.082 499.31L283.717 438.693L388.777 438.7L378.142 499.316ZM273.932 498.7L377.51 498.707L387.933 439.309L284.355 439.303L273.932 498.7Z" fill="#BDD1F9"/>
<path d="M371.877 491.006L278.7 491C278.7 491 295.228 482.135 299.762 482.6C304.296 483.065 310.814 486.654 315.003 486.792C319.192 486.931 323.732 474.352 328.395 474.946C333.058 475.538 334.814 486.666 337.229 485.579C339.644 484.492 346.897 484.02 351.074 485.579C355.251 487.137 361.337 480.626 365.009 480.829C368.683 481.033 371.877 491.006 371.877 491.006Z" fill="#F99746"/>
<path d="M301.108 473.188H283.311L283.477 472.245H301.271L301.108 473.188Z" fill="#F99746"/>
<path d="M300.754 475.206H282.957L283.124 474.26L300.921 474.263L300.754 475.206Z" fill="#F99746"/>
<path d="M284.035 460.614L377.212 460.62C377.212 460.62 363.795 451.756 359.097 452.218C354.4 452.683 346.626 456.268 342.388 456.407C338.149 456.545 338.026 443.966 333.154 444.557C328.281 445.149 322.623 456.277 320.587 455.19C318.554 454.103 311.466 453.631 306.741 455.19C302.02 456.749 298.216 450.237 294.473 450.44C290.728 450.644 284.035 460.614 284.035 460.614Z" fill="#BDD1F9"/>
<path d="M306.134 444.535H288.337L288.504 443.59L306.301 443.593L306.134 444.535Z" fill="#BDD1F9"/>
<path d="M305.781 446.553L287.984 446.55L288.15 445.607H305.947L305.781 446.553Z" fill="#BDD1F9"/>
<path d="M290.075 430.239H285.988L289.539 411.087H293.627L290.075 430.239Z" fill="#BDD1F9"/>
<path d="M295.64 430.239H291.553L294.304 415.405H298.391L295.64 430.239Z" fill="#BDD1F9"/>
<path d="M301.209 430.24H297.122L299.989 414.769H304.077L301.209 430.24Z" fill="#BDD1F9"/>
<path d="M306.775 430.239H302.688L304.872 418.47H308.959L306.775 430.239Z" fill="#BDD1F9"/>
<path d="M312.344 430.24H308.257L310.598 417.614H314.685L312.344 430.24Z" fill="#BDD1F9"/>
<path d="M317.91 430.239H313.823L315.64 420.447H319.725L317.91 430.239Z" fill="#BDD1F9"/>
<path d="M344.744 430.239H340.657L344.208 411.086H348.296L344.744 430.239Z" fill="#F99746"/>
<path d="M350.31 430.239H346.226L348.976 415.405H353.061L350.31 430.239Z" fill="#F99746"/>
<path d="M355.879 430.239H351.792L354.659 414.768H358.747L355.879 430.239Z" fill="#F99746"/>
<path d="M361.444 430.239H357.357L359.541 418.47H363.628L361.444 430.239Z" fill="#F99746"/>
<path d="M367.013 430.24H362.925L365.266 417.614H369.354L367.013 430.24Z" fill="#F99746"/>
<path d="M372.579 430.239H368.492L370.309 420.447H374.396L372.579 430.239Z" fill="#F99746"/>
<path d="M364.42 367.724H351.116L351.458 365.9H364.761L364.42 367.724Z" fill="#BDD1F9"/>
<path d="M380.741 367.724H366.049L366.394 365.9H381.083L380.741 367.724Z" fill="#BDD1F9"/>
<path d="M391.211 367.724H381.844L382.186 365.9H391.553L391.211 367.724Z" fill="#BDD1F9"/>
<path d="M399.951 367.724H392.725L393.067 365.9H400.293L399.951 367.724Z" fill="#BDD1F9"/>
<path d="M362.96 375.499H349.657L349.999 373.679H363.302L362.96 375.499Z" fill="#BDD1F9"/>
<path d="M379.279 375.499H364.59L364.932 373.679H379.624L379.279 375.499Z" fill="#BDD1F9"/>
<path d="M389.751 375.499H380.385L380.726 373.679H390.093L389.751 375.499Z" fill="#BDD1F9"/>
<path d="M398.493 375.499H391.267L391.608 373.679H398.835L398.493 375.499Z" fill="#BDD1F9"/>
<path d="M372.327 363.472H351.915L352.257 361.651H372.669L372.327 363.472Z" fill="#BDD1F9"/>
<path d="M386.036 363.471H374.27L374.612 361.651H386.378L386.036 363.471Z" fill="#BDD1F9"/>
<path d="M400.762 363.471H387.696L388.038 361.651H401.104L400.762 363.471Z" fill="#BDD1F9"/>
<path d="M370.774 371.742H350.362L350.704 369.919H371.116L370.774 371.742Z" fill="#BDD1F9"/>
<path d="M384.484 371.741H372.718L373.06 369.917H384.826L384.484 371.741Z" fill="#BDD1F9"/>
<path d="M399.21 371.741H386.144L386.486 369.917H399.552L399.21 371.741Z" fill="#BDD1F9"/>
<path d="M361.5 383.277H348.197L348.539 381.454H361.842L361.5 383.277Z" fill="#BDD1F9"/>
<path d="M377.818 383.276H363.129L363.471 381.453H378.16L377.818 383.276Z" fill="#BDD1F9"/>
<path d="M388.291 383.276H378.924L379.266 381.453H388.633L388.291 383.276Z" fill="#BDD1F9"/>
<path d="M397.033 383.276H389.807L390.149 381.453H397.374L397.033 383.276Z" fill="#BDD1F9"/>
<path d="M369.314 379.517H348.902L349.244 377.693H369.656L369.314 379.517Z" fill="#BDD1F9"/>
<path d="M383.024 379.515H371.258L371.6 377.691H383.366L383.024 379.515Z" fill="#BDD1F9"/>
<path d="M397.747 379.515H384.682L385.026 377.691H398.092L397.747 379.515Z" fill="#BDD1F9"/>
<path d="M360.132 390.564H346.826L347.168 388.744H360.474L360.132 390.564Z" fill="#BDD1F9"/>
<path d="M376.451 390.564H361.762L362.103 388.744H376.793L376.451 390.564Z" fill="#BDD1F9"/>
<path d="M386.92 390.564H377.557L377.899 388.744H387.262L386.92 390.564Z" fill="#BDD1F9"/>
<path d="M395.665 390.564H388.439L388.781 388.744H396.007L395.665 390.564Z" fill="#BDD1F9"/>
<path d="M367.944 386.807H347.535L347.877 384.983H368.286L367.944 386.807Z" fill="#BDD1F9"/>
<path d="M381.653 386.806H369.887L370.232 384.982H381.995L381.653 386.806Z" fill="#BDD1F9"/>
<path d="M396.38 386.806H383.314L383.656 384.982H396.722L396.38 386.806Z" fill="#BDD1F9"/>
<path d="M329.855 413.935H323.343L323.513 413.045H330.024L329.855 413.935Z" fill="#BDD1F9"/>
<path d="M337.845 413.935H330.656L330.822 413.045H338.011L337.845 413.935Z" fill="#BDD1F9"/>
<path d="M329.14 417.742H322.629L322.798 416.849H329.31L329.14 417.742Z" fill="#BDD1F9"/>
<path d="M337.13 417.742H329.941L330.108 416.849H337.297L337.13 417.742Z" fill="#BDD1F9"/>
<path d="M333.727 411.853H323.735L323.904 410.963H333.893L333.727 411.853Z" fill="#BDD1F9"/>
<path d="M340.435 411.853H334.678L334.845 410.963H340.604L340.435 411.853Z" fill="#BDD1F9"/>
<path d="M332.966 415.9H322.977L323.144 415.01H333.132L332.966 415.9Z" fill="#BDD1F9"/>
<path d="M339.678 415.9H333.918L334.084 415.01H339.844L339.678 415.9Z" fill="#BDD1F9"/>
<path d="M382.017 413.935H375.506L375.675 413.045H382.187L382.017 413.935Z" fill="#BDD1F9"/>
<path d="M390.007 413.935H382.815L382.985 413.045H390.174L390.007 413.935Z" fill="#BDD1F9"/>
<path d="M381.303 417.742H374.792L374.961 416.849H381.472L381.303 417.742Z" fill="#BDD1F9"/>
<path d="M389.293 417.742H382.101L382.27 416.849H389.459L389.293 417.742Z" fill="#BDD1F9"/>
<path d="M385.89 411.853H375.898L376.067 410.963H386.056L385.89 411.853Z" fill="#BDD1F9"/>
<path d="M392.598 411.853H386.841L387.007 410.963H392.767L392.598 411.853Z" fill="#BDD1F9"/>
<path d="M385.128 415.9H375.136L375.305 415.01H385.294L385.128 415.9Z" fill="#BDD1F9"/>
<path d="M391.84 415.9H386.08L386.247 415.01H392.006L391.84 415.9Z" fill="#BDD1F9"/>
<path d="M416.665 575.513C416.437 578.631 412.039 578.664 407.052 578.085C402.062 577.506 403.39 578.769 396.404 578.868C389.419 578.966 387.01 576.656 386.671 575.658C386.369 574.771 389.736 574.026 393.333 573.151C393.786 573.043 394.242 572.929 394.695 572.812C398.754 571.78 401.44 568.743 404.915 566.091C408.204 563.578 412.446 554.485 412.446 554.485L421.988 554.054C421.988 554.054 417.968 562.204 416.459 565.719C415.572 567.785 415.948 570.327 416.336 572.273C416.539 573.333 416.745 574.417 416.665 575.513Z" fill="#FFB27D"/>
<path d="M407.046 578.085C402.056 577.506 403.383 578.769 396.398 578.868C389.412 578.966 387.003 576.656 386.664 575.658C386.363 574.771 389.729 574.026 393.327 573.151L393.37 573.215C393.37 573.215 397.867 575.63 403.621 575.051C408.309 574.58 413.095 572.624 416.329 572.273C416.536 573.333 416.742 574.417 416.659 575.513C416.431 578.63 412.035 578.661 407.046 578.085Z" fill="#233862"/>
<path d="M482.571 576.161C482.346 579.278 477.948 579.315 472.958 578.742C467.968 578.169 469.296 579.429 462.31 579.534C455.324 579.639 452.912 577.332 452.574 576.334C452.272 575.447 455.635 574.698 459.233 573.82C459.686 573.712 460.138 573.595 460.594 573.481C464.651 572.447 467.337 569.406 470.805 566.748C474.091 564.232 470.808 549.34 470.808 549.34L481.305 548.317C481.305 548.317 480.803 560.856 480.809 566.56C480.812 568.809 481.847 570.974 482.235 572.921C482.445 573.977 482.651 575.062 482.571 576.161Z" fill="#FFB27D"/>
<path d="M472.958 578.74C467.968 578.167 469.296 579.427 462.31 579.532C455.324 579.636 452.912 577.329 452.574 576.331C452.272 575.444 455.635 574.696 459.233 573.818L459.276 573.883C459.276 573.883 463.776 576.291 469.53 575.709C474.218 575.235 479.001 573.273 482.235 572.918C482.442 573.978 482.651 575.062 482.568 576.159C482.346 579.276 477.948 579.316 472.958 578.74Z" fill="#233862"/>
<path d="M451.938 318.736C450.13 311.303 452.752 307.841 455.114 305.999C456.235 303.264 457.513 301.293 458.823 300.547C461.21 299.192 464.068 299.044 466.067 299.161C465.553 298.628 464.539 298.438 464.539 298.438C465.781 298.253 468.547 299.482 468.547 299.482C485.795 292.835 488.506 318.23 488.142 324.132C487.782 330.03 487.831 336.979 496.804 341.627C513.926 350.498 491.115 383.92 491.115 383.92C491.549 379.152 469.551 353.991 458.074 346.457C455.28 342.345 454.289 335.076 454.212 334.506C454.695 340.269 455.681 343.5 456.562 345.32C451.329 340.506 450.552 328.946 451.938 318.736Z" fill="#A9453D"/>
<path d="M458.752 346.836C458.693 346.86 464.293 349.768 468.507 348.616C472.468 347.535 475.058 342.4 475.002 342.388C473.324 342.055 472.84 339.748 472.877 329.843L472.12 329.991L459.368 332.516C459.368 332.516 459.657 336.53 459.667 340.309C459.67 343.485 459.479 346.497 458.752 346.836Z" fill="#FFB27D"/>
<path d="M459.362 332.516C459.362 332.516 459.651 336.529 459.66 340.309C466.797 340.108 470.567 333.597 472.113 329.99L459.362 332.516Z" fill="#ED975D"/>
<path d="M407.477 559.534C406.852 561.492 408.256 563.513 410.314 563.609L415.294 563.843L420.564 564.003C421.883 564.043 423.142 563.467 423.977 562.444C428.185 557.282 441.136 540.079 448.991 515.084C449.213 514.382 449.444 513.673 449.693 512.956C454.88 497.826 465.636 478.837 471.306 461.65C472.209 458.912 473.019 456.337 473.746 453.897C473.977 453.115 474.205 452.348 474.42 451.593C478.597 437.08 479.808 427.55 480.923 417.37L439.994 417.697C439.994 417.697 431.376 484.671 407.477 559.534Z" fill="#2A4E96"/>
<path d="M445.723 394.181C445.825 413.656 442.865 422.013 442.865 422.013C442.865 422.013 460.388 430.917 481.216 424.363C481.462 424.286 496.118 420.137 496.118 420.137C495.769 419.348 492.874 406.316 492.532 405.592C488.134 396.149 486.936 392.185 486.415 389.28C485.448 383.859 485.426 378.253 485.91 372.962C487.182 358.959 490.961 347.338 490.961 347.338C485.288 346.047 479.971 343.777 474.064 341.563C472.705 343.254 468.553 345.025 464.95 344.945C460.801 344.852 459.455 343.078 459.67 341.138C455.25 343.599 451.72 345.921 451.72 345.921C447.963 352.448 440.342 358.787 439.791 368.797C439.656 371.261 445.72 393.635 445.723 394.181Z" fill="white"/>
<path d="M480.923 396.352C482.713 398.884 486.144 414.276 494.676 416.21C490.277 405.242 486.939 400.43 486.418 397.058C485.451 390.762 485.429 384.247 485.913 378.103C483.058 373.094 480.923 369.663 480.923 369.663C480.698 368.853 476.383 355.51 475 367.436C473.62 379.368 478.924 393.519 480.923 396.352Z" fill="#5F9AA8"/>
<path d="M456.981 336.098C456.981 336.098 473.866 336.375 473.876 325.86C473.888 315.344 476.075 308.297 465.294 307.675C454.514 307.052 452.416 311.063 451.557 314.571C450.701 318.079 452.589 335.753 456.981 336.098Z" fill="#FFB27D"/>
<path d="M457.606 307.414C457.606 307.414 462.229 319.753 469.323 321.576C476.416 323.399 479.493 321.499 479.493 321.499C479.493 321.499 474.051 317.178 472.923 309.631C472.923 309.631 461.093 301.543 457.606 307.414Z" fill="#A9453D"/>
<path d="M458.752 308.417C458.752 308.417 455.299 311.171 454.458 313.85C453.617 316.527 453.238 322.04 451.63 321.855C451.63 321.855 448.147 313.468 452.062 308.725C456.211 303.692 458.752 308.417 458.752 308.417Z" fill="#A9453D"/>
<path d="M430.415 407.699L422.44 432.011L426.987 433.834L440.173 412.356L430.415 407.699Z" fill="#FFB27D"/>
<path d="M451.914 344.492C451.914 344.492 442.51 348.222 439.791 354.04C437.068 359.858 432.95 398.878 431.308 402.885C429.666 406.892 428.434 410.065 428.434 410.065C428.434 410.065 433.174 414.06 437.942 414.352C442.707 414.645 451.914 344.492 451.914 344.492Z" fill="#F99746"/>
<path d="M459.67 341.138C459.67 341.138 449.903 365.271 449.614 370.153C449.327 375.038 448.465 450.017 448.465 450.017C448.465 450.017 449.041 453.464 442.431 452.029C435.824 450.593 434.099 449.155 434.099 449.155C434.099 449.155 440.419 402.904 438.694 386.816C436.97 370.729 451.908 344.489 451.908 344.489L459.67 341.138Z" fill="#F99746"/>
<path d="M415.294 563.843L421.017 564.019C422.04 564.049 423.019 563.609 423.672 562.82C427.519 558.163 440.936 540.721 448.994 515.088C449.216 514.385 449.447 513.677 449.696 512.959C454.883 497.83 465.639 478.841 471.309 461.654C472.212 458.915 473.022 456.34 473.749 453.901C473.98 453.119 474.208 452.352 474.423 451.597L468.396 447.023C468.396 447.023 450.3 476.324 444.697 503.901C439.827 527.852 420.339 556.676 415.294 563.843Z" fill="#1E3D70"/>
<path d="M467.765 506.47C467.666 519.157 468.267 547.432 469.813 561.256C469.955 562.522 471.024 563.477 472.299 563.477H476.568C478.367 563.477 479.716 563.465 480.609 563.452C481.382 563.44 482.044 562.885 482.192 562.125C486.44 540.514 489.48 522.56 491.704 507.046C493.564 494.06 495.221 482.928 496.493 473.346C497.774 463.702 498.665 455.626 498.985 448.804C499.034 447.729 499.071 446.684 499.09 445.668C499.111 444.648 499.114 443.657 499.108 442.696L463.745 439.249C464.189 462.741 467.823 498.674 467.765 506.47Z" fill="#2A4E96"/>
<path d="M476.568 563.473C478.185 563.473 479.436 563.464 480.323 563.452C481.262 563.44 482.069 562.765 482.248 561.844C486.468 540.357 489.489 522.492 491.704 507.045C493.564 494.06 495.221 482.928 496.493 473.346C497.775 463.702 498.665 455.626 498.985 448.803L486.009 456.436C486.009 456.436 494.291 459.359 491.131 481.477C487.971 503.596 480.966 560.341 476.568 563.473Z" fill="#1E3D70"/>
<path d="M474.895 448.581C474.895 448.581 477.387 457.582 486.005 456.433C494.624 455.284 506.879 450.112 506.879 450.112C506.879 450.112 503.196 438.475 498.615 423.186C493.071 404.677 486.209 380.815 482.975 365.763C482.066 361.546 481.447 358.022 481.216 355.5L474.067 341.627C474.067 341.627 463.406 365.553 462.83 371.587C462.258 377.624 474.895 448.581 474.895 448.581Z" fill="#F99746"/>
<path d="M483.501 370.691L474.064 341.63C474.088 341.643 485.984 345.169 491.965 348.191C491.965 348.191 495.704 353.011 498.018 364.134C498.018 364.134 500.463 390.838 495.005 400.606C495.005 400.606 477.769 404.052 450.189 394.572V388.251C450.189 388.251 480.353 389.831 486.532 390.549L483.501 370.691Z" fill="#FFB27D"/>
<path d="M475.277 384.231C475.662 393.998 477.96 412.96 498.452 423.109C498.508 423.133 498.56 423.164 498.615 423.186C493.071 404.677 486.209 380.815 482.975 365.763C479.211 371.39 475.068 378.853 475.277 384.231Z" fill="#ED7D2B"/>
<path d="M474.067 341.63C474.067 341.63 491.559 342.862 495.773 352.248C499.986 361.633 501.326 392.85 495.964 402.044C495.964 402.044 488.58 404.148 475.524 401.705C475.364 401.674 475.203 401.644 475.04 401.613C475.04 401.613 470.876 391.415 474.609 389.403C474.609 389.403 485.62 389.979 484.472 386.338C483.323 382.698 474.067 341.63 474.067 341.63Z" fill="#F99746"/>
<path d="M430.206 392.157L430.72 393.814L459.424 384.885C459.424 384.885 459.806 384.447 459.618 383.868C459.408 383.228 458.909 383.228 458.909 383.228L430.206 392.157Z" fill="#A9453D"/>
<path d="M428.13 393.722L430.206 392.157L430.72 393.814L428.13 393.722Z" fill="#A9453D"/>
<path d="M423.574 431.346C423.574 431.346 416.293 435.368 415.335 438.436C414.377 441.504 415.036 447.923 416.191 447.827C417.346 447.732 419.071 440.928 420.029 440.451C420.987 439.97 422.33 438.535 422.33 439.588C422.33 440.642 421.372 442.557 421.849 442.847C422.33 443.133 423.861 440.164 424.914 439.588C425.968 439.012 426.411 434.275 427.434 433.003C428.459 431.731 423.574 431.346 423.574 431.346Z" fill="#FFB27D"/>
<path d="M450.19 388.254C450.19 388.254 443.678 384.243 440.946 384.859C438.214 385.475 431.253 390.517 434.601 391.611C437.949 392.701 440.663 391.559 441.95 392.35C443.238 393.145 444.19 394.593 450.19 394.574C456.193 394.552 450.19 388.254 450.19 388.254Z" fill="#FFB27D"/>
<g opacity="0.6">
<g opacity="0.6">
<path opacity="0.6" d="M134.803 577.962H134.695C134.061 577.962 133.553 577.442 133.568 576.807L135.277 502.699L140.313 502.111L136.02 576.813C135.983 577.457 135.447 577.962 134.803 577.962Z" fill="#77A4E5"/>
</g>
<g opacity="0.6">
<path opacity="0.6" d="M105.453 577.962H105.345C104.711 577.962 104.202 577.442 104.218 576.807L105.927 502.699L110.963 502.111L106.67 576.813C106.633 577.457 106.097 577.962 105.453 577.962Z" fill="#77A4E5"/>
</g>
<g opacity="0.6">
<path opacity="0.6" d="M186.441 577.962H186.549C187.183 577.962 187.692 577.442 187.676 576.807L185.967 502.699L180.931 502.111L185.224 576.813C185.261 577.457 185.797 577.962 186.441 577.962Z" fill="#77A4E5"/>
</g>
<path opacity="0.6" d="M102.114 498.103V447.321C102.114 438.386 109.358 431.141 118.293 431.141H154.882C163.818 431.141 171.062 438.386 171.062 447.321V500.044L102.114 498.103Z" fill="#77A4E5"/>
<path opacity="0.6" d="M177.617 506.117H106.974C104.291 506.117 102.117 503.943 102.117 501.26V498.1H177.62V506.117H177.617Z" fill="#77A4E5"/>
<path opacity="0.6" d="M186.081 506.118H132.635C130.651 506.118 129.043 504.51 129.043 502.527V501.695C129.043 499.711 130.651 498.104 132.635 498.104H186.081C188.065 498.104 189.673 499.711 189.673 501.695V502.527C189.676 504.51 188.068 506.118 186.081 506.118Z" fill="#77A4E5"/>
</g>
<path d="M226.067 548.412C226.578 550.965 230.216 550.537 234.282 549.545C238.348 548.553 237.38 549.733 243.165 549.092C248.949 548.452 250.702 546.296 250.881 545.433C251.038 544.669 248.179 544.401 245.115 544.047C244.73 544.004 244.341 543.958 243.953 543.908C240.491 543.474 237.956 541.241 234.812 539.405C231.833 537.668 227.388 530.587 227.388 530.587L219.454 531.215C219.454 531.215 223.618 537.539 225.229 540.289C226.178 541.906 226.126 544.044 226.009 545.695C225.947 546.594 225.888 547.512 226.067 548.412Z" fill="#FFB27D"/>
<path d="M234.281 549.545C238.347 548.554 237.38 549.733 243.164 549.093C248.949 548.452 250.701 546.296 250.88 545.433C251.037 544.67 248.179 544.402 245.114 544.047L245.086 544.106C245.086 544.106 241.618 546.567 236.801 546.681C232.877 546.776 228.718 545.652 226.008 545.695C225.946 546.592 225.888 547.509 226.069 548.409C226.578 550.965 230.215 550.537 234.281 549.545Z" fill="#233862"/>
<path d="M157.885 559.829C156.308 561.902 159.034 564.348 162.468 566.738C165.902 569.128 164.378 569.186 168.684 573.101C172.99 577.016 175.768 576.902 176.529 576.468C177.206 576.083 175.515 573.76 173.754 571.225C173.532 570.908 173.31 570.585 173.091 570.264C171.126 567.381 171.126 564.003 170.421 560.43C169.753 557.048 175.278 544.613 175.278 544.613L166.401 543.495C166.401 543.495 165.243 551.004 164.245 554.029C163.66 555.809 161.193 556.983 159.878 557.987C159.166 558.535 158.439 559.099 157.885 559.829Z" fill="#FFB27D"/>
<path d="M162.469 566.738C165.903 569.129 164.378 569.187 168.684 573.102C172.99 577.017 175.769 576.903 176.529 576.468C177.207 576.083 175.516 573.761 173.754 571.226L173.69 571.245C173.69 571.245 169.55 570.271 166.279 566.735C163.611 563.855 161.705 559.993 159.878 557.991C159.164 558.539 158.437 559.103 157.882 559.833C156.308 561.899 159.034 564.348 162.469 566.738Z" fill="#233862"/>
<path d="M194.132 496.265L186.025 518.078L175.442 546.56C175.442 546.56 172.571 546.837 169.821 546.046C167.289 545.313 164.384 543.4 164.384 543.4C164.384 543.4 167.323 512.817 172.805 495.264C174.21 490.757 175.784 487.114 177.521 485.062C186.019 475.015 194.132 496.265 194.132 496.265Z" fill="#163560"/>
<path d="M185.889 461.623C180.579 459.91 164.575 460.933 149.359 463.911L147.03 459.833L114.165 457.268C114.165 457.268 103.32 481.317 109.259 496.641C110.13 498.892 111.865 500.337 114.821 500.386C114.821 500.386 115.299 500.386 115.302 500.386C115.302 500.386 134.864 500.374 141.215 500.374C157.558 500.374 175.805 489.138 178.164 488.666C182.027 487.893 183.573 495.621 187.436 503.734C191.298 511.848 223.75 539.664 223.75 539.664C223.75 539.664 228.737 539.714 230.798 538.94C233.012 538.109 233.825 537.031 233.825 537.031C233.825 537.031 197.868 465.485 185.889 461.623Z" fill="#2A4E96"/>
<path d="M135.52 360.351C130.894 359.248 124.613 360.542 123.569 360.665C111.089 362.122 108.298 381.508 109.225 386.933C110.935 396.928 106.136 399.743 100.407 407.736C88.9209 423.765 96.8553 436.96 106.203 440.231C111.812 442.193 119.457 436.849 119.457 436.849C119.599 436.901 139.303 418.091 149.048 408.952C165.437 402.201 147.311 363.16 135.52 360.351Z" fill="#233862"/>
<path d="M138.194 406.064C138.252 406.082 133.111 409.44 128.922 408.734C124.983 408.072 120.813 402.931 120.865 402.916C122.457 402.429 123.865 400.572 122.87 390.983L123.619 391.054L136.21 392.262C136.21 392.262 136.318 396.177 136.678 399.836C136.977 402.91 137.458 405.805 138.194 406.064Z" fill="#FFB27D"/>
<path d="M136.213 392.258C136.213 392.258 136.321 396.173 136.681 399.832C129.751 400.331 125.47 394.393 123.621 391.048L136.213 392.258Z" fill="#ED975D"/>
<path d="M138.866 395.492C138.866 395.492 122.547 397.399 121.515 387.219C120.484 377.036 117.684 370.426 128.061 368.778C138.438 367.131 140.859 370.811 142.029 374.126C143.2 377.44 143.086 394.735 138.866 395.492Z" fill="#FFB27D"/>
<path d="M140.082 368.895C140.082 368.895 132.2 380.177 125.51 382.632C118.816 385.087 115.653 383.544 115.653 383.544C115.653 383.544 118.844 379.149 119.898 373.099C120.209 371.316 121.447 369.831 123.153 369.237C127.952 367.561 137.205 364.995 140.082 368.895Z" fill="#233862"/>
<path d="M133.568 369.727C133.568 369.727 137.781 372.133 139.463 374.286C141.086 376.362 142.82 381.878 142.571 384.308C142.571 384.308 145.226 372.727 140.975 368.513C136.469 364.044 133.568 369.727 133.568 369.727Z" fill="#233862"/>
<path d="M150.743 433.076C150.25 466.043 150.607 459.152 147 462.282C146.132 463.036 143.689 463.483 140.473 463.696C130.364 464.367 112.595 462.701 111.921 460.834C109.589 454.369 111.234 452.364 109.29 442.467C109.087 441.414 108.837 440.274 108.542 439.036C106.918 432.238 105.341 429.928 111.095 419.009C116.313 409.119 121.949 401.218 122.436 401.508C136.204 409.679 137.101 402.684 137.101 402.684C137.101 402.684 150.983 416.998 150.743 433.076Z" fill="white"/>
<path d="M186.025 518.078L175.202 547.746C175.202 547.746 171.315 549.012 168.481 548.602C165.595 548.183 164.015 546.609 164.015 546.609C164.015 546.609 167.323 512.82 172.802 495.267L186.025 518.078Z" fill="#2A4E96"/>
<path d="M137.101 402.679C137.101 402.679 151.266 405.081 152.929 411.18C154.593 417.279 166.759 450.889 166.759 450.889C166.759 450.889 157.183 454.428 153.853 451.101C150.527 447.775 142.278 420.235 142.278 420.235L137.101 402.679Z" fill="white"/>
<path d="M140.473 463.696C130.364 464.367 112.595 462.701 111.921 460.834C109.589 454.369 111.234 452.364 109.29 442.467L114.03 431.671C114.03 431.671 113.359 444.026 117.868 448.045C122.371 452.065 136.328 455.807 138.521 459.168C139.577 460.779 140.273 462.396 140.473 463.696Z" fill="#DFEBFD"/>
<path d="M141.298 456.66C141.298 456.66 144.308 459.257 145.167 459.466C146.023 459.676 146.51 459.482 146.51 459.482L144.317 456.913L141.298 456.66Z" fill="#FFB27D"/>
<path d="M140.103 453.601L147.726 455.569C147.726 455.569 147.529 456.111 146.667 456.247C145.804 456.379 143.488 456.028 143.488 456.028L140.103 453.601Z" fill="#FFB27D"/>
<path d="M127.179 457.803C127.179 457.803 138.061 452.961 140.103 453.601C142.146 454.242 147.385 457.014 148.207 458.181C149.03 459.349 143.917 458.037 142.321 457.935C141.286 457.87 138.887 459.29 137.695 459.974C132.68 462.854 129.197 462.598 129.197 462.598L127.179 457.803Z" fill="#FFB27D"/>
<path d="M122.436 401.502C122.436 401.502 107.041 404.391 104.189 408.657C97.9673 417.968 84.7197 456.544 92.1397 461.715C100.493 467.54 130.164 463.24 130.164 463.24C130.164 463.24 131.153 458.626 129.779 456.393C128.405 454.16 106.083 450.553 105.052 449.524C104.023 448.496 115.228 433.597 114.036 430.745C110.208 421.612 122.436 401.502 122.436 401.502Z" fill="white"/>
<path d="M183.296 456.159C183.296 456.159 194.07 459.069 195.176 460.742C196.285 462.414 198.453 467.527 198.361 468.861C198.268 470.195 195.327 466.221 194.224 465.205C193.509 464.546 190.925 464.161 189.656 463.954C186.453 463.434 184.91 461.968 183.708 461.241C182.905 460.751 181.925 460.844 181.925 460.844L183.296 456.159Z" fill="#FFB27D"/>
<path d="M194.236 463.671C194.236 463.671 194.889 467.34 195.391 467.996C195.89 468.655 196.358 468.803 196.358 468.803L196.281 465.637L194.236 463.671Z" fill="#FFB27D"/>
<path d="M195.176 460.739L199.556 466.674C199.556 466.674 199.091 466.951 198.386 466.539C197.68 466.126 196.205 464.503 196.205 464.503L195.176 460.739Z" fill="#FFB27D"/>
<path d="M183.711 461.238C183.711 461.238 184.709 463.662 186.705 464.531C188.698 465.4 190.164 466.706 190.485 466.237C190.805 465.769 188.975 463.299 188.975 463.299L183.711 461.238Z" fill="#FFB27D"/>
<path d="M163.898 442.942L186.555 457.268C186.555 457.268 184.174 460.452 183.379 460.742C179.184 462.282 160.312 460.807 153.85 451.104L163.898 442.942Z" fill="white"/>
<path d="M154.919 458.509C156.256 458.506 169.556 457.588 169.556 457.588C169.556 457.588 169.171 459.944 169.994 461.207L157.032 463.686L154.368 462.904L154.919 458.509Z" fill="#F9DDBF"/>
<path d="M132.736 460.645L154.919 458.508C154.919 458.508 154.14 462.611 157.035 463.682L132.579 465.472C132.579 465.472 130.608 462.7 132.736 460.645Z" fill="#F99746"/>
<path d="M169.519 457.88L154.528 459.035C154.528 459.035 154.642 458.517 154.919 458.511C155.199 458.505 169.812 457.442 169.812 457.442L169.759 457.852L169.519 457.88Z" fill="#F99746"/>
<path d="M157.032 463.685L170.237 461.175L170.114 460.833L156.044 463.528L157.032 463.685Z" fill="#F99746"/>
<path d="M669.906 581.04H37.0142C36.5216 581.04 36.1201 580.509 36.1201 579.858V578.782C36.1201 578.133 36.5216 577.6 37.0142 577.6H669.906C670.397 577.6 670.8 578.13 670.8 578.782V579.858C670.8 580.509 670.399 581.04 669.906 581.04Z" fill="#2E3552"/>
</svg>
