<svg width="688" height="688" viewBox="0 0 688 688" fill="none" xmlns="http://www.w3.org/2000/svg">
<g clip-path="url(#clip0)">
<path d="M128.85 578.868C128.85 578.868 54.8292 577.316 17.9199 430.896C-18.9894 284.476 12.2412 213.294 171.437 109.665C330.634 6.03513 700.407 26.4398 628.616 304.706C593.873 439.368 734.346 444.264 662.771 578.868H128.85Z" fill="#FCECDB"/>
<path d="M635.986 578.389H595.946C593.801 576.567 597.431 572.434 601.223 572.159C602.87 572.033 604.954 572.378 607.335 572.881C607.887 565.564 611.034 532.662 622.89 533.984C636.226 535.464 622.89 548.472 619.122 556.174C616.327 561.877 613.383 570.058 612.036 573.919C613.119 574.154 614.239 574.381 615.382 574.592C617.151 569.165 623.725 550.914 632.089 551.976C641.908 553.221 637.962 560.538 631.002 564.882C625.895 568.078 619.625 572.617 616.648 574.811C619.171 575.225 621.807 575.501 624.48 575.44C631.338 575.282 634.689 577.302 635.986 578.389Z" fill="#82B378"/>
<path d="M476.879 529.097L473.784 542.124L469.675 559.399H456.834L456.068 542.85L455.476 530.086L476.879 529.097Z" fill="#FFB27D"/>
<path d="M517.568 245.553C517.568 245.553 527.729 234.683 534.336 243.204C540.943 251.73 548.264 257.485 558.4 264.04C568.536 270.594 549.44 321.987 536.745 320.929C524.046 319.878 472.235 279.363 517.568 245.553Z" fill="#BC3F3F"/>
<path d="M466.979 240.386C469.514 238.492 492.868 230.473 515.634 238.358C538.4 246.243 497.998 268.206 497.998 268.206L484.906 268.769L466.979 240.386Z" fill="#4A75CB"/>
<path d="M451.756 578.376C451.756 578.376 451.756 572.089 452.653 570C453.549 567.911 456.834 559.398 456.834 559.398H469.676C469.676 559.398 472.065 567.161 472.215 569.7C472.365 572.239 472.215 578.376 472.215 578.376H451.756Z" fill="#233862"/>
<path d="M533.286 578.376C533.286 578.376 533.286 572.089 532.389 570C531.493 567.911 528.208 559.398 528.208 559.398H515.367C515.367 559.398 512.978 567.161 512.828 569.7C512.678 572.239 512.828 578.376 512.828 578.376H533.286Z" fill="#233862"/>
<path d="M481.844 225.537C481.844 225.537 481.389 239.534 479.601 245.804L465.421 276.37L518.801 263.683L506.07 246.092C506.07 246.092 502.225 227.325 504.241 220.382C506.256 213.442 481.844 225.537 481.844 225.537Z" fill="#FFB27D"/>
<path d="M481.767 227.468C481.767 227.464 485.989 237.628 493.938 237.405C501.888 237.182 503.697 228.19 503.697 228.19L481.767 227.468Z" fill="#ED985F"/>
<path d="M477.021 219.242C477.021 219.242 474.453 206.425 472.661 202.544C470.868 198.662 469.375 181.343 489.233 180.447C489.233 180.447 496.846 181.343 501.028 178.804C501.028 178.804 501.028 181.343 499.981 182.24C499.981 182.24 506.848 180.597 512.226 186.571C517.601 192.546 508.645 213.45 509.091 218.374L477.021 219.242Z" fill="#2C3A64"/>
<path d="M493.026 233.479C487.267 233.377 476.66 225.703 476.66 216.204V201.38C476.66 197.912 479.078 195.073 482.034 195.073H504.014C506.97 195.073 509.388 197.912 509.388 201.38V215.365C509.392 225.33 499.633 233.596 493.026 233.479Z" fill="#FFB27D"/>
<path d="M476.66 209.297C476.66 209.297 476.689 200.39 483.746 199.019C490.8 197.648 506.589 203.359 508.832 196.866C511.075 190.372 478.311 190.482 476.665 194.627C475.014 198.772 476.66 209.297 476.66 209.297Z" fill="#2C3A64"/>
<path d="M501.26 363.662C504.792 352.663 504.723 409.194 490.536 472.779C488.37 482.485 483.523 505.884 480.043 528.533H450.978C450.576 510.244 448.617 484.712 447.38 465.592C443.511 405.654 453.363 360.669 453.363 360.669L501.26 363.662Z" fill="#2B478B"/>
<path d="M538.558 465.593C538.238 483.922 534.514 508.265 534.178 526.112H504.691C502.712 513.157 499.564 499.817 497.305 489.056C495.695 481.415 494.535 475.076 494.551 471.093C494.584 463.309 489.66 440.864 486.727 421.071C486.723 421.042 486.719 421.014 486.715 420.989C486.601 420.231 486.492 419.468 486.387 418.718C482.46 390.894 483.843 363.663 483.843 363.663L533.598 360.552C533.594 360.552 539.41 416.715 538.558 465.593Z" fill="#2B478B"/>
<path d="M449.424 383.723C449.424 383.723 460.619 397.286 491.03 395.327C521.442 393.368 535.95 388.075 535.95 388.075L449.424 383.723Z" fill="#233862"/>
<path d="M535.951 388.079C526.018 389.429 458.433 392.942 449.425 383.723C440.417 374.504 464.132 248.749 464.132 248.749C464.132 248.749 466.817 247.97 471.351 247.118C473.663 246.684 476.45 246.23 479.605 245.853C479.642 246.834 480.425 261.659 492.734 267.783C492.734 267.783 507.518 261.862 506.07 246.092C506.054 245.906 506.034 245.727 506.005 245.553C507.977 245.764 509.976 246.039 511.984 246.384C516.04 247.082 520.144 248.067 524.217 249.414C524.213 249.414 545.888 386.732 535.951 388.079Z" fill="#739AF0"/>
<path d="M449.996 323.156C449.595 323.679 452.292 327.549 456.092 332.525C463.912 342.746 476.421 357.619 476.421 357.619C476.255 362.661 475.549 365.914 475.549 365.914C458.368 357.794 446.752 350.201 439.049 344.101C428.224 335.523 425.117 329.897 425.117 329.897C442.477 256.46 464.748 248.814 464.748 248.814L472.016 293.065C472.016 293.069 451.213 321.566 449.996 323.156Z" fill="#739AF0"/>
<path d="M511.98 246.384L507.502 260.004L501.536 268.769L492.97 273.417L484.906 268.769L471.352 247.122C473.663 246.688 476.45 246.234 479.605 245.857C479.642 246.838 480.425 261.663 492.734 267.787C492.734 267.787 507.518 261.866 506.07 246.096C506.054 245.91 506.034 245.731 506.006 245.557C507.977 245.763 509.976 246.039 511.98 246.384Z" fill="#EE9849"/>
<path d="M476.421 357.623C476.417 357.765 476.413 357.907 476.405 358.044C476.368 358.973 476.312 359.845 476.243 360.632C475.813 361.228 475.334 361.788 474.815 362.315C474.024 363.114 473.172 363.784 472.3 364.351C471.866 364.145 471.428 363.93 471.002 363.719C456.287 356.434 446.046 349.653 439.045 344.108C443.491 342.741 449.717 339.614 456.089 332.524C463.908 342.745 476.421 357.623 476.421 357.623Z" fill="#FFB27D"/>
<path d="M561.75 327.199C561.75 327.199 558.752 332.886 548.093 341.667C540.509 347.913 529.043 355.725 512.016 364.174C512.016 364.174 511.249 360.933 510.986 355.895C510.986 355.895 523.206 340.783 530.831 330.416C534.534 325.366 537.155 321.448 536.745 320.933C535.776 319.716 522.736 302.564 516.915 294.914C515.228 292.691 514.149 291.272 514.149 291.272L521.515 247.764C521.519 247.764 542.987 254.111 561.75 327.199Z" fill="#739AF0"/>
<path d="M548.089 341.667C541.17 347.361 531.018 354.362 516.364 361.967C516.003 362.153 515.634 362.344 515.261 362.535C513.391 360.275 512.251 357.582 511.562 355.185C511.805 354.881 512.125 354.479 512.511 354.001C516.023 349.62 524.841 338.556 530.827 330.416C537.333 337.38 543.62 340.385 548.089 341.667Z" fill="#FFB27D"/>
<path d="M506.005 245.553C496.145 244.498 486.898 244.977 479.605 245.853C479.601 245.821 479.601 245.804 479.601 245.804C479.601 245.804 504.034 230.692 506.005 245.553Z" fill="#FFB27D"/>
<path d="M481.499 288.295H480.996L480.627 264.742H481.892L481.499 288.295Z" fill="#BBD4FF"/>
<path d="M480.943 287.682C480.484 288.372 479.458 290.647 480.14 290.89C480.821 291.13 482.018 291.146 482.338 290.826C482.663 290.505 481.807 286.384 480.943 287.682Z" fill="#EE9849"/>
<path d="M504.63 288.295H504.127L503.758 264.742H505.023L504.63 288.295Z" fill="#BBD4FF"/>
<path d="M504.074 287.682C503.616 288.372 502.59 290.647 503.271 290.89C503.952 291.13 505.149 291.146 505.469 290.826C505.794 290.505 504.938 286.384 504.074 287.682Z" fill="#EE9849"/>
<path d="M484.906 268.769L464.135 248.753C464.135 248.753 459.459 245.435 466.849 240.471C474.239 235.506 484.906 268.769 484.906 268.769Z" fill="#4A75CB"/>
<path d="M501.535 268.769L522.306 248.753C522.306 248.753 526.983 245.435 519.593 240.471C512.199 235.506 501.535 268.769 501.535 268.769Z" fill="#4A75CB"/>
<path d="M527.603 366.217C523.555 366.558 520.181 365.544 517.577 363.22C517.139 362.827 516.737 362.409 516.364 361.971C514.312 359.57 513.16 356.552 512.511 354.005C511.769 351.097 511.688 348.805 511.688 348.76L511.671 348.172H478.121L478.141 348.797C478.271 352.403 477.691 355.501 476.401 358.049C475.764 359.322 474.949 360.462 473.959 361.456C473.047 362.376 472.037 363.119 471.002 363.719C466.513 366.319 461.516 366.217 461.451 366.217L460.83 366.197V380.373H528.256V366.165L527.603 366.217Z" fill="#678FE5"/>
<path d="M536.745 320.933C536.745 320.933 518.043 296.395 532.847 289.248C538.724 286.413 546.999 320.09 542.561 323.253C538.128 326.421 530.827 330.412 530.827 330.412L536.745 320.933Z" fill="#678FE5"/>
<path d="M452.146 316.888C452.146 316.888 458.643 286.075 452.941 289.251C447.238 292.423 438.789 320.093 443.227 323.256C447.66 326.424 454.961 330.415 454.961 330.415L452.146 316.888Z" fill="#678FE5"/>
<path d="M534.121 320.864C525.579 310.262 522.391 293.048 522.825 275.283C523.154 261.943 524.983 249.905 525.101 249.483L532.105 254.939C532.077 255.04 528.086 262.337 527.777 275.32C527.493 287.192 526.934 296.228 533.642 316.893L534.121 320.864Z" fill="#BC3F3F"/>
<path d="M469.278 535.091L454.23 535.083C452.9 535.233 450.815 533.282 450.815 530.496C450.815 530.496 450.783 523.812 450.34 522.623C448.406 517.415 451.285 517.131 454.072 517.131H481.527C484.313 517.131 480.042 525.746 480.042 528.537L481.032 532.191C481.032 534.978 472.064 535.091 469.278 535.091Z" fill="#233862"/>
<path d="M473.785 542.125L469.676 559.399H456.835L456.072 542.851C457.983 543.552 464.423 545.345 473.785 542.125Z" fill="#233862"/>
<path d="M508.187 529.097L511.286 541.926L515.395 558.944H528.236L528.998 542.644L529.59 530.07L508.187 529.097Z" fill="#FFB27D"/>
<path d="M515.792 535.091L530.84 535.083C532.17 535.233 534.255 533.282 534.255 530.496C534.255 530.496 534.287 523.812 534.729 522.623C536.664 517.415 533.784 517.131 530.998 517.131H503.543C500.757 517.131 505.028 525.746 505.028 528.537L504.038 532.191C504.034 534.978 513.002 535.091 515.792 535.091Z" fill="#233862"/>
<path d="M511.286 542.125L515.395 559.399H528.236L528.999 542.851C527.084 543.552 520.643 545.345 511.286 542.125Z" fill="#233862"/>
<path d="M136.362 210.087C132.895 208.947 129.131 209.503 126.555 210.184C127.086 209.357 128.356 208.838 128.356 208.838C126.689 208.923 123.408 211.255 123.408 211.255C99.1734 207.122 102.313 240.949 104.337 248.546C106.356 256.142 94.651 278.166 86.5756 288.91C63.9109 319.058 100.151 350.455 100.151 350.455C129.528 375.128 116.18 327.284 116.18 327.284C114.359 321.184 136.431 282.595 149.414 269.754C151.978 263.658 151.361 253.92 151.309 253.157C152.193 260.795 151.759 265.268 151.09 267.872C161.4 253.652 145.549 213.109 136.362 210.087Z" fill="#163560"/>
<path d="M196.67 321.24C196.67 324.51 195.028 328.695 192.679 333.007C186.835 343.751 176.618 355.274 176.618 355.274L170.696 346.842C170.696 346.842 174.294 337.91 176.683 330.545C178.118 326.116 179.112 322.258 178.63 321.24C177.336 318.531 151.694 288.201 151.694 288.201L144.726 264.733C144.726 264.733 161.781 265.633 169.045 276.268C176.31 286.907 196.67 312.435 196.67 321.24Z" fill="#BC3F3F"/>
<path d="M192.679 333.007C186.835 343.752 176.618 355.275 176.618 355.275L170.696 346.842C170.696 346.842 174.294 337.911 176.683 330.545C179.558 332.245 184.527 333.863 192.679 333.007Z" fill="#FFB27D"/>
<path d="M121.809 532.755L127.942 558.599L137.133 558.547L137.473 532.755H121.809Z" fill="#FFB27D"/>
<path d="M199.12 533.858L216.577 558.599L223.383 549.863L212.874 530.455L199.12 533.858Z" fill="#FFB27D"/>
<path d="M145.951 272.314C146.028 272.347 138.581 276.216 132.98 274.683C127.711 273.247 124.268 266.413 124.341 266.401C126.572 265.958 127.217 262.892 127.168 249.714L128.178 249.913L145.14 253.271C145.14 253.271 144.754 258.609 144.742 263.638C144.726 267.861 144.982 271.864 145.951 272.314Z" fill="#FFB27D"/>
<path d="M118.743 219.283C118.743 219.283 125.184 208.895 137.153 215.105C137.153 215.105 130.952 215.275 118.743 219.283Z" fill="#5FABB7"/>
<path d="M145.135 253.271C145.135 253.271 144.75 258.609 144.738 263.638C135.247 263.371 130.23 254.711 128.173 249.913L145.135 253.271Z" fill="#EF9E67"/>
<path d="M124.685 250.505C124.685 250.505 118.256 243.784 115.758 237.433C113.973 232.898 112.858 214.983 130.883 213.961C130.883 213.961 136.07 213.438 141.505 215.705C145.825 217.506 152.432 221.947 149.361 238.398L148.802 243.857L124.685 250.505Z" fill="#163560"/>
<path d="M221.748 544.209C221.748 544.209 217.238 544.988 213.539 545.267C212.716 545.328 211.937 545.365 211.255 545.365C209.475 545.365 206.262 544.696 204.105 544.193L203.942 544.156C202.997 543.933 202.276 543.751 202.004 543.678L201.89 543.649C201.89 543.649 179.408 518.62 166.802 478.502C166.51 477.566 166.198 476.625 165.869 475.671C158.966 455.55 144.661 430.293 137.121 407.43C135.92 403.792 134.841 400.36 133.876 397.12C133.564 396.081 133.263 395.063 132.976 394.058C127.419 374.751 125.813 362.08 124.328 348.538L169.654 360.069C169.662 360.069 188.692 442.571 221.748 544.209Z" fill="#A53D38"/>
<path d="M148.104 255.953C148.104 255.953 126.166 260.751 123.383 247.042C120.605 233.333 115.9 224.718 129.792 221.075C143.683 217.429 147.472 222.11 149.516 226.458C151.556 230.81 153.742 254.35 148.104 255.953Z" fill="#FFB27D"/>
<path d="M139.754 218.719C139.754 218.719 136.967 236.021 128.198 240.264C119.429 244.506 114.915 242.839 114.915 242.839C114.915 242.839 120.873 235.774 120.362 225.638C120.362 225.638 133.662 211.978 139.754 218.719Z" fill="#163560"/>
<path d="M138.52 220.325C138.52 220.325 143.744 223.01 145.545 226.279C147.346 229.548 149.289 236.638 151.333 235.972C151.333 235.972 153.669 224.121 147.322 218.966C140.589 213.498 138.52 220.325 138.52 220.325Z" fill="#163560"/>
<path d="M127.634 557.156C127.634 557.156 128.372 562.274 126.466 567.75C126.466 567.75 124.961 574.604 131.71 574.73C138.459 574.856 140.118 574.219 139.352 570.017C138.589 565.815 137.133 558.547 137.133 558.547L127.634 557.156Z" fill="#FFB27D"/>
<path d="M126.466 567.75C126.466 567.75 124.969 574.949 125.732 578.389C125.732 578.389 128.015 579.188 132.919 579.188C137.567 579.188 140.301 578.389 140.301 578.389C140.301 578.389 140.13 570.569 138.889 567.576C138.893 567.576 134.107 574.755 126.466 567.75Z" fill="#C45446"/>
<path d="M239.647 570.707C239.647 570.707 227.203 556.892 223.382 549.863L214.127 554.605L234.812 574.033L239.651 573.396L239.647 570.707Z" fill="#FFB27D"/>
<path d="M247.552 578.802C247.552 578.802 234.179 578.802 231.887 578.546C229.596 578.295 227.75 574.981 225.264 570.013C224.246 567.981 221.967 566.861 219.626 566.245L219.671 578.388H215.992L212.747 565.523C210.541 561.471 212.573 557.8 214.122 554.604C215.927 554.6 220.778 555.833 229.973 566.192C232.995 569.591 236.333 570.808 239.642 570.706C239.687 570.739 239.736 570.759 239.78 570.779C247.426 574.215 247.552 578.802 247.552 578.802Z" fill="#C45446"/>
<path d="M213.535 545.268C212.711 545.329 211.932 545.365 211.251 545.365C209.47 545.365 206.258 544.696 204.1 544.193L203.938 544.157L201.999 543.678L201.886 543.65C201.886 543.65 179.404 518.62 166.798 478.503C166.506 477.566 166.193 476.625 165.865 475.672C158.962 455.55 144.656 430.294 137.116 407.431C135.916 403.792 134.837 400.361 133.872 397.12C133.559 396.082 133.259 395.064 132.971 394.058L140.986 387.974C140.986 387.974 165.058 426.948 172.505 463.626C178.694 494.025 205.285 533.441 213.535 545.268Z" fill="#912F2F"/>
<path d="M141.834 467.044C141.971 484.878 141.067 525.884 138.747 542.866C138.747 542.866 136.545 544.813 131.081 544.837C125.488 544.862 122.986 542.797 122.986 542.797C117.157 513.278 113.012 488.857 109.994 467.811C107.516 450.54 105.318 435.732 103.627 422.984C102.126 411.689 101.027 402.011 100.499 393.664C100.43 392.532 100.366 391.421 100.317 390.342C100.252 388.91 100.199 387.523 100.175 386.177C100.151 384.818 100.142 383.5 100.155 382.218L100.349 382.202L111.609 381.107L147.192 377.635C146.591 408.882 141.756 456.677 141.834 467.044Z" fill="#A53D38"/>
<path d="M131.081 544.834C126.324 545.109 122.986 542.794 122.986 542.794C117.157 513.274 113.012 488.853 109.994 467.807C107.516 450.537 105.318 435.729 103.627 422.981C102.126 411.685 101.027 402.007 100.499 393.66C100.439 389.547 100.394 385.609 100.345 382.194C100.293 378.73 100.24 375.802 100.142 373.762L111.605 381.099L123.667 388.813C123.667 388.813 106.559 404.376 110.761 433.798C114.959 463.22 125.229 540.668 131.081 544.834Z" fill="#912F2F"/>
<path d="M175.92 385.613C162.272 389.162 98.5772 396.163 98.0256 380.211C97.8918 376.317 98.0256 371.62 98.3338 366.534C99.2829 350.777 101.871 331.3 103.112 320.588C103.68 315.676 101.79 293.677 103.242 281.692C103.452 279.915 103.74 278.358 104.122 277.108C106.872 268.064 119.234 265.61 125.582 265.395L144.73 264.742C144.73 264.742 164.503 286.83 167.257 293.616C170.007 300.402 170.907 323.634 173.044 334.881C175.178 346.128 182.56 383.889 175.92 385.613Z" fill="#BC3F3F"/>
<path d="M138.305 331.697C138.305 331.697 127.658 364.392 98.3378 366.53C99.2869 350.773 101.875 331.296 103.116 320.584C103.684 315.672 101.793 293.673 103.246 281.688C103.627 281.769 103.971 281.98 104.373 282.057C136.654 288.295 141.238 324.883 138.305 331.697Z" fill="#A53D38"/>
<path d="M164.299 298.707L130.291 295.085L124.779 346.844L158.787 350.465L164.299 298.707Z" fill="#2B478B"/>
<path d="M130.279 295.084L128.096 294.91L122.97 346.627L124.762 346.842L130.279 295.084Z" fill="#163560"/>
<path d="M101.599 317.996C101.599 317.996 125.594 325.329 148.522 328.606C148.522 328.606 156.09 331.88 152.537 332.776C151.629 333.007 105.707 343.017 98.8973 336.524L101.599 317.996Z" fill="#FFB27D"/>
<path d="M125.577 265.39C125.577 265.39 112.963 265.459 107.577 271.604C97.7415 282.823 95.7987 330.533 98.8974 336.523C100.232 339.099 110.469 339.31 114.785 326.834C117.028 320.36 126.806 277.156 125.577 265.39Z" fill="#BC3F3F"/>
<path d="M146.263 328.274C146.263 328.274 149.082 328.01 149.617 327.11C150.688 325.309 152.379 325.329 153.787 325.094C155.198 324.855 156.78 323.313 157.06 323.622C157.34 323.934 156.021 325.633 155.283 326.27C155.283 326.27 156.796 326.363 157.798 325.885C158.8 325.406 161.85 321.464 162.333 323.123C163.598 327.487 162.284 331.681 158.784 332.021C155.007 332.391 145.634 334.2 145.634 334.2L146.263 328.274Z" fill="#FFB27D"/>
<path d="M292.819 348.538C274.896 343.975 255.196 316.171 255.196 316.171L260.242 311.795C265.466 317.956 287.19 328.562 287.19 328.562C287.072 322.924 287.222 317.785 287.575 313.105C289.984 281.298 301.978 270.704 305.247 268.376C305.774 267.999 306.078 267.84 306.078 267.84C306.078 267.84 306.09 268.072 306.111 268.51C306.159 269.455 306.245 271.361 306.334 273.973C306.999 293.437 307.794 352.35 292.819 348.538Z" fill="#D9935C"/>
<path d="M260.242 311.795C260.165 311.045 259.662 300.118 257.492 298.037C255.322 295.957 251.035 293.126 249.802 293.353C248.569 293.584 244.387 300.54 246.362 305.334C248.338 310.128 255.196 316.176 255.196 316.176L260.242 311.795Z" fill="#D9935C"/>
<path d="M264.696 313.064L252.893 313.559C252.499 313.575 252.171 313.271 252.155 312.878L251.214 290.371C251.198 289.978 251.502 289.649 251.895 289.633L263.698 289.138C264.091 289.122 264.42 289.426 264.436 289.816L265.377 312.322C265.393 312.716 265.085 313.048 264.696 313.064Z" fill="#F1A34F"/>
<path d="M261.629 313.191L250.921 313.637C250.228 313.665 249.64 313.126 249.611 312.432L248.715 291.021C248.687 290.327 249.226 289.739 249.92 289.711L260.627 289.265C261.321 289.236 261.909 289.776 261.937 290.469L262.834 311.881C262.862 312.578 262.323 313.162 261.629 313.191Z" fill="#D86713"/>
<path d="M248.906 294.184C248.906 294.184 252.122 290.59 255.343 293.336C258.559 296.082 255.128 301.943 252.337 303.545C249.547 305.147 248.65 305.982 248.65 305.982L248.906 294.184Z" fill="#D9935C"/>
<path d="M331.846 533.452C330.755 537.792 329.554 541.925 328.329 545.774C328.066 546.597 327.81 547.408 327.547 548.203C327.417 548.597 327.283 548.986 327.157 549.372C326.898 550.134 326.646 550.88 326.391 551.61C326.058 552.564 325.729 553.492 325.401 554.389C325.162 555.054 324.922 555.707 324.683 556.348C321.049 566.094 318.003 572.271 318.003 572.271L310.763 571.773C310.763 571.773 313.48 558.838 314.024 540.315C314.04 539.654 314.06 538.988 314.073 538.311C314.101 536.875 314.117 535.411 314.117 533.914C314.117 533.302 314.113 532.681 314.109 532.057C313.963 516.101 311.988 497.244 305.685 479.24C300.558 464.602 296.843 450.909 294.158 438.535C285.486 398.583 287.522 372.337 287.522 372.337L328.26 377.103L330.159 377.326C330.329 396.036 330.812 421.443 331.233 441.305C331.306 444.752 331.375 448.034 331.44 451.084C331.72 463.836 331.935 472.556 331.935 472.556C339.775 489.416 336.928 513.225 331.846 533.452Z" fill="#CB7D45"/>
<path d="M320.181 232.46C320.181 232.46 329.818 240.666 320.98 250.112C320.98 250.112 328.346 250.834 330.836 248.794C330.836 248.794 330.345 249.787 329.891 250.234C329.891 250.234 338.125 250.53 341.524 247.962C344.922 245.395 342.74 203.274 319.889 207.983C319.889 207.983 300.522 206.518 302.327 228.932C304.132 251.341 296.819 251.341 296.819 251.341C296.819 251.341 298.851 252.343 299.832 252.343C299.832 252.343 301.268 251.795 301.552 251C301.552 251 301.268 252.245 300.899 252.643C300.899 252.643 308.792 253.389 312.734 250.412C316.677 247.435 321.309 237.084 320.181 232.46Z" fill="#233862"/>
<path d="M351.282 367.762C343.583 350.496 339.901 345.613 339.771 340.182C339.669 335.887 341.787 331.251 345.903 319.886C346.873 317.209 347.542 314.455 347.952 311.668C351.205 289.754 338.534 266.067 330.661 264.453C328.471 263.873 324.756 255.96 324.8 243.208L323.815 243.403L307.23 246.688C307.23 246.688 307.607 251.908 307.619 256.824C307.632 260.92 307.408 265.09 306.48 265.577C305.287 265.686 304.2 265.901 304.2 265.901C304.2 265.901 290.167 275.757 289.258 289.125C288.045 306.984 300.635 328.152 289.473 363.84C278.076 400.291 355.536 377.306 351.282 367.762Z" fill="#D9935C"/>
<path d="M307.23 246.684C307.23 246.684 307.607 251.904 307.619 256.82C316.899 256.556 321.803 248.092 323.815 243.403L307.23 246.684Z" fill="#CB7D45"/>
<path d="M325.527 241.594C325.527 241.594 330.39 233.912 331.559 227.341C332.39 222.649 330.001 205.265 312.528 207.767C312.528 207.767 307.454 208.266 302.684 211.491C298.892 214.054 293.416 219.582 299.537 234.756L301.127 239.882L325.527 241.594Z" fill="#233862"/>
<path d="M304.131 251.34C304.131 251.34 326.086 251.701 326.102 238.025C326.119 224.348 328.962 215.186 314.944 214.375C300.927 213.563 298.197 218.779 297.082 223.346C295.967 227.909 298.421 250.894 304.131 251.34Z" fill="#D9935C"/>
<path d="M304.943 214.042C304.943 214.042 310.954 230.087 320.181 232.46C329.409 234.833 333.408 232.359 333.408 232.359C333.408 232.359 326.33 226.737 324.862 216.926C324.866 216.926 309.482 206.405 304.943 214.042Z" fill="#233862"/>
<path d="M306.435 215.344C306.435 215.344 301.945 218.925 300.85 222.409C299.755 225.894 299.264 233.06 297.175 232.817C297.175 232.817 292.645 221.911 297.735 215.741C303.134 209.199 306.435 215.344 306.435 215.344Z" fill="#233862"/>
<path d="M379.84 386.104L373.249 388.079C373.249 388.079 351.505 352.001 349.53 342.616C348.885 339.558 347.303 333.445 345.458 326.591C341.641 312.399 336.713 295.04 336.713 295.04L335.091 288.011L329.555 264.04C329.555 264.04 340.153 265.123 346.35 267.715C348.403 268.571 349.968 269.593 350.516 270.793C355.071 280.807 359.617 306.076 362.813 324.105C364.594 334.151 365.953 341.951 366.662 343.602C368.638 348.217 374.677 373.587 379.84 386.104Z" fill="#D9935C"/>
<path d="M305.6 215.888C305.6 215.888 309.883 232.692 321.524 238.07C321.524 238.07 309.883 227.748 308.894 216.655C307.908 205.566 305.6 215.888 305.6 215.888Z" fill="#233862"/>
<path d="M355.212 529.944C352.867 554.941 342.553 571.108 342.553 571.108L339.033 574.312C339.033 574.312 335.824 556.007 333.508 535.054C331.302 515.14 328.276 494.061 324.853 487.628C319.738 478.016 315.966 458.356 313.253 437.59C308.767 403.224 307.177 365.804 307.177 365.804L348.483 363.755C352.64 370.74 354.449 382.194 354.879 395.217C355.333 408.91 354.255 424.343 352.758 438.133C350.669 457.44 347.761 473.53 347.084 477.148C347.084 477.152 347.084 477.156 347.08 477.164C346.99 477.638 347.128 478.117 347.351 478.547C355.573 494.815 356.761 513.428 355.212 529.944Z" fill="#D9935C"/>
<path d="M307.011 310.367C306.082 333.056 302.687 355.526 292.807 354.078C280.7 352.31 277.545 341.01 276.9 332.606C276.502 327.378 277.078 323.269 277.078 323.269C277.078 323.269 283.036 323.241 284.002 322.352C288.577 318.126 287.218 276.662 289.485 272.355C291.753 268.051 306.451 265.285 306.451 265.285C306.451 265.285 307.936 287.938 307.011 310.367Z" fill="#EE9849"/>
<path d="M307.011 310.367C306.082 333.056 302.687 355.526 292.807 354.078C280.7 352.31 277.544 341.01 276.899 332.606C279.872 332.456 285.105 331.73 287.185 328.558C290.162 324.015 299.451 294.788 299.451 294.788C299.451 294.788 303.109 301.351 307.011 310.367Z" fill="#E58638"/>
<path d="M331.846 533.452C330.755 537.792 329.554 541.925 328.329 545.774C328.066 546.597 327.81 547.409 327.547 548.204C327.417 548.597 327.283 548.986 327.157 549.372C326.898 550.134 326.646 550.881 326.391 551.611C326.058 552.564 325.729 553.493 325.401 554.389C325.162 555.054 324.922 555.707 324.683 556.348C321.049 566.094 318.003 572.272 318.003 572.272L310.763 571.773C310.763 571.773 313.48 558.838 314.024 540.315C314.04 539.654 314.06 538.989 314.073 538.311C314.101 536.875 314.117 535.411 314.117 533.915C314.117 533.302 314.113 532.682 314.109 532.057C313.963 516.101 311.988 497.245 305.685 479.24C300.558 464.602 296.843 450.909 294.158 438.535C298.461 439.423 302.254 438.514 313.253 437.594C314.409 437.496 319.938 444.343 325.397 453.4C325.677 466.152 331.935 472.556 331.935 472.556C339.775 489.417 336.928 513.225 331.846 533.452Z" fill="#233862"/>
<path d="M355.212 529.944C352.867 554.941 342.553 571.108 342.553 571.108L339.033 574.312C339.033 574.312 335.824 556.007 333.508 535.054C331.302 515.14 328.276 494.061 324.853 487.628C319.738 478.016 315.966 458.356 313.253 437.59C317.057 439.172 329.992 443.28 352.754 438.133C350.665 457.44 347.757 473.53 347.08 477.148C347.08 477.152 347.08 477.156 347.076 477.164C346.986 477.638 347.124 478.117 347.347 478.547C355.573 494.815 356.761 513.428 355.212 529.944Z" fill="#2B478B"/>
<path d="M363.126 408.306C363.126 408.306 354.482 410.975 341.755 412.735C325.993 414.913 303.957 415.7 284.278 408.306C284.278 408.306 282.656 379.022 287.32 363.76C291.984 348.489 294.162 341.188 294.162 341.188C294.162 341.188 312.844 345.873 331.818 342.239C334.483 341.732 337.151 341.055 339.776 340.183C339.776 340.183 351.481 365.033 354.697 375.68C357.914 386.327 363.126 408.306 363.126 408.306Z" fill="#2B478B"/>
<path d="M363.125 408.306C363.125 408.306 354.482 410.975 341.754 412.735C318.408 399.496 329.793 343.792 329.793 343.792C330.487 343.228 331.164 342.709 331.817 342.235C334.482 341.728 337.151 341.05 339.775 340.178C339.775 340.178 351.48 365.029 354.697 375.676C357.913 386.323 363.125 408.306 363.125 408.306Z" fill="#233862"/>
<path d="M382.237 352.569C382.237 358.268 376.425 361.772 370.183 363.476C364.184 365.115 357.792 365.094 355.796 363.756C352.349 361.444 346.727 335.749 345.089 327.93C344.792 326.51 344.626 325.683 344.626 325.683C344.626 325.683 340.144 336.378 340.002 337.376C339.937 337.826 339.885 338.443 339.844 338.986C339.8 339.643 339.771 340.187 339.771 340.187C339.771 340.187 315.452 352.464 294.162 341.188C294.162 341.188 285.507 291.166 289.262 282.56C291.128 278.281 300.867 269.455 304.764 265.646C305.64 264.791 305.551 263.095 305.214 261.546C304.935 260.236 306.111 259.084 307.409 259.421C309.915 260.074 314.421 259.96 319.256 258.374C321.661 257.591 324.148 256.439 326.496 254.833C327.182 254.367 328.11 254.797 328.212 255.616C328.581 258.597 329.481 264.044 331.124 264.044C333.391 264.032 348.852 265.93 349.984 267.841C350.378 268.506 354.397 277.603 359.471 289.65C359.471 289.65 359.475 289.658 359.479 289.682C369.007 312.286 382.237 345.277 382.237 352.569Z" fill="#EE9849"/>
<path d="M344.622 325.682C344.622 325.682 340.14 336.378 339.998 337.375C339.934 337.826 339.881 338.442 339.84 338.986C337.674 340.754 335.054 342.093 332.385 342.904C324.805 345.199 321.511 330.667 321.962 323.419C322.416 316.167 333.136 295.473 336.709 295.043C340.278 294.614 344.622 325.682 344.622 325.682Z" fill="#E58638"/>
<path d="M345.084 327.929C344.788 326.509 344.622 325.682 344.622 325.682C344.861 326.448 345.015 327.195 345.084 327.929Z" fill="#E58638"/>
<path d="M314 346.7C300.161 346.7 294.454 341.939 294.032 341.614L293.136 335.096C293.27 335.194 311.838 346.343 340.578 335.664L339.97 340.6C328.917 344.709 321.187 346.7 314 346.7Z" fill="#B64C41"/>
<path d="M382.237 352.569C382.237 358.267 376.425 361.772 370.183 363.475C378.786 353.234 359.966 291.263 359.483 289.681C369.007 312.285 382.237 345.276 382.237 352.569Z" fill="#E58638"/>
<path d="M331.124 264.044C331.124 264.044 319.544 271.377 310.788 269.641C310.788 269.641 308.687 268.315 311.587 266.976C314.308 265.727 320.644 262.024 319.252 258.37C321.658 257.587 324.144 256.435 326.492 254.829C327.178 254.362 328.107 254.792 328.208 255.612C328.577 258.597 329.481 264.044 331.124 264.044Z" fill="#E58638"/>
<path d="M322.172 578.344H317.548C315.999 578.1 314.855 577.65 313.269 577.443C310.856 577.127 309.749 578.116 309.526 578.344C309.497 578.372 309.481 578.388 309.481 578.388H289.846C289.351 577.682 289.826 576.048 290.292 574.847C290.605 574.032 291.286 573.411 292.13 573.168C294.21 572.564 298.315 572.028 302.075 568.625C304.188 566.715 312.288 561.596 312.288 561.596L312.328 561.588C312.507 561.592 313.355 561.852 317.037 564.963C318.944 566.569 322.188 562.696 322.188 562.696C322.188 562.696 322.797 563.199 323.251 564.14C323.616 564.882 323.884 565.9 323.673 567.153C323.381 568.922 324.326 572.211 325.08 574.434C325.539 575.78 325.924 576.737 325.924 576.737C325.924 576.737 326.151 577.845 322.172 578.344Z" fill="#233862"/>
<path d="M323.26 564.136C322.157 564.914 319.829 566.443 318.283 566.646C316.199 566.918 312.297 561.596 312.297 561.596L312.337 561.588C312.516 561.592 313.363 561.852 317.046 564.963C318.952 566.569 322.197 562.696 322.197 562.696C322.197 562.696 322.802 563.199 323.26 564.136Z" fill="#466AA5"/>
<path d="M322.172 578.344H317.548C315.999 578.1 314.855 577.65 313.269 577.443C310.856 577.127 309.749 578.116 309.526 578.344C309.497 578.372 309.481 578.388 309.481 578.388H289.846C289.351 577.682 289.826 576.048 290.292 574.847C290.889 574.316 291.055 577.151 291.388 577.601C291.716 578.051 307.404 577.768 308.313 577.106C309.217 576.449 311.935 575.293 315.727 576.202C319.025 576.989 323.884 574.969 325.088 574.434C325.547 575.78 325.932 576.737 325.932 576.737C325.932 576.737 326.151 577.845 322.172 578.344Z" fill="#466AA5"/>
<path d="M346.842 578.345H342.218C340.669 578.101 339.525 577.651 337.939 577.444C335.526 577.128 334.418 578.117 334.195 578.345C334.167 578.373 334.155 578.389 334.155 578.389H314.52C314.025 577.683 314.5 576.049 314.966 574.848C315.278 574.033 315.96 573.412 316.803 573.169C318.884 572.565 322.989 572.029 326.749 568.626C328.862 566.716 336.962 561.597 336.962 561.597L337.006 561.589C337.185 561.593 338.032 561.853 341.715 564.964C343.621 566.57 346.866 562.697 346.866 562.697C346.866 562.697 347.475 563.2 347.929 564.141C348.294 564.883 348.562 565.901 348.351 567.154C348.059 568.923 349.004 572.212 349.758 574.435C350.216 575.781 350.602 576.738 350.602 576.738C350.602 576.738 350.817 577.846 346.842 578.345Z" fill="#233862"/>
<path d="M347.924 564.136C346.821 564.914 344.492 566.443 342.947 566.646C340.862 566.918 336.961 561.596 336.961 561.596L337.005 561.588C337.184 561.592 338.031 561.852 341.714 564.963C343.62 566.569 346.865 562.696 346.865 562.696C346.865 562.696 347.47 563.199 347.924 564.136Z" fill="#466AA5"/>
<path d="M346.841 578.344H342.217C340.667 578.1 339.524 577.65 337.938 577.443C335.525 577.127 334.417 578.116 334.194 578.344C334.166 578.372 334.154 578.388 334.154 578.388H314.519C314.024 577.682 314.498 576.048 314.965 574.847C315.561 574.316 315.727 577.151 316.06 577.601C316.389 578.051 332.077 577.768 332.986 577.106C333.89 576.449 336.607 575.293 340.4 576.202C343.697 576.989 348.556 574.969 349.761 574.434C350.219 575.78 350.605 576.737 350.605 576.737C350.605 576.737 350.815 577.845 346.841 578.344Z" fill="#466AA5"/>
<path d="M396.17 414.192C395.711 411.896 394.101 410.03 391.907 409.215C388.35 407.897 382.521 406.705 375.358 408.81C363.268 412.363 362.083 419.797 362.882 425.143C363.681 430.489 361.313 439.006 361.662 445.07C362.01 451.133 363.746 466.359 372.698 465.56C381.653 464.761 410.511 457.006 410.511 457.006C410.511 457.006 415.496 447.52 405.255 433.774C399.179 425.621 396.969 418.195 396.17 414.192Z" fill="#D37129"/>
<path d="M390.629 407.187L388.236 407.402C388.236 407.398 387.96 405.747 386.861 404.705C386.018 403.906 384.845 403.618 383.389 403.853C382.01 404.072 381.017 404.705 380.514 405.727C379.804 407.159 380.197 409.008 380.201 409.029L377.869 409.568C377.841 409.442 377.163 406.441 378.388 403.918C379.228 402.178 380.733 401.172 382.813 400.783C384.959 400.438 386.772 400.961 388.208 402.34C390.183 404.243 390.613 407.07 390.629 407.187Z" fill="#D37129"/>
<path d="M416.441 455.652C416.441 455.652 387.579 463.427 378.619 464.21C369.668 465.025 367.924 449.795 367.595 443.715C367.242 437.672 369.603 429.146 368.816 423.788C368.654 422.774 368.56 421.651 368.633 420.519C368.864 415.749 371.533 410.335 381.272 407.475C388.455 405.358 394.263 406.567 397.836 407.885C400.018 408.7 401.649 410.558 402.103 412.849C402.208 413.316 402.306 413.883 402.432 414.443C403.462 418.698 405.839 425.301 411.188 432.439C421.438 446.173 416.441 455.652 416.441 455.652Z" fill="#F1A34F"/>
<path opacity="0.4" d="M371.955 444.996L389.351 441.058C389.351 441.058 393.399 453.514 385.177 455.785C376.956 458.053 373.545 453.23 371.955 444.996Z" fill="#D86713"/>
<path d="M371.955 444.996C371.955 444.996 375.97 448.866 381.393 447.499C386.816 446.136 389.351 441.058 389.351 441.058L371.955 444.996Z" fill="#D37129"/>
<path opacity="0.4" d="M392.88 440.259L410.276 436.325C410.276 436.325 414.324 448.781 406.102 451.052C397.881 453.319 394.47 448.497 392.88 440.259Z" fill="#D86713"/>
<path d="M392.88 440.259C392.88 440.259 396.895 444.129 402.318 442.762C407.741 441.399 410.276 436.321 410.276 436.321L392.88 440.259Z" fill="#D37129"/>
<path opacity="0.4" d="M402.107 412.849C402.212 413.315 402.31 413.883 402.436 414.443C400.136 419.188 395.776 425.252 388.398 426.659C375.853 429.105 368.637 420.519 368.637 420.519C368.869 415.749 371.537 410.334 381.276 407.475C388.459 405.357 394.267 406.566 397.84 407.884C400.022 408.704 401.653 410.561 402.107 412.849Z" fill="#D86713"/>
<path d="M388.577 429.292C387.79 429.471 387.003 428.972 386.825 428.189L386.533 426.891C386.354 426.104 386.853 425.317 387.636 425.139C388.423 424.96 389.21 425.459 389.388 426.242L389.68 427.54C389.859 428.323 389.36 429.114 388.577 429.292Z" fill="#D86713"/>
<path d="M379.369 385.009C379.369 385.009 381.373 389.73 383.458 391.048C385.542 392.366 387.526 395.53 387.96 398.077C388.755 402.754 385.169 405.654 382.533 405.654C379.896 405.654 377.378 402.06 375.828 393.478C375.743 393.007 373.241 388.083 373.241 388.083L379.369 385.009Z" fill="#D9935C"/>
<path d="M395.992 61.5586C363.853 61.5586 337.704 87.7073 337.704 119.847C337.704 151.986 363.853 178.131 395.992 178.131C428.131 178.131 454.28 151.986 454.28 119.847C454.276 87.7073 428.131 61.5586 395.992 61.5586ZM395.992 174.33C365.95 174.33 341.508 149.889 341.508 119.847C341.508 89.8042 365.95 65.3631 395.992 65.3631C426.034 65.3631 450.476 89.8042 450.476 119.847C450.476 149.889 426.034 174.33 395.992 174.33Z" fill="#F9DDBF"/>
<path d="M395.992 75.6618C397.273 75.6618 398.316 74.6235 398.316 73.3377C398.316 72.056 397.278 71.0137 395.992 71.0137C394.71 71.0137 393.668 72.052 393.668 73.3377C393.668 74.6194 394.71 75.6618 395.992 75.6618Z" fill="#F9DDBF"/>
<path d="M395.992 164.783C394.71 164.783 393.668 165.826 393.668 167.107C393.668 168.389 394.706 169.431 395.992 169.431C397.273 169.431 398.316 168.393 398.316 167.107C398.316 165.826 397.273 164.783 395.992 164.783Z" fill="#F9DDBF"/>
<path d="M440.555 117.9C439.273 117.9 438.231 118.939 438.231 120.224C438.231 121.506 439.269 122.549 440.555 122.549C441.836 122.549 442.879 121.51 442.879 120.224C442.875 118.939 441.836 117.9 440.555 117.9Z" fill="#F9DDBF"/>
<path d="M417.675 157.117C416.791 158.046 416.823 159.518 417.752 160.402C418.681 161.287 420.149 161.254 421.037 160.325C421.921 159.396 421.889 157.928 420.96 157.04C420.031 156.156 418.559 156.188 417.675 157.117Z" fill="#F9DDBF"/>
<path d="M432.881 142.662C431.997 143.591 432.029 145.063 432.958 145.947C433.887 146.831 435.359 146.799 436.243 145.87C437.127 144.941 437.095 143.469 436.166 142.585C435.237 141.701 433.765 141.737 432.881 142.662Z" fill="#F9DDBF"/>
<path d="M435.57 100.139C436.726 99.5831 437.213 98.1919 436.657 97.036C436.101 95.88 434.71 95.3933 433.554 95.953C432.398 96.5087 431.912 97.8999 432.471 99.0558C433.027 100.212 434.414 100.694 435.57 100.139Z" fill="#F9DDBF"/>
<path d="M420.616 80.3096C419.537 79.612 418.101 79.9243 417.403 81.0032C416.706 82.0821 417.018 83.5179 418.097 84.2155C419.176 84.9131 420.612 84.6008 421.309 83.5219C422.003 82.4431 421.694 81.0073 420.616 80.3096Z" fill="#F9DDBF"/>
<path d="M354.8 117.121C353.518 117.121 352.476 118.159 352.476 119.445C352.476 120.727 353.514 121.769 354.8 121.769C356.081 121.769 357.124 120.731 357.124 119.445C357.12 118.159 356.081 117.121 354.8 117.121Z" fill="#F9DDBF"/>
<path d="M374.391 156.261C373.462 157.145 373.425 158.618 374.313 159.546C375.198 160.475 376.67 160.512 377.599 159.623C378.528 158.739 378.564 157.267 377.676 156.338C376.792 155.409 375.319 155.377 374.391 156.261Z" fill="#F9DDBF"/>
<path d="M359.184 141.806C358.255 142.69 358.219 144.163 359.107 145.091C359.991 146.02 361.463 146.057 362.392 145.168C363.321 144.284 363.357 142.812 362.469 141.883C361.585 140.958 360.113 140.922 359.184 141.806Z" fill="#F9DDBF"/>
<path d="M359.781 99.3602C360.937 99.9158 362.324 99.4332 362.884 98.2772C363.439 97.1213 362.957 95.7341 361.801 95.1744C360.645 94.6187 359.258 95.1014 358.698 96.2574C358.138 97.4174 358.625 98.8045 359.781 99.3602Z" fill="#F9DDBF"/>
<path d="M374.735 79.5305C373.656 80.2281 373.348 81.6639 374.041 82.7428C374.739 83.8217 376.175 84.1299 377.254 83.4364C378.333 82.7388 378.641 81.3029 377.947 80.2241C377.25 79.1452 375.814 78.8369 374.735 79.5305Z" fill="#F9DDBF"/>
<path d="M417.889 102.808L398.899 115.929C398.83 115.888 398.762 115.848 398.689 115.811L396.652 79.9365V115.811C395.882 116.189 395.355 116.98 395.355 117.896C395.355 119.178 396.393 120.22 397.679 120.22C398.96 120.22 400.003 119.182 400.003 117.896C400.003 117.779 399.991 117.665 399.974 117.551L417.889 102.808Z" fill="#F9DDBF"/>
<path d="M677.439 581.36H10.5603C9.79711 581.36 9.17322 580.715 9.17322 579.927C9.17322 579.138 9.79711 578.493 10.5603 578.493H677.439C678.203 578.493 678.826 579.138 678.826 579.927C678.826 580.715 678.203 581.36 677.439 581.36Z" fill="#2E3552"/>
</g>
<defs>
<clipPath id="clip0">
<rect width="688" height="688" fill="white"/>
</clipPath>
</defs>
</svg>
