<svg width="402" height="402" viewBox="0 0 402 402" fill="none" xmlns="http://www.w3.org/2000/svg">
<path d="M164.05 344.356C158.617 347.076 152.009 344.876 149.289 339.444L64.5772 170.219C61.2318 163.536 60.9239 155.737 63.7319 148.812L88.4826 87.7657C91.1319 81.2314 96.0711 75.8861 102.376 72.7298L167.26 40.2495C171.211 38.2717 176.017 39.8712 177.995 43.8221L290.576 268.717C293.295 274.15 291.096 280.758 285.663 283.478L164.05 344.356Z" fill="#D8DD50"/>
<path d="M190.151 251.838C189.75 258.076 184.238 262.726 178.022 262.071L106.75 254.57L112.455 113.479C112.797 105.028 117.228 97.2711 124.335 92.6844L183.5 54.4999L199.294 84.068C200.259 85.8741 200.7 87.9136 200.569 89.9571L190.151 251.838Z" fill="#A1A63C"/>
<path d="M101.572 313.016C95.577 312.035 91.5124 306.379 92.4938 300.384L124.161 106.933C124.671 103.812 126.5 101.063 129.18 99.3852L196.523 57.2366C198.79 55.8177 201.497 55.2733 204.136 55.7054L279.484 68.0392C285.479 69.0206 289.543 74.6764 288.562 80.6717L248.419 325.908C247.437 331.903 241.781 335.968 235.786 334.986L101.572 313.016Z" fill="#5596CC"/>
<path d="M176.982 253.679C172.961 258.352 165.886 258.81 161.297 254.693L107.785 206.686L205.595 82.2614C209.385 77.4402 215.477 75.0339 221.539 75.9642L287.742 86.1257L280.013 131.489C279.677 133.459 278.812 135.3 277.508 136.815L176.982 253.679Z" fill="#3E7098"/>
<path d="M83.7438 246.284C79.448 241.988 79.448 235.023 83.7438 230.727L222.355 92.1158C224.591 89.88 227.681 88.7145 230.836 88.9164L310.119 93.9906C312.788 94.1614 315.304 95.2987 317.195 97.1899L371.183 151.178C375.478 155.473 375.478 162.438 371.183 166.734L195.467 342.45C191.171 346.746 184.206 346.746 179.91 342.45L83.7438 246.284Z" fill="#E1643A"/>
<path fill-rule="evenodd" clip-rule="evenodd" d="M124.756 234.97C120.851 238.875 120.851 245.207 124.756 249.112L135.362 259.719L153.04 242.041L135.362 224.363L124.756 234.97ZM179.203 180.523L168.597 191.129L186.274 208.807L203.952 191.129L193.345 180.523C189.44 176.617 183.108 176.617 179.203 180.523ZM220.215 242.748L237.893 225.07L248.5 235.677C252.405 239.582 252.405 245.914 248.5 249.819L237.893 260.426L220.215 242.748ZM191.224 271.739L169.304 293.66L179.91 304.266C183.815 308.172 190.147 308.172 194.052 304.266L233.65 264.668L164.707 195.726L139.959 220.474L191.224 271.739ZM205.366 227.899L223.044 210.221L233.65 220.828L215.973 238.505L205.366 227.899ZM172.132 261.133L154.454 278.811L165.061 289.417L182.739 271.739L172.132 261.133ZM190.517 213.05L208.194 195.372L218.801 205.979L201.123 223.656L190.517 213.05ZM157.283 246.284L139.605 263.961L150.212 274.568L167.889 256.89L157.283 246.284Z" fill="#9C4E36"/>
<path fill-rule="evenodd" clip-rule="evenodd" d="M124.756 232.142C120.851 236.047 120.851 242.378 124.756 246.284L135.362 256.89L153.04 239.213L135.362 221.535L124.756 232.142ZM179.203 177.694L168.597 188.301L186.274 205.979L203.952 188.301L193.345 177.694C189.44 173.789 183.108 173.789 179.203 177.694ZM220.215 239.92L237.893 222.242L248.5 232.849C252.405 236.754 252.405 243.086 248.5 246.991L237.893 257.597L220.215 239.92ZM191.224 268.911L169.304 290.831L179.91 301.438C183.815 305.343 190.147 305.343 194.052 301.438L233.65 261.84L164.707 192.897L139.959 217.646L191.224 268.911ZM205.366 225.071L223.044 207.393L233.65 217.999L215.973 235.677L205.366 225.071ZM172.132 258.305L154.454 275.982L165.061 286.589L182.739 268.911L172.132 258.305ZM190.517 210.221L208.194 192.544L218.801 203.15L201.123 220.828L190.517 210.221ZM157.283 243.455L139.605 261.133L150.212 271.74L167.889 254.062L157.283 243.455Z" fill="#FCFDF8"/>
</svg>
